G04 EAGLE Gerber RS-274X export*
G75*
%MOMM*%
%FSLAX34Y34*%
%LPD*%
%INSilkscreen Top*%
%IPPOS*%
%AMOC8*
5,1,8,0,0,1.08239X$1,22.5*%
G01*
%ADD10C,0.228600*%


D10*
X-12222Y237765D02*
X-3163Y237765D01*
X-3163Y242295D02*
X-12222Y242295D01*
X-9957Y246825D02*
X-9957Y233236D01*
X-5427Y233236D02*
X-5427Y246825D01*
X2434Y233236D02*
X11494Y246825D01*
X2434Y246825D02*
X11494Y233236D01*
X17372Y243805D02*
X21147Y246825D01*
X21147Y233236D01*
X17372Y233236D02*
X24922Y233236D01*
X-35963Y-30036D02*
X-35963Y-43625D01*
X-39738Y-30036D02*
X-32189Y-30036D01*
X-25837Y-30036D02*
X-25837Y-43625D01*
X-21307Y-37585D02*
X-25837Y-30036D01*
X-21307Y-37585D02*
X-16778Y-30036D01*
X-16778Y-43625D01*
X-6516Y-43625D02*
X-3496Y-43625D01*
X-6516Y-43625D02*
X-6624Y-43623D01*
X-6731Y-43617D01*
X-6839Y-43608D01*
X-6946Y-43594D01*
X-7052Y-43577D01*
X-7158Y-43556D01*
X-7263Y-43531D01*
X-7367Y-43503D01*
X-7470Y-43470D01*
X-7571Y-43435D01*
X-7672Y-43395D01*
X-7771Y-43352D01*
X-7868Y-43306D01*
X-7963Y-43256D01*
X-8057Y-43202D01*
X-8149Y-43146D01*
X-8238Y-43086D01*
X-8326Y-43023D01*
X-8411Y-42956D01*
X-8494Y-42887D01*
X-8574Y-42815D01*
X-8651Y-42740D01*
X-8726Y-42663D01*
X-8798Y-42583D01*
X-8867Y-42500D01*
X-8934Y-42415D01*
X-8997Y-42327D01*
X-9057Y-42238D01*
X-9113Y-42146D01*
X-9167Y-42052D01*
X-9217Y-41957D01*
X-9263Y-41860D01*
X-9306Y-41761D01*
X-9346Y-41660D01*
X-9381Y-41559D01*
X-9414Y-41456D01*
X-9442Y-41352D01*
X-9467Y-41247D01*
X-9488Y-41141D01*
X-9505Y-41035D01*
X-9519Y-40928D01*
X-9528Y-40820D01*
X-9534Y-40713D01*
X-9536Y-40605D01*
X-9536Y-33055D01*
X-9534Y-32947D01*
X-9528Y-32840D01*
X-9519Y-32732D01*
X-9505Y-32625D01*
X-9488Y-32519D01*
X-9467Y-32413D01*
X-9442Y-32308D01*
X-9414Y-32204D01*
X-9381Y-32101D01*
X-9346Y-32000D01*
X-9306Y-31899D01*
X-9263Y-31800D01*
X-9217Y-31703D01*
X-9167Y-31608D01*
X-9113Y-31514D01*
X-9057Y-31422D01*
X-8997Y-31333D01*
X-8934Y-31245D01*
X-8868Y-31160D01*
X-8798Y-31077D01*
X-8726Y-30997D01*
X-8651Y-30920D01*
X-8574Y-30845D01*
X-8494Y-30773D01*
X-8411Y-30704D01*
X-8326Y-30637D01*
X-8238Y-30574D01*
X-8149Y-30514D01*
X-8057Y-30458D01*
X-7963Y-30404D01*
X-7868Y-30354D01*
X-7771Y-30308D01*
X-7672Y-30265D01*
X-7571Y-30225D01*
X-7470Y-30190D01*
X-7367Y-30157D01*
X-7263Y-30129D01*
X-7158Y-30104D01*
X-7052Y-30083D01*
X-6946Y-30066D01*
X-6839Y-30052D01*
X-6732Y-30043D01*
X-6624Y-30037D01*
X-6516Y-30035D01*
X-6516Y-30036D02*
X-3496Y-30036D01*
X2339Y-36075D02*
X6869Y-36075D01*
X6977Y-36077D01*
X7084Y-36083D01*
X7192Y-36092D01*
X7299Y-36106D01*
X7405Y-36123D01*
X7511Y-36144D01*
X7616Y-36169D01*
X7720Y-36197D01*
X7823Y-36230D01*
X7924Y-36265D01*
X8025Y-36305D01*
X8124Y-36348D01*
X8221Y-36394D01*
X8316Y-36444D01*
X8410Y-36498D01*
X8502Y-36554D01*
X8591Y-36614D01*
X8679Y-36677D01*
X8764Y-36744D01*
X8847Y-36813D01*
X8927Y-36885D01*
X9004Y-36960D01*
X9079Y-37037D01*
X9151Y-37117D01*
X9221Y-37200D01*
X9287Y-37285D01*
X9350Y-37373D01*
X9410Y-37462D01*
X9466Y-37554D01*
X9520Y-37648D01*
X9570Y-37743D01*
X9616Y-37840D01*
X9659Y-37939D01*
X9699Y-38040D01*
X9734Y-38141D01*
X9767Y-38244D01*
X9795Y-38348D01*
X9820Y-38453D01*
X9841Y-38559D01*
X9858Y-38665D01*
X9872Y-38772D01*
X9881Y-38880D01*
X9887Y-38987D01*
X9889Y-39095D01*
X9888Y-39095D02*
X9888Y-39850D01*
X9889Y-39850D02*
X9887Y-39971D01*
X9881Y-40092D01*
X9872Y-40212D01*
X9858Y-40333D01*
X9841Y-40452D01*
X9819Y-40572D01*
X9794Y-40690D01*
X9766Y-40808D01*
X9733Y-40924D01*
X9697Y-41040D01*
X9657Y-41154D01*
X9613Y-41267D01*
X9566Y-41378D01*
X9515Y-41488D01*
X9461Y-41596D01*
X9403Y-41702D01*
X9342Y-41807D01*
X9278Y-41909D01*
X9210Y-42010D01*
X9139Y-42108D01*
X9065Y-42204D01*
X8988Y-42297D01*
X8909Y-42388D01*
X8826Y-42476D01*
X8740Y-42562D01*
X8652Y-42645D01*
X8561Y-42724D01*
X8468Y-42801D01*
X8372Y-42875D01*
X8274Y-42946D01*
X8173Y-43014D01*
X8071Y-43078D01*
X7966Y-43139D01*
X7860Y-43197D01*
X7752Y-43251D01*
X7642Y-43302D01*
X7531Y-43349D01*
X7418Y-43393D01*
X7304Y-43433D01*
X7188Y-43469D01*
X7072Y-43502D01*
X6954Y-43530D01*
X6836Y-43555D01*
X6716Y-43577D01*
X6597Y-43594D01*
X6476Y-43608D01*
X6356Y-43617D01*
X6235Y-43623D01*
X6114Y-43625D01*
X5993Y-43623D01*
X5872Y-43617D01*
X5752Y-43608D01*
X5631Y-43594D01*
X5512Y-43577D01*
X5392Y-43555D01*
X5274Y-43530D01*
X5156Y-43502D01*
X5040Y-43469D01*
X4924Y-43433D01*
X4810Y-43393D01*
X4697Y-43349D01*
X4586Y-43302D01*
X4476Y-43251D01*
X4368Y-43197D01*
X4262Y-43139D01*
X4157Y-43078D01*
X4055Y-43014D01*
X3954Y-42946D01*
X3856Y-42875D01*
X3760Y-42801D01*
X3667Y-42724D01*
X3576Y-42645D01*
X3488Y-42562D01*
X3402Y-42476D01*
X3319Y-42388D01*
X3240Y-42297D01*
X3163Y-42204D01*
X3089Y-42108D01*
X3018Y-42010D01*
X2950Y-41909D01*
X2886Y-41807D01*
X2825Y-41702D01*
X2767Y-41596D01*
X2713Y-41488D01*
X2662Y-41378D01*
X2615Y-41267D01*
X2571Y-41154D01*
X2531Y-41040D01*
X2495Y-40924D01*
X2462Y-40808D01*
X2434Y-40690D01*
X2409Y-40572D01*
X2387Y-40452D01*
X2370Y-40333D01*
X2356Y-40212D01*
X2347Y-40092D01*
X2341Y-39971D01*
X2339Y-39850D01*
X2339Y-36075D01*
X2341Y-35922D01*
X2347Y-35769D01*
X2356Y-35616D01*
X2370Y-35464D01*
X2387Y-35312D01*
X2409Y-35160D01*
X2434Y-35009D01*
X2463Y-34859D01*
X2495Y-34710D01*
X2532Y-34561D01*
X2572Y-34413D01*
X2616Y-34267D01*
X2664Y-34121D01*
X2715Y-33977D01*
X2770Y-33834D01*
X2828Y-33693D01*
X2891Y-33553D01*
X2956Y-33415D01*
X3025Y-33279D01*
X3098Y-33144D01*
X3174Y-33011D01*
X3253Y-32880D01*
X3336Y-32751D01*
X3422Y-32625D01*
X3511Y-32500D01*
X3603Y-32378D01*
X3698Y-32258D01*
X3796Y-32141D01*
X3897Y-32026D01*
X4001Y-31914D01*
X4108Y-31804D01*
X4218Y-31697D01*
X4330Y-31593D01*
X4445Y-31492D01*
X4562Y-31394D01*
X4682Y-31299D01*
X4804Y-31207D01*
X4929Y-31118D01*
X5055Y-31032D01*
X5184Y-30949D01*
X5315Y-30870D01*
X5448Y-30794D01*
X5582Y-30721D01*
X5719Y-30652D01*
X5857Y-30587D01*
X5997Y-30525D01*
X6138Y-30466D01*
X6281Y-30411D01*
X6425Y-30360D01*
X6571Y-30312D01*
X6717Y-30268D01*
X6865Y-30228D01*
X7014Y-30191D01*
X7163Y-30159D01*
X7313Y-30130D01*
X7464Y-30105D01*
X7616Y-30083D01*
X7768Y-30066D01*
X7920Y-30052D01*
X8073Y-30043D01*
X8226Y-30037D01*
X8379Y-30035D01*
X16522Y-43625D02*
X20297Y-43625D01*
X20418Y-43623D01*
X20539Y-43617D01*
X20659Y-43608D01*
X20780Y-43594D01*
X20899Y-43577D01*
X21019Y-43555D01*
X21137Y-43530D01*
X21255Y-43502D01*
X21371Y-43469D01*
X21487Y-43433D01*
X21601Y-43393D01*
X21714Y-43349D01*
X21825Y-43302D01*
X21935Y-43251D01*
X22043Y-43197D01*
X22149Y-43139D01*
X22254Y-43078D01*
X22356Y-43014D01*
X22457Y-42946D01*
X22555Y-42875D01*
X22651Y-42801D01*
X22744Y-42724D01*
X22835Y-42645D01*
X22923Y-42562D01*
X23009Y-42476D01*
X23092Y-42388D01*
X23171Y-42297D01*
X23248Y-42204D01*
X23322Y-42108D01*
X23393Y-42010D01*
X23461Y-41909D01*
X23525Y-41807D01*
X23586Y-41702D01*
X23644Y-41596D01*
X23698Y-41488D01*
X23749Y-41378D01*
X23796Y-41267D01*
X23840Y-41154D01*
X23880Y-41040D01*
X23916Y-40924D01*
X23949Y-40808D01*
X23977Y-40690D01*
X24002Y-40572D01*
X24024Y-40452D01*
X24041Y-40333D01*
X24055Y-40212D01*
X24064Y-40092D01*
X24070Y-39971D01*
X24072Y-39850D01*
X24070Y-39729D01*
X24064Y-39608D01*
X24055Y-39488D01*
X24041Y-39367D01*
X24024Y-39248D01*
X24002Y-39128D01*
X23977Y-39010D01*
X23949Y-38892D01*
X23916Y-38776D01*
X23880Y-38660D01*
X23840Y-38546D01*
X23796Y-38433D01*
X23749Y-38322D01*
X23698Y-38212D01*
X23644Y-38104D01*
X23586Y-37998D01*
X23525Y-37893D01*
X23461Y-37791D01*
X23393Y-37690D01*
X23322Y-37592D01*
X23248Y-37496D01*
X23171Y-37403D01*
X23092Y-37312D01*
X23009Y-37224D01*
X22923Y-37138D01*
X22835Y-37055D01*
X22744Y-36976D01*
X22651Y-36899D01*
X22555Y-36825D01*
X22457Y-36754D01*
X22356Y-36686D01*
X22254Y-36622D01*
X22149Y-36561D01*
X22043Y-36503D01*
X21935Y-36449D01*
X21825Y-36398D01*
X21714Y-36351D01*
X21601Y-36307D01*
X21487Y-36267D01*
X21371Y-36231D01*
X21255Y-36198D01*
X21137Y-36170D01*
X21019Y-36145D01*
X20899Y-36123D01*
X20780Y-36106D01*
X20659Y-36092D01*
X20539Y-36083D01*
X20418Y-36077D01*
X20297Y-36075D01*
X21052Y-30036D02*
X16522Y-30036D01*
X21052Y-30035D02*
X21161Y-30037D01*
X21270Y-30043D01*
X21379Y-30053D01*
X21487Y-30066D01*
X21594Y-30084D01*
X21701Y-30106D01*
X21807Y-30131D01*
X21912Y-30160D01*
X22016Y-30193D01*
X22119Y-30230D01*
X22220Y-30270D01*
X22320Y-30314D01*
X22418Y-30362D01*
X22515Y-30413D01*
X22609Y-30467D01*
X22701Y-30525D01*
X22792Y-30586D01*
X22880Y-30651D01*
X22965Y-30718D01*
X23048Y-30789D01*
X23129Y-30862D01*
X23207Y-30939D01*
X23282Y-31018D01*
X23354Y-31100D01*
X23423Y-31184D01*
X23489Y-31271D01*
X23552Y-31360D01*
X23611Y-31452D01*
X23667Y-31545D01*
X23720Y-31640D01*
X23770Y-31738D01*
X23815Y-31837D01*
X23858Y-31937D01*
X23896Y-32039D01*
X23931Y-32143D01*
X23962Y-32247D01*
X23989Y-32353D01*
X24013Y-32459D01*
X24032Y-32566D01*
X24048Y-32674D01*
X24060Y-32783D01*
X24068Y-32892D01*
X24072Y-33000D01*
X24072Y-33110D01*
X24068Y-33218D01*
X24060Y-33327D01*
X24048Y-33436D01*
X24032Y-33544D01*
X24013Y-33651D01*
X23989Y-33757D01*
X23962Y-33863D01*
X23931Y-33967D01*
X23896Y-34071D01*
X23858Y-34173D01*
X23815Y-34273D01*
X23770Y-34372D01*
X23720Y-34470D01*
X23667Y-34565D01*
X23611Y-34658D01*
X23552Y-34750D01*
X23489Y-34839D01*
X23423Y-34926D01*
X23354Y-35010D01*
X23282Y-35092D01*
X23207Y-35171D01*
X23129Y-35248D01*
X23048Y-35321D01*
X22965Y-35392D01*
X22880Y-35459D01*
X22792Y-35524D01*
X22701Y-35585D01*
X22609Y-35643D01*
X22515Y-35697D01*
X22418Y-35748D01*
X22320Y-35796D01*
X22220Y-35840D01*
X22119Y-35880D01*
X22016Y-35917D01*
X21912Y-35950D01*
X21807Y-35979D01*
X21701Y-36004D01*
X21594Y-36026D01*
X21487Y-36044D01*
X21379Y-36057D01*
X21270Y-36067D01*
X21161Y-36073D01*
X21052Y-36075D01*
X18032Y-36075D01*
X30706Y-36830D02*
X30709Y-36563D01*
X30719Y-36296D01*
X30735Y-36029D01*
X30757Y-35762D01*
X30786Y-35496D01*
X30821Y-35231D01*
X30862Y-34967D01*
X30910Y-34704D01*
X30963Y-34442D01*
X31024Y-34182D01*
X31090Y-33923D01*
X31162Y-33666D01*
X31241Y-33410D01*
X31326Y-33157D01*
X31416Y-32905D01*
X31513Y-32656D01*
X31616Y-32409D01*
X31724Y-32165D01*
X31838Y-31923D01*
X31874Y-31825D01*
X31913Y-31727D01*
X31957Y-31632D01*
X32003Y-31538D01*
X32054Y-31445D01*
X32107Y-31355D01*
X32165Y-31267D01*
X32225Y-31181D01*
X32288Y-31098D01*
X32355Y-31016D01*
X32425Y-30938D01*
X32497Y-30862D01*
X32572Y-30789D01*
X32650Y-30719D01*
X32731Y-30651D01*
X32814Y-30587D01*
X32900Y-30526D01*
X32987Y-30468D01*
X33077Y-30414D01*
X33169Y-30363D01*
X33262Y-30315D01*
X33358Y-30271D01*
X33455Y-30231D01*
X33553Y-30194D01*
X33653Y-30161D01*
X33754Y-30132D01*
X33855Y-30107D01*
X33958Y-30085D01*
X34062Y-30068D01*
X34166Y-30054D01*
X34270Y-30044D01*
X34375Y-30038D01*
X34480Y-30036D01*
X34585Y-30038D01*
X34690Y-30044D01*
X34794Y-30054D01*
X34898Y-30068D01*
X35002Y-30085D01*
X35105Y-30107D01*
X35207Y-30132D01*
X35307Y-30161D01*
X35407Y-30194D01*
X35505Y-30231D01*
X35602Y-30271D01*
X35698Y-30315D01*
X35791Y-30363D01*
X35883Y-30414D01*
X35973Y-30468D01*
X36060Y-30526D01*
X36146Y-30587D01*
X36229Y-30651D01*
X36310Y-30719D01*
X36388Y-30789D01*
X36463Y-30862D01*
X36535Y-30938D01*
X36605Y-31017D01*
X36672Y-31098D01*
X36735Y-31181D01*
X36796Y-31267D01*
X36853Y-31355D01*
X36906Y-31446D01*
X36957Y-31538D01*
X37003Y-31632D01*
X37047Y-31727D01*
X37086Y-31825D01*
X37122Y-31923D01*
X37123Y-31923D02*
X37237Y-32165D01*
X37345Y-32409D01*
X37448Y-32656D01*
X37545Y-32905D01*
X37635Y-33157D01*
X37720Y-33410D01*
X37799Y-33666D01*
X37871Y-33923D01*
X37937Y-34182D01*
X37998Y-34442D01*
X38051Y-34704D01*
X38099Y-34967D01*
X38140Y-35231D01*
X38175Y-35496D01*
X38204Y-35762D01*
X38226Y-36029D01*
X38242Y-36296D01*
X38252Y-36563D01*
X38255Y-36830D01*
X30706Y-36830D02*
X30709Y-37097D01*
X30719Y-37364D01*
X30735Y-37631D01*
X30757Y-37898D01*
X30786Y-38164D01*
X30821Y-38429D01*
X30862Y-38693D01*
X30910Y-38956D01*
X30963Y-39218D01*
X31024Y-39478D01*
X31090Y-39737D01*
X31162Y-39994D01*
X31241Y-40250D01*
X31326Y-40503D01*
X31416Y-40755D01*
X31513Y-41004D01*
X31616Y-41251D01*
X31724Y-41495D01*
X31838Y-41737D01*
X31874Y-41836D01*
X31913Y-41933D01*
X31957Y-42028D01*
X32004Y-42122D01*
X32054Y-42215D01*
X32107Y-42305D01*
X32165Y-42393D01*
X32225Y-42479D01*
X32288Y-42562D01*
X32355Y-42644D01*
X32425Y-42722D01*
X32497Y-42798D01*
X32572Y-42871D01*
X32651Y-42941D01*
X32731Y-43009D01*
X32814Y-43073D01*
X32900Y-43134D01*
X32987Y-43192D01*
X33077Y-43246D01*
X33169Y-43297D01*
X33262Y-43345D01*
X33358Y-43389D01*
X33455Y-43429D01*
X33553Y-43466D01*
X33653Y-43499D01*
X33754Y-43528D01*
X33855Y-43553D01*
X33958Y-43575D01*
X34062Y-43592D01*
X34166Y-43606D01*
X34270Y-43616D01*
X34375Y-43622D01*
X34480Y-43624D01*
X37123Y-41737D02*
X37237Y-41495D01*
X37345Y-41251D01*
X37448Y-41004D01*
X37545Y-40755D01*
X37635Y-40503D01*
X37720Y-40250D01*
X37799Y-39994D01*
X37871Y-39737D01*
X37937Y-39478D01*
X37998Y-39218D01*
X38051Y-38956D01*
X38099Y-38693D01*
X38140Y-38429D01*
X38175Y-38164D01*
X38204Y-37898D01*
X38226Y-37631D01*
X38242Y-37364D01*
X38252Y-37097D01*
X38255Y-36830D01*
X37122Y-41737D02*
X37086Y-41835D01*
X37047Y-41933D01*
X37003Y-42028D01*
X36957Y-42122D01*
X36906Y-42215D01*
X36853Y-42305D01*
X36795Y-42393D01*
X36735Y-42479D01*
X36672Y-42562D01*
X36605Y-42644D01*
X36535Y-42722D01*
X36463Y-42798D01*
X36388Y-42871D01*
X36310Y-42941D01*
X36229Y-43009D01*
X36146Y-43073D01*
X36060Y-43134D01*
X35973Y-43192D01*
X35883Y-43246D01*
X35791Y-43297D01*
X35698Y-43345D01*
X35602Y-43389D01*
X35505Y-43429D01*
X35407Y-43466D01*
X35307Y-43499D01*
X35206Y-43528D01*
X35105Y-43553D01*
X35002Y-43575D01*
X34898Y-43592D01*
X34794Y-43606D01*
X34690Y-43616D01*
X34585Y-43622D01*
X34480Y-43624D01*
X31460Y-40605D02*
X37500Y-33055D01*
X44889Y-36830D02*
X44892Y-36563D01*
X44902Y-36296D01*
X44918Y-36029D01*
X44940Y-35762D01*
X44969Y-35496D01*
X45004Y-35231D01*
X45045Y-34967D01*
X45093Y-34704D01*
X45146Y-34442D01*
X45207Y-34182D01*
X45273Y-33923D01*
X45345Y-33666D01*
X45424Y-33410D01*
X45509Y-33157D01*
X45599Y-32905D01*
X45696Y-32656D01*
X45799Y-32409D01*
X45907Y-32165D01*
X46021Y-31923D01*
X46057Y-31825D01*
X46096Y-31727D01*
X46140Y-31632D01*
X46186Y-31538D01*
X46237Y-31445D01*
X46290Y-31355D01*
X46348Y-31267D01*
X46408Y-31181D01*
X46471Y-31098D01*
X46538Y-31016D01*
X46608Y-30938D01*
X46680Y-30862D01*
X46755Y-30789D01*
X46833Y-30719D01*
X46914Y-30651D01*
X46997Y-30587D01*
X47083Y-30526D01*
X47170Y-30468D01*
X47260Y-30414D01*
X47352Y-30363D01*
X47445Y-30315D01*
X47541Y-30271D01*
X47638Y-30231D01*
X47736Y-30194D01*
X47836Y-30161D01*
X47937Y-30132D01*
X48038Y-30107D01*
X48141Y-30085D01*
X48245Y-30068D01*
X48349Y-30054D01*
X48453Y-30044D01*
X48558Y-30038D01*
X48663Y-30036D01*
X48768Y-30038D01*
X48873Y-30044D01*
X48977Y-30054D01*
X49081Y-30068D01*
X49185Y-30085D01*
X49288Y-30107D01*
X49390Y-30132D01*
X49490Y-30161D01*
X49590Y-30194D01*
X49688Y-30231D01*
X49785Y-30271D01*
X49881Y-30315D01*
X49974Y-30363D01*
X50066Y-30414D01*
X50156Y-30468D01*
X50243Y-30526D01*
X50329Y-30587D01*
X50412Y-30651D01*
X50493Y-30719D01*
X50571Y-30789D01*
X50646Y-30862D01*
X50718Y-30938D01*
X50788Y-31017D01*
X50855Y-31098D01*
X50918Y-31181D01*
X50979Y-31267D01*
X51036Y-31355D01*
X51089Y-31446D01*
X51140Y-31538D01*
X51186Y-31632D01*
X51230Y-31727D01*
X51269Y-31825D01*
X51305Y-31923D01*
X51306Y-31923D02*
X51420Y-32165D01*
X51528Y-32409D01*
X51631Y-32656D01*
X51728Y-32905D01*
X51818Y-33157D01*
X51903Y-33410D01*
X51982Y-33666D01*
X52054Y-33923D01*
X52120Y-34182D01*
X52181Y-34442D01*
X52234Y-34704D01*
X52282Y-34967D01*
X52323Y-35231D01*
X52358Y-35496D01*
X52387Y-35762D01*
X52409Y-36029D01*
X52425Y-36296D01*
X52435Y-36563D01*
X52438Y-36830D01*
X44889Y-36830D02*
X44892Y-37097D01*
X44902Y-37364D01*
X44918Y-37631D01*
X44940Y-37898D01*
X44969Y-38164D01*
X45004Y-38429D01*
X45045Y-38693D01*
X45093Y-38956D01*
X45146Y-39218D01*
X45207Y-39478D01*
X45273Y-39737D01*
X45345Y-39994D01*
X45424Y-40250D01*
X45509Y-40503D01*
X45599Y-40755D01*
X45696Y-41004D01*
X45799Y-41251D01*
X45907Y-41495D01*
X46021Y-41737D01*
X46057Y-41836D01*
X46096Y-41933D01*
X46140Y-42028D01*
X46187Y-42122D01*
X46237Y-42215D01*
X46290Y-42305D01*
X46348Y-42393D01*
X46408Y-42479D01*
X46471Y-42562D01*
X46538Y-42644D01*
X46608Y-42722D01*
X46680Y-42798D01*
X46755Y-42871D01*
X46834Y-42941D01*
X46914Y-43009D01*
X46997Y-43073D01*
X47083Y-43134D01*
X47170Y-43192D01*
X47260Y-43246D01*
X47352Y-43297D01*
X47445Y-43345D01*
X47541Y-43389D01*
X47638Y-43429D01*
X47736Y-43466D01*
X47836Y-43499D01*
X47937Y-43528D01*
X48038Y-43553D01*
X48141Y-43575D01*
X48245Y-43592D01*
X48349Y-43606D01*
X48453Y-43616D01*
X48558Y-43622D01*
X48663Y-43624D01*
X51306Y-41737D02*
X51420Y-41495D01*
X51528Y-41251D01*
X51631Y-41004D01*
X51728Y-40755D01*
X51818Y-40503D01*
X51903Y-40250D01*
X51982Y-39994D01*
X52054Y-39737D01*
X52120Y-39478D01*
X52181Y-39218D01*
X52234Y-38956D01*
X52282Y-38693D01*
X52323Y-38429D01*
X52358Y-38164D01*
X52387Y-37898D01*
X52409Y-37631D01*
X52425Y-37364D01*
X52435Y-37097D01*
X52438Y-36830D01*
X51305Y-41737D02*
X51269Y-41835D01*
X51230Y-41933D01*
X51186Y-42028D01*
X51140Y-42122D01*
X51089Y-42215D01*
X51036Y-42305D01*
X50978Y-42393D01*
X50918Y-42479D01*
X50855Y-42562D01*
X50788Y-42644D01*
X50718Y-42722D01*
X50646Y-42798D01*
X50571Y-42871D01*
X50493Y-42941D01*
X50412Y-43009D01*
X50329Y-43073D01*
X50243Y-43134D01*
X50156Y-43192D01*
X50066Y-43246D01*
X49974Y-43297D01*
X49881Y-43345D01*
X49785Y-43389D01*
X49688Y-43429D01*
X49590Y-43466D01*
X49490Y-43499D01*
X49389Y-43528D01*
X49288Y-43553D01*
X49185Y-43575D01*
X49081Y-43592D01*
X48977Y-43606D01*
X48873Y-43616D01*
X48768Y-43622D01*
X48663Y-43624D01*
X45644Y-40605D02*
X51683Y-33055D01*
X89363Y-43625D02*
X89471Y-43623D01*
X89578Y-43617D01*
X89686Y-43608D01*
X89793Y-43594D01*
X89899Y-43577D01*
X90005Y-43556D01*
X90110Y-43531D01*
X90214Y-43503D01*
X90317Y-43470D01*
X90418Y-43435D01*
X90519Y-43395D01*
X90618Y-43352D01*
X90715Y-43306D01*
X90810Y-43256D01*
X90904Y-43202D01*
X90996Y-43146D01*
X91085Y-43086D01*
X91173Y-43023D01*
X91258Y-42956D01*
X91341Y-42887D01*
X91421Y-42815D01*
X91498Y-42740D01*
X91573Y-42663D01*
X91645Y-42583D01*
X91714Y-42500D01*
X91781Y-42415D01*
X91844Y-42327D01*
X91904Y-42238D01*
X91960Y-42146D01*
X92014Y-42052D01*
X92064Y-41957D01*
X92110Y-41860D01*
X92153Y-41761D01*
X92193Y-41660D01*
X92228Y-41559D01*
X92261Y-41456D01*
X92289Y-41352D01*
X92314Y-41247D01*
X92335Y-41141D01*
X92352Y-41035D01*
X92366Y-40928D01*
X92375Y-40820D01*
X92381Y-40713D01*
X92383Y-40605D01*
X89363Y-43624D02*
X89206Y-43622D01*
X89048Y-43616D01*
X88891Y-43607D01*
X88734Y-43593D01*
X88578Y-43576D01*
X88422Y-43554D01*
X88267Y-43529D01*
X88112Y-43500D01*
X87958Y-43467D01*
X87805Y-43431D01*
X87653Y-43390D01*
X87502Y-43346D01*
X87352Y-43299D01*
X87203Y-43247D01*
X87056Y-43192D01*
X86910Y-43133D01*
X86765Y-43071D01*
X86622Y-43005D01*
X86481Y-42936D01*
X86341Y-42863D01*
X86204Y-42787D01*
X86068Y-42707D01*
X85934Y-42624D01*
X85802Y-42538D01*
X85673Y-42448D01*
X85546Y-42356D01*
X85421Y-42260D01*
X85298Y-42161D01*
X85178Y-42059D01*
X85061Y-41955D01*
X84946Y-41847D01*
X84834Y-41737D01*
X85210Y-33055D02*
X85212Y-32947D01*
X85218Y-32840D01*
X85227Y-32732D01*
X85241Y-32625D01*
X85258Y-32519D01*
X85279Y-32413D01*
X85304Y-32308D01*
X85332Y-32204D01*
X85365Y-32101D01*
X85400Y-32000D01*
X85440Y-31899D01*
X85483Y-31800D01*
X85529Y-31703D01*
X85579Y-31608D01*
X85633Y-31514D01*
X85689Y-31422D01*
X85749Y-31333D01*
X85812Y-31245D01*
X85879Y-31160D01*
X85948Y-31077D01*
X86020Y-30997D01*
X86095Y-30920D01*
X86172Y-30845D01*
X86252Y-30773D01*
X86335Y-30704D01*
X86420Y-30637D01*
X86508Y-30574D01*
X86597Y-30514D01*
X86689Y-30458D01*
X86783Y-30404D01*
X86878Y-30354D01*
X86975Y-30308D01*
X87074Y-30265D01*
X87175Y-30225D01*
X87276Y-30190D01*
X87379Y-30157D01*
X87483Y-30129D01*
X87588Y-30104D01*
X87694Y-30083D01*
X87800Y-30066D01*
X87907Y-30052D01*
X88015Y-30043D01*
X88122Y-30037D01*
X88230Y-30035D01*
X88230Y-30036D02*
X88376Y-30038D01*
X88521Y-30044D01*
X88667Y-30053D01*
X88812Y-30066D01*
X88957Y-30083D01*
X89101Y-30103D01*
X89245Y-30128D01*
X89388Y-30156D01*
X89530Y-30187D01*
X89671Y-30223D01*
X89812Y-30261D01*
X89951Y-30304D01*
X90089Y-30350D01*
X90227Y-30400D01*
X90362Y-30453D01*
X90497Y-30509D01*
X90629Y-30569D01*
X90761Y-30633D01*
X90890Y-30700D01*
X91018Y-30770D01*
X91144Y-30843D01*
X91268Y-30920D01*
X91390Y-31000D01*
X91510Y-31083D01*
X91627Y-31168D01*
X86721Y-35697D02*
X86627Y-35640D01*
X86536Y-35579D01*
X86447Y-35515D01*
X86360Y-35448D01*
X86275Y-35378D01*
X86193Y-35305D01*
X86114Y-35229D01*
X86038Y-35150D01*
X85964Y-35068D01*
X85894Y-34984D01*
X85826Y-34898D01*
X85762Y-34809D01*
X85701Y-34717D01*
X85643Y-34624D01*
X85588Y-34529D01*
X85537Y-34432D01*
X85490Y-34333D01*
X85446Y-34232D01*
X85405Y-34130D01*
X85369Y-34026D01*
X85336Y-33921D01*
X85307Y-33816D01*
X85281Y-33709D01*
X85260Y-33601D01*
X85242Y-33493D01*
X85229Y-33384D01*
X85219Y-33274D01*
X85213Y-33165D01*
X85211Y-33055D01*
X90873Y-37963D02*
X90967Y-38020D01*
X91058Y-38081D01*
X91147Y-38145D01*
X91234Y-38212D01*
X91319Y-38282D01*
X91401Y-38355D01*
X91480Y-38431D01*
X91556Y-38510D01*
X91630Y-38592D01*
X91700Y-38676D01*
X91768Y-38762D01*
X91832Y-38851D01*
X91893Y-38943D01*
X91951Y-39036D01*
X92006Y-39131D01*
X92057Y-39228D01*
X92104Y-39327D01*
X92148Y-39428D01*
X92189Y-39530D01*
X92225Y-39634D01*
X92258Y-39738D01*
X92287Y-39844D01*
X92313Y-39951D01*
X92334Y-40059D01*
X92352Y-40167D01*
X92365Y-40276D01*
X92375Y-40386D01*
X92381Y-40495D01*
X92383Y-40605D01*
X90873Y-37962D02*
X86720Y-35698D01*
X99303Y-30036D02*
X99303Y-43625D01*
X99303Y-30036D02*
X103078Y-30036D01*
X103078Y-30035D02*
X103199Y-30037D01*
X103320Y-30043D01*
X103440Y-30052D01*
X103561Y-30066D01*
X103680Y-30083D01*
X103800Y-30105D01*
X103918Y-30130D01*
X104036Y-30158D01*
X104152Y-30191D01*
X104268Y-30227D01*
X104382Y-30267D01*
X104495Y-30311D01*
X104606Y-30358D01*
X104716Y-30409D01*
X104824Y-30463D01*
X104930Y-30521D01*
X105035Y-30582D01*
X105137Y-30646D01*
X105238Y-30714D01*
X105336Y-30785D01*
X105432Y-30859D01*
X105525Y-30936D01*
X105616Y-31015D01*
X105704Y-31098D01*
X105790Y-31184D01*
X105873Y-31272D01*
X105952Y-31363D01*
X106029Y-31456D01*
X106103Y-31552D01*
X106174Y-31650D01*
X106242Y-31751D01*
X106306Y-31853D01*
X106367Y-31958D01*
X106425Y-32064D01*
X106479Y-32172D01*
X106530Y-32282D01*
X106577Y-32393D01*
X106621Y-32506D01*
X106661Y-32620D01*
X106697Y-32736D01*
X106730Y-32852D01*
X106758Y-32970D01*
X106783Y-33088D01*
X106805Y-33208D01*
X106822Y-33327D01*
X106836Y-33448D01*
X106845Y-33568D01*
X106851Y-33689D01*
X106853Y-33810D01*
X106851Y-33931D01*
X106845Y-34052D01*
X106836Y-34172D01*
X106822Y-34293D01*
X106805Y-34412D01*
X106783Y-34532D01*
X106758Y-34650D01*
X106730Y-34768D01*
X106697Y-34884D01*
X106661Y-35000D01*
X106621Y-35114D01*
X106577Y-35227D01*
X106530Y-35338D01*
X106479Y-35448D01*
X106425Y-35556D01*
X106367Y-35662D01*
X106306Y-35767D01*
X106242Y-35869D01*
X106174Y-35970D01*
X106103Y-36068D01*
X106029Y-36164D01*
X105952Y-36257D01*
X105873Y-36348D01*
X105790Y-36436D01*
X105704Y-36522D01*
X105616Y-36605D01*
X105525Y-36684D01*
X105432Y-36761D01*
X105336Y-36835D01*
X105238Y-36906D01*
X105137Y-36974D01*
X105035Y-37038D01*
X104930Y-37099D01*
X104824Y-37157D01*
X104716Y-37211D01*
X104606Y-37262D01*
X104495Y-37309D01*
X104382Y-37353D01*
X104268Y-37393D01*
X104152Y-37429D01*
X104036Y-37462D01*
X103918Y-37490D01*
X103800Y-37515D01*
X103680Y-37537D01*
X103561Y-37554D01*
X103440Y-37568D01*
X103320Y-37577D01*
X103199Y-37583D01*
X103078Y-37585D01*
X99303Y-37585D01*
X111972Y-43625D02*
X121031Y-30036D01*
X111972Y-30036D02*
X121031Y-43625D01*
X127101Y-38340D02*
X136160Y-38340D01*
X147137Y-30036D02*
X147251Y-30038D01*
X147364Y-30044D01*
X147477Y-30053D01*
X147590Y-30066D01*
X147702Y-30083D01*
X147814Y-30104D01*
X147924Y-30129D01*
X148034Y-30157D01*
X148143Y-30189D01*
X148251Y-30224D01*
X148358Y-30263D01*
X148463Y-30306D01*
X148567Y-30352D01*
X148669Y-30401D01*
X148770Y-30454D01*
X148868Y-30510D01*
X148965Y-30570D01*
X149060Y-30632D01*
X149152Y-30698D01*
X149242Y-30767D01*
X149330Y-30839D01*
X149416Y-30914D01*
X149499Y-30991D01*
X149579Y-31071D01*
X149656Y-31154D01*
X149731Y-31240D01*
X149803Y-31328D01*
X149872Y-31418D01*
X149938Y-31510D01*
X150000Y-31605D01*
X150060Y-31702D01*
X150116Y-31800D01*
X150169Y-31901D01*
X150218Y-32003D01*
X150264Y-32107D01*
X150307Y-32212D01*
X150346Y-32319D01*
X150381Y-32427D01*
X150413Y-32536D01*
X150441Y-32646D01*
X150466Y-32756D01*
X150487Y-32868D01*
X150504Y-32980D01*
X150517Y-33093D01*
X150526Y-33206D01*
X150532Y-33319D01*
X150534Y-33433D01*
X147137Y-30035D02*
X147006Y-30037D01*
X146876Y-30043D01*
X146745Y-30053D01*
X146615Y-30066D01*
X146486Y-30084D01*
X146357Y-30105D01*
X146229Y-30131D01*
X146101Y-30160D01*
X145975Y-30193D01*
X145849Y-30229D01*
X145725Y-30270D01*
X145602Y-30314D01*
X145480Y-30362D01*
X145360Y-30413D01*
X145242Y-30468D01*
X145125Y-30526D01*
X145010Y-30588D01*
X144897Y-30654D01*
X144786Y-30723D01*
X144676Y-30795D01*
X144570Y-30870D01*
X144465Y-30948D01*
X144363Y-31030D01*
X144263Y-31114D01*
X144166Y-31202D01*
X144072Y-31292D01*
X143980Y-31385D01*
X143891Y-31481D01*
X143805Y-31580D01*
X143722Y-31681D01*
X143643Y-31784D01*
X143566Y-31890D01*
X143492Y-31998D01*
X143422Y-32108D01*
X143355Y-32221D01*
X143291Y-32335D01*
X143231Y-32451D01*
X143175Y-32569D01*
X143122Y-32688D01*
X143072Y-32809D01*
X143026Y-32931D01*
X142984Y-33055D01*
X149402Y-36075D02*
X149486Y-35993D01*
X149567Y-35907D01*
X149646Y-35819D01*
X149722Y-35728D01*
X149795Y-35635D01*
X149864Y-35540D01*
X149931Y-35442D01*
X149995Y-35342D01*
X150055Y-35241D01*
X150112Y-35137D01*
X150165Y-35032D01*
X150215Y-34925D01*
X150262Y-34816D01*
X150305Y-34706D01*
X150344Y-34594D01*
X150380Y-34482D01*
X150412Y-34368D01*
X150441Y-34253D01*
X150465Y-34138D01*
X150486Y-34021D01*
X150503Y-33904D01*
X150517Y-33787D01*
X150526Y-33669D01*
X150532Y-33551D01*
X150534Y-33433D01*
X149401Y-36075D02*
X142984Y-43625D01*
X150534Y-43625D01*
X157168Y-33055D02*
X160942Y-30036D01*
X160942Y-43625D01*
X157168Y-43625D02*
X164717Y-43625D01*
X175503Y-30036D02*
X175617Y-30038D01*
X175730Y-30044D01*
X175843Y-30053D01*
X175956Y-30066D01*
X176068Y-30083D01*
X176180Y-30104D01*
X176290Y-30129D01*
X176400Y-30157D01*
X176509Y-30189D01*
X176617Y-30224D01*
X176724Y-30263D01*
X176829Y-30306D01*
X176933Y-30352D01*
X177035Y-30401D01*
X177136Y-30454D01*
X177234Y-30510D01*
X177331Y-30570D01*
X177426Y-30632D01*
X177518Y-30698D01*
X177608Y-30767D01*
X177696Y-30839D01*
X177782Y-30914D01*
X177865Y-30991D01*
X177945Y-31071D01*
X178022Y-31154D01*
X178097Y-31240D01*
X178169Y-31328D01*
X178238Y-31418D01*
X178304Y-31510D01*
X178366Y-31605D01*
X178426Y-31702D01*
X178482Y-31800D01*
X178535Y-31901D01*
X178584Y-32003D01*
X178630Y-32107D01*
X178673Y-32212D01*
X178712Y-32319D01*
X178747Y-32427D01*
X178779Y-32536D01*
X178807Y-32646D01*
X178832Y-32756D01*
X178853Y-32868D01*
X178870Y-32980D01*
X178883Y-33093D01*
X178892Y-33206D01*
X178898Y-33319D01*
X178900Y-33433D01*
X175503Y-30035D02*
X175372Y-30037D01*
X175242Y-30043D01*
X175111Y-30053D01*
X174981Y-30066D01*
X174852Y-30084D01*
X174723Y-30105D01*
X174595Y-30131D01*
X174467Y-30160D01*
X174341Y-30193D01*
X174215Y-30229D01*
X174091Y-30270D01*
X173968Y-30314D01*
X173846Y-30362D01*
X173726Y-30413D01*
X173608Y-30468D01*
X173491Y-30526D01*
X173376Y-30588D01*
X173263Y-30654D01*
X173152Y-30723D01*
X173042Y-30795D01*
X172936Y-30870D01*
X172831Y-30948D01*
X172729Y-31030D01*
X172629Y-31114D01*
X172532Y-31202D01*
X172438Y-31292D01*
X172346Y-31385D01*
X172257Y-31481D01*
X172171Y-31580D01*
X172088Y-31681D01*
X172009Y-31784D01*
X171932Y-31890D01*
X171858Y-31998D01*
X171788Y-32108D01*
X171721Y-32221D01*
X171657Y-32335D01*
X171597Y-32451D01*
X171541Y-32569D01*
X171488Y-32688D01*
X171438Y-32809D01*
X171392Y-32931D01*
X171350Y-33055D01*
X177769Y-36075D02*
X177853Y-35993D01*
X177934Y-35907D01*
X178013Y-35819D01*
X178089Y-35728D01*
X178162Y-35635D01*
X178231Y-35540D01*
X178298Y-35442D01*
X178362Y-35342D01*
X178422Y-35241D01*
X178479Y-35137D01*
X178532Y-35032D01*
X178582Y-34925D01*
X178629Y-34816D01*
X178672Y-34706D01*
X178711Y-34594D01*
X178747Y-34482D01*
X178779Y-34368D01*
X178808Y-34253D01*
X178832Y-34138D01*
X178853Y-34021D01*
X178870Y-33904D01*
X178884Y-33787D01*
X178893Y-33669D01*
X178899Y-33551D01*
X178901Y-33433D01*
X177768Y-36075D02*
X171351Y-43625D01*
X178900Y-43625D01*
X189686Y-30036D02*
X189800Y-30038D01*
X189913Y-30044D01*
X190026Y-30053D01*
X190139Y-30066D01*
X190251Y-30083D01*
X190363Y-30104D01*
X190473Y-30129D01*
X190583Y-30157D01*
X190692Y-30189D01*
X190800Y-30224D01*
X190907Y-30263D01*
X191012Y-30306D01*
X191116Y-30352D01*
X191218Y-30401D01*
X191319Y-30454D01*
X191417Y-30510D01*
X191514Y-30570D01*
X191609Y-30632D01*
X191701Y-30698D01*
X191791Y-30767D01*
X191879Y-30839D01*
X191965Y-30914D01*
X192048Y-30991D01*
X192128Y-31071D01*
X192205Y-31154D01*
X192280Y-31240D01*
X192352Y-31328D01*
X192421Y-31418D01*
X192487Y-31510D01*
X192549Y-31605D01*
X192609Y-31702D01*
X192665Y-31800D01*
X192718Y-31901D01*
X192767Y-32003D01*
X192813Y-32107D01*
X192856Y-32212D01*
X192895Y-32319D01*
X192930Y-32427D01*
X192962Y-32536D01*
X192990Y-32646D01*
X193015Y-32756D01*
X193036Y-32868D01*
X193053Y-32980D01*
X193066Y-33093D01*
X193075Y-33206D01*
X193081Y-33319D01*
X193083Y-33433D01*
X189686Y-30035D02*
X189555Y-30037D01*
X189425Y-30043D01*
X189294Y-30053D01*
X189164Y-30066D01*
X189035Y-30084D01*
X188906Y-30105D01*
X188778Y-30131D01*
X188650Y-30160D01*
X188524Y-30193D01*
X188398Y-30229D01*
X188274Y-30270D01*
X188151Y-30314D01*
X188029Y-30362D01*
X187909Y-30413D01*
X187791Y-30468D01*
X187674Y-30526D01*
X187559Y-30588D01*
X187446Y-30654D01*
X187335Y-30723D01*
X187225Y-30795D01*
X187119Y-30870D01*
X187014Y-30948D01*
X186912Y-31030D01*
X186812Y-31114D01*
X186715Y-31202D01*
X186621Y-31292D01*
X186529Y-31385D01*
X186440Y-31481D01*
X186354Y-31580D01*
X186271Y-31681D01*
X186192Y-31784D01*
X186115Y-31890D01*
X186041Y-31998D01*
X185971Y-32108D01*
X185904Y-32221D01*
X185840Y-32335D01*
X185780Y-32451D01*
X185724Y-32569D01*
X185671Y-32688D01*
X185621Y-32809D01*
X185575Y-32931D01*
X185533Y-33055D01*
X191952Y-36075D02*
X192036Y-35993D01*
X192117Y-35907D01*
X192196Y-35819D01*
X192272Y-35728D01*
X192345Y-35635D01*
X192414Y-35540D01*
X192481Y-35442D01*
X192545Y-35342D01*
X192605Y-35241D01*
X192662Y-35137D01*
X192715Y-35032D01*
X192765Y-34925D01*
X192812Y-34816D01*
X192855Y-34706D01*
X192894Y-34594D01*
X192930Y-34482D01*
X192962Y-34368D01*
X192991Y-34253D01*
X193015Y-34138D01*
X193036Y-34021D01*
X193053Y-33904D01*
X193067Y-33787D01*
X193076Y-33669D01*
X193082Y-33551D01*
X193084Y-33433D01*
X191951Y-36075D02*
X185534Y-43625D01*
X193084Y-43625D01*
X199718Y-36830D02*
X199721Y-36563D01*
X199731Y-36296D01*
X199747Y-36029D01*
X199769Y-35762D01*
X199798Y-35496D01*
X199833Y-35231D01*
X199874Y-34967D01*
X199922Y-34704D01*
X199975Y-34442D01*
X200036Y-34182D01*
X200102Y-33923D01*
X200174Y-33666D01*
X200253Y-33410D01*
X200338Y-33157D01*
X200428Y-32905D01*
X200525Y-32656D01*
X200628Y-32409D01*
X200736Y-32165D01*
X200850Y-31923D01*
X200886Y-31825D01*
X200925Y-31727D01*
X200969Y-31632D01*
X201015Y-31538D01*
X201066Y-31445D01*
X201119Y-31355D01*
X201177Y-31267D01*
X201237Y-31181D01*
X201300Y-31098D01*
X201367Y-31016D01*
X201437Y-30938D01*
X201509Y-30862D01*
X201584Y-30789D01*
X201662Y-30719D01*
X201743Y-30651D01*
X201826Y-30587D01*
X201912Y-30526D01*
X201999Y-30468D01*
X202089Y-30414D01*
X202181Y-30363D01*
X202274Y-30315D01*
X202370Y-30271D01*
X202467Y-30231D01*
X202565Y-30194D01*
X202665Y-30161D01*
X202766Y-30132D01*
X202867Y-30107D01*
X202970Y-30085D01*
X203074Y-30068D01*
X203178Y-30054D01*
X203282Y-30044D01*
X203387Y-30038D01*
X203492Y-30036D01*
X203597Y-30038D01*
X203702Y-30044D01*
X203806Y-30054D01*
X203910Y-30068D01*
X204014Y-30085D01*
X204117Y-30107D01*
X204219Y-30132D01*
X204319Y-30161D01*
X204419Y-30194D01*
X204517Y-30231D01*
X204614Y-30271D01*
X204710Y-30315D01*
X204803Y-30363D01*
X204895Y-30414D01*
X204985Y-30468D01*
X205072Y-30526D01*
X205158Y-30587D01*
X205241Y-30651D01*
X205322Y-30719D01*
X205400Y-30789D01*
X205475Y-30862D01*
X205547Y-30938D01*
X205617Y-31017D01*
X205684Y-31098D01*
X205747Y-31181D01*
X205808Y-31267D01*
X205865Y-31355D01*
X205918Y-31446D01*
X205969Y-31538D01*
X206015Y-31632D01*
X206059Y-31727D01*
X206098Y-31825D01*
X206134Y-31923D01*
X206135Y-31923D02*
X206249Y-32165D01*
X206357Y-32409D01*
X206460Y-32656D01*
X206557Y-32905D01*
X206647Y-33157D01*
X206732Y-33410D01*
X206811Y-33666D01*
X206883Y-33923D01*
X206949Y-34182D01*
X207010Y-34442D01*
X207063Y-34704D01*
X207111Y-34967D01*
X207152Y-35231D01*
X207187Y-35496D01*
X207216Y-35762D01*
X207238Y-36029D01*
X207254Y-36296D01*
X207264Y-36563D01*
X207267Y-36830D01*
X199718Y-36830D02*
X199721Y-37097D01*
X199731Y-37364D01*
X199747Y-37631D01*
X199769Y-37898D01*
X199798Y-38164D01*
X199833Y-38429D01*
X199874Y-38693D01*
X199922Y-38956D01*
X199975Y-39218D01*
X200036Y-39478D01*
X200102Y-39737D01*
X200174Y-39994D01*
X200253Y-40250D01*
X200338Y-40503D01*
X200428Y-40755D01*
X200525Y-41004D01*
X200628Y-41251D01*
X200736Y-41495D01*
X200850Y-41737D01*
X200886Y-41836D01*
X200925Y-41933D01*
X200969Y-42028D01*
X201016Y-42122D01*
X201066Y-42215D01*
X201119Y-42305D01*
X201177Y-42393D01*
X201237Y-42479D01*
X201300Y-42562D01*
X201367Y-42644D01*
X201437Y-42722D01*
X201509Y-42798D01*
X201584Y-42871D01*
X201663Y-42941D01*
X201743Y-43009D01*
X201826Y-43073D01*
X201912Y-43134D01*
X201999Y-43192D01*
X202089Y-43246D01*
X202181Y-43297D01*
X202274Y-43345D01*
X202370Y-43389D01*
X202467Y-43429D01*
X202565Y-43466D01*
X202665Y-43499D01*
X202766Y-43528D01*
X202867Y-43553D01*
X202970Y-43575D01*
X203074Y-43592D01*
X203178Y-43606D01*
X203282Y-43616D01*
X203387Y-43622D01*
X203492Y-43624D01*
X206135Y-41737D02*
X206249Y-41495D01*
X206357Y-41251D01*
X206460Y-41004D01*
X206557Y-40755D01*
X206647Y-40503D01*
X206732Y-40250D01*
X206811Y-39994D01*
X206883Y-39737D01*
X206949Y-39478D01*
X207010Y-39218D01*
X207063Y-38956D01*
X207111Y-38693D01*
X207152Y-38429D01*
X207187Y-38164D01*
X207216Y-37898D01*
X207238Y-37631D01*
X207254Y-37364D01*
X207264Y-37097D01*
X207267Y-36830D01*
X206134Y-41737D02*
X206098Y-41835D01*
X206059Y-41933D01*
X206015Y-42028D01*
X205969Y-42122D01*
X205918Y-42215D01*
X205865Y-42305D01*
X205807Y-42393D01*
X205747Y-42479D01*
X205684Y-42562D01*
X205617Y-42644D01*
X205547Y-42722D01*
X205475Y-42798D01*
X205400Y-42871D01*
X205322Y-42941D01*
X205241Y-43009D01*
X205158Y-43073D01*
X205072Y-43134D01*
X204985Y-43192D01*
X204895Y-43246D01*
X204803Y-43297D01*
X204710Y-43345D01*
X204614Y-43389D01*
X204517Y-43429D01*
X204419Y-43466D01*
X204319Y-43499D01*
X204218Y-43528D01*
X204117Y-43553D01*
X204014Y-43575D01*
X203910Y-43592D01*
X203806Y-43606D01*
X203702Y-43616D01*
X203597Y-43622D01*
X203492Y-43624D01*
X200472Y-40605D02*
X206512Y-33055D01*
M02*
