G04 EAGLE Gerber RS-274X export*
G75*
%MOMM*%
%FSLAX34Y34*%
%LPD*%
%INSilkscreen Bottom*%
%IPPOS*%
%AMOC8*
5,1,8,0,0,1.08239X$1,22.5*%
G01*

G36*
X53327Y146025D02*
X53327Y146025D01*
X53334Y146031D01*
X53340Y146023D01*
X99060Y146023D01*
X99107Y146059D01*
X99102Y146067D01*
X99109Y146072D01*
X99109Y158728D01*
X99073Y158775D01*
X99066Y158769D01*
X99060Y158777D01*
X53340Y158777D01*
X53293Y158741D01*
X53298Y158733D01*
X53291Y158728D01*
X53291Y146072D01*
X53327Y146025D01*
G37*
%LPC*%
G36*
X97836Y157503D02*
X97836Y157503D01*
X97836Y147297D01*
X63603Y147297D01*
X63603Y157503D01*
X97836Y157503D01*
G37*
%LPD*%
G36*
X98654Y160354D02*
X98654Y160354D01*
X98656Y160351D01*
X99456Y160451D01*
X99472Y160467D01*
X99485Y160465D01*
X99785Y160765D01*
X99786Y160777D01*
X99791Y160781D01*
X99788Y160786D01*
X99788Y160787D01*
X99799Y160793D01*
X99899Y161493D01*
X99896Y161498D01*
X99899Y161500D01*
X99899Y169000D01*
X99896Y169005D01*
X99899Y169008D01*
X99799Y169608D01*
X99777Y169629D01*
X99775Y169642D01*
X99275Y169942D01*
X99257Y169940D01*
X99250Y169949D01*
X95950Y169949D01*
X95945Y169946D01*
X95942Y169949D01*
X95342Y169849D01*
X95339Y169845D01*
X95336Y169847D01*
X94636Y169647D01*
X94632Y169642D01*
X94628Y169644D01*
X94028Y169344D01*
X94027Y169341D01*
X94025Y169342D01*
X93525Y169042D01*
X93523Y169037D01*
X93518Y169038D01*
X92918Y168538D01*
X92917Y168531D01*
X92912Y168531D01*
X92512Y168031D01*
X92511Y168027D01*
X92509Y168027D01*
X92109Y167427D01*
X92109Y167426D01*
X92108Y167425D01*
X91808Y166925D01*
X91809Y166918D01*
X91803Y166914D01*
X91804Y166914D01*
X91803Y166914D01*
X91789Y166865D01*
X91775Y166816D01*
X91733Y166668D01*
X91690Y166520D01*
X91676Y166471D01*
X91634Y166323D01*
X91603Y166214D01*
X91606Y166204D01*
X91601Y166200D01*
X91601Y164100D01*
X91608Y164091D01*
X91603Y164084D01*
X91803Y163484D01*
X91808Y163481D01*
X91806Y163478D01*
X92106Y162878D01*
X92110Y162876D01*
X92109Y162873D01*
X92509Y162273D01*
X92512Y162272D01*
X92512Y162269D01*
X92912Y161769D01*
X92916Y161768D01*
X92915Y161765D01*
X93415Y161265D01*
X93427Y161264D01*
X93428Y161256D01*
X94628Y160656D01*
X94633Y160657D01*
X94634Y160653D01*
X95234Y160453D01*
X95241Y160455D01*
X95243Y160451D01*
X95943Y160351D01*
X95948Y160354D01*
X95950Y160351D01*
X98650Y160351D01*
X98654Y160354D01*
G37*
G36*
X89539Y63838D02*
X89539Y63838D01*
X89546Y63833D01*
X90146Y64033D01*
X90159Y64053D01*
X90172Y64055D01*
X90472Y64555D01*
X90470Y64573D01*
X90479Y64580D01*
X90479Y69223D01*
X91990Y67052D01*
X91996Y67050D01*
X91995Y67045D01*
X92395Y66645D01*
X92399Y66645D01*
X92399Y66642D01*
X92899Y66242D01*
X92927Y66241D01*
X92937Y66231D01*
X93637Y66331D01*
X93650Y66344D01*
X93661Y66342D01*
X94161Y66742D01*
X94163Y66750D01*
X94169Y66750D01*
X95962Y69141D01*
X96081Y69200D01*
X96081Y64480D01*
X96092Y64465D01*
X96088Y64455D01*
X96388Y63955D01*
X96416Y63944D01*
X96422Y63931D01*
X97022Y63831D01*
X97027Y63834D01*
X97030Y63831D01*
X97830Y63831D01*
X97851Y63847D01*
X97865Y63845D01*
X98365Y64345D01*
X98366Y64357D01*
X98370Y64359D01*
X98367Y64363D01*
X98369Y64372D01*
X98379Y64380D01*
X98379Y72480D01*
X98372Y72489D01*
X98377Y72496D01*
X98177Y73096D01*
X98157Y73109D01*
X98155Y73122D01*
X97655Y73422D01*
X97637Y73420D01*
X97630Y73429D01*
X96830Y73429D01*
X96817Y73420D01*
X96808Y73424D01*
X96208Y73124D01*
X96201Y73111D01*
X96192Y73111D01*
X95792Y72611D01*
X95792Y72610D01*
X95791Y72610D01*
X93413Y69440D01*
X92961Y69621D01*
X91469Y71610D01*
X91468Y71610D01*
X91468Y71611D01*
X90168Y73211D01*
X90149Y73216D01*
X90146Y73227D01*
X89546Y73427D01*
X89531Y73422D01*
X89525Y73429D01*
X88625Y73329D01*
X88611Y73316D01*
X88600Y73319D01*
X88200Y73019D01*
X88193Y72994D01*
X88181Y72988D01*
X88081Y72388D01*
X88084Y72383D01*
X88081Y72380D01*
X88081Y64880D01*
X88087Y64872D01*
X88083Y64866D01*
X88283Y64166D01*
X88300Y64153D01*
X88300Y64141D01*
X88700Y63841D01*
X88722Y63841D01*
X88730Y63831D01*
X89530Y63831D01*
X89539Y63838D01*
G37*
G36*
X46039Y63838D02*
X46039Y63838D01*
X46046Y63833D01*
X46646Y64033D01*
X46651Y64041D01*
X46657Y64039D01*
X47257Y64439D01*
X47258Y64442D01*
X47261Y64442D01*
X47761Y64842D01*
X47763Y64849D01*
X47768Y64849D01*
X48168Y65349D01*
X48169Y65359D01*
X48175Y65361D01*
X48475Y66061D01*
X48475Y66064D01*
X48477Y66064D01*
X48677Y66664D01*
X48675Y66670D01*
X48679Y66672D01*
X48779Y67272D01*
X48778Y67273D01*
X48779Y67273D01*
X48879Y67973D01*
X48876Y67978D01*
X48879Y67980D01*
X48879Y69480D01*
X48876Y69484D01*
X48879Y69487D01*
X48779Y70187D01*
X48778Y70188D01*
X48779Y70188D01*
X48679Y70788D01*
X48672Y70794D01*
X48675Y70799D01*
X48375Y71499D01*
X48373Y71501D01*
X48374Y71502D01*
X48074Y72102D01*
X48071Y72103D01*
X48072Y72105D01*
X47772Y72605D01*
X47769Y72607D01*
X47769Y72610D01*
X47469Y73010D01*
X47454Y73014D01*
X47452Y73024D01*
X46252Y73624D01*
X46242Y73622D01*
X46238Y73629D01*
X45638Y73729D01*
X45633Y73726D01*
X45630Y73729D01*
X44830Y73729D01*
X44825Y73726D01*
X44822Y73729D01*
X44222Y73629D01*
X44218Y73624D01*
X44214Y73627D01*
X43614Y73427D01*
X43607Y73416D01*
X43598Y73418D01*
X42999Y72918D01*
X42499Y72518D01*
X42496Y72504D01*
X42486Y72502D01*
X41886Y71302D01*
X41888Y71291D01*
X41881Y71287D01*
X41786Y70618D01*
X41740Y70628D01*
X41739Y70627D01*
X41730Y70627D01*
X41716Y70617D01*
X41687Y70603D01*
X41689Y70597D01*
X41682Y70591D01*
X41684Y70589D01*
X41681Y70587D01*
X41581Y69887D01*
X41584Y69882D01*
X41581Y69880D01*
X41581Y69283D01*
X41481Y68486D01*
X41486Y68478D01*
X41481Y68473D01*
X41681Y67073D01*
X41685Y67069D01*
X41683Y67066D01*
X41883Y66366D01*
X41884Y66365D01*
X41883Y66364D01*
X42083Y65764D01*
X42090Y65760D01*
X42088Y65755D01*
X42388Y65255D01*
X42392Y65253D01*
X42392Y65249D01*
X42792Y64749D01*
X42799Y64747D01*
X42799Y64742D01*
X43299Y64342D01*
X43307Y64341D01*
X43308Y64336D01*
X43908Y64036D01*
X43915Y64037D01*
X43916Y64033D01*
X44616Y63833D01*
X44626Y63836D01*
X44630Y63831D01*
X46030Y63831D01*
X46039Y63838D01*
G37*
G36*
X55238Y63837D02*
X55238Y63837D01*
X55244Y63833D01*
X55944Y64033D01*
X55950Y64042D01*
X55957Y64039D01*
X56557Y64439D01*
X56558Y64442D01*
X56561Y64442D01*
X57061Y64842D01*
X57064Y64854D01*
X57072Y64855D01*
X57372Y65355D01*
X57372Y65360D01*
X57375Y65361D01*
X57675Y66061D01*
X57675Y66064D01*
X57677Y66064D01*
X58077Y67264D01*
X58077Y67265D01*
X58076Y67266D01*
X58073Y67275D01*
X58079Y67280D01*
X58079Y67977D01*
X58179Y68774D01*
X58174Y68782D01*
X58179Y68787D01*
X58079Y69483D01*
X58079Y70180D01*
X58072Y70189D01*
X58077Y70196D01*
X57877Y70795D01*
X57677Y71494D01*
X57672Y71498D01*
X57674Y71502D01*
X57374Y72102D01*
X57371Y72103D01*
X57372Y72105D01*
X57072Y72605D01*
X57069Y72607D01*
X57069Y72610D01*
X56769Y73010D01*
X56754Y73014D01*
X56752Y73024D01*
X55552Y73624D01*
X55542Y73622D01*
X55538Y73629D01*
X54938Y73729D01*
X54933Y73726D01*
X54930Y73729D01*
X54130Y73729D01*
X54126Y73726D01*
X54123Y73729D01*
X53423Y73629D01*
X53417Y73623D01*
X53412Y73626D01*
X52912Y73426D01*
X52906Y73416D01*
X52898Y73418D01*
X52299Y72918D01*
X51799Y72518D01*
X51796Y72504D01*
X51786Y72502D01*
X51186Y71302D01*
X51187Y71295D01*
X51183Y71294D01*
X51179Y71281D01*
X51137Y71133D01*
X51123Y71084D01*
X51081Y70936D01*
X51038Y70788D01*
X51024Y70739D01*
X50983Y70594D01*
X50983Y70592D01*
X50982Y70591D01*
X50984Y70589D01*
X50981Y70587D01*
X50881Y69888D01*
X50781Y69288D01*
X50784Y69283D01*
X50781Y69280D01*
X50781Y68480D01*
X50784Y68476D01*
X50781Y68473D01*
X50981Y67073D01*
X50985Y67069D01*
X50983Y67066D01*
X51183Y66366D01*
X51184Y66365D01*
X51183Y66364D01*
X51383Y65764D01*
X51390Y65760D01*
X51388Y65755D01*
X51688Y65255D01*
X51692Y65253D01*
X51692Y65249D01*
X52092Y64749D01*
X52099Y64747D01*
X52099Y64742D01*
X52599Y64342D01*
X52607Y64341D01*
X52608Y64336D01*
X53208Y64036D01*
X53213Y64037D01*
X53214Y64033D01*
X53814Y63833D01*
X53825Y63837D01*
X53830Y63831D01*
X55230Y63831D01*
X55238Y63837D01*
G37*
G36*
X64434Y63834D02*
X64434Y63834D01*
X64437Y63831D01*
X65137Y63931D01*
X65145Y63939D01*
X65152Y63936D01*
X65752Y64236D01*
X65753Y64239D01*
X65755Y64238D01*
X66255Y64538D01*
X66259Y64546D01*
X66265Y64545D01*
X66765Y65045D01*
X66766Y65052D01*
X66771Y65053D01*
X67171Y65653D01*
X67170Y65662D01*
X67177Y65664D01*
X67377Y66264D01*
X67373Y66275D01*
X67379Y66280D01*
X67379Y66980D01*
X67366Y66998D01*
X67369Y67010D01*
X67069Y67410D01*
X67048Y67416D01*
X67044Y67427D01*
X66344Y67627D01*
X66332Y67623D01*
X66330Y67623D01*
X66324Y67629D01*
X65524Y67529D01*
X65508Y67513D01*
X65495Y67515D01*
X65195Y67215D01*
X65193Y67202D01*
X65185Y67199D01*
X64892Y66516D01*
X64316Y66228D01*
X63535Y66130D01*
X62957Y66323D01*
X62579Y66700D01*
X62579Y67260D01*
X63053Y67733D01*
X63836Y67831D01*
X63838Y67833D01*
X63840Y67832D01*
X64340Y67932D01*
X64353Y67947D01*
X64365Y67945D01*
X64765Y68345D01*
X64768Y68368D01*
X64779Y68375D01*
X64879Y69275D01*
X64871Y69288D01*
X64877Y69296D01*
X64677Y69896D01*
X64652Y69913D01*
X64648Y69926D01*
X64148Y70126D01*
X64139Y70123D01*
X64136Y70129D01*
X63341Y70228D01*
X62779Y70416D01*
X62779Y70956D01*
X63247Y71331D01*
X63918Y71331D01*
X64498Y71041D01*
X64892Y70549D01*
X64899Y70547D01*
X64899Y70542D01*
X65399Y70142D01*
X65420Y70141D01*
X65425Y70135D01*
X65435Y70135D01*
X65438Y70131D01*
X66038Y70231D01*
X66048Y70242D01*
X66057Y70239D01*
X66657Y70639D01*
X66662Y70654D01*
X66672Y70655D01*
X66972Y71155D01*
X66970Y71180D01*
X66978Y71190D01*
X66878Y71690D01*
X66873Y71695D01*
X66875Y71699D01*
X66575Y72399D01*
X66564Y72406D01*
X66565Y72415D01*
X66065Y72915D01*
X66061Y72915D01*
X66061Y72918D01*
X65561Y73318D01*
X65547Y73319D01*
X65544Y73327D01*
X64845Y73527D01*
X64246Y73727D01*
X64235Y73723D01*
X64230Y73729D01*
X62130Y73729D01*
X62107Y73712D01*
X62093Y73713D01*
X61194Y72714D01*
X60695Y72215D01*
X60694Y72203D01*
X60686Y72202D01*
X60386Y71602D01*
X60388Y71591D01*
X60381Y71587D01*
X60281Y70887D01*
X60284Y70882D01*
X60281Y70880D01*
X60281Y70180D01*
X60290Y70167D01*
X60286Y70158D01*
X60586Y69558D01*
X60599Y69551D01*
X60599Y69542D01*
X61081Y69156D01*
X61081Y68800D01*
X60595Y68315D01*
X60594Y68308D01*
X60589Y68307D01*
X60189Y67707D01*
X60190Y67693D01*
X60181Y67688D01*
X60081Y67088D01*
X60087Y67078D01*
X60081Y67073D01*
X60181Y66373D01*
X60186Y66368D01*
X60183Y66364D01*
X60383Y65764D01*
X60388Y65761D01*
X60386Y65758D01*
X60686Y65158D01*
X60696Y65153D01*
X60695Y65145D01*
X61195Y64645D01*
X61204Y64644D01*
X61205Y64638D01*
X61705Y64338D01*
X61708Y64338D01*
X61708Y64336D01*
X62308Y64036D01*
X62315Y64037D01*
X62316Y64033D01*
X63016Y63833D01*
X63026Y63836D01*
X63030Y63831D01*
X64430Y63831D01*
X64434Y63834D01*
G37*
G36*
X73134Y63834D02*
X73134Y63834D01*
X73137Y63831D01*
X73837Y63931D01*
X73845Y63939D01*
X73852Y63936D01*
X74452Y64236D01*
X74455Y64243D01*
X74461Y64242D01*
X74961Y64642D01*
X74962Y64646D01*
X74965Y64645D01*
X75365Y65045D01*
X75366Y65057D01*
X75374Y65058D01*
X75674Y65658D01*
X75673Y65663D01*
X75677Y65664D01*
X75877Y66264D01*
X75876Y66266D01*
X75877Y66266D01*
X75881Y66280D01*
X75895Y66329D01*
X75937Y66477D01*
X75938Y66477D01*
X75937Y66477D01*
X75980Y66625D01*
X75994Y66674D01*
X76036Y66822D01*
X76077Y66966D01*
X76076Y66969D01*
X76077Y66969D01*
X76075Y66973D01*
X76074Y66976D01*
X76079Y66980D01*
X76079Y68480D01*
X76076Y68484D01*
X76079Y68487D01*
X75979Y69187D01*
X75974Y69192D01*
X75977Y69196D01*
X75577Y70396D01*
X75572Y70399D01*
X75574Y70402D01*
X74974Y71602D01*
X74967Y71605D01*
X74968Y71611D01*
X74568Y72111D01*
X74561Y72113D01*
X74561Y72118D01*
X73561Y72918D01*
X73553Y72919D01*
X73552Y72924D01*
X72952Y73224D01*
X72945Y73223D01*
X72944Y73227D01*
X72244Y73427D01*
X72240Y73426D01*
X72238Y73429D01*
X71638Y73529D01*
X71633Y73526D01*
X71630Y73529D01*
X70130Y73529D01*
X70105Y73510D01*
X70092Y73511D01*
X69692Y73011D01*
X69691Y72988D01*
X69681Y72980D01*
X69681Y72280D01*
X69684Y72276D01*
X69681Y72273D01*
X69781Y71573D01*
X69800Y71554D01*
X69800Y71541D01*
X70200Y71241D01*
X70218Y71241D01*
X70224Y71231D01*
X71023Y71131D01*
X71619Y71032D01*
X72307Y70835D01*
X72795Y70445D01*
X73285Y69857D01*
X73360Y69555D01*
X72846Y69727D01*
X72835Y69723D01*
X72830Y69729D01*
X72130Y69729D01*
X72122Y69723D01*
X72116Y69727D01*
X71416Y69527D01*
X71412Y69522D01*
X71408Y69524D01*
X70808Y69224D01*
X70805Y69217D01*
X70799Y69218D01*
X70299Y68818D01*
X70298Y68814D01*
X70295Y68815D01*
X69795Y68315D01*
X69794Y68303D01*
X69786Y68302D01*
X69486Y67702D01*
X69488Y67692D01*
X69481Y67688D01*
X69381Y67088D01*
X69384Y67083D01*
X69381Y67080D01*
X69381Y66880D01*
X69384Y66876D01*
X69381Y66873D01*
X69481Y66173D01*
X69486Y66168D01*
X69483Y66164D01*
X69683Y65564D01*
X69688Y65561D01*
X69686Y65558D01*
X69986Y64958D01*
X69999Y64951D01*
X69999Y64942D01*
X70499Y64542D01*
X70503Y64541D01*
X70503Y64539D01*
X71103Y64139D01*
X71112Y64140D01*
X71114Y64133D01*
X71714Y63933D01*
X71721Y63935D01*
X71723Y63931D01*
X72423Y63831D01*
X72428Y63834D01*
X72430Y63831D01*
X73130Y63831D01*
X73134Y63834D01*
G37*
G36*
X57489Y160358D02*
X57489Y160358D01*
X57496Y160353D01*
X58096Y160553D01*
X58101Y160561D01*
X58107Y160559D01*
X59307Y161359D01*
X59310Y161366D01*
X59315Y161365D01*
X59715Y161765D01*
X59717Y161778D01*
X59725Y161781D01*
X60025Y162481D01*
X60020Y162501D01*
X60023Y162504D01*
X60024Y162504D01*
X60024Y162505D01*
X60028Y162510D01*
X59928Y163010D01*
X59915Y163021D01*
X59918Y163032D01*
X59418Y163632D01*
X59394Y163637D01*
X59388Y163649D01*
X58788Y163749D01*
X58784Y163746D01*
X58782Y163749D01*
X58779Y163749D01*
X58771Y163742D01*
X58764Y163747D01*
X58164Y163547D01*
X58155Y163533D01*
X58145Y163535D01*
X57649Y163038D01*
X57062Y162647D01*
X56387Y162551D01*
X55714Y162839D01*
X55434Y163306D01*
X55620Y163865D01*
X56195Y164153D01*
X56788Y164251D01*
X56791Y164255D01*
X56794Y164253D01*
X57494Y164453D01*
X57496Y164456D01*
X57499Y164455D01*
X58199Y164755D01*
X58202Y164759D01*
X58205Y164758D01*
X58705Y165058D01*
X58707Y165062D01*
X58711Y165062D01*
X59211Y165462D01*
X59213Y165469D01*
X59218Y165469D01*
X59618Y165969D01*
X59619Y165983D01*
X59627Y165986D01*
X59660Y166100D01*
X59674Y166149D01*
X59716Y166297D01*
X59758Y166444D01*
X59772Y166494D01*
X59814Y166641D01*
X59815Y166641D01*
X59814Y166641D01*
X59827Y166686D01*
X59826Y166689D01*
X59828Y166691D01*
X59827Y166692D01*
X59829Y166693D01*
X59929Y167393D01*
X59923Y167403D01*
X59929Y167408D01*
X59829Y168008D01*
X59824Y168012D01*
X59827Y168016D01*
X59627Y168616D01*
X59619Y168621D01*
X59621Y168627D01*
X59221Y169227D01*
X59211Y169231D01*
X59211Y169238D01*
X58711Y169638D01*
X58703Y169639D01*
X58702Y169644D01*
X58102Y169944D01*
X58097Y169943D01*
X58096Y169947D01*
X57496Y170147D01*
X57489Y170145D01*
X57487Y170149D01*
X56787Y170249D01*
X56779Y170244D01*
X56774Y170249D01*
X55974Y170149D01*
X55973Y170148D01*
X55972Y170149D01*
X55372Y170049D01*
X55369Y170045D01*
X55366Y170047D01*
X54666Y169847D01*
X54658Y169836D01*
X54649Y169838D01*
X54149Y169438D01*
X54148Y169434D01*
X54145Y169435D01*
X53645Y168935D01*
X53642Y168908D01*
X53631Y168900D01*
X53631Y168400D01*
X53644Y168383D01*
X53640Y168371D01*
X54140Y167671D01*
X54154Y167667D01*
X54155Y167658D01*
X54655Y167358D01*
X54673Y167360D01*
X54680Y167351D01*
X55280Y167351D01*
X55299Y167365D01*
X55312Y167362D01*
X55904Y167856D01*
X56485Y168050D01*
X57154Y167954D01*
X57525Y167490D01*
X57339Y166932D01*
X56760Y166546D01*
X55469Y166248D01*
X55467Y166245D01*
X55464Y166247D01*
X54864Y166047D01*
X54861Y166042D01*
X54858Y166044D01*
X54258Y165744D01*
X54255Y165737D01*
X54249Y165738D01*
X53749Y165338D01*
X53747Y165331D01*
X53742Y165331D01*
X53342Y164831D01*
X53341Y164818D01*
X53333Y164816D01*
X53133Y164216D01*
X53136Y164209D01*
X53131Y164206D01*
X53031Y163406D01*
X53036Y163398D01*
X53031Y163393D01*
X53131Y162693D01*
X53136Y162688D01*
X53133Y162684D01*
X53333Y162084D01*
X53341Y162079D01*
X53339Y162073D01*
X53739Y161473D01*
X53749Y161469D01*
X53749Y161462D01*
X54249Y161062D01*
X54254Y161061D01*
X54255Y161058D01*
X54755Y160758D01*
X54760Y160758D01*
X54761Y160755D01*
X55461Y160455D01*
X55469Y160457D01*
X55472Y160451D01*
X56072Y160351D01*
X56077Y160354D01*
X56080Y160351D01*
X57480Y160351D01*
X57489Y160358D01*
G37*
G36*
X82038Y63837D02*
X82038Y63837D01*
X82044Y63833D01*
X82744Y64033D01*
X82745Y64034D01*
X82746Y64033D01*
X83346Y64233D01*
X83349Y64238D01*
X83352Y64236D01*
X83952Y64536D01*
X83954Y64540D01*
X83957Y64539D01*
X84557Y64939D01*
X84560Y64946D01*
X84565Y64945D01*
X85065Y65445D01*
X85065Y65449D01*
X85068Y65449D01*
X85468Y65949D01*
X85469Y65954D01*
X85472Y65955D01*
X85772Y66455D01*
X85772Y66460D01*
X85775Y66461D01*
X86075Y67161D01*
X86075Y67164D01*
X86077Y67164D01*
X86277Y67764D01*
X86273Y67775D01*
X86279Y67780D01*
X86279Y69180D01*
X86276Y69184D01*
X86279Y69187D01*
X86179Y69887D01*
X86178Y69888D01*
X86179Y69888D01*
X86079Y70488D01*
X86071Y70495D01*
X86074Y70502D01*
X85774Y71102D01*
X85770Y71104D01*
X85771Y71107D01*
X85371Y71707D01*
X85368Y71708D01*
X85368Y71711D01*
X84968Y72211D01*
X84961Y72213D01*
X84961Y72218D01*
X84461Y72618D01*
X84457Y72619D01*
X84457Y72621D01*
X83857Y73021D01*
X83851Y73021D01*
X83849Y73025D01*
X83149Y73325D01*
X83146Y73325D01*
X83146Y73327D01*
X82546Y73527D01*
X82539Y73525D01*
X82537Y73529D01*
X81837Y73629D01*
X81832Y73626D01*
X81830Y73629D01*
X81230Y73629D01*
X81226Y73626D01*
X81223Y73629D01*
X79823Y73429D01*
X79815Y73421D01*
X79808Y73424D01*
X78608Y72824D01*
X78601Y72811D01*
X78592Y72811D01*
X78192Y72311D01*
X78191Y72293D01*
X78181Y72288D01*
X78081Y71688D01*
X78093Y71665D01*
X78089Y71653D01*
X78489Y71053D01*
X78496Y71050D01*
X78495Y71045D01*
X78995Y70545D01*
X79022Y70542D01*
X79030Y70531D01*
X79530Y70531D01*
X79546Y70543D01*
X79557Y70539D01*
X80152Y70935D01*
X80741Y71132D01*
X81430Y71230D01*
X82115Y71132D01*
X82708Y70836D01*
X83296Y70542D01*
X83685Y69958D01*
X83881Y69372D01*
X83881Y67992D01*
X83588Y67407D01*
X83196Y66917D01*
X82605Y66523D01*
X82018Y66229D01*
X80742Y66229D01*
X80153Y66524D01*
X79454Y66923D01*
X79429Y66919D01*
X79418Y66928D01*
X79018Y66828D01*
X79006Y66813D01*
X78995Y66815D01*
X78495Y66315D01*
X78494Y66305D01*
X78487Y66304D01*
X78087Y65604D01*
X78091Y65576D01*
X78083Y65564D01*
X78283Y64964D01*
X78300Y64953D01*
X78299Y64942D01*
X78799Y64542D01*
X78804Y64541D01*
X78805Y64538D01*
X79305Y64238D01*
X79314Y64239D01*
X79316Y64233D01*
X80716Y63833D01*
X80726Y63836D01*
X80730Y63831D01*
X82030Y63831D01*
X82038Y63837D01*
G37*
G36*
X96157Y7959D02*
X96157Y7959D01*
X96166Y7953D01*
X96766Y8153D01*
X96777Y8170D01*
X96788Y8169D01*
X97188Y8669D01*
X97189Y8676D01*
X97189Y8677D01*
X97194Y8678D01*
X100794Y15978D01*
X100793Y15983D01*
X100797Y15984D01*
X100997Y16584D01*
X100987Y16613D01*
X100992Y16625D01*
X100692Y17125D01*
X100676Y17132D01*
X100674Y17143D01*
X99974Y17543D01*
X99962Y17541D01*
X99958Y17549D01*
X99358Y17649D01*
X99328Y17633D01*
X99315Y17635D01*
X98815Y17135D01*
X98814Y17130D01*
X98811Y17130D01*
X98511Y16730D01*
X98511Y16721D01*
X98505Y16720D01*
X96212Y11436D01*
X96073Y11367D01*
X93194Y17421D01*
X93170Y17434D01*
X93166Y17447D01*
X92566Y17647D01*
X92545Y17640D01*
X92534Y17647D01*
X91934Y17447D01*
X91927Y17436D01*
X91918Y17438D01*
X91318Y16938D01*
X91315Y16921D01*
X91304Y16918D01*
X91104Y16418D01*
X91111Y16392D01*
X91105Y16381D01*
X91405Y15681D01*
X91406Y15680D01*
X91406Y15679D01*
X94606Y9079D01*
X94610Y9076D01*
X94609Y9073D01*
X95009Y8473D01*
X95019Y8469D01*
X95019Y8462D01*
X95519Y8062D01*
X95537Y8061D01*
X95542Y8051D01*
X96142Y7951D01*
X96157Y7959D01*
G37*
G36*
X105748Y63845D02*
X105748Y63845D01*
X105761Y63842D01*
X106261Y64242D01*
X106265Y64257D01*
X106270Y64261D01*
X106267Y64265D01*
X106267Y64266D01*
X106279Y64272D01*
X106379Y64872D01*
X106376Y64877D01*
X106379Y64880D01*
X106379Y71068D01*
X106560Y71431D01*
X108630Y71431D01*
X108634Y71434D01*
X108637Y71431D01*
X109337Y71531D01*
X109352Y71547D01*
X109365Y71545D01*
X109765Y71945D01*
X109769Y71972D01*
X109779Y71980D01*
X109779Y72680D01*
X109772Y72689D01*
X109777Y72696D01*
X109577Y73296D01*
X109542Y73319D01*
X109537Y73329D01*
X108837Y73429D01*
X108832Y73426D01*
X108830Y73429D01*
X101330Y73429D01*
X101317Y73420D01*
X101308Y73424D01*
X100708Y73124D01*
X100690Y73087D01*
X100681Y73080D01*
X100681Y72380D01*
X100684Y72375D01*
X100681Y72372D01*
X100781Y71772D01*
X100806Y71749D01*
X100808Y71736D01*
X101408Y71436D01*
X101424Y71439D01*
X101430Y71431D01*
X103427Y71431D01*
X104081Y71337D01*
X104081Y64580D01*
X104090Y64567D01*
X104086Y64558D01*
X104386Y63958D01*
X104416Y63943D01*
X104422Y63931D01*
X105022Y63831D01*
X105027Y63834D01*
X105030Y63831D01*
X105730Y63831D01*
X105748Y63845D01*
G37*
G36*
X73494Y149304D02*
X73494Y149304D01*
X73507Y149305D01*
X74804Y151244D01*
X75790Y151244D01*
X75790Y149332D01*
X75826Y149285D01*
X75833Y149291D01*
X75839Y149283D01*
X77188Y149283D01*
X77235Y149319D01*
X77229Y149326D01*
X77237Y149332D01*
X77237Y155463D01*
X77201Y155511D01*
X77193Y155505D01*
X77188Y155513D01*
X74385Y155513D01*
X74383Y155511D01*
X74382Y155512D01*
X73864Y155479D01*
X73860Y155475D01*
X73857Y155478D01*
X73400Y155378D01*
X73396Y155373D01*
X73391Y155375D01*
X72996Y155208D01*
X72992Y155201D01*
X72987Y155203D01*
X72651Y154969D01*
X72649Y154961D01*
X72643Y154961D01*
X72376Y154667D01*
X72376Y154659D01*
X72370Y154658D01*
X72180Y154311D01*
X72181Y154303D01*
X72176Y154301D01*
X72067Y153918D01*
X72062Y153903D01*
X72065Y153896D01*
X72060Y153893D01*
X72022Y153442D01*
X72024Y153439D01*
X72022Y153438D01*
X72022Y153420D01*
X72025Y153416D01*
X72023Y153413D01*
X72115Y152738D01*
X72123Y152730D01*
X72120Y152723D01*
X72393Y152186D01*
X72404Y152180D01*
X72403Y152173D01*
X72822Y151768D01*
X72832Y151767D01*
X72833Y151760D01*
X73316Y151504D01*
X71848Y149360D01*
X71848Y149351D01*
X71841Y149346D01*
X71849Y149335D01*
X71851Y149301D01*
X71874Y149302D01*
X71889Y149283D01*
X73466Y149283D01*
X73494Y149304D01*
G37*
G36*
X90009Y149328D02*
X90009Y149328D01*
X90003Y149336D01*
X90011Y149341D01*
X90011Y155472D01*
X89975Y155520D01*
X89967Y155514D01*
X89962Y155522D01*
X87456Y155522D01*
X87454Y155520D01*
X87453Y155521D01*
X86928Y155481D01*
X86925Y155479D01*
X86922Y155479D01*
X86921Y155479D01*
X86920Y155480D01*
X86457Y155365D01*
X86452Y155359D01*
X86448Y155362D01*
X86047Y155175D01*
X86044Y155169D01*
X86039Y155170D01*
X85703Y154922D01*
X85701Y154915D01*
X85696Y154915D01*
X85426Y154606D01*
X85426Y154598D01*
X85420Y154597D01*
X85223Y154234D01*
X85224Y154226D01*
X85219Y154224D01*
X85130Y153917D01*
X85100Y153813D01*
X85102Y153806D01*
X85098Y153803D01*
X85057Y153351D01*
X85059Y153348D01*
X85057Y153346D01*
X85057Y153328D01*
X85063Y153320D01*
X85110Y152831D01*
X85116Y152825D01*
X85112Y152820D01*
X85256Y152385D01*
X85263Y152380D01*
X85261Y152374D01*
X85490Y152003D01*
X85498Y152000D01*
X85497Y151995D01*
X85798Y151689D01*
X85806Y151688D01*
X85806Y151682D01*
X86171Y151446D01*
X86178Y151446D01*
X86179Y151441D01*
X86601Y151271D01*
X86607Y151272D01*
X86609Y151268D01*
X87078Y151166D01*
X87083Y151168D01*
X87086Y151165D01*
X87585Y151130D01*
X87588Y151132D01*
X87589Y151130D01*
X88564Y151130D01*
X88564Y149341D01*
X88600Y149294D01*
X88607Y149300D01*
X88613Y149292D01*
X89962Y149292D01*
X90009Y149328D01*
G37*
G36*
X66918Y149303D02*
X66918Y149303D01*
X66931Y149303D01*
X68799Y151866D01*
X69453Y151187D01*
X69453Y149332D01*
X69489Y149285D01*
X69496Y149291D01*
X69502Y149283D01*
X70851Y149283D01*
X70898Y149319D01*
X70892Y149326D01*
X70900Y149332D01*
X70900Y155463D01*
X70864Y155511D01*
X70857Y155505D01*
X70851Y155513D01*
X69502Y155513D01*
X69455Y155477D01*
X69460Y155469D01*
X69453Y155463D01*
X69453Y152910D01*
X68499Y153937D01*
X67051Y155497D01*
X67023Y155502D01*
X67015Y155513D01*
X65387Y155513D01*
X65377Y155505D01*
X65364Y155507D01*
X65362Y155493D01*
X65340Y155477D01*
X65356Y155455D01*
X65352Y155429D01*
X66849Y153869D01*
X67819Y152858D01*
X65233Y149361D01*
X65233Y149352D01*
X65226Y149346D01*
X65234Y149335D01*
X65234Y149302D01*
X65258Y149302D01*
X65273Y149283D01*
X66891Y149283D01*
X66918Y149303D01*
G37*
G36*
X93379Y149186D02*
X93379Y149186D01*
X93381Y149183D01*
X94076Y149244D01*
X94081Y149248D01*
X94085Y149245D01*
X94766Y149426D01*
X94770Y149432D01*
X94774Y149429D01*
X95418Y149735D01*
X95421Y149741D01*
X95426Y149740D01*
X96008Y150175D01*
X96014Y150195D01*
X96024Y150203D01*
X96018Y150211D01*
X96024Y150232D01*
X96014Y150235D01*
X96016Y150246D01*
X95221Y151202D01*
X95163Y151215D01*
X95161Y151208D01*
X95154Y151210D01*
X94730Y150904D01*
X94299Y150672D01*
X93845Y150524D01*
X93350Y150474D01*
X92987Y150513D01*
X92724Y150622D01*
X92566Y150787D01*
X92512Y151011D01*
X92512Y151019D01*
X92558Y151233D01*
X92725Y151404D01*
X93092Y151572D01*
X93715Y151754D01*
X93716Y151754D01*
X94562Y152010D01*
X94566Y152016D01*
X94571Y152014D01*
X95211Y152361D01*
X95215Y152371D01*
X95222Y152370D01*
X95455Y152600D01*
X95456Y152608D01*
X95462Y152609D01*
X95636Y152891D01*
X95636Y152900D01*
X95641Y152902D01*
X95751Y153248D01*
X95748Y153254D01*
X95752Y153257D01*
X95751Y153257D01*
X95753Y153258D01*
X95790Y153676D01*
X95788Y153679D01*
X95790Y153680D01*
X95790Y153698D01*
X95788Y153701D01*
X95790Y153703D01*
X95770Y153908D01*
X95752Y154105D01*
X95746Y154111D01*
X95749Y154116D01*
X95632Y154473D01*
X95625Y154477D01*
X95627Y154483D01*
X95439Y154795D01*
X95432Y154798D01*
X95433Y154803D01*
X95182Y155072D01*
X95175Y155073D01*
X95174Y155079D01*
X94863Y155293D01*
X94856Y155293D01*
X94855Y155298D01*
X94489Y155458D01*
X94483Y155457D01*
X94481Y155461D01*
X94070Y155560D01*
X94064Y155557D01*
X94062Y155561D01*
X93609Y155595D01*
X93604Y155592D01*
X93602Y155595D01*
X92955Y155544D01*
X92950Y155540D01*
X92946Y155542D01*
X92354Y155392D01*
X92350Y155387D01*
X92346Y155389D01*
X91805Y155146D01*
X91802Y155140D01*
X91798Y155142D01*
X91301Y154809D01*
X91282Y154753D01*
X91291Y154750D01*
X91288Y154740D01*
X91885Y153875D01*
X91988Y153725D01*
X92044Y153707D01*
X92046Y153713D01*
X92052Y153710D01*
X92324Y153860D01*
X92852Y154151D01*
X93236Y154268D01*
X93619Y154307D01*
X93949Y154269D01*
X94179Y154161D01*
X94312Y154008D01*
X94339Y153892D01*
X94356Y153816D01*
X94356Y153809D01*
X94306Y153568D01*
X94118Y153389D01*
X93722Y153229D01*
X93071Y153046D01*
X93070Y153045D01*
X93069Y153046D01*
X92237Y152771D01*
X92232Y152765D01*
X92227Y152767D01*
X91614Y152401D01*
X91611Y152392D01*
X91604Y152393D01*
X91383Y152160D01*
X91383Y152152D01*
X91377Y152151D01*
X91218Y151881D01*
X91219Y151872D01*
X91213Y151870D01*
X91193Y151806D01*
X91148Y151658D01*
X91117Y151554D01*
X91119Y151547D01*
X91115Y151544D01*
X91083Y151170D01*
X91085Y151167D01*
X91083Y151166D01*
X91083Y151129D01*
X91085Y151126D01*
X91083Y151124D01*
X91124Y150696D01*
X91130Y150690D01*
X91126Y150685D01*
X91250Y150305D01*
X91257Y150300D01*
X91255Y150294D01*
X91453Y149969D01*
X91461Y149966D01*
X91460Y149961D01*
X91723Y149691D01*
X91731Y149690D01*
X91732Y149684D01*
X92059Y149474D01*
X92066Y149474D01*
X92067Y149469D01*
X92449Y149314D01*
X92455Y149316D01*
X92456Y149312D01*
X92889Y149215D01*
X92894Y149217D01*
X92897Y149214D01*
X93374Y149182D01*
X93379Y149186D01*
G37*
G36*
X79584Y149311D02*
X79584Y149311D01*
X79592Y149314D01*
X81403Y153755D01*
X83214Y149314D01*
X83254Y149290D01*
X83259Y149283D01*
X84635Y149283D01*
X84638Y149285D01*
X84642Y149283D01*
X84646Y149291D01*
X84683Y149319D01*
X84671Y149334D01*
X84681Y149351D01*
X82736Y153922D01*
X82052Y155528D01*
X82012Y155551D01*
X82006Y155558D01*
X80763Y155558D01*
X80726Y155530D01*
X80718Y155528D01*
X80034Y153922D01*
X78089Y149351D01*
X78090Y149348D01*
X78087Y149346D01*
X78092Y149338D01*
X78103Y149294D01*
X78122Y149299D01*
X78134Y149283D01*
X79547Y149283D01*
X79584Y149311D01*
G37*
%LPC*%
G36*
X55596Y149381D02*
X55596Y149381D01*
X57216Y151756D01*
X57683Y152441D01*
X57682Y152459D01*
X57685Y152462D01*
X57682Y152466D01*
X57681Y152489D01*
X57683Y152496D01*
X55687Y155414D01*
X57099Y155414D01*
X58383Y153447D01*
X58387Y153446D01*
X58387Y153442D01*
X58397Y153443D01*
X58439Y153427D01*
X58446Y153446D01*
X58465Y153448D01*
X59740Y155414D01*
X61198Y155414D01*
X59202Y152478D01*
X59204Y152430D01*
X59202Y152422D01*
X59659Y151756D01*
X61289Y149381D01*
X59877Y149381D01*
X58506Y151462D01*
X58503Y151464D01*
X58502Y151468D01*
X58493Y151467D01*
X58450Y151482D01*
X58444Y151464D01*
X58424Y151462D01*
X57062Y149381D01*
X55596Y149381D01*
G37*
%LPD*%
%LPC*%
G36*
X95370Y162749D02*
X95370Y162749D01*
X95185Y162935D01*
X95181Y162935D01*
X95181Y162938D01*
X94687Y163334D01*
X94293Y163925D01*
X93997Y164515D01*
X93900Y165101D01*
X93998Y165785D01*
X94293Y166375D01*
X94684Y166962D01*
X95272Y167256D01*
X95862Y167551D01*
X97230Y167551D01*
X97501Y167280D01*
X97501Y163205D01*
X97410Y162749D01*
X95370Y162749D01*
G37*
%LPD*%
%LPC*%
G36*
X54339Y66229D02*
X54339Y66229D01*
X53861Y66421D01*
X53572Y66806D01*
X53278Y67394D01*
X53179Y68283D01*
X53179Y69277D01*
X53279Y70074D01*
X53249Y70125D01*
X53244Y70122D01*
X53241Y70128D01*
X53223Y70132D01*
X53228Y70135D01*
X53232Y70135D01*
X53241Y70142D01*
X53273Y70158D01*
X53274Y70158D01*
X53572Y70754D01*
X53862Y71141D01*
X54242Y71331D01*
X54814Y71331D01*
X55195Y71045D01*
X55485Y70658D01*
X55681Y69971D01*
X55781Y68980D01*
X55681Y67986D01*
X55582Y67195D01*
X55289Y66609D01*
X55006Y66325D01*
X54525Y66229D01*
X54339Y66229D01*
G37*
%LPD*%
%LPC*%
G36*
X45042Y66229D02*
X45042Y66229D01*
X44659Y66421D01*
X44273Y66807D01*
X44078Y67391D01*
X43979Y68283D01*
X43979Y69277D01*
X44079Y70074D01*
X44049Y70125D01*
X44043Y70122D01*
X44040Y70128D01*
X44022Y70132D01*
X44028Y70135D01*
X44031Y70135D01*
X44039Y70141D01*
X44074Y70158D01*
X44072Y70163D01*
X44077Y70164D01*
X44274Y70757D01*
X44561Y71139D01*
X45039Y71331D01*
X45514Y71331D01*
X45895Y71045D01*
X46185Y70658D01*
X46381Y69971D01*
X46481Y68978D01*
X46481Y67986D01*
X46284Y67197D01*
X45989Y66609D01*
X45706Y66325D01*
X45225Y66229D01*
X45042Y66229D01*
G37*
%LPD*%
%LPC*%
G36*
X74475Y152536D02*
X74475Y152536D01*
X74045Y152595D01*
X73737Y152763D01*
X73550Y153022D01*
X73488Y153360D01*
X73488Y153365D01*
X73554Y153733D01*
X73662Y153873D01*
X73750Y153989D01*
X74067Y154144D01*
X74502Y154198D01*
X75790Y154198D01*
X75790Y152536D01*
X74475Y152536D01*
G37*
%LPD*%
%LPC*%
G36*
X87542Y152422D02*
X87542Y152422D01*
X87106Y152485D01*
X86787Y152675D01*
X86589Y152958D01*
X86523Y153305D01*
X86523Y153314D01*
X86592Y153698D01*
X86725Y153873D01*
X86798Y153971D01*
X87126Y154140D01*
X87569Y154198D01*
X88559Y154198D01*
X88559Y152422D01*
X87542Y152422D01*
G37*
%LPD*%
%LPC*%
G36*
X72154Y66126D02*
X72154Y66126D01*
X71779Y66500D01*
X71779Y67060D01*
X72250Y67531D01*
X72918Y67531D01*
X73486Y67247D01*
X73579Y66684D01*
X73393Y66124D01*
X72731Y66030D01*
X72154Y66126D01*
G37*
%LPD*%
M02*
