G04 EAGLE Gerber RS-274X export*
G75*
%MOMM*%
%FSLAX34Y34*%
%LPD*%
%IN*%
%IPPOS*%
%AMOC8*
5,1,8,0,0,1.08239X$1,22.5*%
G01*
%ADD10C,0.203200*%
%ADD11C,0.025400*%
%ADD12C,0.254000*%
%ADD13C,0.000000*%
%ADD14C,0.254000*%


D10*
X660200Y344250D02*
X660200Y566340D01*
X558600Y566340D01*
X558600Y344250D02*
X660200Y344250D01*
X558600Y344250D02*
X558600Y566340D01*
D11*
X613903Y451411D02*
X613903Y450289D01*
X613903Y451411D02*
X613591Y451411D01*
X613591Y451412D02*
X613557Y451410D01*
X613524Y451405D01*
X613491Y451396D01*
X613460Y451383D01*
X613430Y451367D01*
X613402Y451348D01*
X613376Y451327D01*
X613353Y451302D01*
X613333Y451275D01*
X613315Y451246D01*
X613301Y451215D01*
X613290Y451183D01*
X613283Y451150D01*
X613279Y451117D01*
X613279Y451083D01*
X613283Y451050D01*
X613290Y451017D01*
X613301Y450985D01*
X613315Y450954D01*
X613333Y450925D01*
X613353Y450898D01*
X613376Y450873D01*
X613402Y450852D01*
X613430Y450833D01*
X613460Y450817D01*
X613491Y450804D01*
X613524Y450795D01*
X613557Y450790D01*
X613591Y450788D01*
X613903Y450788D01*
X613529Y450788D02*
X613279Y450289D01*
X612698Y450538D02*
X612698Y450788D01*
X612696Y450818D01*
X612691Y450848D01*
X612682Y450877D01*
X612669Y450904D01*
X612654Y450930D01*
X612635Y450954D01*
X612614Y450975D01*
X612590Y450994D01*
X612564Y451009D01*
X612537Y451022D01*
X612508Y451031D01*
X612478Y451036D01*
X612448Y451038D01*
X612418Y451036D01*
X612388Y451031D01*
X612359Y451022D01*
X612332Y451009D01*
X612306Y450994D01*
X612282Y450975D01*
X612261Y450954D01*
X612242Y450930D01*
X612227Y450904D01*
X612214Y450877D01*
X612205Y450848D01*
X612200Y450818D01*
X612198Y450788D01*
X612198Y450538D01*
X612200Y450508D01*
X612205Y450478D01*
X612214Y450449D01*
X612227Y450422D01*
X612242Y450396D01*
X612261Y450372D01*
X612282Y450351D01*
X612306Y450332D01*
X612332Y450317D01*
X612359Y450304D01*
X612388Y450295D01*
X612418Y450290D01*
X612448Y450288D01*
X612478Y450290D01*
X612508Y450295D01*
X612537Y450304D01*
X612564Y450317D01*
X612590Y450332D01*
X612614Y450351D01*
X612635Y450372D01*
X612654Y450396D01*
X612669Y450422D01*
X612682Y450449D01*
X612691Y450478D01*
X612696Y450508D01*
X612698Y450538D01*
X611582Y450476D02*
X611582Y451037D01*
X611582Y450476D02*
X611580Y450449D01*
X611574Y450423D01*
X611565Y450398D01*
X611552Y450375D01*
X611536Y450354D01*
X611517Y450335D01*
X611496Y450319D01*
X611473Y450306D01*
X611448Y450297D01*
X611422Y450291D01*
X611395Y450289D01*
X611083Y450289D01*
X611083Y451037D01*
X610586Y451037D02*
X610212Y451037D01*
X610462Y451411D02*
X610462Y450476D01*
X610461Y450476D02*
X610459Y450449D01*
X610453Y450423D01*
X610444Y450398D01*
X610431Y450375D01*
X610415Y450354D01*
X610396Y450335D01*
X610375Y450319D01*
X610352Y450306D01*
X610327Y450297D01*
X610301Y450291D01*
X610274Y450289D01*
X610275Y450289D02*
X610212Y450289D01*
X609495Y450289D02*
X609183Y450289D01*
X609495Y450289D02*
X609519Y450291D01*
X609543Y450295D01*
X609567Y450303D01*
X609589Y450314D01*
X609609Y450328D01*
X609627Y450344D01*
X609643Y450362D01*
X609657Y450383D01*
X609668Y450404D01*
X609676Y450428D01*
X609680Y450452D01*
X609682Y450476D01*
X609682Y450788D01*
X609683Y450788D02*
X609681Y450818D01*
X609676Y450848D01*
X609667Y450877D01*
X609654Y450904D01*
X609639Y450930D01*
X609620Y450954D01*
X609599Y450975D01*
X609575Y450994D01*
X609549Y451009D01*
X609522Y451022D01*
X609493Y451031D01*
X609463Y451036D01*
X609433Y451038D01*
X609403Y451036D01*
X609373Y451031D01*
X609344Y451022D01*
X609317Y451009D01*
X609291Y450994D01*
X609267Y450975D01*
X609246Y450954D01*
X609227Y450930D01*
X609212Y450904D01*
X609199Y450877D01*
X609190Y450848D01*
X609185Y450818D01*
X609183Y450788D01*
X609183Y450663D01*
X609682Y450663D01*
X607927Y450600D02*
X607927Y451100D01*
X607925Y451134D01*
X607920Y451167D01*
X607911Y451200D01*
X607898Y451231D01*
X607882Y451261D01*
X607863Y451289D01*
X607842Y451315D01*
X607817Y451338D01*
X607790Y451358D01*
X607761Y451376D01*
X607730Y451390D01*
X607698Y451401D01*
X607665Y451408D01*
X607632Y451412D01*
X607598Y451412D01*
X607565Y451408D01*
X607532Y451401D01*
X607500Y451390D01*
X607469Y451376D01*
X607440Y451358D01*
X607413Y451338D01*
X607388Y451315D01*
X607367Y451289D01*
X607348Y451261D01*
X607332Y451231D01*
X607319Y451200D01*
X607310Y451167D01*
X607305Y451134D01*
X607303Y451100D01*
X607303Y450600D01*
X607305Y450566D01*
X607310Y450533D01*
X607319Y450500D01*
X607332Y450469D01*
X607348Y450439D01*
X607367Y450411D01*
X607388Y450385D01*
X607413Y450362D01*
X607440Y450342D01*
X607469Y450324D01*
X607500Y450310D01*
X607532Y450299D01*
X607565Y450292D01*
X607598Y450288D01*
X607632Y450288D01*
X607665Y450292D01*
X607698Y450299D01*
X607730Y450310D01*
X607761Y450324D01*
X607790Y450342D01*
X607817Y450362D01*
X607842Y450385D01*
X607863Y450411D01*
X607882Y450439D01*
X607898Y450469D01*
X607911Y450500D01*
X607920Y450533D01*
X607925Y450566D01*
X607927Y450600D01*
X606667Y450476D02*
X606667Y451037D01*
X606667Y450476D02*
X606665Y450449D01*
X606659Y450423D01*
X606650Y450398D01*
X606637Y450375D01*
X606621Y450354D01*
X606602Y450335D01*
X606581Y450319D01*
X606558Y450306D01*
X606533Y450297D01*
X606507Y450291D01*
X606480Y450289D01*
X606168Y450289D01*
X606168Y451037D01*
X605671Y451037D02*
X605297Y451037D01*
X605546Y451411D02*
X605546Y450476D01*
X605544Y450449D01*
X605538Y450423D01*
X605529Y450398D01*
X605516Y450375D01*
X605500Y450354D01*
X605481Y450335D01*
X605460Y450319D01*
X605437Y450306D01*
X605412Y450297D01*
X605386Y450291D01*
X605359Y450289D01*
X605297Y450289D01*
D12*
X114300Y876300D02*
X1145200Y876300D01*
X1145814Y876293D01*
X1146427Y876270D01*
X1147040Y876233D01*
X1147651Y876181D01*
X1148262Y876115D01*
X1148870Y876033D01*
X1149476Y875937D01*
X1150080Y875827D01*
X1150681Y875702D01*
X1151279Y875562D01*
X1151873Y875408D01*
X1152463Y875239D01*
X1153049Y875057D01*
X1153630Y874860D01*
X1154207Y874649D01*
X1154778Y874425D01*
X1155344Y874187D01*
X1155904Y873935D01*
X1156457Y873669D01*
X1157004Y873391D01*
X1157544Y873099D01*
X1158077Y872794D01*
X1158602Y872476D01*
X1159120Y872146D01*
X1159629Y871804D01*
X1160130Y871449D01*
X1160622Y871082D01*
X1161105Y870704D01*
X1161579Y870314D01*
X1162043Y869912D01*
X1162498Y869500D01*
X1162942Y869076D01*
X1163376Y868642D01*
X1163800Y868198D01*
X1164212Y867743D01*
X1164614Y867279D01*
X1165004Y866805D01*
X1165382Y866322D01*
X1165749Y865830D01*
X1166104Y865329D01*
X1166446Y864820D01*
X1166776Y864302D01*
X1167094Y863777D01*
X1167399Y863244D01*
X1167691Y862704D01*
X1167969Y862157D01*
X1168235Y861604D01*
X1168487Y861044D01*
X1168725Y860478D01*
X1168949Y859907D01*
X1169160Y859330D01*
X1169357Y858749D01*
X1169539Y858163D01*
X1169708Y857573D01*
X1169862Y856979D01*
X1170002Y856381D01*
X1170127Y855780D01*
X1170237Y855176D01*
X1170333Y854570D01*
X1170415Y853962D01*
X1170481Y853351D01*
X1170533Y852740D01*
X1170570Y852127D01*
X1170593Y851514D01*
X1170600Y850900D01*
X1170600Y88900D01*
X1170593Y88286D01*
X1170570Y87673D01*
X1170533Y87060D01*
X1170481Y86449D01*
X1170415Y85838D01*
X1170333Y85230D01*
X1170237Y84624D01*
X1170127Y84020D01*
X1170002Y83419D01*
X1169862Y82821D01*
X1169708Y82227D01*
X1169539Y81637D01*
X1169357Y81051D01*
X1169160Y80470D01*
X1168949Y79893D01*
X1168725Y79322D01*
X1168487Y78756D01*
X1168235Y78196D01*
X1167969Y77643D01*
X1167691Y77096D01*
X1167399Y76556D01*
X1167094Y76023D01*
X1166776Y75498D01*
X1166446Y74980D01*
X1166104Y74471D01*
X1165749Y73970D01*
X1165382Y73478D01*
X1165004Y72995D01*
X1164614Y72521D01*
X1164212Y72057D01*
X1163800Y71602D01*
X1163376Y71158D01*
X1162942Y70724D01*
X1162498Y70300D01*
X1162043Y69888D01*
X1161579Y69486D01*
X1161105Y69096D01*
X1160622Y68718D01*
X1160130Y68351D01*
X1159629Y67996D01*
X1159120Y67654D01*
X1158602Y67324D01*
X1158077Y67006D01*
X1157544Y66701D01*
X1157004Y66409D01*
X1156457Y66131D01*
X1155904Y65865D01*
X1155344Y65613D01*
X1154778Y65375D01*
X1154207Y65151D01*
X1153630Y64940D01*
X1153049Y64743D01*
X1152463Y64561D01*
X1151873Y64392D01*
X1151279Y64238D01*
X1150681Y64098D01*
X1150080Y63973D01*
X1149476Y63863D01*
X1148870Y63767D01*
X1148262Y63685D01*
X1147651Y63619D01*
X1147040Y63567D01*
X1146427Y63530D01*
X1145814Y63507D01*
X1145200Y63500D01*
X114300Y63500D01*
X113686Y63507D01*
X113073Y63530D01*
X112460Y63567D01*
X111849Y63619D01*
X111238Y63685D01*
X110630Y63767D01*
X110024Y63863D01*
X109420Y63973D01*
X108819Y64098D01*
X108221Y64238D01*
X107627Y64392D01*
X107037Y64561D01*
X106451Y64743D01*
X105870Y64940D01*
X105293Y65151D01*
X104722Y65375D01*
X104156Y65613D01*
X103596Y65865D01*
X103043Y66131D01*
X102496Y66409D01*
X101956Y66701D01*
X101423Y67006D01*
X100898Y67324D01*
X100380Y67654D01*
X99871Y67996D01*
X99370Y68351D01*
X98878Y68718D01*
X98395Y69096D01*
X97921Y69486D01*
X97457Y69888D01*
X97002Y70300D01*
X96558Y70724D01*
X96124Y71158D01*
X95700Y71602D01*
X95288Y72057D01*
X94886Y72521D01*
X94496Y72995D01*
X94118Y73478D01*
X93751Y73970D01*
X93396Y74471D01*
X93054Y74980D01*
X92724Y75498D01*
X92406Y76023D01*
X92101Y76556D01*
X91809Y77096D01*
X91531Y77643D01*
X91265Y78196D01*
X91013Y78756D01*
X90775Y79322D01*
X90551Y79893D01*
X90340Y80470D01*
X90143Y81051D01*
X89961Y81637D01*
X89792Y82227D01*
X89638Y82821D01*
X89498Y83419D01*
X89373Y84020D01*
X89263Y84624D01*
X89167Y85230D01*
X89085Y85838D01*
X89019Y86449D01*
X88967Y87060D01*
X88930Y87673D01*
X88907Y88286D01*
X88900Y88900D01*
X88900Y850900D01*
X88907Y851514D01*
X88930Y852127D01*
X88967Y852740D01*
X89019Y853351D01*
X89085Y853962D01*
X89167Y854570D01*
X89263Y855176D01*
X89373Y855780D01*
X89498Y856381D01*
X89638Y856979D01*
X89792Y857573D01*
X89961Y858163D01*
X90143Y858749D01*
X90340Y859330D01*
X90551Y859907D01*
X90775Y860478D01*
X91013Y861044D01*
X91265Y861604D01*
X91531Y862157D01*
X91809Y862704D01*
X92101Y863244D01*
X92406Y863777D01*
X92724Y864302D01*
X93054Y864820D01*
X93396Y865329D01*
X93751Y865830D01*
X94118Y866322D01*
X94496Y866805D01*
X94886Y867279D01*
X95288Y867743D01*
X95700Y868198D01*
X96124Y868642D01*
X96558Y869076D01*
X97002Y869500D01*
X97457Y869912D01*
X97921Y870314D01*
X98395Y870704D01*
X98878Y871082D01*
X99370Y871449D01*
X99871Y871804D01*
X100380Y872146D01*
X100898Y872476D01*
X101423Y872794D01*
X101956Y873099D01*
X102496Y873391D01*
X103043Y873669D01*
X103596Y873935D01*
X104156Y874187D01*
X104722Y874425D01*
X105293Y874649D01*
X105870Y874860D01*
X106451Y875057D01*
X107037Y875239D01*
X107627Y875408D01*
X108221Y875562D01*
X108819Y875702D01*
X109420Y875827D01*
X110024Y875937D01*
X110630Y876033D01*
X111238Y876115D01*
X111849Y876181D01*
X112460Y876233D01*
X113073Y876270D01*
X113686Y876293D01*
X114300Y876300D01*
D13*
X486410Y355600D02*
X486415Y355974D01*
X486428Y356348D01*
X486451Y356721D01*
X486483Y357094D01*
X486525Y357466D01*
X486575Y357836D01*
X486634Y358205D01*
X486703Y358573D01*
X486780Y358939D01*
X486867Y359303D01*
X486962Y359665D01*
X487066Y360024D01*
X487179Y360381D01*
X487301Y360734D01*
X487431Y361085D01*
X487570Y361432D01*
X487717Y361776D01*
X487873Y362116D01*
X488037Y362452D01*
X488210Y362784D01*
X488390Y363112D01*
X488578Y363435D01*
X488774Y363753D01*
X488978Y364067D01*
X489190Y364375D01*
X489409Y364678D01*
X489636Y364976D01*
X489869Y365268D01*
X490110Y365554D01*
X490358Y365835D01*
X490612Y366109D01*
X490874Y366376D01*
X491141Y366638D01*
X491415Y366892D01*
X491696Y367140D01*
X491982Y367381D01*
X492274Y367614D01*
X492572Y367841D01*
X492875Y368060D01*
X493183Y368272D01*
X493497Y368476D01*
X493815Y368672D01*
X494138Y368860D01*
X494466Y369040D01*
X494798Y369213D01*
X495134Y369377D01*
X495474Y369533D01*
X495818Y369680D01*
X496165Y369819D01*
X496516Y369949D01*
X496869Y370071D01*
X497226Y370184D01*
X497585Y370288D01*
X497947Y370383D01*
X498311Y370470D01*
X498677Y370547D01*
X499045Y370616D01*
X499414Y370675D01*
X499784Y370725D01*
X500156Y370767D01*
X500529Y370799D01*
X500902Y370822D01*
X501276Y370835D01*
X501650Y370840D01*
X502024Y370835D01*
X502398Y370822D01*
X502771Y370799D01*
X503144Y370767D01*
X503516Y370725D01*
X503886Y370675D01*
X504255Y370616D01*
X504623Y370547D01*
X504989Y370470D01*
X505353Y370383D01*
X505715Y370288D01*
X506074Y370184D01*
X506431Y370071D01*
X506784Y369949D01*
X507135Y369819D01*
X507482Y369680D01*
X507826Y369533D01*
X508166Y369377D01*
X508502Y369213D01*
X508834Y369040D01*
X509162Y368860D01*
X509485Y368672D01*
X509803Y368476D01*
X510117Y368272D01*
X510425Y368060D01*
X510728Y367841D01*
X511026Y367614D01*
X511318Y367381D01*
X511604Y367140D01*
X511885Y366892D01*
X512159Y366638D01*
X512426Y366376D01*
X512688Y366109D01*
X512942Y365835D01*
X513190Y365554D01*
X513431Y365268D01*
X513664Y364976D01*
X513891Y364678D01*
X514110Y364375D01*
X514322Y364067D01*
X514526Y363753D01*
X514722Y363435D01*
X514910Y363112D01*
X515090Y362784D01*
X515263Y362452D01*
X515427Y362116D01*
X515583Y361776D01*
X515730Y361432D01*
X515869Y361085D01*
X515999Y360734D01*
X516121Y360381D01*
X516234Y360024D01*
X516338Y359665D01*
X516433Y359303D01*
X516520Y358939D01*
X516597Y358573D01*
X516666Y358205D01*
X516725Y357836D01*
X516775Y357466D01*
X516817Y357094D01*
X516849Y356721D01*
X516872Y356348D01*
X516885Y355974D01*
X516890Y355600D01*
X516885Y355226D01*
X516872Y354852D01*
X516849Y354479D01*
X516817Y354106D01*
X516775Y353734D01*
X516725Y353364D01*
X516666Y352995D01*
X516597Y352627D01*
X516520Y352261D01*
X516433Y351897D01*
X516338Y351535D01*
X516234Y351176D01*
X516121Y350819D01*
X515999Y350466D01*
X515869Y350115D01*
X515730Y349768D01*
X515583Y349424D01*
X515427Y349084D01*
X515263Y348748D01*
X515090Y348416D01*
X514910Y348088D01*
X514722Y347765D01*
X514526Y347447D01*
X514322Y347133D01*
X514110Y346825D01*
X513891Y346522D01*
X513664Y346224D01*
X513431Y345932D01*
X513190Y345646D01*
X512942Y345365D01*
X512688Y345091D01*
X512426Y344824D01*
X512159Y344562D01*
X511885Y344308D01*
X511604Y344060D01*
X511318Y343819D01*
X511026Y343586D01*
X510728Y343359D01*
X510425Y343140D01*
X510117Y342928D01*
X509803Y342724D01*
X509485Y342528D01*
X509162Y342340D01*
X508834Y342160D01*
X508502Y341987D01*
X508166Y341823D01*
X507826Y341667D01*
X507482Y341520D01*
X507135Y341381D01*
X506784Y341251D01*
X506431Y341129D01*
X506074Y341016D01*
X505715Y340912D01*
X505353Y340817D01*
X504989Y340730D01*
X504623Y340653D01*
X504255Y340584D01*
X503886Y340525D01*
X503516Y340475D01*
X503144Y340433D01*
X502771Y340401D01*
X502398Y340378D01*
X502024Y340365D01*
X501650Y340360D01*
X501276Y340365D01*
X500902Y340378D01*
X500529Y340401D01*
X500156Y340433D01*
X499784Y340475D01*
X499414Y340525D01*
X499045Y340584D01*
X498677Y340653D01*
X498311Y340730D01*
X497947Y340817D01*
X497585Y340912D01*
X497226Y341016D01*
X496869Y341129D01*
X496516Y341251D01*
X496165Y341381D01*
X495818Y341520D01*
X495474Y341667D01*
X495134Y341823D01*
X494798Y341987D01*
X494466Y342160D01*
X494138Y342340D01*
X493815Y342528D01*
X493497Y342724D01*
X493183Y342928D01*
X492875Y343140D01*
X492572Y343359D01*
X492274Y343586D01*
X491982Y343819D01*
X491696Y344060D01*
X491415Y344308D01*
X491141Y344562D01*
X490874Y344824D01*
X490612Y345091D01*
X490358Y345365D01*
X490110Y345646D01*
X489869Y345932D01*
X489636Y346224D01*
X489409Y346522D01*
X489190Y346825D01*
X488978Y347133D01*
X488774Y347447D01*
X488578Y347765D01*
X488390Y348088D01*
X488210Y348416D01*
X488037Y348748D01*
X487873Y349084D01*
X487717Y349424D01*
X487570Y349768D01*
X487431Y350115D01*
X487301Y350466D01*
X487179Y350819D01*
X487066Y351176D01*
X486962Y351535D01*
X486867Y351897D01*
X486780Y352261D01*
X486703Y352627D01*
X486634Y352995D01*
X486575Y353364D01*
X486525Y353734D01*
X486483Y354106D01*
X486451Y354479D01*
X486428Y354852D01*
X486415Y355226D01*
X486410Y355600D01*
X486410Y558800D02*
X486415Y559174D01*
X486428Y559548D01*
X486451Y559921D01*
X486483Y560294D01*
X486525Y560666D01*
X486575Y561036D01*
X486634Y561405D01*
X486703Y561773D01*
X486780Y562139D01*
X486867Y562503D01*
X486962Y562865D01*
X487066Y563224D01*
X487179Y563581D01*
X487301Y563934D01*
X487431Y564285D01*
X487570Y564632D01*
X487717Y564976D01*
X487873Y565316D01*
X488037Y565652D01*
X488210Y565984D01*
X488390Y566312D01*
X488578Y566635D01*
X488774Y566953D01*
X488978Y567267D01*
X489190Y567575D01*
X489409Y567878D01*
X489636Y568176D01*
X489869Y568468D01*
X490110Y568754D01*
X490358Y569035D01*
X490612Y569309D01*
X490874Y569576D01*
X491141Y569838D01*
X491415Y570092D01*
X491696Y570340D01*
X491982Y570581D01*
X492274Y570814D01*
X492572Y571041D01*
X492875Y571260D01*
X493183Y571472D01*
X493497Y571676D01*
X493815Y571872D01*
X494138Y572060D01*
X494466Y572240D01*
X494798Y572413D01*
X495134Y572577D01*
X495474Y572733D01*
X495818Y572880D01*
X496165Y573019D01*
X496516Y573149D01*
X496869Y573271D01*
X497226Y573384D01*
X497585Y573488D01*
X497947Y573583D01*
X498311Y573670D01*
X498677Y573747D01*
X499045Y573816D01*
X499414Y573875D01*
X499784Y573925D01*
X500156Y573967D01*
X500529Y573999D01*
X500902Y574022D01*
X501276Y574035D01*
X501650Y574040D01*
X502024Y574035D01*
X502398Y574022D01*
X502771Y573999D01*
X503144Y573967D01*
X503516Y573925D01*
X503886Y573875D01*
X504255Y573816D01*
X504623Y573747D01*
X504989Y573670D01*
X505353Y573583D01*
X505715Y573488D01*
X506074Y573384D01*
X506431Y573271D01*
X506784Y573149D01*
X507135Y573019D01*
X507482Y572880D01*
X507826Y572733D01*
X508166Y572577D01*
X508502Y572413D01*
X508834Y572240D01*
X509162Y572060D01*
X509485Y571872D01*
X509803Y571676D01*
X510117Y571472D01*
X510425Y571260D01*
X510728Y571041D01*
X511026Y570814D01*
X511318Y570581D01*
X511604Y570340D01*
X511885Y570092D01*
X512159Y569838D01*
X512426Y569576D01*
X512688Y569309D01*
X512942Y569035D01*
X513190Y568754D01*
X513431Y568468D01*
X513664Y568176D01*
X513891Y567878D01*
X514110Y567575D01*
X514322Y567267D01*
X514526Y566953D01*
X514722Y566635D01*
X514910Y566312D01*
X515090Y565984D01*
X515263Y565652D01*
X515427Y565316D01*
X515583Y564976D01*
X515730Y564632D01*
X515869Y564285D01*
X515999Y563934D01*
X516121Y563581D01*
X516234Y563224D01*
X516338Y562865D01*
X516433Y562503D01*
X516520Y562139D01*
X516597Y561773D01*
X516666Y561405D01*
X516725Y561036D01*
X516775Y560666D01*
X516817Y560294D01*
X516849Y559921D01*
X516872Y559548D01*
X516885Y559174D01*
X516890Y558800D01*
X516885Y558426D01*
X516872Y558052D01*
X516849Y557679D01*
X516817Y557306D01*
X516775Y556934D01*
X516725Y556564D01*
X516666Y556195D01*
X516597Y555827D01*
X516520Y555461D01*
X516433Y555097D01*
X516338Y554735D01*
X516234Y554376D01*
X516121Y554019D01*
X515999Y553666D01*
X515869Y553315D01*
X515730Y552968D01*
X515583Y552624D01*
X515427Y552284D01*
X515263Y551948D01*
X515090Y551616D01*
X514910Y551288D01*
X514722Y550965D01*
X514526Y550647D01*
X514322Y550333D01*
X514110Y550025D01*
X513891Y549722D01*
X513664Y549424D01*
X513431Y549132D01*
X513190Y548846D01*
X512942Y548565D01*
X512688Y548291D01*
X512426Y548024D01*
X512159Y547762D01*
X511885Y547508D01*
X511604Y547260D01*
X511318Y547019D01*
X511026Y546786D01*
X510728Y546559D01*
X510425Y546340D01*
X510117Y546128D01*
X509803Y545924D01*
X509485Y545728D01*
X509162Y545540D01*
X508834Y545360D01*
X508502Y545187D01*
X508166Y545023D01*
X507826Y544867D01*
X507482Y544720D01*
X507135Y544581D01*
X506784Y544451D01*
X506431Y544329D01*
X506074Y544216D01*
X505715Y544112D01*
X505353Y544017D01*
X504989Y543930D01*
X504623Y543853D01*
X504255Y543784D01*
X503886Y543725D01*
X503516Y543675D01*
X503144Y543633D01*
X502771Y543601D01*
X502398Y543578D01*
X502024Y543565D01*
X501650Y543560D01*
X501276Y543565D01*
X500902Y543578D01*
X500529Y543601D01*
X500156Y543633D01*
X499784Y543675D01*
X499414Y543725D01*
X499045Y543784D01*
X498677Y543853D01*
X498311Y543930D01*
X497947Y544017D01*
X497585Y544112D01*
X497226Y544216D01*
X496869Y544329D01*
X496516Y544451D01*
X496165Y544581D01*
X495818Y544720D01*
X495474Y544867D01*
X495134Y545023D01*
X494798Y545187D01*
X494466Y545360D01*
X494138Y545540D01*
X493815Y545728D01*
X493497Y545924D01*
X493183Y546128D01*
X492875Y546340D01*
X492572Y546559D01*
X492274Y546786D01*
X491982Y547019D01*
X491696Y547260D01*
X491415Y547508D01*
X491141Y547762D01*
X490874Y548024D01*
X490612Y548291D01*
X490358Y548565D01*
X490110Y548846D01*
X489869Y549132D01*
X489636Y549424D01*
X489409Y549722D01*
X489190Y550025D01*
X488978Y550333D01*
X488774Y550647D01*
X488578Y550965D01*
X488390Y551288D01*
X488210Y551616D01*
X488037Y551948D01*
X487873Y552284D01*
X487717Y552624D01*
X487570Y552968D01*
X487431Y553315D01*
X487301Y553666D01*
X487179Y554019D01*
X487066Y554376D01*
X486962Y554735D01*
X486867Y555097D01*
X486780Y555461D01*
X486703Y555827D01*
X486634Y556195D01*
X486575Y556564D01*
X486525Y556934D01*
X486483Y557306D01*
X486451Y557679D01*
X486428Y558052D01*
X486415Y558426D01*
X486410Y558800D01*
X702310Y355600D02*
X702315Y355974D01*
X702328Y356348D01*
X702351Y356721D01*
X702383Y357094D01*
X702425Y357466D01*
X702475Y357836D01*
X702534Y358205D01*
X702603Y358573D01*
X702680Y358939D01*
X702767Y359303D01*
X702862Y359665D01*
X702966Y360024D01*
X703079Y360381D01*
X703201Y360734D01*
X703331Y361085D01*
X703470Y361432D01*
X703617Y361776D01*
X703773Y362116D01*
X703937Y362452D01*
X704110Y362784D01*
X704290Y363112D01*
X704478Y363435D01*
X704674Y363753D01*
X704878Y364067D01*
X705090Y364375D01*
X705309Y364678D01*
X705536Y364976D01*
X705769Y365268D01*
X706010Y365554D01*
X706258Y365835D01*
X706512Y366109D01*
X706774Y366376D01*
X707041Y366638D01*
X707315Y366892D01*
X707596Y367140D01*
X707882Y367381D01*
X708174Y367614D01*
X708472Y367841D01*
X708775Y368060D01*
X709083Y368272D01*
X709397Y368476D01*
X709715Y368672D01*
X710038Y368860D01*
X710366Y369040D01*
X710698Y369213D01*
X711034Y369377D01*
X711374Y369533D01*
X711718Y369680D01*
X712065Y369819D01*
X712416Y369949D01*
X712769Y370071D01*
X713126Y370184D01*
X713485Y370288D01*
X713847Y370383D01*
X714211Y370470D01*
X714577Y370547D01*
X714945Y370616D01*
X715314Y370675D01*
X715684Y370725D01*
X716056Y370767D01*
X716429Y370799D01*
X716802Y370822D01*
X717176Y370835D01*
X717550Y370840D01*
X717924Y370835D01*
X718298Y370822D01*
X718671Y370799D01*
X719044Y370767D01*
X719416Y370725D01*
X719786Y370675D01*
X720155Y370616D01*
X720523Y370547D01*
X720889Y370470D01*
X721253Y370383D01*
X721615Y370288D01*
X721974Y370184D01*
X722331Y370071D01*
X722684Y369949D01*
X723035Y369819D01*
X723382Y369680D01*
X723726Y369533D01*
X724066Y369377D01*
X724402Y369213D01*
X724734Y369040D01*
X725062Y368860D01*
X725385Y368672D01*
X725703Y368476D01*
X726017Y368272D01*
X726325Y368060D01*
X726628Y367841D01*
X726926Y367614D01*
X727218Y367381D01*
X727504Y367140D01*
X727785Y366892D01*
X728059Y366638D01*
X728326Y366376D01*
X728588Y366109D01*
X728842Y365835D01*
X729090Y365554D01*
X729331Y365268D01*
X729564Y364976D01*
X729791Y364678D01*
X730010Y364375D01*
X730222Y364067D01*
X730426Y363753D01*
X730622Y363435D01*
X730810Y363112D01*
X730990Y362784D01*
X731163Y362452D01*
X731327Y362116D01*
X731483Y361776D01*
X731630Y361432D01*
X731769Y361085D01*
X731899Y360734D01*
X732021Y360381D01*
X732134Y360024D01*
X732238Y359665D01*
X732333Y359303D01*
X732420Y358939D01*
X732497Y358573D01*
X732566Y358205D01*
X732625Y357836D01*
X732675Y357466D01*
X732717Y357094D01*
X732749Y356721D01*
X732772Y356348D01*
X732785Y355974D01*
X732790Y355600D01*
X732785Y355226D01*
X732772Y354852D01*
X732749Y354479D01*
X732717Y354106D01*
X732675Y353734D01*
X732625Y353364D01*
X732566Y352995D01*
X732497Y352627D01*
X732420Y352261D01*
X732333Y351897D01*
X732238Y351535D01*
X732134Y351176D01*
X732021Y350819D01*
X731899Y350466D01*
X731769Y350115D01*
X731630Y349768D01*
X731483Y349424D01*
X731327Y349084D01*
X731163Y348748D01*
X730990Y348416D01*
X730810Y348088D01*
X730622Y347765D01*
X730426Y347447D01*
X730222Y347133D01*
X730010Y346825D01*
X729791Y346522D01*
X729564Y346224D01*
X729331Y345932D01*
X729090Y345646D01*
X728842Y345365D01*
X728588Y345091D01*
X728326Y344824D01*
X728059Y344562D01*
X727785Y344308D01*
X727504Y344060D01*
X727218Y343819D01*
X726926Y343586D01*
X726628Y343359D01*
X726325Y343140D01*
X726017Y342928D01*
X725703Y342724D01*
X725385Y342528D01*
X725062Y342340D01*
X724734Y342160D01*
X724402Y341987D01*
X724066Y341823D01*
X723726Y341667D01*
X723382Y341520D01*
X723035Y341381D01*
X722684Y341251D01*
X722331Y341129D01*
X721974Y341016D01*
X721615Y340912D01*
X721253Y340817D01*
X720889Y340730D01*
X720523Y340653D01*
X720155Y340584D01*
X719786Y340525D01*
X719416Y340475D01*
X719044Y340433D01*
X718671Y340401D01*
X718298Y340378D01*
X717924Y340365D01*
X717550Y340360D01*
X717176Y340365D01*
X716802Y340378D01*
X716429Y340401D01*
X716056Y340433D01*
X715684Y340475D01*
X715314Y340525D01*
X714945Y340584D01*
X714577Y340653D01*
X714211Y340730D01*
X713847Y340817D01*
X713485Y340912D01*
X713126Y341016D01*
X712769Y341129D01*
X712416Y341251D01*
X712065Y341381D01*
X711718Y341520D01*
X711374Y341667D01*
X711034Y341823D01*
X710698Y341987D01*
X710366Y342160D01*
X710038Y342340D01*
X709715Y342528D01*
X709397Y342724D01*
X709083Y342928D01*
X708775Y343140D01*
X708472Y343359D01*
X708174Y343586D01*
X707882Y343819D01*
X707596Y344060D01*
X707315Y344308D01*
X707041Y344562D01*
X706774Y344824D01*
X706512Y345091D01*
X706258Y345365D01*
X706010Y345646D01*
X705769Y345932D01*
X705536Y346224D01*
X705309Y346522D01*
X705090Y346825D01*
X704878Y347133D01*
X704674Y347447D01*
X704478Y347765D01*
X704290Y348088D01*
X704110Y348416D01*
X703937Y348748D01*
X703773Y349084D01*
X703617Y349424D01*
X703470Y349768D01*
X703331Y350115D01*
X703201Y350466D01*
X703079Y350819D01*
X702966Y351176D01*
X702862Y351535D01*
X702767Y351897D01*
X702680Y352261D01*
X702603Y352627D01*
X702534Y352995D01*
X702475Y353364D01*
X702425Y353734D01*
X702383Y354106D01*
X702351Y354479D01*
X702328Y354852D01*
X702315Y355226D01*
X702310Y355600D01*
X702310Y558800D02*
X702315Y559174D01*
X702328Y559548D01*
X702351Y559921D01*
X702383Y560294D01*
X702425Y560666D01*
X702475Y561036D01*
X702534Y561405D01*
X702603Y561773D01*
X702680Y562139D01*
X702767Y562503D01*
X702862Y562865D01*
X702966Y563224D01*
X703079Y563581D01*
X703201Y563934D01*
X703331Y564285D01*
X703470Y564632D01*
X703617Y564976D01*
X703773Y565316D01*
X703937Y565652D01*
X704110Y565984D01*
X704290Y566312D01*
X704478Y566635D01*
X704674Y566953D01*
X704878Y567267D01*
X705090Y567575D01*
X705309Y567878D01*
X705536Y568176D01*
X705769Y568468D01*
X706010Y568754D01*
X706258Y569035D01*
X706512Y569309D01*
X706774Y569576D01*
X707041Y569838D01*
X707315Y570092D01*
X707596Y570340D01*
X707882Y570581D01*
X708174Y570814D01*
X708472Y571041D01*
X708775Y571260D01*
X709083Y571472D01*
X709397Y571676D01*
X709715Y571872D01*
X710038Y572060D01*
X710366Y572240D01*
X710698Y572413D01*
X711034Y572577D01*
X711374Y572733D01*
X711718Y572880D01*
X712065Y573019D01*
X712416Y573149D01*
X712769Y573271D01*
X713126Y573384D01*
X713485Y573488D01*
X713847Y573583D01*
X714211Y573670D01*
X714577Y573747D01*
X714945Y573816D01*
X715314Y573875D01*
X715684Y573925D01*
X716056Y573967D01*
X716429Y573999D01*
X716802Y574022D01*
X717176Y574035D01*
X717550Y574040D01*
X717924Y574035D01*
X718298Y574022D01*
X718671Y573999D01*
X719044Y573967D01*
X719416Y573925D01*
X719786Y573875D01*
X720155Y573816D01*
X720523Y573747D01*
X720889Y573670D01*
X721253Y573583D01*
X721615Y573488D01*
X721974Y573384D01*
X722331Y573271D01*
X722684Y573149D01*
X723035Y573019D01*
X723382Y572880D01*
X723726Y572733D01*
X724066Y572577D01*
X724402Y572413D01*
X724734Y572240D01*
X725062Y572060D01*
X725385Y571872D01*
X725703Y571676D01*
X726017Y571472D01*
X726325Y571260D01*
X726628Y571041D01*
X726926Y570814D01*
X727218Y570581D01*
X727504Y570340D01*
X727785Y570092D01*
X728059Y569838D01*
X728326Y569576D01*
X728588Y569309D01*
X728842Y569035D01*
X729090Y568754D01*
X729331Y568468D01*
X729564Y568176D01*
X729791Y567878D01*
X730010Y567575D01*
X730222Y567267D01*
X730426Y566953D01*
X730622Y566635D01*
X730810Y566312D01*
X730990Y565984D01*
X731163Y565652D01*
X731327Y565316D01*
X731483Y564976D01*
X731630Y564632D01*
X731769Y564285D01*
X731899Y563934D01*
X732021Y563581D01*
X732134Y563224D01*
X732238Y562865D01*
X732333Y562503D01*
X732420Y562139D01*
X732497Y561773D01*
X732566Y561405D01*
X732625Y561036D01*
X732675Y560666D01*
X732717Y560294D01*
X732749Y559921D01*
X732772Y559548D01*
X732785Y559174D01*
X732790Y558800D01*
X732785Y558426D01*
X732772Y558052D01*
X732749Y557679D01*
X732717Y557306D01*
X732675Y556934D01*
X732625Y556564D01*
X732566Y556195D01*
X732497Y555827D01*
X732420Y555461D01*
X732333Y555097D01*
X732238Y554735D01*
X732134Y554376D01*
X732021Y554019D01*
X731899Y553666D01*
X731769Y553315D01*
X731630Y552968D01*
X731483Y552624D01*
X731327Y552284D01*
X731163Y551948D01*
X730990Y551616D01*
X730810Y551288D01*
X730622Y550965D01*
X730426Y550647D01*
X730222Y550333D01*
X730010Y550025D01*
X729791Y549722D01*
X729564Y549424D01*
X729331Y549132D01*
X729090Y548846D01*
X728842Y548565D01*
X728588Y548291D01*
X728326Y548024D01*
X728059Y547762D01*
X727785Y547508D01*
X727504Y547260D01*
X727218Y547019D01*
X726926Y546786D01*
X726628Y546559D01*
X726325Y546340D01*
X726017Y546128D01*
X725703Y545924D01*
X725385Y545728D01*
X725062Y545540D01*
X724734Y545360D01*
X724402Y545187D01*
X724066Y545023D01*
X723726Y544867D01*
X723382Y544720D01*
X723035Y544581D01*
X722684Y544451D01*
X722331Y544329D01*
X721974Y544216D01*
X721615Y544112D01*
X721253Y544017D01*
X720889Y543930D01*
X720523Y543853D01*
X720155Y543784D01*
X719786Y543725D01*
X719416Y543675D01*
X719044Y543633D01*
X718671Y543601D01*
X718298Y543578D01*
X717924Y543565D01*
X717550Y543560D01*
X717176Y543565D01*
X716802Y543578D01*
X716429Y543601D01*
X716056Y543633D01*
X715684Y543675D01*
X715314Y543725D01*
X714945Y543784D01*
X714577Y543853D01*
X714211Y543930D01*
X713847Y544017D01*
X713485Y544112D01*
X713126Y544216D01*
X712769Y544329D01*
X712416Y544451D01*
X712065Y544581D01*
X711718Y544720D01*
X711374Y544867D01*
X711034Y545023D01*
X710698Y545187D01*
X710366Y545360D01*
X710038Y545540D01*
X709715Y545728D01*
X709397Y545924D01*
X709083Y546128D01*
X708775Y546340D01*
X708472Y546559D01*
X708174Y546786D01*
X707882Y547019D01*
X707596Y547260D01*
X707315Y547508D01*
X707041Y547762D01*
X706774Y548024D01*
X706512Y548291D01*
X706258Y548565D01*
X706010Y548846D01*
X705769Y549132D01*
X705536Y549424D01*
X705309Y549722D01*
X705090Y550025D01*
X704878Y550333D01*
X704674Y550647D01*
X704478Y550965D01*
X704290Y551288D01*
X704110Y551616D01*
X703937Y551948D01*
X703773Y552284D01*
X703617Y552624D01*
X703470Y552968D01*
X703331Y553315D01*
X703201Y553666D01*
X703079Y554019D01*
X702966Y554376D01*
X702862Y554735D01*
X702767Y555097D01*
X702680Y555461D01*
X702603Y555827D01*
X702534Y556195D01*
X702475Y556564D01*
X702425Y556934D01*
X702383Y557306D01*
X702351Y557679D01*
X702328Y558052D01*
X702315Y558426D01*
X702310Y558800D01*
X595630Y312420D02*
X595634Y312763D01*
X595647Y313105D01*
X595668Y313448D01*
X595697Y313789D01*
X595735Y314130D01*
X595781Y314470D01*
X595836Y314808D01*
X595898Y315145D01*
X595969Y315481D01*
X596049Y315814D01*
X596136Y316146D01*
X596232Y316475D01*
X596335Y316802D01*
X596447Y317126D01*
X596566Y317448D01*
X596693Y317766D01*
X596828Y318081D01*
X596971Y318393D01*
X597122Y318701D01*
X597280Y319005D01*
X597445Y319306D01*
X597618Y319602D01*
X597797Y319894D01*
X597984Y320181D01*
X598178Y320464D01*
X598379Y320742D01*
X598587Y321015D01*
X598801Y321282D01*
X599022Y321545D01*
X599249Y321802D01*
X599482Y322053D01*
X599722Y322298D01*
X599967Y322538D01*
X600218Y322771D01*
X600475Y322998D01*
X600738Y323219D01*
X601005Y323433D01*
X601278Y323641D01*
X601556Y323842D01*
X601839Y324036D01*
X602126Y324223D01*
X602418Y324402D01*
X602714Y324575D01*
X603015Y324740D01*
X603319Y324898D01*
X603627Y325049D01*
X603939Y325192D01*
X604254Y325327D01*
X604572Y325454D01*
X604894Y325573D01*
X605218Y325685D01*
X605545Y325788D01*
X605874Y325884D01*
X606206Y325971D01*
X606539Y326051D01*
X606875Y326122D01*
X607212Y326184D01*
X607550Y326239D01*
X607890Y326285D01*
X608231Y326323D01*
X608572Y326352D01*
X608915Y326373D01*
X609257Y326386D01*
X609600Y326390D01*
X609943Y326386D01*
X610285Y326373D01*
X610628Y326352D01*
X610969Y326323D01*
X611310Y326285D01*
X611650Y326239D01*
X611988Y326184D01*
X612325Y326122D01*
X612661Y326051D01*
X612994Y325971D01*
X613326Y325884D01*
X613655Y325788D01*
X613982Y325685D01*
X614306Y325573D01*
X614628Y325454D01*
X614946Y325327D01*
X615261Y325192D01*
X615573Y325049D01*
X615881Y324898D01*
X616185Y324740D01*
X616486Y324575D01*
X616782Y324402D01*
X617074Y324223D01*
X617361Y324036D01*
X617644Y323842D01*
X617922Y323641D01*
X618195Y323433D01*
X618462Y323219D01*
X618725Y322998D01*
X618982Y322771D01*
X619233Y322538D01*
X619478Y322298D01*
X619718Y322053D01*
X619951Y321802D01*
X620178Y321545D01*
X620399Y321282D01*
X620613Y321015D01*
X620821Y320742D01*
X621022Y320464D01*
X621216Y320181D01*
X621403Y319894D01*
X621582Y319602D01*
X621755Y319306D01*
X621920Y319005D01*
X622078Y318701D01*
X622229Y318393D01*
X622372Y318081D01*
X622507Y317766D01*
X622634Y317448D01*
X622753Y317126D01*
X622865Y316802D01*
X622968Y316475D01*
X623064Y316146D01*
X623151Y315814D01*
X623231Y315481D01*
X623302Y315145D01*
X623364Y314808D01*
X623419Y314470D01*
X623465Y314130D01*
X623503Y313789D01*
X623532Y313448D01*
X623553Y313105D01*
X623566Y312763D01*
X623570Y312420D01*
X623566Y312077D01*
X623553Y311735D01*
X623532Y311392D01*
X623503Y311051D01*
X623465Y310710D01*
X623419Y310370D01*
X623364Y310032D01*
X623302Y309695D01*
X623231Y309359D01*
X623151Y309026D01*
X623064Y308694D01*
X622968Y308365D01*
X622865Y308038D01*
X622753Y307714D01*
X622634Y307392D01*
X622507Y307074D01*
X622372Y306759D01*
X622229Y306447D01*
X622078Y306139D01*
X621920Y305835D01*
X621755Y305534D01*
X621582Y305238D01*
X621403Y304946D01*
X621216Y304659D01*
X621022Y304376D01*
X620821Y304098D01*
X620613Y303825D01*
X620399Y303558D01*
X620178Y303295D01*
X619951Y303038D01*
X619718Y302787D01*
X619478Y302542D01*
X619233Y302302D01*
X618982Y302069D01*
X618725Y301842D01*
X618462Y301621D01*
X618195Y301407D01*
X617922Y301199D01*
X617644Y300998D01*
X617361Y300804D01*
X617074Y300617D01*
X616782Y300438D01*
X616486Y300265D01*
X616185Y300100D01*
X615881Y299942D01*
X615573Y299791D01*
X615261Y299648D01*
X614946Y299513D01*
X614628Y299386D01*
X614306Y299267D01*
X613982Y299155D01*
X613655Y299052D01*
X613326Y298956D01*
X612994Y298869D01*
X612661Y298789D01*
X612325Y298718D01*
X611988Y298656D01*
X611650Y298601D01*
X611310Y298555D01*
X610969Y298517D01*
X610628Y298488D01*
X610285Y298467D01*
X609943Y298454D01*
X609600Y298450D01*
X609257Y298454D01*
X608915Y298467D01*
X608572Y298488D01*
X608231Y298517D01*
X607890Y298555D01*
X607550Y298601D01*
X607212Y298656D01*
X606875Y298718D01*
X606539Y298789D01*
X606206Y298869D01*
X605874Y298956D01*
X605545Y299052D01*
X605218Y299155D01*
X604894Y299267D01*
X604572Y299386D01*
X604254Y299513D01*
X603939Y299648D01*
X603627Y299791D01*
X603319Y299942D01*
X603015Y300100D01*
X602714Y300265D01*
X602418Y300438D01*
X602126Y300617D01*
X601839Y300804D01*
X601556Y300998D01*
X601278Y301199D01*
X601005Y301407D01*
X600738Y301621D01*
X600475Y301842D01*
X600218Y302069D01*
X599967Y302302D01*
X599722Y302542D01*
X599482Y302787D01*
X599249Y303038D01*
X599022Y303295D01*
X598801Y303558D01*
X598587Y303825D01*
X598379Y304098D01*
X598178Y304376D01*
X597984Y304659D01*
X597797Y304946D01*
X597618Y305238D01*
X597445Y305534D01*
X597280Y305835D01*
X597122Y306139D01*
X596971Y306447D01*
X596828Y306759D01*
X596693Y307074D01*
X596566Y307392D01*
X596447Y307714D01*
X596335Y308038D01*
X596232Y308365D01*
X596136Y308694D01*
X596049Y309026D01*
X595969Y309359D01*
X595898Y309695D01*
X595836Y310032D01*
X595781Y310370D01*
X595735Y310710D01*
X595697Y311051D01*
X595668Y311392D01*
X595647Y311735D01*
X595634Y312077D01*
X595630Y312420D01*
X595630Y601980D02*
X595634Y602323D01*
X595647Y602665D01*
X595668Y603008D01*
X595697Y603349D01*
X595735Y603690D01*
X595781Y604030D01*
X595836Y604368D01*
X595898Y604705D01*
X595969Y605041D01*
X596049Y605374D01*
X596136Y605706D01*
X596232Y606035D01*
X596335Y606362D01*
X596447Y606686D01*
X596566Y607008D01*
X596693Y607326D01*
X596828Y607641D01*
X596971Y607953D01*
X597122Y608261D01*
X597280Y608565D01*
X597445Y608866D01*
X597618Y609162D01*
X597797Y609454D01*
X597984Y609741D01*
X598178Y610024D01*
X598379Y610302D01*
X598587Y610575D01*
X598801Y610842D01*
X599022Y611105D01*
X599249Y611362D01*
X599482Y611613D01*
X599722Y611858D01*
X599967Y612098D01*
X600218Y612331D01*
X600475Y612558D01*
X600738Y612779D01*
X601005Y612993D01*
X601278Y613201D01*
X601556Y613402D01*
X601839Y613596D01*
X602126Y613783D01*
X602418Y613962D01*
X602714Y614135D01*
X603015Y614300D01*
X603319Y614458D01*
X603627Y614609D01*
X603939Y614752D01*
X604254Y614887D01*
X604572Y615014D01*
X604894Y615133D01*
X605218Y615245D01*
X605545Y615348D01*
X605874Y615444D01*
X606206Y615531D01*
X606539Y615611D01*
X606875Y615682D01*
X607212Y615744D01*
X607550Y615799D01*
X607890Y615845D01*
X608231Y615883D01*
X608572Y615912D01*
X608915Y615933D01*
X609257Y615946D01*
X609600Y615950D01*
X609943Y615946D01*
X610285Y615933D01*
X610628Y615912D01*
X610969Y615883D01*
X611310Y615845D01*
X611650Y615799D01*
X611988Y615744D01*
X612325Y615682D01*
X612661Y615611D01*
X612994Y615531D01*
X613326Y615444D01*
X613655Y615348D01*
X613982Y615245D01*
X614306Y615133D01*
X614628Y615014D01*
X614946Y614887D01*
X615261Y614752D01*
X615573Y614609D01*
X615881Y614458D01*
X616185Y614300D01*
X616486Y614135D01*
X616782Y613962D01*
X617074Y613783D01*
X617361Y613596D01*
X617644Y613402D01*
X617922Y613201D01*
X618195Y612993D01*
X618462Y612779D01*
X618725Y612558D01*
X618982Y612331D01*
X619233Y612098D01*
X619478Y611858D01*
X619718Y611613D01*
X619951Y611362D01*
X620178Y611105D01*
X620399Y610842D01*
X620613Y610575D01*
X620821Y610302D01*
X621022Y610024D01*
X621216Y609741D01*
X621403Y609454D01*
X621582Y609162D01*
X621755Y608866D01*
X621920Y608565D01*
X622078Y608261D01*
X622229Y607953D01*
X622372Y607641D01*
X622507Y607326D01*
X622634Y607008D01*
X622753Y606686D01*
X622865Y606362D01*
X622968Y606035D01*
X623064Y605706D01*
X623151Y605374D01*
X623231Y605041D01*
X623302Y604705D01*
X623364Y604368D01*
X623419Y604030D01*
X623465Y603690D01*
X623503Y603349D01*
X623532Y603008D01*
X623553Y602665D01*
X623566Y602323D01*
X623570Y601980D01*
X623566Y601637D01*
X623553Y601295D01*
X623532Y600952D01*
X623503Y600611D01*
X623465Y600270D01*
X623419Y599930D01*
X623364Y599592D01*
X623302Y599255D01*
X623231Y598919D01*
X623151Y598586D01*
X623064Y598254D01*
X622968Y597925D01*
X622865Y597598D01*
X622753Y597274D01*
X622634Y596952D01*
X622507Y596634D01*
X622372Y596319D01*
X622229Y596007D01*
X622078Y595699D01*
X621920Y595395D01*
X621755Y595094D01*
X621582Y594798D01*
X621403Y594506D01*
X621216Y594219D01*
X621022Y593936D01*
X620821Y593658D01*
X620613Y593385D01*
X620399Y593118D01*
X620178Y592855D01*
X619951Y592598D01*
X619718Y592347D01*
X619478Y592102D01*
X619233Y591862D01*
X618982Y591629D01*
X618725Y591402D01*
X618462Y591181D01*
X618195Y590967D01*
X617922Y590759D01*
X617644Y590558D01*
X617361Y590364D01*
X617074Y590177D01*
X616782Y589998D01*
X616486Y589825D01*
X616185Y589660D01*
X615881Y589502D01*
X615573Y589351D01*
X615261Y589208D01*
X614946Y589073D01*
X614628Y588946D01*
X614306Y588827D01*
X613982Y588715D01*
X613655Y588612D01*
X613326Y588516D01*
X612994Y588429D01*
X612661Y588349D01*
X612325Y588278D01*
X611988Y588216D01*
X611650Y588161D01*
X611310Y588115D01*
X610969Y588077D01*
X610628Y588048D01*
X610285Y588027D01*
X609943Y588014D01*
X609600Y588010D01*
X609257Y588014D01*
X608915Y588027D01*
X608572Y588048D01*
X608231Y588077D01*
X607890Y588115D01*
X607550Y588161D01*
X607212Y588216D01*
X606875Y588278D01*
X606539Y588349D01*
X606206Y588429D01*
X605874Y588516D01*
X605545Y588612D01*
X605218Y588715D01*
X604894Y588827D01*
X604572Y588946D01*
X604254Y589073D01*
X603939Y589208D01*
X603627Y589351D01*
X603319Y589502D01*
X603015Y589660D01*
X602714Y589825D01*
X602418Y589998D01*
X602126Y590177D01*
X601839Y590364D01*
X601556Y590558D01*
X601278Y590759D01*
X601005Y590967D01*
X600738Y591181D01*
X600475Y591402D01*
X600218Y591629D01*
X599967Y591862D01*
X599722Y592102D01*
X599482Y592347D01*
X599249Y592598D01*
X599022Y592855D01*
X598801Y593118D01*
X598587Y593385D01*
X598379Y593658D01*
X598178Y593936D01*
X597984Y594219D01*
X597797Y594506D01*
X597618Y594798D01*
X597445Y595094D01*
X597280Y595395D01*
X597122Y595699D01*
X596971Y596007D01*
X596828Y596319D01*
X596693Y596634D01*
X596566Y596952D01*
X596447Y597274D01*
X596335Y597598D01*
X596232Y597925D01*
X596136Y598254D01*
X596049Y598586D01*
X595969Y598919D01*
X595898Y599255D01*
X595836Y599592D01*
X595781Y599930D01*
X595735Y600270D01*
X595697Y600611D01*
X595668Y600952D01*
X595647Y601295D01*
X595634Y601637D01*
X595630Y601980D01*
X1128690Y88900D02*
X1128695Y89305D01*
X1128710Y89710D01*
X1128735Y90115D01*
X1128770Y90518D01*
X1128814Y90921D01*
X1128869Y91323D01*
X1128933Y91723D01*
X1129007Y92121D01*
X1129091Y92517D01*
X1129185Y92912D01*
X1129288Y93303D01*
X1129401Y93693D01*
X1129523Y94079D01*
X1129655Y94462D01*
X1129796Y94842D01*
X1129947Y95218D01*
X1130106Y95591D01*
X1130275Y95959D01*
X1130453Y96323D01*
X1130639Y96683D01*
X1130835Y97038D01*
X1131039Y97388D01*
X1131251Y97733D01*
X1131472Y98072D01*
X1131702Y98407D01*
X1131939Y98735D01*
X1132184Y99057D01*
X1132438Y99374D01*
X1132698Y99684D01*
X1132967Y99987D01*
X1133243Y100284D01*
X1133526Y100574D01*
X1133816Y100857D01*
X1134113Y101133D01*
X1134416Y101402D01*
X1134726Y101662D01*
X1135043Y101916D01*
X1135365Y102161D01*
X1135693Y102398D01*
X1136028Y102628D01*
X1136367Y102849D01*
X1136712Y103061D01*
X1137062Y103265D01*
X1137417Y103461D01*
X1137777Y103647D01*
X1138141Y103825D01*
X1138509Y103994D01*
X1138882Y104153D01*
X1139258Y104304D01*
X1139638Y104445D01*
X1140021Y104577D01*
X1140407Y104699D01*
X1140797Y104812D01*
X1141188Y104915D01*
X1141583Y105009D01*
X1141979Y105093D01*
X1142377Y105167D01*
X1142777Y105231D01*
X1143179Y105286D01*
X1143582Y105330D01*
X1143985Y105365D01*
X1144390Y105390D01*
X1144795Y105405D01*
X1145200Y105410D01*
X1145605Y105405D01*
X1146010Y105390D01*
X1146415Y105365D01*
X1146818Y105330D01*
X1147221Y105286D01*
X1147623Y105231D01*
X1148023Y105167D01*
X1148421Y105093D01*
X1148817Y105009D01*
X1149212Y104915D01*
X1149603Y104812D01*
X1149993Y104699D01*
X1150379Y104577D01*
X1150762Y104445D01*
X1151142Y104304D01*
X1151518Y104153D01*
X1151891Y103994D01*
X1152259Y103825D01*
X1152623Y103647D01*
X1152983Y103461D01*
X1153338Y103265D01*
X1153688Y103061D01*
X1154033Y102849D01*
X1154372Y102628D01*
X1154707Y102398D01*
X1155035Y102161D01*
X1155357Y101916D01*
X1155674Y101662D01*
X1155984Y101402D01*
X1156287Y101133D01*
X1156584Y100857D01*
X1156874Y100574D01*
X1157157Y100284D01*
X1157433Y99987D01*
X1157702Y99684D01*
X1157962Y99374D01*
X1158216Y99057D01*
X1158461Y98735D01*
X1158698Y98407D01*
X1158928Y98072D01*
X1159149Y97733D01*
X1159361Y97388D01*
X1159565Y97038D01*
X1159761Y96683D01*
X1159947Y96323D01*
X1160125Y95959D01*
X1160294Y95591D01*
X1160453Y95218D01*
X1160604Y94842D01*
X1160745Y94462D01*
X1160877Y94079D01*
X1160999Y93693D01*
X1161112Y93303D01*
X1161215Y92912D01*
X1161309Y92517D01*
X1161393Y92121D01*
X1161467Y91723D01*
X1161531Y91323D01*
X1161586Y90921D01*
X1161630Y90518D01*
X1161665Y90115D01*
X1161690Y89710D01*
X1161705Y89305D01*
X1161710Y88900D01*
X1161705Y88495D01*
X1161690Y88090D01*
X1161665Y87685D01*
X1161630Y87282D01*
X1161586Y86879D01*
X1161531Y86477D01*
X1161467Y86077D01*
X1161393Y85679D01*
X1161309Y85283D01*
X1161215Y84888D01*
X1161112Y84497D01*
X1160999Y84107D01*
X1160877Y83721D01*
X1160745Y83338D01*
X1160604Y82958D01*
X1160453Y82582D01*
X1160294Y82209D01*
X1160125Y81841D01*
X1159947Y81477D01*
X1159761Y81117D01*
X1159565Y80762D01*
X1159361Y80412D01*
X1159149Y80067D01*
X1158928Y79728D01*
X1158698Y79393D01*
X1158461Y79065D01*
X1158216Y78743D01*
X1157962Y78426D01*
X1157702Y78116D01*
X1157433Y77813D01*
X1157157Y77516D01*
X1156874Y77226D01*
X1156584Y76943D01*
X1156287Y76667D01*
X1155984Y76398D01*
X1155674Y76138D01*
X1155357Y75884D01*
X1155035Y75639D01*
X1154707Y75402D01*
X1154372Y75172D01*
X1154033Y74951D01*
X1153688Y74739D01*
X1153338Y74535D01*
X1152983Y74339D01*
X1152623Y74153D01*
X1152259Y73975D01*
X1151891Y73806D01*
X1151518Y73647D01*
X1151142Y73496D01*
X1150762Y73355D01*
X1150379Y73223D01*
X1149993Y73101D01*
X1149603Y72988D01*
X1149212Y72885D01*
X1148817Y72791D01*
X1148421Y72707D01*
X1148023Y72633D01*
X1147623Y72569D01*
X1147221Y72514D01*
X1146818Y72470D01*
X1146415Y72435D01*
X1146010Y72410D01*
X1145605Y72395D01*
X1145200Y72390D01*
X1144795Y72395D01*
X1144390Y72410D01*
X1143985Y72435D01*
X1143582Y72470D01*
X1143179Y72514D01*
X1142777Y72569D01*
X1142377Y72633D01*
X1141979Y72707D01*
X1141583Y72791D01*
X1141188Y72885D01*
X1140797Y72988D01*
X1140407Y73101D01*
X1140021Y73223D01*
X1139638Y73355D01*
X1139258Y73496D01*
X1138882Y73647D01*
X1138509Y73806D01*
X1138141Y73975D01*
X1137777Y74153D01*
X1137417Y74339D01*
X1137062Y74535D01*
X1136712Y74739D01*
X1136367Y74951D01*
X1136028Y75172D01*
X1135693Y75402D01*
X1135365Y75639D01*
X1135043Y75884D01*
X1134726Y76138D01*
X1134416Y76398D01*
X1134113Y76667D01*
X1133816Y76943D01*
X1133526Y77226D01*
X1133243Y77516D01*
X1132967Y77813D01*
X1132698Y78116D01*
X1132438Y78426D01*
X1132184Y78743D01*
X1131939Y79065D01*
X1131702Y79393D01*
X1131472Y79728D01*
X1131251Y80067D01*
X1131039Y80412D01*
X1130835Y80762D01*
X1130639Y81117D01*
X1130453Y81477D01*
X1130275Y81841D01*
X1130106Y82209D01*
X1129947Y82582D01*
X1129796Y82958D01*
X1129655Y83338D01*
X1129523Y83721D01*
X1129401Y84107D01*
X1129288Y84497D01*
X1129185Y84888D01*
X1129091Y85283D01*
X1129007Y85679D01*
X1128933Y86077D01*
X1128869Y86477D01*
X1128814Y86879D01*
X1128770Y87282D01*
X1128735Y87685D01*
X1128710Y88090D01*
X1128695Y88495D01*
X1128690Y88900D01*
X97790Y88900D02*
X97795Y89305D01*
X97810Y89710D01*
X97835Y90115D01*
X97870Y90518D01*
X97914Y90921D01*
X97969Y91323D01*
X98033Y91723D01*
X98107Y92121D01*
X98191Y92517D01*
X98285Y92912D01*
X98388Y93303D01*
X98501Y93693D01*
X98623Y94079D01*
X98755Y94462D01*
X98896Y94842D01*
X99047Y95218D01*
X99206Y95591D01*
X99375Y95959D01*
X99553Y96323D01*
X99739Y96683D01*
X99935Y97038D01*
X100139Y97388D01*
X100351Y97733D01*
X100572Y98072D01*
X100802Y98407D01*
X101039Y98735D01*
X101284Y99057D01*
X101538Y99374D01*
X101798Y99684D01*
X102067Y99987D01*
X102343Y100284D01*
X102626Y100574D01*
X102916Y100857D01*
X103213Y101133D01*
X103516Y101402D01*
X103826Y101662D01*
X104143Y101916D01*
X104465Y102161D01*
X104793Y102398D01*
X105128Y102628D01*
X105467Y102849D01*
X105812Y103061D01*
X106162Y103265D01*
X106517Y103461D01*
X106877Y103647D01*
X107241Y103825D01*
X107609Y103994D01*
X107982Y104153D01*
X108358Y104304D01*
X108738Y104445D01*
X109121Y104577D01*
X109507Y104699D01*
X109897Y104812D01*
X110288Y104915D01*
X110683Y105009D01*
X111079Y105093D01*
X111477Y105167D01*
X111877Y105231D01*
X112279Y105286D01*
X112682Y105330D01*
X113085Y105365D01*
X113490Y105390D01*
X113895Y105405D01*
X114300Y105410D01*
X114705Y105405D01*
X115110Y105390D01*
X115515Y105365D01*
X115918Y105330D01*
X116321Y105286D01*
X116723Y105231D01*
X117123Y105167D01*
X117521Y105093D01*
X117917Y105009D01*
X118312Y104915D01*
X118703Y104812D01*
X119093Y104699D01*
X119479Y104577D01*
X119862Y104445D01*
X120242Y104304D01*
X120618Y104153D01*
X120991Y103994D01*
X121359Y103825D01*
X121723Y103647D01*
X122083Y103461D01*
X122438Y103265D01*
X122788Y103061D01*
X123133Y102849D01*
X123472Y102628D01*
X123807Y102398D01*
X124135Y102161D01*
X124457Y101916D01*
X124774Y101662D01*
X125084Y101402D01*
X125387Y101133D01*
X125684Y100857D01*
X125974Y100574D01*
X126257Y100284D01*
X126533Y99987D01*
X126802Y99684D01*
X127062Y99374D01*
X127316Y99057D01*
X127561Y98735D01*
X127798Y98407D01*
X128028Y98072D01*
X128249Y97733D01*
X128461Y97388D01*
X128665Y97038D01*
X128861Y96683D01*
X129047Y96323D01*
X129225Y95959D01*
X129394Y95591D01*
X129553Y95218D01*
X129704Y94842D01*
X129845Y94462D01*
X129977Y94079D01*
X130099Y93693D01*
X130212Y93303D01*
X130315Y92912D01*
X130409Y92517D01*
X130493Y92121D01*
X130567Y91723D01*
X130631Y91323D01*
X130686Y90921D01*
X130730Y90518D01*
X130765Y90115D01*
X130790Y89710D01*
X130805Y89305D01*
X130810Y88900D01*
X130805Y88495D01*
X130790Y88090D01*
X130765Y87685D01*
X130730Y87282D01*
X130686Y86879D01*
X130631Y86477D01*
X130567Y86077D01*
X130493Y85679D01*
X130409Y85283D01*
X130315Y84888D01*
X130212Y84497D01*
X130099Y84107D01*
X129977Y83721D01*
X129845Y83338D01*
X129704Y82958D01*
X129553Y82582D01*
X129394Y82209D01*
X129225Y81841D01*
X129047Y81477D01*
X128861Y81117D01*
X128665Y80762D01*
X128461Y80412D01*
X128249Y80067D01*
X128028Y79728D01*
X127798Y79393D01*
X127561Y79065D01*
X127316Y78743D01*
X127062Y78426D01*
X126802Y78116D01*
X126533Y77813D01*
X126257Y77516D01*
X125974Y77226D01*
X125684Y76943D01*
X125387Y76667D01*
X125084Y76398D01*
X124774Y76138D01*
X124457Y75884D01*
X124135Y75639D01*
X123807Y75402D01*
X123472Y75172D01*
X123133Y74951D01*
X122788Y74739D01*
X122438Y74535D01*
X122083Y74339D01*
X121723Y74153D01*
X121359Y73975D01*
X120991Y73806D01*
X120618Y73647D01*
X120242Y73496D01*
X119862Y73355D01*
X119479Y73223D01*
X119093Y73101D01*
X118703Y72988D01*
X118312Y72885D01*
X117917Y72791D01*
X117521Y72707D01*
X117123Y72633D01*
X116723Y72569D01*
X116321Y72514D01*
X115918Y72470D01*
X115515Y72435D01*
X115110Y72410D01*
X114705Y72395D01*
X114300Y72390D01*
X113895Y72395D01*
X113490Y72410D01*
X113085Y72435D01*
X112682Y72470D01*
X112279Y72514D01*
X111877Y72569D01*
X111477Y72633D01*
X111079Y72707D01*
X110683Y72791D01*
X110288Y72885D01*
X109897Y72988D01*
X109507Y73101D01*
X109121Y73223D01*
X108738Y73355D01*
X108358Y73496D01*
X107982Y73647D01*
X107609Y73806D01*
X107241Y73975D01*
X106877Y74153D01*
X106517Y74339D01*
X106162Y74535D01*
X105812Y74739D01*
X105467Y74951D01*
X105128Y75172D01*
X104793Y75402D01*
X104465Y75639D01*
X104143Y75884D01*
X103826Y76138D01*
X103516Y76398D01*
X103213Y76667D01*
X102916Y76943D01*
X102626Y77226D01*
X102343Y77516D01*
X102067Y77813D01*
X101798Y78116D01*
X101538Y78426D01*
X101284Y78743D01*
X101039Y79065D01*
X100802Y79393D01*
X100572Y79728D01*
X100351Y80067D01*
X100139Y80412D01*
X99935Y80762D01*
X99739Y81117D01*
X99553Y81477D01*
X99375Y81841D01*
X99206Y82209D01*
X99047Y82582D01*
X98896Y82958D01*
X98755Y83338D01*
X98623Y83721D01*
X98501Y84107D01*
X98388Y84497D01*
X98285Y84888D01*
X98191Y85283D01*
X98107Y85679D01*
X98033Y86077D01*
X97969Y86477D01*
X97914Y86879D01*
X97870Y87282D01*
X97835Y87685D01*
X97810Y88090D01*
X97795Y88495D01*
X97790Y88900D01*
X97790Y850900D02*
X97795Y851305D01*
X97810Y851710D01*
X97835Y852115D01*
X97870Y852518D01*
X97914Y852921D01*
X97969Y853323D01*
X98033Y853723D01*
X98107Y854121D01*
X98191Y854517D01*
X98285Y854912D01*
X98388Y855303D01*
X98501Y855693D01*
X98623Y856079D01*
X98755Y856462D01*
X98896Y856842D01*
X99047Y857218D01*
X99206Y857591D01*
X99375Y857959D01*
X99553Y858323D01*
X99739Y858683D01*
X99935Y859038D01*
X100139Y859388D01*
X100351Y859733D01*
X100572Y860072D01*
X100802Y860407D01*
X101039Y860735D01*
X101284Y861057D01*
X101538Y861374D01*
X101798Y861684D01*
X102067Y861987D01*
X102343Y862284D01*
X102626Y862574D01*
X102916Y862857D01*
X103213Y863133D01*
X103516Y863402D01*
X103826Y863662D01*
X104143Y863916D01*
X104465Y864161D01*
X104793Y864398D01*
X105128Y864628D01*
X105467Y864849D01*
X105812Y865061D01*
X106162Y865265D01*
X106517Y865461D01*
X106877Y865647D01*
X107241Y865825D01*
X107609Y865994D01*
X107982Y866153D01*
X108358Y866304D01*
X108738Y866445D01*
X109121Y866577D01*
X109507Y866699D01*
X109897Y866812D01*
X110288Y866915D01*
X110683Y867009D01*
X111079Y867093D01*
X111477Y867167D01*
X111877Y867231D01*
X112279Y867286D01*
X112682Y867330D01*
X113085Y867365D01*
X113490Y867390D01*
X113895Y867405D01*
X114300Y867410D01*
X114705Y867405D01*
X115110Y867390D01*
X115515Y867365D01*
X115918Y867330D01*
X116321Y867286D01*
X116723Y867231D01*
X117123Y867167D01*
X117521Y867093D01*
X117917Y867009D01*
X118312Y866915D01*
X118703Y866812D01*
X119093Y866699D01*
X119479Y866577D01*
X119862Y866445D01*
X120242Y866304D01*
X120618Y866153D01*
X120991Y865994D01*
X121359Y865825D01*
X121723Y865647D01*
X122083Y865461D01*
X122438Y865265D01*
X122788Y865061D01*
X123133Y864849D01*
X123472Y864628D01*
X123807Y864398D01*
X124135Y864161D01*
X124457Y863916D01*
X124774Y863662D01*
X125084Y863402D01*
X125387Y863133D01*
X125684Y862857D01*
X125974Y862574D01*
X126257Y862284D01*
X126533Y861987D01*
X126802Y861684D01*
X127062Y861374D01*
X127316Y861057D01*
X127561Y860735D01*
X127798Y860407D01*
X128028Y860072D01*
X128249Y859733D01*
X128461Y859388D01*
X128665Y859038D01*
X128861Y858683D01*
X129047Y858323D01*
X129225Y857959D01*
X129394Y857591D01*
X129553Y857218D01*
X129704Y856842D01*
X129845Y856462D01*
X129977Y856079D01*
X130099Y855693D01*
X130212Y855303D01*
X130315Y854912D01*
X130409Y854517D01*
X130493Y854121D01*
X130567Y853723D01*
X130631Y853323D01*
X130686Y852921D01*
X130730Y852518D01*
X130765Y852115D01*
X130790Y851710D01*
X130805Y851305D01*
X130810Y850900D01*
X130805Y850495D01*
X130790Y850090D01*
X130765Y849685D01*
X130730Y849282D01*
X130686Y848879D01*
X130631Y848477D01*
X130567Y848077D01*
X130493Y847679D01*
X130409Y847283D01*
X130315Y846888D01*
X130212Y846497D01*
X130099Y846107D01*
X129977Y845721D01*
X129845Y845338D01*
X129704Y844958D01*
X129553Y844582D01*
X129394Y844209D01*
X129225Y843841D01*
X129047Y843477D01*
X128861Y843117D01*
X128665Y842762D01*
X128461Y842412D01*
X128249Y842067D01*
X128028Y841728D01*
X127798Y841393D01*
X127561Y841065D01*
X127316Y840743D01*
X127062Y840426D01*
X126802Y840116D01*
X126533Y839813D01*
X126257Y839516D01*
X125974Y839226D01*
X125684Y838943D01*
X125387Y838667D01*
X125084Y838398D01*
X124774Y838138D01*
X124457Y837884D01*
X124135Y837639D01*
X123807Y837402D01*
X123472Y837172D01*
X123133Y836951D01*
X122788Y836739D01*
X122438Y836535D01*
X122083Y836339D01*
X121723Y836153D01*
X121359Y835975D01*
X120991Y835806D01*
X120618Y835647D01*
X120242Y835496D01*
X119862Y835355D01*
X119479Y835223D01*
X119093Y835101D01*
X118703Y834988D01*
X118312Y834885D01*
X117917Y834791D01*
X117521Y834707D01*
X117123Y834633D01*
X116723Y834569D01*
X116321Y834514D01*
X115918Y834470D01*
X115515Y834435D01*
X115110Y834410D01*
X114705Y834395D01*
X114300Y834390D01*
X113895Y834395D01*
X113490Y834410D01*
X113085Y834435D01*
X112682Y834470D01*
X112279Y834514D01*
X111877Y834569D01*
X111477Y834633D01*
X111079Y834707D01*
X110683Y834791D01*
X110288Y834885D01*
X109897Y834988D01*
X109507Y835101D01*
X109121Y835223D01*
X108738Y835355D01*
X108358Y835496D01*
X107982Y835647D01*
X107609Y835806D01*
X107241Y835975D01*
X106877Y836153D01*
X106517Y836339D01*
X106162Y836535D01*
X105812Y836739D01*
X105467Y836951D01*
X105128Y837172D01*
X104793Y837402D01*
X104465Y837639D01*
X104143Y837884D01*
X103826Y838138D01*
X103516Y838398D01*
X103213Y838667D01*
X102916Y838943D01*
X102626Y839226D01*
X102343Y839516D01*
X102067Y839813D01*
X101798Y840116D01*
X101538Y840426D01*
X101284Y840743D01*
X101039Y841065D01*
X100802Y841393D01*
X100572Y841728D01*
X100351Y842067D01*
X100139Y842412D01*
X99935Y842762D01*
X99739Y843117D01*
X99553Y843477D01*
X99375Y843841D01*
X99206Y844209D01*
X99047Y844582D01*
X98896Y844958D01*
X98755Y845338D01*
X98623Y845721D01*
X98501Y846107D01*
X98388Y846497D01*
X98285Y846888D01*
X98191Y847283D01*
X98107Y847679D01*
X98033Y848077D01*
X97969Y848477D01*
X97914Y848879D01*
X97870Y849282D01*
X97835Y849685D01*
X97810Y850090D01*
X97795Y850495D01*
X97790Y850900D01*
X900430Y838200D02*
X900434Y838543D01*
X900447Y838885D01*
X900468Y839228D01*
X900497Y839569D01*
X900535Y839910D01*
X900581Y840250D01*
X900636Y840588D01*
X900698Y840925D01*
X900769Y841261D01*
X900849Y841594D01*
X900936Y841926D01*
X901032Y842255D01*
X901135Y842582D01*
X901247Y842906D01*
X901366Y843228D01*
X901493Y843546D01*
X901628Y843861D01*
X901771Y844173D01*
X901922Y844481D01*
X902080Y844785D01*
X902245Y845086D01*
X902418Y845382D01*
X902597Y845674D01*
X902784Y845961D01*
X902978Y846244D01*
X903179Y846522D01*
X903387Y846795D01*
X903601Y847062D01*
X903822Y847325D01*
X904049Y847582D01*
X904282Y847833D01*
X904522Y848078D01*
X904767Y848318D01*
X905018Y848551D01*
X905275Y848778D01*
X905538Y848999D01*
X905805Y849213D01*
X906078Y849421D01*
X906356Y849622D01*
X906639Y849816D01*
X906926Y850003D01*
X907218Y850182D01*
X907514Y850355D01*
X907815Y850520D01*
X908119Y850678D01*
X908427Y850829D01*
X908739Y850972D01*
X909054Y851107D01*
X909372Y851234D01*
X909694Y851353D01*
X910018Y851465D01*
X910345Y851568D01*
X910674Y851664D01*
X911006Y851751D01*
X911339Y851831D01*
X911675Y851902D01*
X912012Y851964D01*
X912350Y852019D01*
X912690Y852065D01*
X913031Y852103D01*
X913372Y852132D01*
X913715Y852153D01*
X914057Y852166D01*
X914400Y852170D01*
X914743Y852166D01*
X915085Y852153D01*
X915428Y852132D01*
X915769Y852103D01*
X916110Y852065D01*
X916450Y852019D01*
X916788Y851964D01*
X917125Y851902D01*
X917461Y851831D01*
X917794Y851751D01*
X918126Y851664D01*
X918455Y851568D01*
X918782Y851465D01*
X919106Y851353D01*
X919428Y851234D01*
X919746Y851107D01*
X920061Y850972D01*
X920373Y850829D01*
X920681Y850678D01*
X920985Y850520D01*
X921286Y850355D01*
X921582Y850182D01*
X921874Y850003D01*
X922161Y849816D01*
X922444Y849622D01*
X922722Y849421D01*
X922995Y849213D01*
X923262Y848999D01*
X923525Y848778D01*
X923782Y848551D01*
X924033Y848318D01*
X924278Y848078D01*
X924518Y847833D01*
X924751Y847582D01*
X924978Y847325D01*
X925199Y847062D01*
X925413Y846795D01*
X925621Y846522D01*
X925822Y846244D01*
X926016Y845961D01*
X926203Y845674D01*
X926382Y845382D01*
X926555Y845086D01*
X926720Y844785D01*
X926878Y844481D01*
X927029Y844173D01*
X927172Y843861D01*
X927307Y843546D01*
X927434Y843228D01*
X927553Y842906D01*
X927665Y842582D01*
X927768Y842255D01*
X927864Y841926D01*
X927951Y841594D01*
X928031Y841261D01*
X928102Y840925D01*
X928164Y840588D01*
X928219Y840250D01*
X928265Y839910D01*
X928303Y839569D01*
X928332Y839228D01*
X928353Y838885D01*
X928366Y838543D01*
X928370Y838200D01*
X928366Y837857D01*
X928353Y837515D01*
X928332Y837172D01*
X928303Y836831D01*
X928265Y836490D01*
X928219Y836150D01*
X928164Y835812D01*
X928102Y835475D01*
X928031Y835139D01*
X927951Y834806D01*
X927864Y834474D01*
X927768Y834145D01*
X927665Y833818D01*
X927553Y833494D01*
X927434Y833172D01*
X927307Y832854D01*
X927172Y832539D01*
X927029Y832227D01*
X926878Y831919D01*
X926720Y831615D01*
X926555Y831314D01*
X926382Y831018D01*
X926203Y830726D01*
X926016Y830439D01*
X925822Y830156D01*
X925621Y829878D01*
X925413Y829605D01*
X925199Y829338D01*
X924978Y829075D01*
X924751Y828818D01*
X924518Y828567D01*
X924278Y828322D01*
X924033Y828082D01*
X923782Y827849D01*
X923525Y827622D01*
X923262Y827401D01*
X922995Y827187D01*
X922722Y826979D01*
X922444Y826778D01*
X922161Y826584D01*
X921874Y826397D01*
X921582Y826218D01*
X921286Y826045D01*
X920985Y825880D01*
X920681Y825722D01*
X920373Y825571D01*
X920061Y825428D01*
X919746Y825293D01*
X919428Y825166D01*
X919106Y825047D01*
X918782Y824935D01*
X918455Y824832D01*
X918126Y824736D01*
X917794Y824649D01*
X917461Y824569D01*
X917125Y824498D01*
X916788Y824436D01*
X916450Y824381D01*
X916110Y824335D01*
X915769Y824297D01*
X915428Y824268D01*
X915085Y824247D01*
X914743Y824234D01*
X914400Y824230D01*
X914057Y824234D01*
X913715Y824247D01*
X913372Y824268D01*
X913031Y824297D01*
X912690Y824335D01*
X912350Y824381D01*
X912012Y824436D01*
X911675Y824498D01*
X911339Y824569D01*
X911006Y824649D01*
X910674Y824736D01*
X910345Y824832D01*
X910018Y824935D01*
X909694Y825047D01*
X909372Y825166D01*
X909054Y825293D01*
X908739Y825428D01*
X908427Y825571D01*
X908119Y825722D01*
X907815Y825880D01*
X907514Y826045D01*
X907218Y826218D01*
X906926Y826397D01*
X906639Y826584D01*
X906356Y826778D01*
X906078Y826979D01*
X905805Y827187D01*
X905538Y827401D01*
X905275Y827622D01*
X905018Y827849D01*
X904767Y828082D01*
X904522Y828322D01*
X904282Y828567D01*
X904049Y828818D01*
X903822Y829075D01*
X903601Y829338D01*
X903387Y829605D01*
X903179Y829878D01*
X902978Y830156D01*
X902784Y830439D01*
X902597Y830726D01*
X902418Y831018D01*
X902245Y831314D01*
X902080Y831615D01*
X901922Y831919D01*
X901771Y832227D01*
X901628Y832539D01*
X901493Y832854D01*
X901366Y833172D01*
X901247Y833494D01*
X901135Y833818D01*
X901032Y834145D01*
X900936Y834474D01*
X900849Y834806D01*
X900769Y835139D01*
X900698Y835475D01*
X900636Y835812D01*
X900581Y836150D01*
X900535Y836490D01*
X900497Y836831D01*
X900468Y837172D01*
X900447Y837515D01*
X900434Y837857D01*
X900430Y838200D01*
D14*
X88900Y88900D02*
X88997Y86686D01*
X89286Y84489D01*
X89765Y82326D01*
X90432Y80213D01*
X91280Y78166D01*
X92303Y76200D01*
X93494Y74331D01*
X94842Y72573D01*
X96340Y70940D01*
X97973Y69442D01*
X99731Y68094D01*
X101600Y66903D01*
X103566Y65880D01*
X105613Y65032D01*
X107726Y64365D01*
X109889Y63886D01*
X112086Y63597D01*
X114300Y63500D01*
X1145200Y63500D01*
X1147414Y63597D01*
X1149611Y63886D01*
X1151774Y64365D01*
X1153887Y65032D01*
X1155935Y65880D01*
X1157900Y66903D01*
X1159769Y68094D01*
X1161527Y69442D01*
X1163161Y70940D01*
X1164658Y72573D01*
X1166006Y74331D01*
X1167197Y76200D01*
X1168220Y78166D01*
X1169068Y80213D01*
X1169735Y82326D01*
X1170214Y84489D01*
X1170503Y86686D01*
X1170600Y88900D01*
X1170600Y850900D01*
X1170503Y853114D01*
X1170214Y855311D01*
X1169735Y857474D01*
X1169068Y859587D01*
X1168220Y861635D01*
X1167197Y863600D01*
X1166006Y865469D01*
X1164658Y867227D01*
X1163161Y868861D01*
X1161527Y870358D01*
X1159769Y871706D01*
X1157900Y872897D01*
X1155935Y873920D01*
X1153887Y874768D01*
X1151774Y875435D01*
X1149611Y875914D01*
X1147414Y876203D01*
X1145200Y876300D01*
X114300Y876300D01*
X112086Y876203D01*
X109889Y875914D01*
X107726Y875435D01*
X105613Y874768D01*
X103566Y873920D01*
X101600Y872897D01*
X99731Y871706D01*
X97973Y870358D01*
X96340Y868861D01*
X94842Y867227D01*
X93494Y865469D01*
X92303Y863600D01*
X91280Y861635D01*
X90432Y859587D01*
X89765Y857474D01*
X89286Y855311D01*
X88997Y853114D01*
X88900Y850900D01*
X88900Y88900D01*
X558600Y344250D02*
X660200Y344250D01*
X660200Y566340D01*
X558600Y566340D01*
X558600Y344250D01*
X516890Y355056D02*
X516812Y353970D01*
X516657Y352892D01*
X516426Y351829D01*
X516119Y350784D01*
X515739Y349764D01*
X515287Y348774D01*
X514765Y347819D01*
X514176Y346903D01*
X513524Y346031D01*
X512811Y345209D01*
X512041Y344439D01*
X511219Y343726D01*
X510347Y343074D01*
X509431Y342485D01*
X508476Y341963D01*
X507486Y341511D01*
X506466Y341131D01*
X505421Y340824D01*
X504358Y340593D01*
X503280Y340438D01*
X502194Y340360D01*
X501106Y340360D01*
X500020Y340438D01*
X498942Y340593D01*
X497879Y340824D01*
X496834Y341131D01*
X495814Y341511D01*
X494824Y341963D01*
X493869Y342485D01*
X492953Y343074D01*
X492081Y343726D01*
X491259Y344439D01*
X490489Y345209D01*
X489776Y346031D01*
X489124Y346903D01*
X488535Y347819D01*
X488013Y348774D01*
X487561Y349764D01*
X487181Y350784D01*
X486874Y351829D01*
X486643Y352892D01*
X486488Y353970D01*
X486410Y355056D01*
X486410Y356144D01*
X486488Y357230D01*
X486643Y358308D01*
X486874Y359371D01*
X487181Y360416D01*
X487561Y361436D01*
X488013Y362426D01*
X488535Y363381D01*
X489124Y364297D01*
X489776Y365169D01*
X490489Y365991D01*
X491259Y366761D01*
X492081Y367474D01*
X492953Y368126D01*
X493869Y368715D01*
X494824Y369237D01*
X495814Y369689D01*
X496834Y370069D01*
X497879Y370376D01*
X498942Y370607D01*
X500020Y370762D01*
X501106Y370840D01*
X502194Y370840D01*
X503280Y370762D01*
X504358Y370607D01*
X505421Y370376D01*
X506466Y370069D01*
X507486Y369689D01*
X508476Y369237D01*
X509431Y368715D01*
X510347Y368126D01*
X511219Y367474D01*
X512041Y366761D01*
X512811Y365991D01*
X513524Y365169D01*
X514176Y364297D01*
X514765Y363381D01*
X515287Y362426D01*
X515739Y361436D01*
X516119Y360416D01*
X516426Y359371D01*
X516657Y358308D01*
X516812Y357230D01*
X516890Y356144D01*
X516890Y355056D01*
X516890Y558256D02*
X516812Y557170D01*
X516657Y556092D01*
X516426Y555029D01*
X516119Y553984D01*
X515739Y552964D01*
X515287Y551974D01*
X514765Y551019D01*
X514176Y550103D01*
X513524Y549231D01*
X512811Y548409D01*
X512041Y547639D01*
X511219Y546926D01*
X510347Y546274D01*
X509431Y545685D01*
X508476Y545163D01*
X507486Y544711D01*
X506466Y544331D01*
X505421Y544024D01*
X504358Y543793D01*
X503280Y543638D01*
X502194Y543560D01*
X501106Y543560D01*
X500020Y543638D01*
X498942Y543793D01*
X497879Y544024D01*
X496834Y544331D01*
X495814Y544711D01*
X494824Y545163D01*
X493869Y545685D01*
X492953Y546274D01*
X492081Y546926D01*
X491259Y547639D01*
X490489Y548409D01*
X489776Y549231D01*
X489124Y550103D01*
X488535Y551019D01*
X488013Y551974D01*
X487561Y552964D01*
X487181Y553984D01*
X486874Y555029D01*
X486643Y556092D01*
X486488Y557170D01*
X486410Y558256D01*
X486410Y559344D01*
X486488Y560430D01*
X486643Y561508D01*
X486874Y562571D01*
X487181Y563616D01*
X487561Y564636D01*
X488013Y565626D01*
X488535Y566581D01*
X489124Y567497D01*
X489776Y568369D01*
X490489Y569191D01*
X491259Y569961D01*
X492081Y570674D01*
X492953Y571326D01*
X493869Y571915D01*
X494824Y572437D01*
X495814Y572889D01*
X496834Y573269D01*
X497879Y573576D01*
X498942Y573807D01*
X500020Y573962D01*
X501106Y574040D01*
X502194Y574040D01*
X503280Y573962D01*
X504358Y573807D01*
X505421Y573576D01*
X506466Y573269D01*
X507486Y572889D01*
X508476Y572437D01*
X509431Y571915D01*
X510347Y571326D01*
X511219Y570674D01*
X512041Y569961D01*
X512811Y569191D01*
X513524Y568369D01*
X514176Y567497D01*
X514765Y566581D01*
X515287Y565626D01*
X515739Y564636D01*
X516119Y563616D01*
X516426Y562571D01*
X516657Y561508D01*
X516812Y560430D01*
X516890Y559344D01*
X516890Y558256D01*
X732790Y355056D02*
X732712Y353970D01*
X732557Y352892D01*
X732326Y351829D01*
X732019Y350784D01*
X731639Y349764D01*
X731187Y348774D01*
X730665Y347819D01*
X730076Y346903D01*
X729424Y346031D01*
X728711Y345209D01*
X727941Y344439D01*
X727119Y343726D01*
X726247Y343074D01*
X725331Y342485D01*
X724376Y341963D01*
X723386Y341511D01*
X722366Y341131D01*
X721321Y340824D01*
X720258Y340593D01*
X719180Y340438D01*
X718094Y340360D01*
X717006Y340360D01*
X715920Y340438D01*
X714842Y340593D01*
X713779Y340824D01*
X712734Y341131D01*
X711714Y341511D01*
X710724Y341963D01*
X709769Y342485D01*
X708853Y343074D01*
X707981Y343726D01*
X707159Y344439D01*
X706389Y345209D01*
X705676Y346031D01*
X705024Y346903D01*
X704435Y347819D01*
X703913Y348774D01*
X703461Y349764D01*
X703081Y350784D01*
X702774Y351829D01*
X702543Y352892D01*
X702388Y353970D01*
X702310Y355056D01*
X702310Y356144D01*
X702388Y357230D01*
X702543Y358308D01*
X702774Y359371D01*
X703081Y360416D01*
X703461Y361436D01*
X703913Y362426D01*
X704435Y363381D01*
X705024Y364297D01*
X705676Y365169D01*
X706389Y365991D01*
X707159Y366761D01*
X707981Y367474D01*
X708853Y368126D01*
X709769Y368715D01*
X710724Y369237D01*
X711714Y369689D01*
X712734Y370069D01*
X713779Y370376D01*
X714842Y370607D01*
X715920Y370762D01*
X717006Y370840D01*
X718094Y370840D01*
X719180Y370762D01*
X720258Y370607D01*
X721321Y370376D01*
X722366Y370069D01*
X723386Y369689D01*
X724376Y369237D01*
X725331Y368715D01*
X726247Y368126D01*
X727119Y367474D01*
X727941Y366761D01*
X728711Y365991D01*
X729424Y365169D01*
X730076Y364297D01*
X730665Y363381D01*
X731187Y362426D01*
X731639Y361436D01*
X732019Y360416D01*
X732326Y359371D01*
X732557Y358308D01*
X732712Y357230D01*
X732790Y356144D01*
X732790Y355056D01*
X732790Y558256D02*
X732712Y557170D01*
X732557Y556092D01*
X732326Y555029D01*
X732019Y553984D01*
X731639Y552964D01*
X731187Y551974D01*
X730665Y551019D01*
X730076Y550103D01*
X729424Y549231D01*
X728711Y548409D01*
X727941Y547639D01*
X727119Y546926D01*
X726247Y546274D01*
X725331Y545685D01*
X724376Y545163D01*
X723386Y544711D01*
X722366Y544331D01*
X721321Y544024D01*
X720258Y543793D01*
X719180Y543638D01*
X718094Y543560D01*
X717006Y543560D01*
X715920Y543638D01*
X714842Y543793D01*
X713779Y544024D01*
X712734Y544331D01*
X711714Y544711D01*
X710724Y545163D01*
X709769Y545685D01*
X708853Y546274D01*
X707981Y546926D01*
X707159Y547639D01*
X706389Y548409D01*
X705676Y549231D01*
X705024Y550103D01*
X704435Y551019D01*
X703913Y551974D01*
X703461Y552964D01*
X703081Y553984D01*
X702774Y555029D01*
X702543Y556092D01*
X702388Y557170D01*
X702310Y558256D01*
X702310Y559344D01*
X702388Y560430D01*
X702543Y561508D01*
X702774Y562571D01*
X703081Y563616D01*
X703461Y564636D01*
X703913Y565626D01*
X704435Y566581D01*
X705024Y567497D01*
X705676Y568369D01*
X706389Y569191D01*
X707159Y569961D01*
X707981Y570674D01*
X708853Y571326D01*
X709769Y571915D01*
X710724Y572437D01*
X711714Y572889D01*
X712734Y573269D01*
X713779Y573576D01*
X714842Y573807D01*
X715920Y573962D01*
X717006Y574040D01*
X718094Y574040D01*
X719180Y573962D01*
X720258Y573807D01*
X721321Y573576D01*
X722366Y573269D01*
X723386Y572889D01*
X724376Y572437D01*
X725331Y571915D01*
X726247Y571326D01*
X727119Y570674D01*
X727941Y569961D01*
X728711Y569191D01*
X729424Y568369D01*
X730076Y567497D01*
X730665Y566581D01*
X731187Y565626D01*
X731639Y564636D01*
X732019Y563616D01*
X732326Y562571D01*
X732557Y561508D01*
X732712Y560430D01*
X732790Y559344D01*
X732790Y558256D01*
X623570Y311921D02*
X623499Y310926D01*
X623357Y309938D01*
X623145Y308963D01*
X622864Y308005D01*
X622515Y307071D01*
X622100Y306163D01*
X621622Y305287D01*
X621083Y304448D01*
X620485Y303649D01*
X619831Y302895D01*
X619125Y302189D01*
X618371Y301535D01*
X617573Y300937D01*
X616733Y300398D01*
X615857Y299920D01*
X614950Y299505D01*
X614015Y299156D01*
X613057Y298875D01*
X612082Y298663D01*
X611094Y298521D01*
X610099Y298450D01*
X609101Y298450D01*
X608106Y298521D01*
X607118Y298663D01*
X606143Y298875D01*
X605185Y299156D01*
X604251Y299505D01*
X603343Y299920D01*
X602467Y300398D01*
X601628Y300937D01*
X600829Y301535D01*
X600075Y302189D01*
X599369Y302895D01*
X598715Y303649D01*
X598117Y304448D01*
X597578Y305287D01*
X597100Y306163D01*
X596685Y307071D01*
X596336Y308005D01*
X596055Y308963D01*
X595843Y309938D01*
X595701Y310926D01*
X595630Y311921D01*
X595630Y312919D01*
X595701Y313914D01*
X595843Y314902D01*
X596055Y315877D01*
X596336Y316835D01*
X596685Y317770D01*
X597100Y318677D01*
X597578Y319553D01*
X598117Y320393D01*
X598715Y321191D01*
X599369Y321945D01*
X600075Y322651D01*
X600829Y323305D01*
X601628Y323903D01*
X602467Y324442D01*
X603343Y324920D01*
X604251Y325335D01*
X605185Y325684D01*
X606143Y325965D01*
X607118Y326177D01*
X608106Y326319D01*
X609101Y326390D01*
X610099Y326390D01*
X611094Y326319D01*
X612082Y326177D01*
X613057Y325965D01*
X614015Y325684D01*
X614950Y325335D01*
X615857Y324920D01*
X616733Y324442D01*
X617573Y323903D01*
X618371Y323305D01*
X619125Y322651D01*
X619831Y321945D01*
X620485Y321191D01*
X621083Y320393D01*
X621622Y319553D01*
X622100Y318677D01*
X622515Y317770D01*
X622864Y316835D01*
X623145Y315877D01*
X623357Y314902D01*
X623499Y313914D01*
X623570Y312919D01*
X623570Y311921D01*
X623570Y601481D02*
X623499Y600486D01*
X623357Y599498D01*
X623145Y598523D01*
X622864Y597565D01*
X622515Y596631D01*
X622100Y595723D01*
X621622Y594847D01*
X621083Y594008D01*
X620485Y593209D01*
X619831Y592455D01*
X619125Y591749D01*
X618371Y591095D01*
X617573Y590497D01*
X616733Y589958D01*
X615857Y589480D01*
X614950Y589065D01*
X614015Y588716D01*
X613057Y588435D01*
X612082Y588223D01*
X611094Y588081D01*
X610099Y588010D01*
X609101Y588010D01*
X608106Y588081D01*
X607118Y588223D01*
X606143Y588435D01*
X605185Y588716D01*
X604251Y589065D01*
X603343Y589480D01*
X602467Y589958D01*
X601628Y590497D01*
X600829Y591095D01*
X600075Y591749D01*
X599369Y592455D01*
X598715Y593209D01*
X598117Y594008D01*
X597578Y594847D01*
X597100Y595723D01*
X596685Y596631D01*
X596336Y597565D01*
X596055Y598523D01*
X595843Y599498D01*
X595701Y600486D01*
X595630Y601481D01*
X595630Y602479D01*
X595701Y603474D01*
X595843Y604462D01*
X596055Y605437D01*
X596336Y606395D01*
X596685Y607330D01*
X597100Y608237D01*
X597578Y609113D01*
X598117Y609953D01*
X598715Y610751D01*
X599369Y611505D01*
X600075Y612211D01*
X600829Y612865D01*
X601628Y613463D01*
X602467Y614002D01*
X603343Y614480D01*
X604251Y614895D01*
X605185Y615244D01*
X606143Y615525D01*
X607118Y615737D01*
X608106Y615879D01*
X609101Y615950D01*
X610099Y615950D01*
X611094Y615879D01*
X612082Y615737D01*
X613057Y615525D01*
X614015Y615244D01*
X614950Y614895D01*
X615857Y614480D01*
X616733Y614002D01*
X617573Y613463D01*
X618371Y612865D01*
X619125Y612211D01*
X619831Y611505D01*
X620485Y610751D01*
X621083Y609953D01*
X621622Y609113D01*
X622100Y608237D01*
X622515Y607330D01*
X622864Y606395D01*
X623145Y605437D01*
X623357Y604462D01*
X623499Y603474D01*
X623570Y602479D01*
X623570Y601481D01*
X1161710Y88360D02*
X1161639Y87281D01*
X1161498Y86209D01*
X1161287Y85149D01*
X1161008Y84105D01*
X1160660Y83081D01*
X1160246Y82083D01*
X1159768Y81113D01*
X1159228Y80177D01*
X1158627Y79278D01*
X1157969Y78421D01*
X1157257Y77608D01*
X1156492Y76844D01*
X1155679Y76131D01*
X1154822Y75473D01*
X1153923Y74872D01*
X1152987Y74332D01*
X1152017Y73854D01*
X1151019Y73440D01*
X1149995Y73092D01*
X1148951Y72813D01*
X1147891Y72602D01*
X1146819Y72461D01*
X1145740Y72390D01*
X1144660Y72390D01*
X1143581Y72461D01*
X1142509Y72602D01*
X1141449Y72813D01*
X1140405Y73092D01*
X1139381Y73440D01*
X1138383Y73854D01*
X1137413Y74332D01*
X1136477Y74872D01*
X1135578Y75473D01*
X1134721Y76131D01*
X1133908Y76844D01*
X1133144Y77608D01*
X1132431Y78421D01*
X1131773Y79278D01*
X1131172Y80177D01*
X1130632Y81113D01*
X1130154Y82083D01*
X1129740Y83081D01*
X1129392Y84105D01*
X1129113Y85149D01*
X1128902Y86209D01*
X1128761Y87281D01*
X1128690Y88360D01*
X1128690Y89440D01*
X1128761Y90519D01*
X1128902Y91591D01*
X1129113Y92651D01*
X1129392Y93695D01*
X1129740Y94719D01*
X1130154Y95717D01*
X1130632Y96687D01*
X1131172Y97623D01*
X1131773Y98522D01*
X1132431Y99379D01*
X1133144Y100192D01*
X1133908Y100957D01*
X1134721Y101669D01*
X1135578Y102327D01*
X1136477Y102928D01*
X1137413Y103468D01*
X1138383Y103946D01*
X1139381Y104360D01*
X1140405Y104708D01*
X1141449Y104987D01*
X1142509Y105198D01*
X1143581Y105339D01*
X1144660Y105410D01*
X1145740Y105410D01*
X1146819Y105339D01*
X1147891Y105198D01*
X1148951Y104987D01*
X1149995Y104708D01*
X1151019Y104360D01*
X1152017Y103946D01*
X1152987Y103468D01*
X1153923Y102928D01*
X1154822Y102327D01*
X1155679Y101669D01*
X1156492Y100957D01*
X1157257Y100192D01*
X1157969Y99379D01*
X1158627Y98522D01*
X1159228Y97623D01*
X1159768Y96687D01*
X1160246Y95717D01*
X1160660Y94719D01*
X1161008Y93695D01*
X1161287Y92651D01*
X1161498Y91591D01*
X1161639Y90519D01*
X1161710Y89440D01*
X1161710Y88360D01*
X130810Y88360D02*
X130739Y87281D01*
X130598Y86209D01*
X130387Y85149D01*
X130108Y84105D01*
X129760Y83081D01*
X129346Y82083D01*
X128868Y81113D01*
X128328Y80177D01*
X127727Y79278D01*
X127069Y78421D01*
X126357Y77608D01*
X125592Y76844D01*
X124779Y76131D01*
X123922Y75473D01*
X123023Y74872D01*
X122087Y74332D01*
X121117Y73854D01*
X120119Y73440D01*
X119095Y73092D01*
X118051Y72813D01*
X116991Y72602D01*
X115919Y72461D01*
X114840Y72390D01*
X113760Y72390D01*
X112681Y72461D01*
X111609Y72602D01*
X110549Y72813D01*
X109505Y73092D01*
X108481Y73440D01*
X107483Y73854D01*
X106513Y74332D01*
X105577Y74872D01*
X104678Y75473D01*
X103821Y76131D01*
X103008Y76844D01*
X102244Y77608D01*
X101531Y78421D01*
X100873Y79278D01*
X100272Y80177D01*
X99732Y81113D01*
X99254Y82083D01*
X98840Y83081D01*
X98492Y84105D01*
X98213Y85149D01*
X98002Y86209D01*
X97861Y87281D01*
X97790Y88360D01*
X97790Y89440D01*
X97861Y90519D01*
X98002Y91591D01*
X98213Y92651D01*
X98492Y93695D01*
X98840Y94719D01*
X99254Y95717D01*
X99732Y96687D01*
X100272Y97623D01*
X100873Y98522D01*
X101531Y99379D01*
X102244Y100192D01*
X103008Y100957D01*
X103821Y101669D01*
X104678Y102327D01*
X105577Y102928D01*
X106513Y103468D01*
X107483Y103946D01*
X108481Y104360D01*
X109505Y104708D01*
X110549Y104987D01*
X111609Y105198D01*
X112681Y105339D01*
X113760Y105410D01*
X114840Y105410D01*
X115919Y105339D01*
X116991Y105198D01*
X118051Y104987D01*
X119095Y104708D01*
X120119Y104360D01*
X121117Y103946D01*
X122087Y103468D01*
X123023Y102928D01*
X123922Y102327D01*
X124779Y101669D01*
X125592Y100957D01*
X126357Y100192D01*
X127069Y99379D01*
X127727Y98522D01*
X128328Y97623D01*
X128868Y96687D01*
X129346Y95717D01*
X129760Y94719D01*
X130108Y93695D01*
X130387Y92651D01*
X130598Y91591D01*
X130739Y90519D01*
X130810Y89440D01*
X130810Y88360D01*
X130810Y850360D02*
X130739Y849281D01*
X130598Y848209D01*
X130387Y847149D01*
X130108Y846105D01*
X129760Y845081D01*
X129346Y844083D01*
X128868Y843113D01*
X128328Y842177D01*
X127727Y841278D01*
X127069Y840421D01*
X126357Y839608D01*
X125592Y838844D01*
X124779Y838131D01*
X123922Y837473D01*
X123023Y836872D01*
X122087Y836332D01*
X121117Y835854D01*
X120119Y835440D01*
X119095Y835092D01*
X118051Y834813D01*
X116991Y834602D01*
X115919Y834461D01*
X114840Y834390D01*
X113760Y834390D01*
X112681Y834461D01*
X111609Y834602D01*
X110549Y834813D01*
X109505Y835092D01*
X108481Y835440D01*
X107483Y835854D01*
X106513Y836332D01*
X105577Y836872D01*
X104678Y837473D01*
X103821Y838131D01*
X103008Y838844D01*
X102244Y839608D01*
X101531Y840421D01*
X100873Y841278D01*
X100272Y842177D01*
X99732Y843113D01*
X99254Y844083D01*
X98840Y845081D01*
X98492Y846105D01*
X98213Y847149D01*
X98002Y848209D01*
X97861Y849281D01*
X97790Y850360D01*
X97790Y851440D01*
X97861Y852519D01*
X98002Y853591D01*
X98213Y854651D01*
X98492Y855695D01*
X98840Y856719D01*
X99254Y857717D01*
X99732Y858687D01*
X100272Y859623D01*
X100873Y860522D01*
X101531Y861379D01*
X102244Y862192D01*
X103008Y862957D01*
X103821Y863669D01*
X104678Y864327D01*
X105577Y864928D01*
X106513Y865468D01*
X107483Y865946D01*
X108481Y866360D01*
X109505Y866708D01*
X110549Y866987D01*
X111609Y867198D01*
X112681Y867339D01*
X113760Y867410D01*
X114840Y867410D01*
X115919Y867339D01*
X116991Y867198D01*
X118051Y866987D01*
X119095Y866708D01*
X120119Y866360D01*
X121117Y865946D01*
X122087Y865468D01*
X123023Y864928D01*
X123922Y864327D01*
X124779Y863669D01*
X125592Y862957D01*
X126357Y862192D01*
X127069Y861379D01*
X127727Y860522D01*
X128328Y859623D01*
X128868Y858687D01*
X129346Y857717D01*
X129760Y856719D01*
X130108Y855695D01*
X130387Y854651D01*
X130598Y853591D01*
X130739Y852519D01*
X130810Y851440D01*
X130810Y850360D01*
X928370Y837701D02*
X928299Y836706D01*
X928157Y835718D01*
X927945Y834743D01*
X927664Y833785D01*
X927315Y832851D01*
X926900Y831943D01*
X926422Y831067D01*
X925883Y830228D01*
X925285Y829429D01*
X924631Y828675D01*
X923925Y827969D01*
X923171Y827315D01*
X922373Y826717D01*
X921533Y826178D01*
X920657Y825700D01*
X919750Y825285D01*
X918815Y824936D01*
X917857Y824655D01*
X916882Y824443D01*
X915894Y824301D01*
X914899Y824230D01*
X913901Y824230D01*
X912906Y824301D01*
X911918Y824443D01*
X910943Y824655D01*
X909985Y824936D01*
X909051Y825285D01*
X908143Y825700D01*
X907267Y826178D01*
X906428Y826717D01*
X905629Y827315D01*
X904875Y827969D01*
X904169Y828675D01*
X903515Y829429D01*
X902917Y830228D01*
X902378Y831067D01*
X901900Y831943D01*
X901485Y832851D01*
X901136Y833785D01*
X900855Y834743D01*
X900643Y835718D01*
X900501Y836706D01*
X900430Y837701D01*
X900430Y838699D01*
X900501Y839694D01*
X900643Y840682D01*
X900855Y841657D01*
X901136Y842615D01*
X901485Y843550D01*
X901900Y844457D01*
X902378Y845333D01*
X902917Y846173D01*
X903515Y846971D01*
X904169Y847725D01*
X904875Y848431D01*
X905629Y849085D01*
X906428Y849683D01*
X907267Y850222D01*
X908143Y850700D01*
X909051Y851115D01*
X909985Y851464D01*
X910943Y851745D01*
X911918Y851957D01*
X912906Y852099D01*
X913901Y852170D01*
X914899Y852170D01*
X915894Y852099D01*
X916882Y851957D01*
X917857Y851745D01*
X918815Y851464D01*
X919750Y851115D01*
X920657Y850700D01*
X921533Y850222D01*
X922373Y849683D01*
X923171Y849085D01*
X923925Y848431D01*
X924631Y847725D01*
X925285Y846971D01*
X925883Y846173D01*
X926422Y845333D01*
X926900Y844457D01*
X927315Y843550D01*
X927664Y842615D01*
X927945Y841657D01*
X928157Y840682D01*
X928299Y839694D01*
X928370Y838699D01*
X928370Y837701D01*
M02*
