M48
;GenerationSoftware,Autodesk,EAGLE,9.6.2*%
;CreationDate,2022-09-23T20:09:03Z*%
FMAT,2
ICI,OFF
METRIC,TZ,000.000
T8C0.300
T7C0.381
T6C0.991
T5C1.016
T4C1.118
T3C2.794
T2C3.048
T1C3.302
%
G90
M71
T1
X114520Y8890
X11430Y8890
X11430Y85090
T2
X50165Y35560
X50165Y55880
X71755Y35560
X71755Y55880
T3
X60960Y31242
X60960Y60198
X91440Y83820
T4
X46990Y15240
X34290Y15240
T5
X54737Y46990
X54483Y44450
X97820Y59880
X54483Y49530
X54737Y52070
X54483Y54610
X67183Y54610
X67437Y52070
X67183Y49530
X67437Y46990
X67183Y44450
X67437Y41910
X67183Y39370
X100360Y59880
X102900Y59880
X67437Y36830
X54737Y36830
X54483Y39370
X54737Y41910
T6
X57150Y79375
X59690Y79375
X62230Y79375
X64770Y79375
X67310Y79375
X69850Y79375
X72390Y79375
X74930Y79375
X77470Y79375
X80010Y79375
X82550Y79375
X54610Y79375
X34290Y75565
X35560Y73660
X38100Y73660
X40640Y73660
X43180Y73660
X45720Y73660
X48260Y73660
X50800Y73660
X53340Y73660
X55880Y73660
X58420Y73660
X60960Y73660
X63500Y73660
X66040Y73660
X68580Y73660
X71120Y73660
X73660Y73660
X76200Y73660
X78740Y73660
X81280Y73660
X83820Y73660
X66040Y77470
X36830Y75565
X39370Y75565
X41910Y75565
X44450Y75565
X46990Y75565
X49530Y75565
X52070Y75565
X54610Y75565
X57150Y75565
X59690Y75565
X62230Y75565
X64770Y75565
X67310Y75565
X69850Y75565
X72390Y75565
X74930Y75565
X77470Y75565
X80010Y75565
X82550Y75565
X35560Y77470
X38100Y77470
X40640Y77470
X43180Y77470
X45720Y77470
X48260Y77470
X50800Y77470
X53340Y77470
X55880Y77470
X58420Y77470
X60960Y77470
X63500Y77470
X68580Y77470
X71120Y77470
X73660Y77470
X76200Y77470
X78740Y77470
X81280Y77470
X83820Y77470
X34290Y79375
X36830Y79375
X39370Y79375
X41910Y79375
X44450Y79375
X46990Y79375
X49530Y79375
X52070Y79375
T7
X41910Y67310
X39370Y54610
T8
X50051Y58229
X51651Y58852
X83299Y40716
X83655Y19114
X82677Y43117
X36182Y66675
X35027Y55562
X52540Y59207
X54496Y64452
X38227Y67297
X45250Y40716
X84988Y46317
X45250Y43294
X57607Y66053
X77965Y43294
X45250Y53429
M30