G04 EAGLE Gerber RS-274X export*
G75*
%MOMM*%
%FSLAX34Y34*%
%LPD*%
%INSilkscreen Bottom*%
%IPPOS*%
%AMOC8*
5,1,8,0,0,1.08239X$1,22.5*%
G01*

G36*
X632054Y515954D02*
X632054Y515954D01*
X632056Y515951D01*
X632856Y516051D01*
X632872Y516067D01*
X632885Y516065D01*
X633185Y516365D01*
X633186Y516377D01*
X633191Y516381D01*
X633188Y516386D01*
X633188Y516387D01*
X633199Y516393D01*
X633299Y517093D01*
X633296Y517098D01*
X633299Y517100D01*
X633299Y524600D01*
X633296Y524605D01*
X633299Y524608D01*
X633199Y525208D01*
X633177Y525229D01*
X633175Y525242D01*
X632675Y525542D01*
X632657Y525540D01*
X632650Y525549D01*
X629350Y525549D01*
X629345Y525546D01*
X629342Y525549D01*
X628742Y525449D01*
X628739Y525445D01*
X628736Y525447D01*
X628036Y525247D01*
X628032Y525242D01*
X628028Y525244D01*
X627428Y524944D01*
X627427Y524941D01*
X627425Y524942D01*
X626925Y524642D01*
X626923Y524637D01*
X626918Y524638D01*
X626318Y524138D01*
X626317Y524131D01*
X626312Y524131D01*
X625912Y523631D01*
X625911Y523627D01*
X625909Y523627D01*
X625509Y523027D01*
X625509Y523026D01*
X625508Y523025D01*
X625208Y522525D01*
X625209Y522518D01*
X625203Y522514D01*
X625204Y522514D01*
X625203Y522514D01*
X625189Y522465D01*
X625175Y522416D01*
X625133Y522268D01*
X625090Y522120D01*
X625076Y522071D01*
X625034Y521923D01*
X625003Y521814D01*
X625006Y521804D01*
X625001Y521800D01*
X625001Y519700D01*
X625008Y519691D01*
X625003Y519684D01*
X625203Y519084D01*
X625208Y519081D01*
X625206Y519078D01*
X625506Y518478D01*
X625510Y518476D01*
X625509Y518473D01*
X625909Y517873D01*
X625912Y517872D01*
X625912Y517869D01*
X626312Y517369D01*
X626316Y517368D01*
X626315Y517365D01*
X626815Y516865D01*
X626827Y516864D01*
X626828Y516856D01*
X628028Y516256D01*
X628033Y516257D01*
X628034Y516253D01*
X628634Y516053D01*
X628641Y516055D01*
X628643Y516051D01*
X629343Y515951D01*
X629348Y515954D01*
X629350Y515951D01*
X632050Y515951D01*
X632054Y515954D01*
G37*
G36*
X622939Y419438D02*
X622939Y419438D01*
X622946Y419433D01*
X623546Y419633D01*
X623559Y419653D01*
X623572Y419655D01*
X623872Y420155D01*
X623870Y420173D01*
X623879Y420180D01*
X623879Y424823D01*
X625390Y422652D01*
X625396Y422650D01*
X625395Y422645D01*
X625795Y422245D01*
X625799Y422245D01*
X625799Y422242D01*
X626299Y421842D01*
X626327Y421841D01*
X626337Y421831D01*
X627037Y421931D01*
X627050Y421944D01*
X627061Y421942D01*
X627561Y422342D01*
X627563Y422350D01*
X627569Y422350D01*
X629362Y424741D01*
X629481Y424800D01*
X629481Y420080D01*
X629492Y420065D01*
X629488Y420055D01*
X629788Y419555D01*
X629816Y419544D01*
X629822Y419531D01*
X630422Y419431D01*
X630427Y419434D01*
X630430Y419431D01*
X631230Y419431D01*
X631251Y419447D01*
X631265Y419445D01*
X631765Y419945D01*
X631766Y419957D01*
X631770Y419959D01*
X631767Y419963D01*
X631769Y419972D01*
X631779Y419980D01*
X631779Y428080D01*
X631772Y428089D01*
X631777Y428096D01*
X631577Y428696D01*
X631557Y428709D01*
X631555Y428722D01*
X631055Y429022D01*
X631037Y429020D01*
X631030Y429029D01*
X630230Y429029D01*
X630217Y429020D01*
X630208Y429024D01*
X629608Y428724D01*
X629601Y428711D01*
X629592Y428711D01*
X629192Y428211D01*
X629192Y428210D01*
X629191Y428210D01*
X626813Y425040D01*
X626361Y425221D01*
X624869Y427210D01*
X624868Y427210D01*
X624868Y427211D01*
X623568Y428811D01*
X623549Y428816D01*
X623546Y428827D01*
X622946Y429027D01*
X622931Y429022D01*
X622925Y429029D01*
X622025Y428929D01*
X622011Y428916D01*
X622000Y428919D01*
X621600Y428619D01*
X621593Y428594D01*
X621581Y428588D01*
X621481Y427988D01*
X621484Y427983D01*
X621481Y427980D01*
X621481Y420480D01*
X621487Y420472D01*
X621483Y420466D01*
X621683Y419766D01*
X621700Y419753D01*
X621700Y419741D01*
X622100Y419441D01*
X622122Y419441D01*
X622130Y419431D01*
X622930Y419431D01*
X622939Y419438D01*
G37*
G36*
X579439Y419438D02*
X579439Y419438D01*
X579446Y419433D01*
X580046Y419633D01*
X580051Y419641D01*
X580057Y419639D01*
X580657Y420039D01*
X580658Y420042D01*
X580661Y420042D01*
X581161Y420442D01*
X581163Y420449D01*
X581168Y420449D01*
X581568Y420949D01*
X581569Y420959D01*
X581575Y420961D01*
X581875Y421661D01*
X581875Y421664D01*
X581877Y421664D01*
X582077Y422264D01*
X582075Y422270D01*
X582079Y422272D01*
X582179Y422872D01*
X582178Y422873D01*
X582179Y422873D01*
X582279Y423573D01*
X582276Y423578D01*
X582279Y423580D01*
X582279Y425080D01*
X582276Y425084D01*
X582279Y425087D01*
X582179Y425787D01*
X582178Y425788D01*
X582179Y425788D01*
X582079Y426388D01*
X582072Y426394D01*
X582075Y426399D01*
X581775Y427099D01*
X581773Y427101D01*
X581774Y427102D01*
X581474Y427702D01*
X581471Y427703D01*
X581472Y427705D01*
X581172Y428205D01*
X581169Y428207D01*
X581169Y428210D01*
X580869Y428610D01*
X580854Y428614D01*
X580852Y428624D01*
X579652Y429224D01*
X579642Y429222D01*
X579638Y429229D01*
X579038Y429329D01*
X579033Y429326D01*
X579030Y429329D01*
X578230Y429329D01*
X578225Y429326D01*
X578222Y429329D01*
X577622Y429229D01*
X577618Y429224D01*
X577614Y429227D01*
X577014Y429027D01*
X577007Y429016D01*
X576998Y429018D01*
X576399Y428518D01*
X575899Y428118D01*
X575896Y428104D01*
X575886Y428102D01*
X575286Y426902D01*
X575288Y426891D01*
X575281Y426887D01*
X575186Y426218D01*
X575140Y426228D01*
X575139Y426227D01*
X575130Y426227D01*
X575116Y426217D01*
X575087Y426203D01*
X575089Y426197D01*
X575082Y426191D01*
X575084Y426189D01*
X575081Y426187D01*
X574981Y425487D01*
X574984Y425482D01*
X574981Y425480D01*
X574981Y424883D01*
X574881Y424086D01*
X574886Y424078D01*
X574881Y424073D01*
X575081Y422673D01*
X575085Y422669D01*
X575083Y422666D01*
X575283Y421966D01*
X575284Y421965D01*
X575283Y421964D01*
X575483Y421364D01*
X575490Y421360D01*
X575488Y421355D01*
X575788Y420855D01*
X575792Y420853D01*
X575792Y420849D01*
X576192Y420349D01*
X576199Y420347D01*
X576199Y420342D01*
X576699Y419942D01*
X576707Y419941D01*
X576708Y419936D01*
X577308Y419636D01*
X577315Y419637D01*
X577316Y419633D01*
X578016Y419433D01*
X578026Y419436D01*
X578030Y419431D01*
X579430Y419431D01*
X579439Y419438D01*
G37*
G36*
X588638Y419437D02*
X588638Y419437D01*
X588644Y419433D01*
X589344Y419633D01*
X589350Y419642D01*
X589357Y419639D01*
X589957Y420039D01*
X589958Y420042D01*
X589961Y420042D01*
X590461Y420442D01*
X590464Y420454D01*
X590472Y420455D01*
X590772Y420955D01*
X590772Y420960D01*
X590775Y420961D01*
X591075Y421661D01*
X591075Y421664D01*
X591077Y421664D01*
X591477Y422864D01*
X591477Y422865D01*
X591476Y422866D01*
X591473Y422875D01*
X591479Y422880D01*
X591479Y423577D01*
X591579Y424374D01*
X591574Y424382D01*
X591579Y424387D01*
X591479Y425083D01*
X591479Y425780D01*
X591472Y425789D01*
X591477Y425796D01*
X591277Y426395D01*
X591077Y427094D01*
X591072Y427098D01*
X591074Y427102D01*
X590774Y427702D01*
X590771Y427703D01*
X590772Y427705D01*
X590472Y428205D01*
X590469Y428207D01*
X590469Y428210D01*
X590169Y428610D01*
X590154Y428614D01*
X590152Y428624D01*
X588952Y429224D01*
X588942Y429222D01*
X588938Y429229D01*
X588338Y429329D01*
X588333Y429326D01*
X588330Y429329D01*
X587530Y429329D01*
X587526Y429326D01*
X587523Y429329D01*
X586823Y429229D01*
X586817Y429223D01*
X586812Y429226D01*
X586312Y429026D01*
X586306Y429016D01*
X586298Y429018D01*
X585699Y428518D01*
X585199Y428118D01*
X585196Y428104D01*
X585186Y428102D01*
X584586Y426902D01*
X584587Y426895D01*
X584583Y426894D01*
X584579Y426881D01*
X584537Y426733D01*
X584523Y426684D01*
X584481Y426536D01*
X584438Y426388D01*
X584424Y426339D01*
X584383Y426194D01*
X584383Y426192D01*
X584382Y426191D01*
X584384Y426189D01*
X584381Y426187D01*
X584281Y425488D01*
X584181Y424888D01*
X584184Y424883D01*
X584181Y424880D01*
X584181Y424080D01*
X584184Y424076D01*
X584181Y424073D01*
X584381Y422673D01*
X584385Y422669D01*
X584383Y422666D01*
X584583Y421966D01*
X584584Y421965D01*
X584583Y421964D01*
X584783Y421364D01*
X584790Y421360D01*
X584788Y421355D01*
X585088Y420855D01*
X585092Y420853D01*
X585092Y420849D01*
X585492Y420349D01*
X585499Y420347D01*
X585499Y420342D01*
X585999Y419942D01*
X586007Y419941D01*
X586008Y419936D01*
X586608Y419636D01*
X586613Y419637D01*
X586614Y419633D01*
X587214Y419433D01*
X587225Y419437D01*
X587230Y419431D01*
X588630Y419431D01*
X588638Y419437D01*
G37*
G36*
X597834Y419434D02*
X597834Y419434D01*
X597837Y419431D01*
X598537Y419531D01*
X598545Y419539D01*
X598552Y419536D01*
X599152Y419836D01*
X599153Y419839D01*
X599155Y419838D01*
X599655Y420138D01*
X599659Y420146D01*
X599665Y420145D01*
X600165Y420645D01*
X600166Y420652D01*
X600171Y420653D01*
X600571Y421253D01*
X600570Y421262D01*
X600577Y421264D01*
X600777Y421864D01*
X600773Y421875D01*
X600779Y421880D01*
X600779Y422580D01*
X600766Y422598D01*
X600769Y422610D01*
X600469Y423010D01*
X600448Y423016D01*
X600444Y423027D01*
X599744Y423227D01*
X599732Y423223D01*
X599730Y423223D01*
X599724Y423229D01*
X598924Y423129D01*
X598908Y423113D01*
X598895Y423115D01*
X598595Y422815D01*
X598593Y422802D01*
X598585Y422799D01*
X598292Y422116D01*
X597716Y421828D01*
X596935Y421730D01*
X596357Y421923D01*
X595979Y422300D01*
X595979Y422860D01*
X596453Y423333D01*
X597236Y423431D01*
X597238Y423433D01*
X597240Y423432D01*
X597740Y423532D01*
X597753Y423547D01*
X597765Y423545D01*
X598165Y423945D01*
X598168Y423968D01*
X598179Y423975D01*
X598279Y424875D01*
X598271Y424888D01*
X598277Y424896D01*
X598077Y425496D01*
X598052Y425513D01*
X598048Y425526D01*
X597548Y425726D01*
X597539Y425723D01*
X597536Y425729D01*
X596741Y425828D01*
X596179Y426016D01*
X596179Y426556D01*
X596647Y426931D01*
X597318Y426931D01*
X597898Y426641D01*
X598292Y426149D01*
X598299Y426147D01*
X598299Y426142D01*
X598799Y425742D01*
X598820Y425741D01*
X598825Y425735D01*
X598835Y425735D01*
X598838Y425731D01*
X599438Y425831D01*
X599448Y425842D01*
X599457Y425839D01*
X600057Y426239D01*
X600062Y426254D01*
X600072Y426255D01*
X600372Y426755D01*
X600370Y426780D01*
X600378Y426790D01*
X600278Y427290D01*
X600273Y427295D01*
X600275Y427299D01*
X599975Y427999D01*
X599964Y428006D01*
X599965Y428015D01*
X599465Y428515D01*
X599461Y428515D01*
X599461Y428518D01*
X598961Y428918D01*
X598947Y428919D01*
X598944Y428927D01*
X598245Y429127D01*
X597646Y429327D01*
X597635Y429323D01*
X597630Y429329D01*
X595530Y429329D01*
X595507Y429312D01*
X595493Y429313D01*
X594594Y428314D01*
X594095Y427815D01*
X594094Y427803D01*
X594086Y427802D01*
X593786Y427202D01*
X593788Y427191D01*
X593781Y427187D01*
X593681Y426487D01*
X593684Y426482D01*
X593681Y426480D01*
X593681Y425780D01*
X593690Y425767D01*
X593686Y425758D01*
X593986Y425158D01*
X593999Y425151D01*
X593999Y425142D01*
X594481Y424756D01*
X594481Y424400D01*
X593995Y423915D01*
X593994Y423908D01*
X593989Y423907D01*
X593589Y423307D01*
X593590Y423293D01*
X593581Y423288D01*
X593481Y422688D01*
X593487Y422678D01*
X593481Y422673D01*
X593581Y421973D01*
X593586Y421968D01*
X593583Y421964D01*
X593783Y421364D01*
X593788Y421361D01*
X593786Y421358D01*
X594086Y420758D01*
X594096Y420753D01*
X594095Y420745D01*
X594595Y420245D01*
X594604Y420244D01*
X594605Y420238D01*
X595105Y419938D01*
X595108Y419938D01*
X595108Y419936D01*
X595708Y419636D01*
X595715Y419637D01*
X595716Y419633D01*
X596416Y419433D01*
X596426Y419436D01*
X596430Y419431D01*
X597830Y419431D01*
X597834Y419434D01*
G37*
G36*
X606534Y419434D02*
X606534Y419434D01*
X606537Y419431D01*
X607237Y419531D01*
X607245Y419539D01*
X607252Y419536D01*
X607852Y419836D01*
X607855Y419843D01*
X607861Y419842D01*
X608361Y420242D01*
X608362Y420246D01*
X608365Y420245D01*
X608765Y420645D01*
X608766Y420657D01*
X608774Y420658D01*
X609074Y421258D01*
X609073Y421263D01*
X609077Y421264D01*
X609277Y421864D01*
X609276Y421866D01*
X609277Y421866D01*
X609281Y421880D01*
X609295Y421929D01*
X609337Y422077D01*
X609338Y422077D01*
X609337Y422077D01*
X609380Y422225D01*
X609394Y422274D01*
X609436Y422422D01*
X609477Y422566D01*
X609476Y422569D01*
X609477Y422569D01*
X609475Y422573D01*
X609474Y422576D01*
X609479Y422580D01*
X609479Y424080D01*
X609476Y424084D01*
X609479Y424087D01*
X609379Y424787D01*
X609374Y424792D01*
X609377Y424796D01*
X608977Y425996D01*
X608972Y425999D01*
X608974Y426002D01*
X608374Y427202D01*
X608367Y427205D01*
X608368Y427211D01*
X607968Y427711D01*
X607961Y427713D01*
X607961Y427718D01*
X606961Y428518D01*
X606953Y428519D01*
X606952Y428524D01*
X606352Y428824D01*
X606345Y428823D01*
X606344Y428827D01*
X605644Y429027D01*
X605640Y429026D01*
X605638Y429029D01*
X605038Y429129D01*
X605033Y429126D01*
X605030Y429129D01*
X603530Y429129D01*
X603505Y429110D01*
X603492Y429111D01*
X603092Y428611D01*
X603091Y428588D01*
X603081Y428580D01*
X603081Y427880D01*
X603084Y427876D01*
X603081Y427873D01*
X603181Y427173D01*
X603200Y427154D01*
X603200Y427141D01*
X603600Y426841D01*
X603618Y426841D01*
X603624Y426831D01*
X604423Y426731D01*
X605019Y426632D01*
X605707Y426435D01*
X606195Y426045D01*
X606685Y425457D01*
X606760Y425155D01*
X606246Y425327D01*
X606235Y425323D01*
X606230Y425329D01*
X605530Y425329D01*
X605522Y425323D01*
X605516Y425327D01*
X604816Y425127D01*
X604812Y425122D01*
X604808Y425124D01*
X604208Y424824D01*
X604205Y424817D01*
X604199Y424818D01*
X603699Y424418D01*
X603698Y424414D01*
X603695Y424415D01*
X603195Y423915D01*
X603194Y423903D01*
X603186Y423902D01*
X602886Y423302D01*
X602888Y423292D01*
X602881Y423288D01*
X602781Y422688D01*
X602784Y422683D01*
X602781Y422680D01*
X602781Y422480D01*
X602784Y422476D01*
X602781Y422473D01*
X602881Y421773D01*
X602886Y421768D01*
X602883Y421764D01*
X603083Y421164D01*
X603088Y421161D01*
X603086Y421158D01*
X603386Y420558D01*
X603399Y420551D01*
X603399Y420542D01*
X603899Y420142D01*
X603903Y420141D01*
X603903Y420139D01*
X604503Y419739D01*
X604512Y419740D01*
X604514Y419733D01*
X605114Y419533D01*
X605121Y419535D01*
X605123Y419531D01*
X605823Y419431D01*
X605828Y419434D01*
X605830Y419431D01*
X606530Y419431D01*
X606534Y419434D01*
G37*
G36*
X590889Y515958D02*
X590889Y515958D01*
X590896Y515953D01*
X591496Y516153D01*
X591501Y516161D01*
X591507Y516159D01*
X592707Y516959D01*
X592710Y516966D01*
X592715Y516965D01*
X593115Y517365D01*
X593117Y517378D01*
X593125Y517381D01*
X593425Y518081D01*
X593420Y518101D01*
X593423Y518104D01*
X593424Y518104D01*
X593424Y518105D01*
X593428Y518110D01*
X593328Y518610D01*
X593315Y518621D01*
X593318Y518632D01*
X592818Y519232D01*
X592794Y519237D01*
X592788Y519249D01*
X592188Y519349D01*
X592184Y519346D01*
X592182Y519349D01*
X592179Y519349D01*
X592171Y519342D01*
X592164Y519347D01*
X591564Y519147D01*
X591555Y519133D01*
X591545Y519135D01*
X591049Y518638D01*
X590462Y518247D01*
X589787Y518151D01*
X589114Y518439D01*
X588834Y518906D01*
X589020Y519465D01*
X589595Y519753D01*
X590188Y519851D01*
X590191Y519855D01*
X590194Y519853D01*
X590894Y520053D01*
X590896Y520056D01*
X590899Y520055D01*
X591599Y520355D01*
X591602Y520359D01*
X591605Y520358D01*
X592105Y520658D01*
X592107Y520662D01*
X592111Y520662D01*
X592611Y521062D01*
X592613Y521069D01*
X592618Y521069D01*
X593018Y521569D01*
X593019Y521583D01*
X593027Y521586D01*
X593060Y521700D01*
X593074Y521749D01*
X593116Y521897D01*
X593158Y522044D01*
X593172Y522094D01*
X593214Y522241D01*
X593215Y522241D01*
X593214Y522241D01*
X593227Y522286D01*
X593226Y522289D01*
X593228Y522291D01*
X593227Y522292D01*
X593229Y522293D01*
X593329Y522993D01*
X593323Y523003D01*
X593329Y523008D01*
X593229Y523608D01*
X593224Y523612D01*
X593227Y523616D01*
X593027Y524216D01*
X593019Y524221D01*
X593021Y524227D01*
X592621Y524827D01*
X592611Y524831D01*
X592611Y524838D01*
X592111Y525238D01*
X592103Y525239D01*
X592102Y525244D01*
X591502Y525544D01*
X591497Y525543D01*
X591496Y525547D01*
X590896Y525747D01*
X590889Y525745D01*
X590887Y525749D01*
X590187Y525849D01*
X590179Y525844D01*
X590174Y525849D01*
X589374Y525749D01*
X589373Y525748D01*
X589372Y525749D01*
X588772Y525649D01*
X588769Y525645D01*
X588766Y525647D01*
X588066Y525447D01*
X588058Y525436D01*
X588049Y525438D01*
X587549Y525038D01*
X587548Y525034D01*
X587545Y525035D01*
X587045Y524535D01*
X587042Y524508D01*
X587031Y524500D01*
X587031Y524000D01*
X587044Y523983D01*
X587040Y523971D01*
X587540Y523271D01*
X587554Y523267D01*
X587555Y523258D01*
X588055Y522958D01*
X588073Y522960D01*
X588080Y522951D01*
X588680Y522951D01*
X588699Y522965D01*
X588712Y522962D01*
X589304Y523456D01*
X589885Y523650D01*
X590554Y523554D01*
X590925Y523090D01*
X590739Y522532D01*
X590160Y522146D01*
X588869Y521848D01*
X588867Y521845D01*
X588864Y521847D01*
X588264Y521647D01*
X588261Y521642D01*
X588258Y521644D01*
X587658Y521344D01*
X587655Y521337D01*
X587649Y521338D01*
X587149Y520938D01*
X587147Y520931D01*
X587142Y520931D01*
X586742Y520431D01*
X586741Y520418D01*
X586733Y520416D01*
X586533Y519816D01*
X586536Y519809D01*
X586531Y519806D01*
X586431Y519006D01*
X586436Y518998D01*
X586431Y518993D01*
X586531Y518293D01*
X586536Y518288D01*
X586533Y518284D01*
X586733Y517684D01*
X586741Y517679D01*
X586739Y517673D01*
X587139Y517073D01*
X587149Y517069D01*
X587149Y517062D01*
X587649Y516662D01*
X587654Y516661D01*
X587655Y516658D01*
X588155Y516358D01*
X588160Y516358D01*
X588161Y516355D01*
X588861Y516055D01*
X588869Y516057D01*
X588872Y516051D01*
X589472Y515951D01*
X589477Y515954D01*
X589480Y515951D01*
X590880Y515951D01*
X590889Y515958D01*
G37*
G36*
X615438Y419437D02*
X615438Y419437D01*
X615444Y419433D01*
X616144Y419633D01*
X616145Y419634D01*
X616146Y419633D01*
X616746Y419833D01*
X616749Y419838D01*
X616752Y419836D01*
X617352Y420136D01*
X617354Y420140D01*
X617357Y420139D01*
X617957Y420539D01*
X617960Y420546D01*
X617965Y420545D01*
X618465Y421045D01*
X618465Y421049D01*
X618468Y421049D01*
X618868Y421549D01*
X618869Y421554D01*
X618872Y421555D01*
X619172Y422055D01*
X619172Y422060D01*
X619175Y422061D01*
X619475Y422761D01*
X619475Y422764D01*
X619477Y422764D01*
X619677Y423364D01*
X619673Y423375D01*
X619679Y423380D01*
X619679Y424780D01*
X619676Y424784D01*
X619679Y424787D01*
X619579Y425487D01*
X619578Y425488D01*
X619579Y425488D01*
X619479Y426088D01*
X619471Y426095D01*
X619474Y426102D01*
X619174Y426702D01*
X619170Y426704D01*
X619171Y426707D01*
X618771Y427307D01*
X618768Y427308D01*
X618768Y427311D01*
X618368Y427811D01*
X618361Y427813D01*
X618361Y427818D01*
X617861Y428218D01*
X617857Y428219D01*
X617857Y428221D01*
X617257Y428621D01*
X617251Y428621D01*
X617249Y428625D01*
X616549Y428925D01*
X616546Y428925D01*
X616546Y428927D01*
X615946Y429127D01*
X615939Y429125D01*
X615937Y429129D01*
X615237Y429229D01*
X615232Y429226D01*
X615230Y429229D01*
X614630Y429229D01*
X614626Y429226D01*
X614623Y429229D01*
X613223Y429029D01*
X613215Y429021D01*
X613208Y429024D01*
X612008Y428424D01*
X612001Y428411D01*
X611992Y428411D01*
X611592Y427911D01*
X611591Y427893D01*
X611581Y427888D01*
X611481Y427288D01*
X611493Y427265D01*
X611489Y427253D01*
X611889Y426653D01*
X611896Y426650D01*
X611895Y426645D01*
X612395Y426145D01*
X612422Y426142D01*
X612430Y426131D01*
X612930Y426131D01*
X612946Y426143D01*
X612957Y426139D01*
X613552Y426535D01*
X614141Y426732D01*
X614830Y426830D01*
X615515Y426732D01*
X616108Y426436D01*
X616696Y426142D01*
X617085Y425558D01*
X617281Y424972D01*
X617281Y423592D01*
X616988Y423007D01*
X616596Y422517D01*
X616005Y422123D01*
X615418Y421829D01*
X614142Y421829D01*
X613553Y422124D01*
X612854Y422523D01*
X612829Y422519D01*
X612818Y422528D01*
X612418Y422428D01*
X612406Y422413D01*
X612395Y422415D01*
X611895Y421915D01*
X611894Y421905D01*
X611887Y421904D01*
X611487Y421204D01*
X611491Y421176D01*
X611483Y421164D01*
X611683Y420564D01*
X611700Y420553D01*
X611699Y420542D01*
X612199Y420142D01*
X612204Y420141D01*
X612205Y420138D01*
X612705Y419838D01*
X612714Y419839D01*
X612716Y419833D01*
X614116Y419433D01*
X614126Y419436D01*
X614130Y419431D01*
X615430Y419431D01*
X615438Y419437D01*
G37*
G36*
X629557Y363559D02*
X629557Y363559D01*
X629566Y363553D01*
X630166Y363753D01*
X630177Y363770D01*
X630188Y363769D01*
X630588Y364269D01*
X630589Y364276D01*
X630589Y364277D01*
X630594Y364278D01*
X634194Y371578D01*
X634193Y371583D01*
X634197Y371584D01*
X634397Y372184D01*
X634387Y372213D01*
X634392Y372225D01*
X634092Y372725D01*
X634076Y372732D01*
X634074Y372743D01*
X633374Y373143D01*
X633362Y373141D01*
X633358Y373149D01*
X632758Y373249D01*
X632728Y373233D01*
X632715Y373235D01*
X632215Y372735D01*
X632214Y372730D01*
X632211Y372730D01*
X631911Y372330D01*
X631911Y372321D01*
X631905Y372320D01*
X629612Y367036D01*
X629473Y366967D01*
X626594Y373021D01*
X626570Y373034D01*
X626566Y373047D01*
X625966Y373247D01*
X625945Y373240D01*
X625934Y373247D01*
X625334Y373047D01*
X625327Y373036D01*
X625318Y373038D01*
X624718Y372538D01*
X624715Y372521D01*
X624704Y372518D01*
X624504Y372018D01*
X624511Y371992D01*
X624505Y371981D01*
X624805Y371281D01*
X624806Y371280D01*
X624806Y371279D01*
X628006Y364679D01*
X628010Y364676D01*
X628009Y364673D01*
X628409Y364073D01*
X628419Y364069D01*
X628419Y364062D01*
X628919Y363662D01*
X628937Y363661D01*
X628942Y363651D01*
X629542Y363551D01*
X629557Y363559D01*
G37*
G36*
X639148Y419445D02*
X639148Y419445D01*
X639161Y419442D01*
X639661Y419842D01*
X639665Y419857D01*
X639670Y419861D01*
X639667Y419865D01*
X639667Y419866D01*
X639679Y419872D01*
X639779Y420472D01*
X639776Y420477D01*
X639779Y420480D01*
X639779Y426668D01*
X639960Y427031D01*
X642030Y427031D01*
X642034Y427034D01*
X642037Y427031D01*
X642737Y427131D01*
X642752Y427147D01*
X642765Y427145D01*
X643165Y427545D01*
X643169Y427572D01*
X643179Y427580D01*
X643179Y428280D01*
X643172Y428289D01*
X643177Y428296D01*
X642977Y428896D01*
X642942Y428919D01*
X642937Y428929D01*
X642237Y429029D01*
X642232Y429026D01*
X642230Y429029D01*
X634730Y429029D01*
X634717Y429020D01*
X634708Y429024D01*
X634108Y428724D01*
X634090Y428687D01*
X634081Y428680D01*
X634081Y427980D01*
X634084Y427975D01*
X634081Y427972D01*
X634181Y427372D01*
X634206Y427349D01*
X634208Y427336D01*
X634808Y427036D01*
X634824Y427039D01*
X634830Y427031D01*
X636827Y427031D01*
X637481Y426937D01*
X637481Y420180D01*
X637490Y420167D01*
X637486Y420158D01*
X637786Y419558D01*
X637816Y419543D01*
X637822Y419531D01*
X638422Y419431D01*
X638427Y419434D01*
X638430Y419431D01*
X639130Y419431D01*
X639148Y419445D01*
G37*
%LPC*%
G36*
X628770Y518349D02*
X628770Y518349D01*
X628585Y518535D01*
X628581Y518535D01*
X628581Y518538D01*
X628087Y518934D01*
X627693Y519525D01*
X627397Y520115D01*
X627300Y520701D01*
X627398Y521385D01*
X627693Y521975D01*
X628084Y522562D01*
X628672Y522856D01*
X629262Y523151D01*
X630630Y523151D01*
X630901Y522880D01*
X630901Y518805D01*
X630810Y518349D01*
X628770Y518349D01*
G37*
%LPD*%
%LPC*%
G36*
X587739Y421829D02*
X587739Y421829D01*
X587261Y422021D01*
X586972Y422406D01*
X586678Y422994D01*
X586579Y423883D01*
X586579Y424877D01*
X586679Y425674D01*
X586649Y425725D01*
X586644Y425722D01*
X586641Y425728D01*
X586623Y425732D01*
X586628Y425735D01*
X586632Y425735D01*
X586641Y425742D01*
X586673Y425758D01*
X586674Y425758D01*
X586972Y426354D01*
X587262Y426741D01*
X587642Y426931D01*
X588214Y426931D01*
X588595Y426645D01*
X588885Y426258D01*
X589081Y425571D01*
X589181Y424580D01*
X589081Y423586D01*
X588982Y422795D01*
X588689Y422209D01*
X588406Y421925D01*
X587925Y421829D01*
X587739Y421829D01*
G37*
%LPD*%
%LPC*%
G36*
X578442Y421829D02*
X578442Y421829D01*
X578059Y422021D01*
X577673Y422407D01*
X577478Y422991D01*
X577379Y423883D01*
X577379Y424877D01*
X577479Y425674D01*
X577449Y425725D01*
X577443Y425722D01*
X577440Y425728D01*
X577422Y425732D01*
X577428Y425735D01*
X577431Y425735D01*
X577439Y425741D01*
X577474Y425758D01*
X577472Y425763D01*
X577477Y425764D01*
X577674Y426357D01*
X577961Y426739D01*
X578439Y426931D01*
X578914Y426931D01*
X579295Y426645D01*
X579585Y426258D01*
X579781Y425571D01*
X579881Y424578D01*
X579881Y423586D01*
X579684Y422797D01*
X579389Y422209D01*
X579106Y421925D01*
X578625Y421829D01*
X578442Y421829D01*
G37*
%LPD*%
%LPC*%
G36*
X605554Y421726D02*
X605554Y421726D01*
X605179Y422100D01*
X605179Y422660D01*
X605650Y423131D01*
X606318Y423131D01*
X606886Y422847D01*
X606979Y422284D01*
X606793Y421724D01*
X606131Y421630D01*
X605554Y421726D01*
G37*
%LPD*%
M02*
