G04 EAGLE Gerber RS-274X export*
G75*
%MOMM*%
%FSLAX34Y34*%
%LPD*%
%INBottom Copper*%
%IPPOS*%
%AMOC8*
5,1,8,0,0,1.08239X$1,22.5*%
G01*
%ADD10C,1.879600*%
%ADD11C,1.778000*%
%ADD12C,0.177800*%
%ADD13C,0.655600*%
%ADD14C,0.508000*%
%ADD15C,0.736600*%
%ADD16C,0.254000*%

G36*
X1132437Y67829D02*
X1132437Y67829D01*
X1132511Y67829D01*
X1132577Y67849D01*
X1132646Y67859D01*
X1132713Y67889D01*
X1132784Y67909D01*
X1132842Y67946D01*
X1132905Y67975D01*
X1132962Y68022D01*
X1133024Y68062D01*
X1133070Y68114D01*
X1133122Y68158D01*
X1133163Y68220D01*
X1133212Y68275D01*
X1133242Y68337D01*
X1133280Y68395D01*
X1133302Y68465D01*
X1133334Y68532D01*
X1133345Y68600D01*
X1133366Y68666D01*
X1133368Y68740D01*
X1133380Y68812D01*
X1133371Y68881D01*
X1133373Y68950D01*
X1133354Y69021D01*
X1133346Y69095D01*
X1133319Y69158D01*
X1133301Y69225D01*
X1133264Y69289D01*
X1133235Y69356D01*
X1133197Y69401D01*
X1133156Y69470D01*
X1133067Y69554D01*
X1133017Y69612D01*
X1127615Y74144D01*
X1123629Y81049D01*
X1122245Y88900D01*
X1123629Y96751D01*
X1127615Y103655D01*
X1133722Y108780D01*
X1141214Y111507D01*
X1149186Y111507D01*
X1156678Y108780D01*
X1162785Y103656D01*
X1164387Y100881D01*
X1164399Y100865D01*
X1164407Y100848D01*
X1164486Y100754D01*
X1164562Y100657D01*
X1164578Y100646D01*
X1164591Y100631D01*
X1164693Y100562D01*
X1164792Y100491D01*
X1164811Y100484D01*
X1164827Y100473D01*
X1164945Y100436D01*
X1165060Y100394D01*
X1165080Y100393D01*
X1165098Y100387D01*
X1165221Y100384D01*
X1165344Y100376D01*
X1165363Y100380D01*
X1165382Y100380D01*
X1165501Y100411D01*
X1165621Y100437D01*
X1165639Y100447D01*
X1165657Y100452D01*
X1165763Y100514D01*
X1165871Y100573D01*
X1165885Y100587D01*
X1165902Y100597D01*
X1165986Y100687D01*
X1166073Y100773D01*
X1166083Y100790D01*
X1166096Y100804D01*
X1166152Y100914D01*
X1166212Y101021D01*
X1166217Y101040D01*
X1166226Y101057D01*
X1166238Y101130D01*
X1166277Y101298D01*
X1166275Y101349D01*
X1166281Y101389D01*
X1166281Y850900D01*
X1166275Y850944D01*
X1166278Y850980D01*
X1166031Y854119D01*
X1165996Y854277D01*
X1165985Y854353D01*
X1164045Y860323D01*
X1163920Y860579D01*
X1163907Y860593D01*
X1163900Y860607D01*
X1160210Y865686D01*
X1160012Y865890D01*
X1159996Y865899D01*
X1159986Y865910D01*
X1154907Y869600D01*
X1154655Y869734D01*
X1154637Y869737D01*
X1154623Y869745D01*
X1148653Y871685D01*
X1148579Y871698D01*
X1148507Y871720D01*
X1148457Y871722D01*
X1148419Y871731D01*
X1145280Y871978D01*
X1145235Y871975D01*
X1145200Y871981D01*
X127136Y871981D01*
X127063Y871971D01*
X126989Y871971D01*
X126923Y871951D01*
X126854Y871941D01*
X126787Y871911D01*
X126716Y871891D01*
X126658Y871854D01*
X126595Y871825D01*
X126538Y871778D01*
X126476Y871738D01*
X126430Y871686D01*
X126378Y871642D01*
X126337Y871580D01*
X126288Y871525D01*
X126258Y871463D01*
X126220Y871405D01*
X126198Y871335D01*
X126166Y871268D01*
X126155Y871200D01*
X126134Y871134D01*
X126132Y871060D01*
X126120Y870988D01*
X126129Y870919D01*
X126127Y870850D01*
X126146Y870779D01*
X126154Y870705D01*
X126181Y870642D01*
X126199Y870575D01*
X126236Y870511D01*
X126265Y870444D01*
X126303Y870399D01*
X126344Y870330D01*
X126433Y870246D01*
X126483Y870188D01*
X131885Y865656D01*
X135871Y858751D01*
X137255Y850900D01*
X135871Y843049D01*
X131885Y836145D01*
X125778Y831020D01*
X118286Y828293D01*
X110314Y828293D01*
X102822Y831020D01*
X96715Y836144D01*
X95113Y838919D01*
X95101Y838935D01*
X95093Y838952D01*
X95054Y838998D01*
X95036Y839029D01*
X95002Y839061D01*
X94938Y839143D01*
X94922Y839154D01*
X94909Y839169D01*
X94831Y839222D01*
X94829Y839224D01*
X94825Y839226D01*
X94807Y839238D01*
X94708Y839309D01*
X94689Y839316D01*
X94673Y839327D01*
X94555Y839364D01*
X94440Y839406D01*
X94420Y839407D01*
X94402Y839413D01*
X94279Y839416D01*
X94156Y839424D01*
X94137Y839420D01*
X94118Y839420D01*
X93999Y839389D01*
X93879Y839363D01*
X93861Y839353D01*
X93843Y839348D01*
X93737Y839286D01*
X93629Y839227D01*
X93615Y839213D01*
X93598Y839203D01*
X93514Y839113D01*
X93427Y839027D01*
X93417Y839010D01*
X93404Y838996D01*
X93348Y838886D01*
X93288Y838779D01*
X93283Y838760D01*
X93274Y838743D01*
X93262Y838670D01*
X93248Y838609D01*
X93233Y838561D01*
X93232Y838542D01*
X93223Y838502D01*
X93225Y838451D01*
X93219Y838411D01*
X93219Y101389D01*
X93221Y101369D01*
X93219Y101350D01*
X93241Y101229D01*
X93259Y101107D01*
X93267Y101089D01*
X93270Y101070D01*
X93325Y100960D01*
X93375Y100848D01*
X93387Y100833D01*
X93396Y100815D01*
X93479Y100724D01*
X93558Y100631D01*
X93575Y100620D01*
X93588Y100605D01*
X93693Y100541D01*
X93795Y100473D01*
X93814Y100467D01*
X93830Y100457D01*
X93949Y100424D01*
X94066Y100387D01*
X94086Y100387D01*
X94105Y100382D01*
X94227Y100383D01*
X94350Y100380D01*
X94369Y100385D01*
X94389Y100385D01*
X94507Y100421D01*
X94625Y100452D01*
X94642Y100462D01*
X94661Y100467D01*
X94764Y100534D01*
X94870Y100597D01*
X94883Y100611D01*
X94900Y100622D01*
X94946Y100679D01*
X95064Y100804D01*
X95088Y100850D01*
X95113Y100881D01*
X96715Y103655D01*
X102822Y108780D01*
X110314Y111507D01*
X118286Y111507D01*
X125778Y108780D01*
X131885Y103656D01*
X135871Y96751D01*
X137255Y88900D01*
X135871Y81049D01*
X131885Y74145D01*
X126483Y69612D01*
X126434Y69557D01*
X126378Y69509D01*
X126339Y69452D01*
X126293Y69400D01*
X126261Y69334D01*
X126220Y69273D01*
X126199Y69207D01*
X126169Y69144D01*
X126156Y69072D01*
X126134Y69002D01*
X126132Y68933D01*
X126121Y68864D01*
X126129Y68791D01*
X126127Y68718D01*
X126144Y68651D01*
X126152Y68582D01*
X126180Y68514D01*
X126199Y68443D01*
X126234Y68383D01*
X126261Y68319D01*
X126306Y68261D01*
X126344Y68198D01*
X126395Y68151D01*
X126438Y68097D01*
X126498Y68054D01*
X126551Y68004D01*
X126613Y67972D01*
X126670Y67932D01*
X126739Y67908D01*
X126804Y67874D01*
X126863Y67864D01*
X126938Y67838D01*
X127060Y67831D01*
X127136Y67819D01*
X1132364Y67819D01*
X1132437Y67829D01*
G37*
%LPC*%
G36*
X835291Y184808D02*
X835291Y184808D01*
X832965Y185771D01*
X831185Y187551D01*
X830222Y189877D01*
X830222Y192393D01*
X831185Y194719D01*
X832314Y195847D01*
X832366Y195917D01*
X832426Y195981D01*
X832452Y196030D01*
X832485Y196074D01*
X832516Y196156D01*
X832556Y196234D01*
X832564Y196282D01*
X832586Y196340D01*
X832598Y196488D01*
X832611Y196565D01*
X832611Y399820D01*
X832603Y399876D01*
X832605Y399922D01*
X832604Y399923D01*
X832605Y399936D01*
X832583Y400018D01*
X832571Y400102D01*
X832548Y400155D01*
X832533Y400211D01*
X832490Y400284D01*
X832455Y400361D01*
X832417Y400406D01*
X832388Y400456D01*
X832326Y400514D01*
X832272Y400578D01*
X832223Y400610D01*
X832180Y400650D01*
X832105Y400689D01*
X832035Y400736D01*
X831979Y400753D01*
X831927Y400780D01*
X831859Y400791D01*
X831783Y400815D01*
X829409Y401798D01*
X827629Y403578D01*
X826666Y405904D01*
X826666Y408420D01*
X827302Y409954D01*
X827302Y409956D01*
X827303Y409957D01*
X827337Y410090D01*
X827373Y410230D01*
X827373Y410231D01*
X827373Y410233D01*
X827368Y410373D01*
X827364Y410514D01*
X827364Y410515D01*
X827364Y410517D01*
X827320Y410651D01*
X827278Y410784D01*
X827277Y410786D01*
X827276Y410787D01*
X827267Y410800D01*
X827119Y411021D01*
X827096Y411040D01*
X827082Y411061D01*
X798766Y439376D01*
X796162Y441980D01*
X796162Y726027D01*
X796158Y726056D01*
X796161Y726086D01*
X796138Y726197D01*
X796122Y726309D01*
X796110Y726336D01*
X796105Y726364D01*
X796053Y726465D01*
X796006Y726568D01*
X795987Y726591D01*
X795974Y726617D01*
X795896Y726699D01*
X795823Y726785D01*
X795798Y726801D01*
X795778Y726823D01*
X795680Y726880D01*
X795586Y726943D01*
X795558Y726952D01*
X795533Y726967D01*
X795423Y726994D01*
X795315Y727029D01*
X795286Y727029D01*
X795257Y727037D01*
X795144Y727033D01*
X795031Y727036D01*
X795002Y727028D01*
X794973Y727028D01*
X794865Y726993D01*
X794756Y726964D01*
X794730Y726949D01*
X794702Y726940D01*
X794638Y726894D01*
X794511Y726819D01*
X794468Y726773D01*
X794429Y726745D01*
X794163Y726479D01*
X789775Y724661D01*
X785025Y724661D01*
X780637Y726479D01*
X777279Y729837D01*
X775638Y733799D01*
X775623Y733824D01*
X775614Y733852D01*
X775551Y733946D01*
X775493Y734043D01*
X775472Y734064D01*
X775456Y734088D01*
X775369Y734161D01*
X775287Y734239D01*
X775261Y734252D01*
X775238Y734271D01*
X775135Y734317D01*
X775034Y734369D01*
X775005Y734374D01*
X774978Y734386D01*
X774866Y734402D01*
X774755Y734424D01*
X774726Y734421D01*
X774697Y734425D01*
X774585Y734409D01*
X774472Y734399D01*
X774445Y734389D01*
X774415Y734385D01*
X774312Y734338D01*
X774207Y734297D01*
X774183Y734280D01*
X774156Y734268D01*
X774070Y734194D01*
X773980Y734126D01*
X773962Y734102D01*
X773940Y734083D01*
X773898Y734017D01*
X773810Y733898D01*
X773788Y733839D01*
X773762Y733799D01*
X772121Y729837D01*
X768763Y726479D01*
X764375Y724661D01*
X759625Y724661D01*
X755237Y726479D01*
X751879Y729837D01*
X750238Y733799D01*
X750223Y733824D01*
X750214Y733852D01*
X750151Y733946D01*
X750093Y734043D01*
X750072Y734064D01*
X750056Y734088D01*
X749969Y734161D01*
X749887Y734239D01*
X749861Y734252D01*
X749838Y734271D01*
X749735Y734317D01*
X749634Y734369D01*
X749605Y734374D01*
X749578Y734386D01*
X749466Y734402D01*
X749355Y734424D01*
X749326Y734421D01*
X749297Y734425D01*
X749185Y734409D01*
X749072Y734399D01*
X749045Y734389D01*
X749015Y734385D01*
X748912Y734338D01*
X748807Y734297D01*
X748783Y734280D01*
X748756Y734268D01*
X748670Y734194D01*
X748580Y734126D01*
X748562Y734102D01*
X748540Y734083D01*
X748498Y734017D01*
X748410Y733898D01*
X748388Y733839D01*
X748362Y733799D01*
X746721Y729837D01*
X743363Y726479D01*
X738975Y724661D01*
X734225Y724661D01*
X729837Y726479D01*
X726479Y729837D01*
X724838Y733799D01*
X724823Y733824D01*
X724814Y733852D01*
X724751Y733946D01*
X724693Y734043D01*
X724672Y734064D01*
X724656Y734088D01*
X724569Y734161D01*
X724487Y734239D01*
X724461Y734252D01*
X724438Y734271D01*
X724335Y734317D01*
X724234Y734369D01*
X724205Y734374D01*
X724178Y734386D01*
X724066Y734402D01*
X723955Y734424D01*
X723926Y734421D01*
X723897Y734425D01*
X723785Y734409D01*
X723672Y734399D01*
X723645Y734389D01*
X723615Y734385D01*
X723512Y734338D01*
X723407Y734297D01*
X723383Y734280D01*
X723356Y734268D01*
X723270Y734194D01*
X723180Y734126D01*
X723162Y734102D01*
X723140Y734083D01*
X723098Y734017D01*
X723010Y733898D01*
X722988Y733839D01*
X722962Y733799D01*
X721321Y729837D01*
X717963Y726479D01*
X713575Y724661D01*
X708825Y724661D01*
X704437Y726479D01*
X701079Y729837D01*
X699438Y733799D01*
X699423Y733824D01*
X699414Y733852D01*
X699351Y733946D01*
X699293Y734043D01*
X699272Y734064D01*
X699256Y734088D01*
X699169Y734161D01*
X699087Y734239D01*
X699061Y734252D01*
X699038Y734271D01*
X698935Y734317D01*
X698834Y734369D01*
X698805Y734374D01*
X698778Y734386D01*
X698666Y734402D01*
X698555Y734424D01*
X698526Y734421D01*
X698497Y734425D01*
X698385Y734409D01*
X698272Y734399D01*
X698245Y734389D01*
X698215Y734385D01*
X698112Y734338D01*
X698007Y734297D01*
X697983Y734280D01*
X697956Y734268D01*
X697870Y734194D01*
X697780Y734126D01*
X697762Y734102D01*
X697740Y734083D01*
X697698Y734017D01*
X697610Y733898D01*
X697588Y733839D01*
X697562Y733799D01*
X695921Y729837D01*
X692563Y726479D01*
X688175Y724661D01*
X683425Y724661D01*
X681317Y725535D01*
X681315Y725535D01*
X681314Y725536D01*
X681181Y725570D01*
X681041Y725606D01*
X681040Y725606D01*
X681038Y725606D01*
X680898Y725601D01*
X680757Y725597D01*
X680756Y725597D01*
X680754Y725597D01*
X680621Y725554D01*
X680487Y725511D01*
X680485Y725510D01*
X680484Y725509D01*
X680472Y725501D01*
X680250Y725352D01*
X680231Y725329D01*
X680210Y725315D01*
X655935Y701039D01*
X613684Y701039D01*
X613597Y701027D01*
X613510Y701024D01*
X613457Y701007D01*
X613402Y700999D01*
X613322Y700964D01*
X613239Y700937D01*
X613200Y700909D01*
X613143Y700883D01*
X613029Y700787D01*
X612966Y700742D01*
X579603Y667379D01*
X579568Y667333D01*
X579525Y667292D01*
X579483Y667219D01*
X579432Y667152D01*
X579411Y667097D01*
X579382Y667047D01*
X579361Y666965D01*
X579331Y666886D01*
X579326Y666828D01*
X579312Y666771D01*
X579314Y666687D01*
X579307Y666603D01*
X579319Y666546D01*
X579321Y666487D01*
X579347Y666407D01*
X579363Y666324D01*
X579390Y666272D01*
X579408Y666217D01*
X579448Y666161D01*
X579494Y666072D01*
X579563Y666000D01*
X579603Y665943D01*
X581436Y664111D01*
X582399Y661785D01*
X582399Y660190D01*
X582411Y660103D01*
X582414Y660016D01*
X582431Y659963D01*
X582439Y659908D01*
X582474Y659828D01*
X582501Y659745D01*
X582529Y659706D01*
X582555Y659649D01*
X582651Y659535D01*
X582696Y659472D01*
X697028Y545140D01*
X697036Y545134D01*
X697042Y545126D01*
X697150Y545048D01*
X697255Y544969D01*
X697264Y544965D01*
X697272Y544960D01*
X697398Y544915D01*
X697521Y544868D01*
X697531Y544867D01*
X697540Y544863D01*
X697673Y544855D01*
X697804Y544844D01*
X697814Y544846D01*
X697824Y544845D01*
X697954Y544874D01*
X698083Y544900D01*
X698092Y544904D01*
X698101Y544906D01*
X698218Y544970D01*
X698335Y545031D01*
X698342Y545038D01*
X698351Y545042D01*
X698445Y545135D01*
X698541Y545227D01*
X698546Y545235D01*
X698553Y545242D01*
X698618Y545357D01*
X698685Y545472D01*
X698688Y545481D01*
X698692Y545490D01*
X698723Y545620D01*
X698755Y545747D01*
X698755Y545757D01*
X698757Y545767D01*
X698750Y545900D01*
X698746Y546032D01*
X698743Y546041D01*
X698743Y546051D01*
X698723Y546104D01*
X698659Y546302D01*
X698638Y546331D01*
X698625Y546365D01*
X695979Y550949D01*
X694595Y558800D01*
X695979Y566651D01*
X699965Y573556D01*
X706072Y578680D01*
X713564Y581407D01*
X721536Y581407D01*
X729028Y578680D01*
X735135Y573556D01*
X739121Y566651D01*
X740505Y558800D01*
X739121Y550949D01*
X735135Y544045D01*
X729028Y538920D01*
X721536Y536193D01*
X713564Y536193D01*
X705935Y538970D01*
X705872Y538983D01*
X705813Y539006D01*
X705734Y539013D01*
X705657Y539029D01*
X705593Y539024D01*
X705529Y539030D01*
X705452Y539014D01*
X705373Y539008D01*
X705313Y538986D01*
X705251Y538974D01*
X705181Y538937D01*
X705106Y538910D01*
X705055Y538872D01*
X704998Y538843D01*
X704941Y538788D01*
X704877Y538742D01*
X704839Y538691D01*
X704792Y538647D01*
X704752Y538579D01*
X704704Y538516D01*
X704681Y538457D01*
X704648Y538402D01*
X704629Y538325D01*
X704600Y538252D01*
X704594Y538188D01*
X704578Y538126D01*
X704581Y538047D01*
X704573Y537969D01*
X704585Y537906D01*
X704587Y537842D01*
X704612Y537767D01*
X704626Y537689D01*
X704655Y537632D01*
X704675Y537571D01*
X704713Y537518D01*
X704755Y537436D01*
X704828Y537357D01*
X704870Y537298D01*
X783591Y458577D01*
X783591Y438373D01*
X783599Y438317D01*
X783597Y438269D01*
X783604Y438242D01*
X783606Y438199D01*
X783623Y438146D01*
X783631Y438092D01*
X783662Y438022D01*
X783669Y437994D01*
X783676Y437982D01*
X783693Y437929D01*
X783721Y437889D01*
X783747Y437832D01*
X783808Y437760D01*
X783814Y437749D01*
X783827Y437737D01*
X783843Y437719D01*
X783888Y437655D01*
X785017Y436527D01*
X785980Y434201D01*
X785980Y431685D01*
X785017Y429359D01*
X783237Y427579D01*
X780911Y426616D01*
X778395Y426616D01*
X776069Y427579D01*
X774289Y429359D01*
X773326Y431685D01*
X773326Y434201D01*
X774289Y436527D01*
X775418Y437655D01*
X775470Y437725D01*
X775530Y437789D01*
X775556Y437838D01*
X775589Y437882D01*
X775610Y437937D01*
X775616Y437946D01*
X775623Y437971D01*
X775660Y438042D01*
X775668Y438090D01*
X775690Y438148D01*
X775694Y438193D01*
X775701Y438217D01*
X775703Y438303D01*
X775715Y438373D01*
X775715Y454894D01*
X775703Y454981D01*
X775700Y455068D01*
X775683Y455121D01*
X775675Y455176D01*
X775640Y455256D01*
X775613Y455339D01*
X775585Y455378D01*
X775559Y455435D01*
X775463Y455549D01*
X775418Y455612D01*
X686010Y545020D01*
X685986Y545038D01*
X685967Y545060D01*
X685873Y545123D01*
X685783Y545191D01*
X685755Y545202D01*
X685731Y545218D01*
X685623Y545252D01*
X685517Y545292D01*
X685488Y545295D01*
X685460Y545304D01*
X685346Y545307D01*
X685234Y545316D01*
X685205Y545310D01*
X685176Y545311D01*
X685066Y545282D01*
X684955Y545260D01*
X684929Y545247D01*
X684901Y545239D01*
X684803Y545181D01*
X684703Y545129D01*
X684681Y545109D01*
X684656Y545094D01*
X684579Y545011D01*
X684497Y544933D01*
X684482Y544908D01*
X684462Y544887D01*
X684410Y544786D01*
X684353Y544688D01*
X684346Y544660D01*
X684332Y544634D01*
X684319Y544556D01*
X684283Y544413D01*
X684285Y544350D01*
X684277Y544302D01*
X684277Y543624D01*
X682382Y539049D01*
X678881Y535548D01*
X676137Y534412D01*
X676132Y534409D01*
X676126Y534407D01*
X676009Y534336D01*
X675893Y534267D01*
X675888Y534263D01*
X675883Y534260D01*
X675791Y534159D01*
X675697Y534061D01*
X675695Y534055D01*
X675690Y534051D01*
X675630Y533929D01*
X675567Y533808D01*
X675566Y533802D01*
X675563Y533796D01*
X675539Y533663D01*
X675512Y533529D01*
X675513Y533523D01*
X675512Y533517D01*
X675525Y533380D01*
X675537Y533246D01*
X675539Y533240D01*
X675539Y533234D01*
X675590Y533107D01*
X675639Y532981D01*
X675642Y532976D01*
X675645Y532970D01*
X675728Y532863D01*
X675810Y532754D01*
X675815Y532750D01*
X675819Y532745D01*
X675929Y532665D01*
X676038Y532584D01*
X676044Y532581D01*
X676049Y532578D01*
X676090Y532564D01*
X676304Y532483D01*
X676340Y532480D01*
X676367Y532471D01*
X677166Y532345D01*
X678953Y531764D01*
X680627Y530911D01*
X682148Y529806D01*
X683476Y528478D01*
X684581Y526957D01*
X685434Y525283D01*
X686015Y523496D01*
X686136Y522731D01*
X675386Y522731D01*
X675328Y522723D01*
X675270Y522725D01*
X675188Y522703D01*
X675105Y522691D01*
X675051Y522667D01*
X674995Y522653D01*
X674922Y522610D01*
X674845Y522575D01*
X674801Y522537D01*
X674750Y522507D01*
X674693Y522446D01*
X674628Y522391D01*
X674596Y522343D01*
X674556Y522300D01*
X674517Y522225D01*
X674471Y522155D01*
X674453Y522099D01*
X674426Y522047D01*
X674415Y521979D01*
X674385Y521884D01*
X674382Y521784D01*
X674371Y521716D01*
X674371Y519684D01*
X674379Y519626D01*
X674378Y519568D01*
X674399Y519486D01*
X674411Y519403D01*
X674435Y519349D01*
X674449Y519293D01*
X674492Y519220D01*
X674527Y519143D01*
X674565Y519098D01*
X674595Y519048D01*
X674656Y518990D01*
X674711Y518926D01*
X674759Y518894D01*
X674802Y518854D01*
X674877Y518815D01*
X674947Y518769D01*
X675003Y518751D01*
X675055Y518724D01*
X675123Y518713D01*
X675218Y518683D01*
X675318Y518680D01*
X675386Y518669D01*
X686136Y518669D01*
X686015Y517904D01*
X685434Y516117D01*
X684581Y514443D01*
X683476Y512922D01*
X682148Y511594D01*
X680627Y510489D01*
X678953Y509636D01*
X677166Y509055D01*
X676367Y508929D01*
X676361Y508927D01*
X676355Y508927D01*
X676225Y508885D01*
X676095Y508845D01*
X676090Y508842D01*
X676084Y508840D01*
X675971Y508764D01*
X675857Y508690D01*
X675853Y508685D01*
X675848Y508682D01*
X675760Y508577D01*
X675672Y508475D01*
X675669Y508469D01*
X675665Y508464D01*
X675610Y508340D01*
X675553Y508216D01*
X675552Y508210D01*
X675550Y508204D01*
X675531Y508070D01*
X675511Y507935D01*
X675512Y507929D01*
X675511Y507923D01*
X675530Y507788D01*
X675548Y507653D01*
X675550Y507648D01*
X675551Y507642D01*
X675607Y507518D01*
X675662Y507393D01*
X675666Y507388D01*
X675668Y507382D01*
X675757Y507279D01*
X675844Y507174D01*
X675849Y507171D01*
X675853Y507166D01*
X675890Y507143D01*
X676079Y507015D01*
X676113Y507003D01*
X676137Y506988D01*
X678881Y505852D01*
X682382Y502351D01*
X684277Y497776D01*
X684277Y492824D01*
X682382Y488249D01*
X678881Y484748D01*
X677229Y484064D01*
X677204Y484049D01*
X677176Y484040D01*
X677081Y483977D01*
X676984Y483920D01*
X676964Y483898D01*
X676939Y483882D01*
X676866Y483795D01*
X676789Y483713D01*
X676775Y483687D01*
X676756Y483664D01*
X676710Y483561D01*
X676659Y483460D01*
X676653Y483431D01*
X676641Y483405D01*
X676625Y483292D01*
X676604Y483181D01*
X676606Y483152D01*
X676602Y483123D01*
X676618Y483011D01*
X676628Y482898D01*
X676639Y482871D01*
X676643Y482842D01*
X676689Y482739D01*
X676730Y482633D01*
X676748Y482609D01*
X676760Y482582D01*
X676833Y482496D01*
X676902Y482406D01*
X676925Y482388D01*
X676944Y482366D01*
X677011Y482325D01*
X677129Y482236D01*
X677188Y482214D01*
X677229Y482188D01*
X681421Y480452D01*
X684922Y476951D01*
X686817Y472376D01*
X686817Y467424D01*
X684922Y462849D01*
X681421Y459348D01*
X677229Y457612D01*
X677204Y457597D01*
X677176Y457588D01*
X677081Y457525D01*
X676984Y457467D01*
X676964Y457446D01*
X676939Y457430D01*
X676866Y457343D01*
X676789Y457261D01*
X676775Y457235D01*
X676756Y457212D01*
X676710Y457109D01*
X676659Y457008D01*
X676653Y456979D01*
X676641Y456952D01*
X676625Y456840D01*
X676604Y456729D01*
X676606Y456700D01*
X676602Y456671D01*
X676618Y456559D01*
X676628Y456446D01*
X676639Y456418D01*
X676643Y456389D01*
X676689Y456286D01*
X676730Y456181D01*
X676748Y456157D01*
X676760Y456130D01*
X676833Y456044D01*
X676902Y455954D01*
X676925Y455936D01*
X676944Y455914D01*
X677011Y455872D01*
X677066Y455831D01*
X677068Y455829D01*
X677069Y455828D01*
X677129Y455784D01*
X677188Y455762D01*
X677229Y455736D01*
X678881Y455052D01*
X682382Y451551D01*
X684277Y446976D01*
X684277Y442024D01*
X682382Y437449D01*
X678881Y433948D01*
X677229Y433264D01*
X677204Y433249D01*
X677176Y433240D01*
X677081Y433177D01*
X676984Y433120D01*
X676964Y433098D01*
X676939Y433082D01*
X676866Y432995D01*
X676789Y432913D01*
X676775Y432887D01*
X676756Y432864D01*
X676710Y432761D01*
X676659Y432660D01*
X676653Y432631D01*
X676641Y432605D01*
X676625Y432492D01*
X676604Y432381D01*
X676606Y432352D01*
X676602Y432323D01*
X676618Y432211D01*
X676628Y432098D01*
X676639Y432071D01*
X676643Y432042D01*
X676689Y431939D01*
X676730Y431833D01*
X676748Y431809D01*
X676760Y431782D01*
X676833Y431696D01*
X676902Y431606D01*
X676925Y431588D01*
X676944Y431566D01*
X677011Y431525D01*
X677129Y431436D01*
X677188Y431414D01*
X677229Y431388D01*
X681421Y429652D01*
X684922Y426151D01*
X686817Y421576D01*
X686817Y416624D01*
X684922Y412049D01*
X681421Y408548D01*
X677229Y406812D01*
X677204Y406797D01*
X677176Y406788D01*
X677081Y406725D01*
X676984Y406667D01*
X676964Y406646D01*
X676939Y406630D01*
X676866Y406543D01*
X676789Y406461D01*
X676775Y406435D01*
X676756Y406412D01*
X676710Y406309D01*
X676659Y406208D01*
X676653Y406179D01*
X676641Y406152D01*
X676625Y406040D01*
X676604Y405929D01*
X676606Y405900D01*
X676602Y405871D01*
X676618Y405759D01*
X676628Y405646D01*
X676639Y405618D01*
X676643Y405589D01*
X676689Y405486D01*
X676730Y405381D01*
X676748Y405357D01*
X676760Y405330D01*
X676833Y405244D01*
X676902Y405154D01*
X676925Y405136D01*
X676944Y405114D01*
X677011Y405072D01*
X677129Y404984D01*
X677188Y404962D01*
X677229Y404936D01*
X678881Y404252D01*
X682382Y400751D01*
X684277Y396176D01*
X684277Y391224D01*
X682382Y386649D01*
X678881Y383148D01*
X676137Y382012D01*
X676132Y382009D01*
X676126Y382007D01*
X676009Y381936D01*
X675893Y381867D01*
X675888Y381863D01*
X675883Y381860D01*
X675791Y381759D01*
X675697Y381661D01*
X675695Y381655D01*
X675690Y381651D01*
X675630Y381529D01*
X675567Y381408D01*
X675566Y381402D01*
X675563Y381396D01*
X675539Y381263D01*
X675512Y381129D01*
X675513Y381123D01*
X675512Y381117D01*
X675525Y380980D01*
X675537Y380846D01*
X675539Y380840D01*
X675539Y380834D01*
X675590Y380707D01*
X675639Y380581D01*
X675642Y380576D01*
X675645Y380570D01*
X675728Y380463D01*
X675810Y380354D01*
X675815Y380350D01*
X675819Y380345D01*
X675929Y380265D01*
X676038Y380184D01*
X676044Y380181D01*
X676049Y380178D01*
X676090Y380164D01*
X676304Y380083D01*
X676340Y380080D01*
X676367Y380071D01*
X677166Y379945D01*
X678953Y379364D01*
X680627Y378511D01*
X682148Y377406D01*
X683476Y376078D01*
X684581Y374557D01*
X685434Y372883D01*
X686015Y371096D01*
X686136Y370331D01*
X675386Y370331D01*
X675328Y370323D01*
X675270Y370325D01*
X675188Y370303D01*
X675105Y370291D01*
X675051Y370267D01*
X674995Y370253D01*
X674922Y370210D01*
X674845Y370175D01*
X674801Y370137D01*
X674750Y370107D01*
X674693Y370046D01*
X674628Y369991D01*
X674596Y369943D01*
X674556Y369900D01*
X674517Y369825D01*
X674471Y369755D01*
X674453Y369699D01*
X674426Y369647D01*
X674415Y369579D01*
X674385Y369484D01*
X674382Y369384D01*
X674371Y369316D01*
X674371Y368299D01*
X673354Y368299D01*
X673296Y368291D01*
X673238Y368292D01*
X673156Y368271D01*
X673073Y368259D01*
X673019Y368235D01*
X672963Y368221D01*
X672890Y368178D01*
X672813Y368143D01*
X672768Y368105D01*
X672718Y368075D01*
X672660Y368014D01*
X672596Y367959D01*
X672564Y367911D01*
X672524Y367868D01*
X672485Y367793D01*
X672439Y367723D01*
X672421Y367667D01*
X672394Y367615D01*
X672383Y367547D01*
X672353Y367452D01*
X672350Y367352D01*
X672339Y367284D01*
X672339Y356534D01*
X671574Y356655D01*
X669787Y357236D01*
X668113Y358089D01*
X666592Y359194D01*
X665998Y359788D01*
X665975Y359806D01*
X665956Y359828D01*
X665861Y359891D01*
X665771Y359959D01*
X665743Y359969D01*
X665719Y359986D01*
X665611Y360020D01*
X665505Y360060D01*
X665476Y360063D01*
X665448Y360072D01*
X665335Y360074D01*
X665222Y360084D01*
X665193Y360078D01*
X665164Y360079D01*
X665054Y360050D01*
X664943Y360028D01*
X664917Y360014D01*
X664889Y360007D01*
X664792Y359949D01*
X664691Y359897D01*
X664669Y359877D01*
X664644Y359862D01*
X664567Y359779D01*
X664485Y359701D01*
X664470Y359676D01*
X664450Y359654D01*
X664398Y359553D01*
X664341Y359456D01*
X664334Y359427D01*
X664320Y359401D01*
X664307Y359324D01*
X664271Y359180D01*
X664273Y359118D01*
X664265Y359070D01*
X664265Y342566D01*
X661884Y340185D01*
X556916Y340185D01*
X554535Y342566D01*
X554535Y356276D01*
X554519Y356390D01*
X554509Y356504D01*
X554499Y356530D01*
X554496Y356558D01*
X554449Y356663D01*
X554407Y356770D01*
X554391Y356792D01*
X554379Y356817D01*
X554305Y356905D01*
X554236Y356996D01*
X554214Y357013D01*
X554196Y357034D01*
X554100Y357098D01*
X554008Y357167D01*
X553982Y357176D01*
X553959Y357192D01*
X553849Y357227D01*
X553742Y357267D01*
X553714Y357269D01*
X553688Y357278D01*
X553573Y357281D01*
X553459Y357290D01*
X553434Y357284D01*
X553404Y357285D01*
X553147Y357218D01*
X553132Y357214D01*
X549846Y355853D01*
X544894Y355853D01*
X540319Y357748D01*
X536818Y361249D01*
X534923Y365824D01*
X534923Y370776D01*
X536818Y375351D01*
X540319Y378852D01*
X541971Y379536D01*
X541996Y379551D01*
X542024Y379560D01*
X542119Y379623D01*
X542216Y379680D01*
X542236Y379702D01*
X542261Y379718D01*
X542334Y379805D01*
X542411Y379887D01*
X542425Y379913D01*
X542444Y379936D01*
X542490Y380039D01*
X542541Y380140D01*
X542547Y380169D01*
X542559Y380195D01*
X542575Y380308D01*
X542596Y380419D01*
X542594Y380448D01*
X542598Y380477D01*
X542582Y380589D01*
X542572Y380702D01*
X542561Y380729D01*
X542557Y380758D01*
X542511Y380861D01*
X542470Y380967D01*
X542452Y380991D01*
X542440Y381018D01*
X542367Y381104D01*
X542298Y381194D01*
X542275Y381212D01*
X542256Y381234D01*
X542189Y381276D01*
X542071Y381364D01*
X542012Y381386D01*
X541971Y381412D01*
X537779Y383148D01*
X534278Y386649D01*
X532383Y391224D01*
X532383Y396176D01*
X534278Y400751D01*
X537779Y404252D01*
X541971Y405988D01*
X541996Y406003D01*
X542024Y406012D01*
X542077Y406047D01*
X542090Y406053D01*
X542107Y406067D01*
X542119Y406075D01*
X542216Y406133D01*
X542236Y406154D01*
X542261Y406170D01*
X542333Y406257D01*
X542411Y406339D01*
X542425Y406365D01*
X542444Y406388D01*
X542490Y406491D01*
X542541Y406592D01*
X542547Y406621D01*
X542559Y406648D01*
X542575Y406760D01*
X542596Y406871D01*
X542594Y406900D01*
X542598Y406929D01*
X542582Y407041D01*
X542572Y407154D01*
X542561Y407182D01*
X542557Y407211D01*
X542511Y407314D01*
X542470Y407419D01*
X542452Y407443D01*
X542440Y407470D01*
X542367Y407556D01*
X542298Y407646D01*
X542275Y407664D01*
X542256Y407686D01*
X542189Y407728D01*
X542071Y407816D01*
X542012Y407838D01*
X541971Y407864D01*
X540319Y408548D01*
X536818Y412049D01*
X534923Y416624D01*
X534923Y421576D01*
X536818Y426151D01*
X540319Y429652D01*
X541971Y430336D01*
X541996Y430351D01*
X542024Y430360D01*
X542112Y430418D01*
X542113Y430419D01*
X542115Y430421D01*
X542119Y430423D01*
X542216Y430480D01*
X542236Y430502D01*
X542261Y430518D01*
X542334Y430605D01*
X542411Y430687D01*
X542425Y430713D01*
X542444Y430736D01*
X542490Y430839D01*
X542541Y430940D01*
X542547Y430969D01*
X542559Y430995D01*
X542575Y431108D01*
X542596Y431219D01*
X542594Y431248D01*
X542598Y431277D01*
X542582Y431389D01*
X542572Y431502D01*
X542561Y431529D01*
X542557Y431558D01*
X542512Y431659D01*
X542509Y431670D01*
X542505Y431677D01*
X542470Y431767D01*
X542452Y431791D01*
X542440Y431818D01*
X542377Y431891D01*
X542364Y431914D01*
X542347Y431930D01*
X542298Y431994D01*
X542275Y432012D01*
X542256Y432034D01*
X542197Y432071D01*
X542157Y432109D01*
X542120Y432127D01*
X542071Y432164D01*
X542012Y432186D01*
X541971Y432212D01*
X537779Y433948D01*
X534278Y437449D01*
X532383Y442024D01*
X532383Y446976D01*
X534278Y451551D01*
X537779Y455052D01*
X541971Y456788D01*
X541996Y456803D01*
X542024Y456812D01*
X542119Y456875D01*
X542216Y456933D01*
X542236Y456954D01*
X542261Y456970D01*
X542333Y457057D01*
X542411Y457139D01*
X542425Y457165D01*
X542444Y457188D01*
X542490Y457291D01*
X542541Y457392D01*
X542547Y457421D01*
X542559Y457448D01*
X542575Y457560D01*
X542596Y457671D01*
X542594Y457700D01*
X542598Y457729D01*
X542582Y457841D01*
X542572Y457954D01*
X542561Y457982D01*
X542557Y458011D01*
X542511Y458114D01*
X542470Y458219D01*
X542452Y458243D01*
X542440Y458270D01*
X542367Y458356D01*
X542298Y458446D01*
X542275Y458464D01*
X542256Y458486D01*
X542189Y458528D01*
X542071Y458616D01*
X542012Y458638D01*
X541971Y458664D01*
X540319Y459348D01*
X536818Y462849D01*
X534923Y467424D01*
X534923Y472376D01*
X536818Y476951D01*
X540319Y480452D01*
X541971Y481136D01*
X541996Y481151D01*
X542024Y481160D01*
X542119Y481223D01*
X542216Y481280D01*
X542236Y481302D01*
X542261Y481318D01*
X542334Y481405D01*
X542411Y481487D01*
X542425Y481513D01*
X542444Y481536D01*
X542490Y481639D01*
X542541Y481740D01*
X542547Y481769D01*
X542559Y481795D01*
X542575Y481908D01*
X542596Y482019D01*
X542594Y482048D01*
X542598Y482077D01*
X542582Y482189D01*
X542572Y482302D01*
X542561Y482329D01*
X542557Y482358D01*
X542511Y482461D01*
X542470Y482567D01*
X542452Y482591D01*
X542440Y482618D01*
X542367Y482704D01*
X542298Y482794D01*
X542275Y482812D01*
X542256Y482834D01*
X542189Y482876D01*
X542071Y482964D01*
X542012Y482986D01*
X541971Y483012D01*
X537779Y484748D01*
X534278Y488249D01*
X532383Y492824D01*
X532383Y495915D01*
X532379Y495945D01*
X532382Y495974D01*
X532359Y496085D01*
X532343Y496197D01*
X532331Y496224D01*
X532326Y496252D01*
X532274Y496353D01*
X532227Y496456D01*
X532208Y496479D01*
X532195Y496505D01*
X532117Y496587D01*
X532044Y496673D01*
X532019Y496690D01*
X531999Y496711D01*
X531901Y496768D01*
X531807Y496831D01*
X531779Y496840D01*
X531754Y496855D01*
X531644Y496882D01*
X531536Y496917D01*
X531506Y496917D01*
X531478Y496925D01*
X531365Y496921D01*
X531252Y496924D01*
X531223Y496917D01*
X531194Y496916D01*
X531086Y496881D01*
X530977Y496852D01*
X530951Y496837D01*
X530923Y496828D01*
X530860Y496783D01*
X530732Y496707D01*
X530689Y496661D01*
X530650Y496633D01*
X456736Y422719D01*
X456684Y422650D01*
X456624Y422586D01*
X456598Y422536D01*
X456565Y422492D01*
X456534Y422410D01*
X456494Y422332D01*
X456486Y422285D01*
X456464Y422226D01*
X456452Y422079D01*
X456439Y422001D01*
X456439Y412592D01*
X456451Y412506D01*
X456454Y412418D01*
X456471Y412365D01*
X456479Y412311D01*
X456514Y412231D01*
X456541Y412148D01*
X456569Y412108D01*
X456595Y412051D01*
X456691Y411938D01*
X456736Y411874D01*
X457865Y410746D01*
X458828Y408420D01*
X458828Y405904D01*
X457865Y403578D01*
X456085Y401798D01*
X453759Y400835D01*
X451243Y400835D01*
X448917Y401798D01*
X447137Y403578D01*
X446174Y405904D01*
X446174Y408420D01*
X447137Y410746D01*
X448266Y411874D01*
X448318Y411944D01*
X448378Y412008D01*
X448404Y412057D01*
X448437Y412101D01*
X448468Y412183D01*
X448508Y412261D01*
X448516Y412309D01*
X448538Y412367D01*
X448550Y412515D01*
X448563Y412592D01*
X448563Y425684D01*
X448970Y426091D01*
X449005Y426138D01*
X449048Y426178D01*
X449090Y426251D01*
X449141Y426318D01*
X449162Y426373D01*
X449191Y426423D01*
X449212Y426505D01*
X449242Y426584D01*
X449247Y426642D01*
X449261Y426699D01*
X449259Y426783D01*
X449266Y426867D01*
X449254Y426924D01*
X449252Y426983D01*
X449226Y427063D01*
X449210Y427146D01*
X449183Y427198D01*
X449165Y427253D01*
X449125Y427310D01*
X449079Y427398D01*
X449010Y427470D01*
X448970Y427527D01*
X447137Y429359D01*
X446174Y431685D01*
X446174Y434201D01*
X447137Y436527D01*
X448266Y437655D01*
X448318Y437725D01*
X448378Y437789D01*
X448404Y437838D01*
X448437Y437882D01*
X448458Y437938D01*
X448464Y437946D01*
X448471Y437971D01*
X448508Y438042D01*
X448516Y438090D01*
X448538Y438148D01*
X448542Y438193D01*
X448549Y438217D01*
X448551Y438303D01*
X448563Y438373D01*
X448563Y481691D01*
X501332Y534460D01*
X501350Y534484D01*
X501372Y534503D01*
X501435Y534597D01*
X501503Y534687D01*
X501514Y534715D01*
X501530Y534739D01*
X501564Y534847D01*
X501604Y534953D01*
X501607Y534982D01*
X501616Y535010D01*
X501619Y535124D01*
X501628Y535236D01*
X501622Y535265D01*
X501623Y535294D01*
X501594Y535404D01*
X501572Y535515D01*
X501559Y535541D01*
X501551Y535569D01*
X501493Y535667D01*
X501441Y535767D01*
X501421Y535789D01*
X501406Y535814D01*
X501323Y535891D01*
X501245Y535973D01*
X501220Y535988D01*
X501199Y536008D01*
X501098Y536060D01*
X501000Y536117D01*
X500972Y536124D01*
X500946Y536138D01*
X500868Y536151D01*
X500725Y536187D01*
X500662Y536185D01*
X500614Y536193D01*
X497664Y536193D01*
X490172Y538920D01*
X484065Y544044D01*
X480079Y550949D01*
X478695Y558800D01*
X479207Y561704D01*
X479211Y561821D01*
X479220Y561938D01*
X479215Y561963D01*
X479216Y561988D01*
X479188Y562102D01*
X479164Y562217D01*
X479153Y562239D01*
X479147Y562264D01*
X479088Y562365D01*
X479033Y562469D01*
X479016Y562488D01*
X479004Y562509D01*
X478918Y562591D01*
X478838Y562676D01*
X478816Y562688D01*
X478798Y562706D01*
X478694Y562760D01*
X478592Y562819D01*
X478568Y562826D01*
X478546Y562837D01*
X478431Y562860D01*
X478317Y562889D01*
X478292Y562889D01*
X478267Y562894D01*
X478150Y562884D01*
X478033Y562880D01*
X478009Y562873D01*
X477984Y562871D01*
X477874Y562829D01*
X477762Y562793D01*
X477744Y562780D01*
X477718Y562770D01*
X477490Y562600D01*
X477490Y562599D01*
X477489Y562598D01*
X456736Y541845D01*
X456684Y541775D01*
X456624Y541712D01*
X456598Y541662D01*
X456565Y541618D01*
X456534Y541536D01*
X456494Y541458D01*
X456486Y541411D01*
X456464Y541352D01*
X456452Y541205D01*
X456439Y541127D01*
X456439Y539719D01*
X456451Y539633D01*
X456454Y539545D01*
X456471Y539492D01*
X456479Y539438D01*
X456514Y539358D01*
X456541Y539275D01*
X456569Y539235D01*
X456595Y539178D01*
X456691Y539065D01*
X456736Y539001D01*
X457865Y537873D01*
X458828Y535547D01*
X458828Y533031D01*
X457865Y530705D01*
X456085Y528925D01*
X453759Y527962D01*
X451243Y527962D01*
X448917Y528925D01*
X447137Y530705D01*
X446174Y533031D01*
X446174Y535547D01*
X447137Y537873D01*
X448266Y539001D01*
X448318Y539071D01*
X448378Y539135D01*
X448404Y539184D01*
X448437Y539228D01*
X448468Y539310D01*
X448508Y539388D01*
X448516Y539436D01*
X448538Y539494D01*
X448550Y539642D01*
X448563Y539719D01*
X448563Y544810D01*
X541426Y637673D01*
X541443Y637696D01*
X541465Y637714D01*
X541481Y637738D01*
X541504Y637760D01*
X541546Y637833D01*
X541597Y637900D01*
X541608Y637929D01*
X541622Y637950D01*
X541630Y637976D01*
X541647Y638005D01*
X541668Y638087D01*
X541698Y638166D01*
X541701Y638199D01*
X541708Y638221D01*
X541709Y638246D01*
X541717Y638281D01*
X541715Y638365D01*
X541722Y638449D01*
X541715Y638484D01*
X541715Y638506D01*
X541710Y638527D01*
X541708Y638565D01*
X541682Y638645D01*
X541666Y638728D01*
X541648Y638761D01*
X541643Y638781D01*
X541633Y638798D01*
X541621Y638835D01*
X541581Y638892D01*
X541535Y638980D01*
X541508Y639008D01*
X541498Y639025D01*
X541460Y639061D01*
X541426Y639109D01*
X539593Y640941D01*
X538630Y643267D01*
X538630Y645783D01*
X539593Y648109D01*
X540722Y649237D01*
X540774Y649307D01*
X540834Y649371D01*
X540860Y649420D01*
X540893Y649464D01*
X540924Y649546D01*
X540964Y649624D01*
X540972Y649672D01*
X540994Y649730D01*
X541006Y649878D01*
X541019Y649955D01*
X541019Y673715D01*
X592168Y724864D01*
X592220Y724933D01*
X592279Y724995D01*
X592305Y725046D01*
X592339Y725091D01*
X592370Y725171D01*
X592409Y725248D01*
X592420Y725304D01*
X592440Y725357D01*
X592447Y725442D01*
X592464Y725527D01*
X592459Y725583D01*
X592464Y725640D01*
X592447Y725724D01*
X592440Y725810D01*
X592419Y725863D01*
X592408Y725919D01*
X592368Y725995D01*
X592338Y726075D01*
X592303Y726121D01*
X592277Y726171D01*
X592218Y726234D01*
X592166Y726302D01*
X592121Y726336D01*
X592081Y726377D01*
X592007Y726421D01*
X591938Y726472D01*
X591885Y726492D01*
X591836Y726521D01*
X591753Y726542D01*
X591672Y726573D01*
X591615Y726577D01*
X591560Y726591D01*
X591475Y726588D01*
X591389Y726595D01*
X591341Y726584D01*
X591276Y726582D01*
X591138Y726538D01*
X591062Y726520D01*
X586575Y724661D01*
X581825Y724661D01*
X577437Y726479D01*
X574079Y729837D01*
X572438Y733799D01*
X572423Y733824D01*
X572414Y733852D01*
X572351Y733946D01*
X572293Y734043D01*
X572272Y734064D01*
X572256Y734088D01*
X572169Y734161D01*
X572087Y734239D01*
X572061Y734252D01*
X572038Y734271D01*
X571935Y734317D01*
X571834Y734369D01*
X571805Y734375D01*
X571778Y734386D01*
X571666Y734402D01*
X571555Y734424D01*
X571526Y734421D01*
X571497Y734425D01*
X571385Y734409D01*
X571272Y734399D01*
X571245Y734389D01*
X571215Y734385D01*
X571112Y734338D01*
X571007Y734297D01*
X570983Y734280D01*
X570956Y734268D01*
X570870Y734194D01*
X570780Y734126D01*
X570762Y734102D01*
X570740Y734083D01*
X570698Y734017D01*
X570610Y733898D01*
X570588Y733840D01*
X570562Y733799D01*
X568921Y729837D01*
X565563Y726479D01*
X561175Y724661D01*
X556425Y724661D01*
X552037Y726479D01*
X548679Y729837D01*
X547038Y733799D01*
X547023Y733824D01*
X547014Y733852D01*
X546951Y733946D01*
X546893Y734043D01*
X546872Y734064D01*
X546856Y734088D01*
X546769Y734161D01*
X546687Y734239D01*
X546661Y734252D01*
X546638Y734271D01*
X546535Y734317D01*
X546434Y734369D01*
X546405Y734375D01*
X546378Y734386D01*
X546266Y734402D01*
X546155Y734424D01*
X546126Y734421D01*
X546097Y734425D01*
X545985Y734409D01*
X545872Y734399D01*
X545845Y734389D01*
X545815Y734385D01*
X545712Y734338D01*
X545607Y734297D01*
X545583Y734280D01*
X545556Y734268D01*
X545470Y734194D01*
X545380Y734126D01*
X545362Y734102D01*
X545340Y734083D01*
X545298Y734017D01*
X545210Y733898D01*
X545188Y733840D01*
X545162Y733799D01*
X543521Y729837D01*
X540163Y726479D01*
X535775Y724661D01*
X531025Y724661D01*
X526637Y726479D01*
X523279Y729837D01*
X521638Y733799D01*
X521623Y733824D01*
X521614Y733852D01*
X521551Y733946D01*
X521493Y734043D01*
X521472Y734064D01*
X521456Y734088D01*
X521369Y734161D01*
X521287Y734239D01*
X521261Y734252D01*
X521238Y734271D01*
X521135Y734317D01*
X521034Y734369D01*
X521005Y734375D01*
X520978Y734386D01*
X520866Y734402D01*
X520755Y734424D01*
X520726Y734421D01*
X520697Y734425D01*
X520585Y734409D01*
X520472Y734399D01*
X520445Y734389D01*
X520415Y734385D01*
X520312Y734338D01*
X520207Y734297D01*
X520183Y734280D01*
X520156Y734268D01*
X520070Y734194D01*
X519980Y734126D01*
X519962Y734102D01*
X519940Y734083D01*
X519898Y734017D01*
X519810Y733898D01*
X519788Y733840D01*
X519762Y733799D01*
X518121Y729837D01*
X514763Y726479D01*
X510375Y724661D01*
X505625Y724661D01*
X501237Y726479D01*
X497879Y729837D01*
X496238Y733799D01*
X496223Y733824D01*
X496214Y733852D01*
X496151Y733946D01*
X496093Y734043D01*
X496072Y734064D01*
X496056Y734088D01*
X495969Y734161D01*
X495887Y734239D01*
X495861Y734252D01*
X495838Y734271D01*
X495735Y734317D01*
X495634Y734369D01*
X495605Y734375D01*
X495578Y734386D01*
X495466Y734402D01*
X495355Y734424D01*
X495326Y734421D01*
X495297Y734425D01*
X495185Y734409D01*
X495072Y734399D01*
X495045Y734389D01*
X495015Y734385D01*
X494912Y734338D01*
X494807Y734297D01*
X494783Y734280D01*
X494756Y734268D01*
X494670Y734194D01*
X494580Y734126D01*
X494562Y734102D01*
X494540Y734083D01*
X494498Y734017D01*
X494410Y733898D01*
X494388Y733840D01*
X494362Y733799D01*
X492721Y729837D01*
X489363Y726479D01*
X484975Y724661D01*
X480225Y724661D01*
X475837Y726479D01*
X472479Y729837D01*
X470838Y733799D01*
X470823Y733824D01*
X470814Y733852D01*
X470751Y733946D01*
X470693Y734043D01*
X470672Y734064D01*
X470656Y734088D01*
X470569Y734161D01*
X470487Y734239D01*
X470461Y734252D01*
X470438Y734271D01*
X470335Y734317D01*
X470234Y734369D01*
X470205Y734375D01*
X470178Y734386D01*
X470066Y734402D01*
X469955Y734424D01*
X469926Y734421D01*
X469897Y734425D01*
X469785Y734409D01*
X469672Y734399D01*
X469645Y734389D01*
X469615Y734385D01*
X469512Y734338D01*
X469407Y734297D01*
X469383Y734280D01*
X469356Y734268D01*
X469270Y734194D01*
X469180Y734126D01*
X469162Y734102D01*
X469140Y734083D01*
X469098Y734017D01*
X469010Y733898D01*
X468988Y733840D01*
X468962Y733799D01*
X467321Y729837D01*
X463963Y726479D01*
X459575Y724661D01*
X454825Y724661D01*
X450437Y726479D01*
X447942Y728974D01*
X447896Y729009D01*
X447855Y729051D01*
X447783Y729094D01*
X447715Y729145D01*
X447661Y729165D01*
X447610Y729195D01*
X447528Y729216D01*
X447449Y729246D01*
X447391Y729251D01*
X447335Y729265D01*
X447250Y729262D01*
X447166Y729269D01*
X447109Y729258D01*
X447050Y729256D01*
X446970Y729230D01*
X446887Y729214D01*
X446836Y729187D01*
X446780Y729169D01*
X446724Y729129D01*
X446635Y729083D01*
X446563Y729014D01*
X446507Y728974D01*
X445834Y728301D01*
X388279Y670747D01*
X388261Y670722D01*
X388237Y670702D01*
X388196Y670635D01*
X388109Y670519D01*
X388086Y670459D01*
X388059Y670417D01*
X387634Y669389D01*
X385854Y667609D01*
X383528Y666646D01*
X381012Y666646D01*
X378686Y667609D01*
X376906Y669389D01*
X376158Y671196D01*
X376100Y671295D01*
X376047Y671397D01*
X376028Y671417D01*
X376013Y671441D01*
X375930Y671520D01*
X375851Y671603D01*
X375827Y671617D01*
X375807Y671636D01*
X375705Y671689D01*
X375606Y671747D01*
X375579Y671754D01*
X375554Y671766D01*
X375441Y671789D01*
X375330Y671817D01*
X375302Y671816D01*
X375275Y671821D01*
X375161Y671811D01*
X375046Y671808D01*
X375020Y671799D01*
X374992Y671797D01*
X374885Y671756D01*
X374775Y671720D01*
X374755Y671706D01*
X374727Y671695D01*
X374514Y671534D01*
X374502Y671525D01*
X368067Y665091D01*
X368049Y665066D01*
X368025Y665046D01*
X367983Y664979D01*
X367896Y664864D01*
X367874Y664803D01*
X367847Y664761D01*
X367187Y663166D01*
X365407Y661386D01*
X363081Y660423D01*
X360565Y660423D01*
X358239Y661386D01*
X357588Y662038D01*
X357564Y662055D01*
X357545Y662078D01*
X357451Y662141D01*
X357361Y662209D01*
X357333Y662219D01*
X357309Y662235D01*
X357201Y662270D01*
X357095Y662310D01*
X357066Y662312D01*
X357038Y662321D01*
X356924Y662324D01*
X356812Y662333D01*
X356783Y662328D01*
X356754Y662328D01*
X356644Y662300D01*
X356533Y662278D01*
X356507Y662264D01*
X356479Y662257D01*
X356381Y662199D01*
X356281Y662147D01*
X356259Y662126D01*
X356234Y662111D01*
X356157Y662029D01*
X356075Y661951D01*
X356060Y661926D01*
X356040Y661904D01*
X355988Y661803D01*
X355931Y661706D01*
X355924Y661677D01*
X355910Y661651D01*
X355897Y661574D01*
X355861Y661430D01*
X355863Y661368D01*
X355855Y661320D01*
X355855Y558867D01*
X355859Y558837D01*
X355857Y558806D01*
X355874Y558729D01*
X355895Y558586D01*
X355921Y558527D01*
X355932Y558479D01*
X356593Y556883D01*
X356593Y554367D01*
X355630Y552041D01*
X353850Y550261D01*
X351524Y549298D01*
X349008Y549298D01*
X346682Y550261D01*
X344902Y552041D01*
X343939Y554367D01*
X343939Y556883D01*
X344600Y558479D01*
X344608Y558509D01*
X344622Y558536D01*
X344635Y558614D01*
X344671Y558754D01*
X344669Y558818D01*
X344677Y558867D01*
X344677Y681197D01*
X345528Y683251D01*
X385850Y723572D01*
X385901Y723641D01*
X385960Y723703D01*
X385986Y723754D01*
X386021Y723799D01*
X386051Y723880D01*
X386090Y723956D01*
X386101Y724012D01*
X386122Y724065D01*
X386129Y724151D01*
X386145Y724235D01*
X386141Y724292D01*
X386145Y724348D01*
X386128Y724433D01*
X386121Y724518D01*
X386101Y724571D01*
X386089Y724627D01*
X386050Y724703D01*
X386019Y724784D01*
X385985Y724829D01*
X385958Y724879D01*
X385899Y724942D01*
X385847Y725010D01*
X385802Y725044D01*
X385763Y725086D01*
X385688Y725129D01*
X385620Y725180D01*
X385566Y725201D01*
X385517Y725229D01*
X385434Y725250D01*
X385354Y725281D01*
X385297Y725285D01*
X385242Y725299D01*
X385156Y725297D01*
X385070Y725304D01*
X385022Y725292D01*
X384958Y725290D01*
X384820Y725246D01*
X384743Y725228D01*
X383375Y724661D01*
X378625Y724661D01*
X374237Y726479D01*
X370879Y729837D01*
X369238Y733799D01*
X369223Y733824D01*
X369214Y733852D01*
X369151Y733946D01*
X369093Y734043D01*
X369072Y734064D01*
X369056Y734088D01*
X368969Y734161D01*
X368887Y734239D01*
X368861Y734252D01*
X368838Y734271D01*
X368735Y734317D01*
X368634Y734369D01*
X368605Y734375D01*
X368578Y734386D01*
X368466Y734402D01*
X368355Y734424D01*
X368326Y734421D01*
X368297Y734425D01*
X368185Y734409D01*
X368072Y734399D01*
X368045Y734389D01*
X368015Y734385D01*
X367912Y734338D01*
X367807Y734297D01*
X367783Y734280D01*
X367756Y734268D01*
X367670Y734194D01*
X367580Y734126D01*
X367562Y734102D01*
X367540Y734083D01*
X367498Y734017D01*
X367410Y733898D01*
X367388Y733840D01*
X367362Y733799D01*
X365721Y729837D01*
X362363Y726479D01*
X357975Y724661D01*
X353225Y724661D01*
X348837Y726479D01*
X345479Y729837D01*
X343661Y734225D01*
X343661Y738975D01*
X345283Y742889D01*
X345296Y742940D01*
X345318Y742988D01*
X345331Y743077D01*
X345354Y743164D01*
X345352Y743217D01*
X345360Y743269D01*
X345348Y743358D01*
X345345Y743449D01*
X345330Y743498D01*
X345323Y743550D01*
X345286Y743633D01*
X345259Y743719D01*
X345230Y743763D01*
X345209Y743811D01*
X345151Y743880D01*
X345101Y743956D01*
X345060Y743989D01*
X345027Y744030D01*
X344952Y744080D01*
X344931Y744098D01*
X344931Y753619D01*
X354152Y753619D01*
X354049Y752973D01*
X353493Y751262D01*
X352858Y750015D01*
X352854Y750003D01*
X352847Y749993D01*
X352808Y749869D01*
X352765Y749746D01*
X352765Y749734D01*
X352761Y749722D01*
X352758Y749592D01*
X352751Y749462D01*
X352754Y749450D01*
X352754Y749438D01*
X352787Y749312D01*
X352816Y749185D01*
X352822Y749174D01*
X352826Y749163D01*
X352892Y749051D01*
X352956Y748938D01*
X352965Y748929D01*
X352971Y748918D01*
X353066Y748829D01*
X353158Y748738D01*
X353169Y748732D01*
X353178Y748724D01*
X353294Y748664D01*
X353408Y748603D01*
X353420Y748600D01*
X353431Y748594D01*
X353494Y748584D01*
X353686Y748542D01*
X353729Y748544D01*
X353762Y748539D01*
X356804Y748539D01*
X356918Y748555D01*
X357032Y748565D01*
X357058Y748575D01*
X357085Y748579D01*
X357190Y748626D01*
X357297Y748667D01*
X357319Y748683D01*
X357345Y748695D01*
X357432Y748769D01*
X357524Y748838D01*
X357541Y748861D01*
X357562Y748878D01*
X357625Y748974D01*
X357694Y749066D01*
X357704Y749092D01*
X357719Y749115D01*
X357754Y749225D01*
X357794Y749332D01*
X357797Y749360D01*
X357805Y749386D01*
X357808Y749501D01*
X357817Y749615D01*
X357812Y749640D01*
X357812Y749670D01*
X357745Y749927D01*
X357742Y749943D01*
X356361Y753275D01*
X356361Y758025D01*
X357742Y761357D01*
X357770Y761468D01*
X357805Y761578D01*
X357806Y761606D01*
X357813Y761633D01*
X357809Y761747D01*
X357812Y761862D01*
X357805Y761889D01*
X357805Y761917D01*
X357769Y762026D01*
X357741Y762137D01*
X357726Y762161D01*
X357718Y762188D01*
X357654Y762283D01*
X357595Y762382D01*
X357575Y762401D01*
X357560Y762424D01*
X357472Y762498D01*
X357388Y762576D01*
X357363Y762589D01*
X357342Y762607D01*
X357237Y762653D01*
X357135Y762706D01*
X357110Y762710D01*
X357082Y762722D01*
X356818Y762759D01*
X356804Y762761D01*
X353762Y762761D01*
X353750Y762760D01*
X353738Y762761D01*
X353610Y762740D01*
X353481Y762721D01*
X353470Y762716D01*
X353457Y762714D01*
X353340Y762658D01*
X353221Y762605D01*
X353212Y762597D01*
X353201Y762592D01*
X353104Y762505D01*
X353004Y762422D01*
X352998Y762411D01*
X352988Y762403D01*
X352919Y762293D01*
X352847Y762185D01*
X352843Y762173D01*
X352837Y762163D01*
X352800Y762038D01*
X352761Y761914D01*
X352761Y761902D01*
X352757Y761890D01*
X352757Y761760D01*
X352754Y761630D01*
X352757Y761618D01*
X352757Y761605D01*
X352776Y761545D01*
X352826Y761355D01*
X352847Y761318D01*
X352858Y761285D01*
X353493Y760038D01*
X354049Y758327D01*
X354152Y757681D01*
X344931Y757681D01*
X344931Y767202D01*
X344988Y767237D01*
X345023Y767275D01*
X345065Y767307D01*
X345119Y767379D01*
X345180Y767446D01*
X345204Y767492D01*
X345235Y767534D01*
X345267Y767619D01*
X345307Y767700D01*
X345317Y767751D01*
X345335Y767800D01*
X345343Y767891D01*
X345359Y767979D01*
X345354Y768031D01*
X345358Y768084D01*
X345342Y768154D01*
X345331Y768262D01*
X345297Y768347D01*
X345283Y768411D01*
X343661Y772325D01*
X343661Y777075D01*
X345283Y780989D01*
X345296Y781040D01*
X345318Y781088D01*
X345331Y781177D01*
X345354Y781264D01*
X345352Y781317D01*
X345360Y781369D01*
X345348Y781458D01*
X345345Y781549D01*
X345330Y781598D01*
X345323Y781650D01*
X345286Y781733D01*
X345259Y781819D01*
X345230Y781863D01*
X345209Y781911D01*
X345151Y781980D01*
X345101Y782056D01*
X345060Y782089D01*
X345027Y782130D01*
X344952Y782180D01*
X344931Y782198D01*
X344931Y791719D01*
X354152Y791719D01*
X354049Y791073D01*
X353493Y789362D01*
X352858Y788115D01*
X352854Y788103D01*
X352847Y788093D01*
X352808Y787969D01*
X352765Y787846D01*
X352765Y787834D01*
X352761Y787822D01*
X352758Y787692D01*
X352751Y787562D01*
X352754Y787550D01*
X352754Y787538D01*
X352787Y787412D01*
X352816Y787285D01*
X352822Y787274D01*
X352826Y787263D01*
X352892Y787151D01*
X352956Y787038D01*
X352965Y787029D01*
X352971Y787018D01*
X353066Y786929D01*
X353158Y786838D01*
X353169Y786832D01*
X353178Y786824D01*
X353294Y786764D01*
X353408Y786703D01*
X353420Y786700D01*
X353431Y786694D01*
X353494Y786684D01*
X353686Y786642D01*
X353729Y786644D01*
X353762Y786639D01*
X356804Y786639D01*
X356918Y786655D01*
X357032Y786665D01*
X357058Y786675D01*
X357085Y786679D01*
X357190Y786726D01*
X357297Y786767D01*
X357319Y786783D01*
X357345Y786795D01*
X357432Y786869D01*
X357524Y786938D01*
X357541Y786961D01*
X357562Y786978D01*
X357625Y787074D01*
X357694Y787166D01*
X357704Y787192D01*
X357719Y787215D01*
X357754Y787325D01*
X357794Y787432D01*
X357797Y787460D01*
X357805Y787486D01*
X357808Y787601D01*
X357817Y787715D01*
X357812Y787740D01*
X357812Y787770D01*
X357745Y788027D01*
X357742Y788043D01*
X356361Y791375D01*
X356361Y796125D01*
X358179Y800513D01*
X361537Y803871D01*
X365925Y805689D01*
X370675Y805689D01*
X375063Y803871D01*
X378421Y800513D01*
X380062Y796551D01*
X380077Y796526D01*
X380086Y796498D01*
X380149Y796404D01*
X380207Y796307D01*
X380228Y796286D01*
X380244Y796262D01*
X380331Y796189D01*
X380413Y796111D01*
X380439Y796098D01*
X380462Y796079D01*
X380565Y796033D01*
X380666Y795981D01*
X380695Y795975D01*
X380722Y795964D01*
X380834Y795948D01*
X380945Y795926D01*
X380974Y795929D01*
X381003Y795925D01*
X381115Y795941D01*
X381228Y795951D01*
X381255Y795961D01*
X381284Y795965D01*
X381388Y796012D01*
X381493Y796053D01*
X381517Y796070D01*
X381544Y796082D01*
X381630Y796156D01*
X381720Y796224D01*
X381738Y796248D01*
X381760Y796267D01*
X381802Y796333D01*
X381890Y796452D01*
X381912Y796510D01*
X381938Y796551D01*
X383579Y800513D01*
X386937Y803871D01*
X391325Y805689D01*
X396075Y805689D01*
X400463Y803871D01*
X403821Y800513D01*
X405462Y796551D01*
X405477Y796526D01*
X405486Y796498D01*
X405549Y796404D01*
X405607Y796307D01*
X405628Y796286D01*
X405644Y796262D01*
X405731Y796189D01*
X405813Y796111D01*
X405839Y796098D01*
X405862Y796079D01*
X405965Y796033D01*
X406066Y795981D01*
X406095Y795975D01*
X406122Y795964D01*
X406234Y795948D01*
X406345Y795926D01*
X406374Y795929D01*
X406403Y795925D01*
X406515Y795941D01*
X406628Y795951D01*
X406655Y795961D01*
X406684Y795965D01*
X406788Y796012D01*
X406893Y796053D01*
X406917Y796070D01*
X406944Y796082D01*
X407030Y796156D01*
X407120Y796224D01*
X407138Y796248D01*
X407160Y796267D01*
X407202Y796333D01*
X407290Y796452D01*
X407312Y796510D01*
X407338Y796551D01*
X408979Y800513D01*
X412337Y803871D01*
X416725Y805689D01*
X421475Y805689D01*
X425863Y803871D01*
X429221Y800513D01*
X430862Y796551D01*
X430877Y796526D01*
X430886Y796498D01*
X430949Y796404D01*
X431007Y796307D01*
X431028Y796286D01*
X431044Y796262D01*
X431131Y796189D01*
X431213Y796111D01*
X431239Y796098D01*
X431262Y796079D01*
X431365Y796033D01*
X431466Y795981D01*
X431495Y795975D01*
X431522Y795964D01*
X431634Y795948D01*
X431745Y795926D01*
X431774Y795929D01*
X431803Y795925D01*
X431915Y795941D01*
X432028Y795951D01*
X432055Y795961D01*
X432084Y795965D01*
X432188Y796012D01*
X432293Y796053D01*
X432317Y796070D01*
X432344Y796082D01*
X432430Y796156D01*
X432520Y796224D01*
X432538Y796248D01*
X432560Y796267D01*
X432602Y796333D01*
X432690Y796452D01*
X432712Y796510D01*
X432738Y796551D01*
X434379Y800513D01*
X437737Y803871D01*
X442125Y805689D01*
X446875Y805689D01*
X451263Y803871D01*
X454621Y800513D01*
X456262Y796551D01*
X456277Y796526D01*
X456286Y796498D01*
X456349Y796404D01*
X456407Y796307D01*
X456428Y796286D01*
X456444Y796262D01*
X456531Y796189D01*
X456613Y796111D01*
X456639Y796098D01*
X456662Y796079D01*
X456765Y796033D01*
X456866Y795981D01*
X456895Y795975D01*
X456922Y795964D01*
X457034Y795948D01*
X457145Y795926D01*
X457174Y795929D01*
X457203Y795925D01*
X457315Y795941D01*
X457428Y795951D01*
X457455Y795961D01*
X457484Y795965D01*
X457588Y796012D01*
X457693Y796053D01*
X457717Y796070D01*
X457744Y796082D01*
X457830Y796156D01*
X457920Y796224D01*
X457938Y796248D01*
X457960Y796267D01*
X458002Y796333D01*
X458090Y796452D01*
X458112Y796510D01*
X458138Y796551D01*
X459779Y800513D01*
X463137Y803871D01*
X467525Y805689D01*
X472275Y805689D01*
X476663Y803871D01*
X480021Y800513D01*
X481662Y796551D01*
X481677Y796526D01*
X481686Y796498D01*
X481749Y796404D01*
X481807Y796307D01*
X481828Y796286D01*
X481844Y796262D01*
X481931Y796189D01*
X482013Y796111D01*
X482039Y796098D01*
X482062Y796079D01*
X482165Y796033D01*
X482266Y795981D01*
X482295Y795975D01*
X482322Y795964D01*
X482434Y795948D01*
X482545Y795926D01*
X482574Y795929D01*
X482603Y795925D01*
X482715Y795941D01*
X482828Y795951D01*
X482855Y795961D01*
X482884Y795965D01*
X482988Y796012D01*
X483093Y796053D01*
X483117Y796070D01*
X483144Y796082D01*
X483230Y796156D01*
X483320Y796224D01*
X483338Y796248D01*
X483360Y796267D01*
X483402Y796333D01*
X483490Y796452D01*
X483512Y796510D01*
X483538Y796551D01*
X485179Y800513D01*
X488537Y803871D01*
X492925Y805689D01*
X497675Y805689D01*
X502063Y803871D01*
X505421Y800513D01*
X507062Y796551D01*
X507077Y796526D01*
X507086Y796498D01*
X507149Y796404D01*
X507207Y796307D01*
X507228Y796286D01*
X507244Y796262D01*
X507331Y796189D01*
X507413Y796111D01*
X507439Y796098D01*
X507462Y796079D01*
X507565Y796033D01*
X507666Y795981D01*
X507695Y795975D01*
X507722Y795964D01*
X507834Y795948D01*
X507945Y795926D01*
X507974Y795929D01*
X508003Y795925D01*
X508115Y795941D01*
X508228Y795951D01*
X508255Y795961D01*
X508284Y795965D01*
X508388Y796012D01*
X508493Y796053D01*
X508517Y796070D01*
X508544Y796082D01*
X508630Y796156D01*
X508720Y796224D01*
X508738Y796248D01*
X508760Y796267D01*
X508802Y796333D01*
X508890Y796452D01*
X508912Y796510D01*
X508938Y796551D01*
X510579Y800513D01*
X513937Y803871D01*
X518325Y805689D01*
X523075Y805689D01*
X527463Y803871D01*
X530821Y800513D01*
X532462Y796551D01*
X532477Y796526D01*
X532486Y796498D01*
X532549Y796404D01*
X532607Y796307D01*
X532628Y796286D01*
X532644Y796262D01*
X532731Y796189D01*
X532813Y796111D01*
X532839Y796098D01*
X532862Y796079D01*
X532965Y796033D01*
X533066Y795981D01*
X533095Y795975D01*
X533122Y795964D01*
X533234Y795948D01*
X533345Y795926D01*
X533374Y795929D01*
X533403Y795925D01*
X533515Y795941D01*
X533628Y795951D01*
X533655Y795961D01*
X533684Y795965D01*
X533788Y796012D01*
X533893Y796053D01*
X533917Y796070D01*
X533944Y796082D01*
X534030Y796156D01*
X534120Y796224D01*
X534138Y796248D01*
X534160Y796267D01*
X534202Y796333D01*
X534290Y796452D01*
X534312Y796510D01*
X534338Y796551D01*
X535979Y800513D01*
X539337Y803871D01*
X543725Y805689D01*
X548475Y805689D01*
X552863Y803871D01*
X556221Y800513D01*
X557862Y796551D01*
X557877Y796526D01*
X557886Y796498D01*
X557949Y796404D01*
X558007Y796307D01*
X558028Y796286D01*
X558044Y796262D01*
X558131Y796189D01*
X558213Y796111D01*
X558239Y796098D01*
X558262Y796079D01*
X558365Y796033D01*
X558466Y795981D01*
X558495Y795975D01*
X558522Y795964D01*
X558634Y795948D01*
X558745Y795926D01*
X558774Y795929D01*
X558803Y795925D01*
X558915Y795941D01*
X559028Y795951D01*
X559055Y795961D01*
X559084Y795965D01*
X559188Y796012D01*
X559293Y796053D01*
X559317Y796070D01*
X559344Y796082D01*
X559430Y796156D01*
X559520Y796224D01*
X559538Y796248D01*
X559560Y796267D01*
X559602Y796333D01*
X559690Y796452D01*
X559712Y796510D01*
X559738Y796551D01*
X561379Y800513D01*
X564737Y803871D01*
X569125Y805689D01*
X573875Y805689D01*
X578263Y803871D01*
X581621Y800513D01*
X583262Y796551D01*
X583277Y796526D01*
X583286Y796498D01*
X583349Y796404D01*
X583407Y796307D01*
X583428Y796286D01*
X583444Y796262D01*
X583531Y796189D01*
X583613Y796111D01*
X583639Y796098D01*
X583662Y796079D01*
X583765Y796033D01*
X583866Y795981D01*
X583895Y795975D01*
X583922Y795964D01*
X584034Y795948D01*
X584145Y795926D01*
X584174Y795929D01*
X584203Y795925D01*
X584315Y795941D01*
X584428Y795951D01*
X584455Y795961D01*
X584484Y795965D01*
X584588Y796012D01*
X584693Y796053D01*
X584717Y796070D01*
X584744Y796082D01*
X584830Y796156D01*
X584920Y796224D01*
X584938Y796248D01*
X584960Y796267D01*
X585002Y796333D01*
X585090Y796452D01*
X585112Y796510D01*
X585138Y796551D01*
X586779Y800513D01*
X590137Y803871D01*
X594525Y805689D01*
X599275Y805689D01*
X603663Y803871D01*
X606031Y801503D01*
X606077Y801468D01*
X606118Y801426D01*
X606191Y801383D01*
X606258Y801332D01*
X606312Y801312D01*
X606363Y801282D01*
X606445Y801261D01*
X606524Y801231D01*
X606582Y801226D01*
X606638Y801212D01*
X606723Y801215D01*
X606807Y801208D01*
X606864Y801219D01*
X606923Y801221D01*
X607003Y801247D01*
X607086Y801263D01*
X607137Y801290D01*
X607193Y801308D01*
X607249Y801349D01*
X607338Y801394D01*
X607410Y801463D01*
X607466Y801503D01*
X608520Y802557D01*
X615335Y809372D01*
X831957Y809372D01*
X853822Y787507D01*
X853822Y468599D01*
X853834Y468513D01*
X853837Y468425D01*
X853854Y468372D01*
X853862Y468318D01*
X853897Y468238D01*
X853924Y468155D01*
X853952Y468115D01*
X853978Y468058D01*
X854074Y467945D01*
X854119Y467881D01*
X855248Y466753D01*
X856211Y464427D01*
X856211Y461911D01*
X855248Y459585D01*
X853468Y457805D01*
X851142Y456842D01*
X848626Y456842D01*
X846300Y457805D01*
X844520Y459585D01*
X843557Y461911D01*
X843557Y464427D01*
X844520Y466753D01*
X845649Y467881D01*
X845701Y467951D01*
X845761Y468015D01*
X845787Y468064D01*
X845820Y468108D01*
X845851Y468190D01*
X845891Y468268D01*
X845899Y468316D01*
X845921Y468374D01*
X845933Y468522D01*
X845946Y468599D01*
X845946Y726106D01*
X845933Y726197D01*
X845930Y726289D01*
X845914Y726338D01*
X845906Y726388D01*
X845869Y726472D01*
X845840Y726559D01*
X845811Y726601D01*
X845790Y726647D01*
X845731Y726717D01*
X845679Y726793D01*
X845639Y726826D01*
X845607Y726864D01*
X845530Y726915D01*
X845459Y726974D01*
X845412Y726994D01*
X845370Y727022D01*
X845282Y727050D01*
X845198Y727086D01*
X845147Y727092D01*
X845099Y727108D01*
X845007Y727110D01*
X844915Y727121D01*
X844865Y727114D01*
X844815Y727115D01*
X844726Y727092D01*
X844635Y727077D01*
X844595Y727057D01*
X844540Y727043D01*
X844403Y726962D01*
X844334Y726928D01*
X844191Y726824D01*
X842588Y726007D01*
X840877Y725451D01*
X840231Y725348D01*
X840231Y735584D01*
X840223Y735642D01*
X840225Y735700D01*
X840203Y735782D01*
X840191Y735865D01*
X840167Y735919D01*
X840153Y735975D01*
X840110Y736048D01*
X840075Y736125D01*
X840037Y736169D01*
X840007Y736220D01*
X839946Y736277D01*
X839891Y736342D01*
X839843Y736374D01*
X839800Y736414D01*
X839725Y736453D01*
X839655Y736499D01*
X839599Y736517D01*
X839547Y736544D01*
X839479Y736555D01*
X839384Y736585D01*
X839284Y736588D01*
X839216Y736599D01*
X837184Y736599D01*
X837126Y736591D01*
X837068Y736592D01*
X836986Y736571D01*
X836903Y736559D01*
X836849Y736535D01*
X836793Y736521D01*
X836720Y736478D01*
X836643Y736443D01*
X836598Y736405D01*
X836548Y736375D01*
X836490Y736314D01*
X836426Y736259D01*
X836394Y736211D01*
X836354Y736168D01*
X836315Y736093D01*
X836269Y736023D01*
X836251Y735967D01*
X836224Y735915D01*
X836213Y735847D01*
X836183Y735752D01*
X836180Y735652D01*
X836169Y735584D01*
X836169Y725348D01*
X835523Y725451D01*
X833812Y726007D01*
X832184Y726836D01*
X832172Y726840D01*
X832162Y726847D01*
X832038Y726886D01*
X831915Y726929D01*
X831903Y726929D01*
X831891Y726933D01*
X831761Y726936D01*
X831631Y726943D01*
X831619Y726940D01*
X831607Y726940D01*
X831481Y726908D01*
X831354Y726878D01*
X831343Y726872D01*
X831332Y726868D01*
X831220Y726802D01*
X831107Y726738D01*
X831098Y726730D01*
X831087Y726723D01*
X830998Y726628D01*
X830907Y726536D01*
X830901Y726525D01*
X830893Y726516D01*
X830834Y726400D01*
X830772Y726286D01*
X830769Y726274D01*
X830763Y726263D01*
X830753Y726201D01*
X830711Y726008D01*
X830713Y725966D01*
X830708Y725932D01*
X830708Y436595D01*
X830720Y436509D01*
X830723Y436421D01*
X830740Y436368D01*
X830748Y436314D01*
X830783Y436234D01*
X830810Y436151D01*
X830838Y436111D01*
X830864Y436054D01*
X830960Y435941D01*
X831005Y435877D01*
X832134Y434749D01*
X833097Y432423D01*
X833097Y429907D01*
X832134Y427581D01*
X830301Y425749D01*
X830266Y425702D01*
X830223Y425662D01*
X830181Y425589D01*
X830130Y425521D01*
X830109Y425467D01*
X830080Y425416D01*
X830059Y425335D01*
X830029Y425256D01*
X830024Y425197D01*
X830010Y425141D01*
X830012Y425057D01*
X830005Y424972D01*
X830017Y424915D01*
X830019Y424857D01*
X830045Y424776D01*
X830061Y424694D01*
X830088Y424642D01*
X830106Y424586D01*
X830146Y424530D01*
X830192Y424441D01*
X830261Y424369D01*
X830301Y424313D01*
X843154Y411460D01*
X843154Y402864D01*
X840784Y400494D01*
X840776Y400483D01*
X840773Y400481D01*
X840766Y400470D01*
X840732Y400425D01*
X840672Y400361D01*
X840646Y400311D01*
X840613Y400267D01*
X840582Y400185D01*
X840542Y400107D01*
X840534Y400060D01*
X840512Y400001D01*
X840500Y399854D01*
X840487Y399776D01*
X840487Y196565D01*
X840499Y196479D01*
X840502Y196391D01*
X840519Y196338D01*
X840527Y196284D01*
X840562Y196204D01*
X840589Y196121D01*
X840617Y196081D01*
X840643Y196024D01*
X840739Y195911D01*
X840784Y195847D01*
X841913Y194719D01*
X842876Y192393D01*
X842876Y189877D01*
X841913Y187551D01*
X840133Y185771D01*
X837807Y184808D01*
X835291Y184808D01*
G37*
%LPD*%
%LPC*%
G36*
X713564Y332993D02*
X713564Y332993D01*
X706072Y335720D01*
X699965Y340844D01*
X695979Y347749D01*
X694595Y355600D01*
X695979Y363451D01*
X699965Y370355D01*
X706072Y375480D01*
X713564Y378207D01*
X721536Y378207D01*
X729028Y375480D01*
X735135Y370356D01*
X739121Y363451D01*
X740505Y355600D01*
X739121Y347749D01*
X735135Y340845D01*
X729028Y335720D01*
X721536Y332993D01*
X713564Y332993D01*
G37*
%LPD*%
%LPC*%
G36*
X910414Y815593D02*
X910414Y815593D01*
X902922Y818320D01*
X896815Y823444D01*
X892829Y830349D01*
X891445Y838200D01*
X892829Y846051D01*
X896815Y852955D01*
X902922Y858080D01*
X910414Y860807D01*
X918386Y860807D01*
X925878Y858080D01*
X931985Y852956D01*
X935971Y846051D01*
X937355Y838200D01*
X935971Y830349D01*
X931985Y823445D01*
X925878Y818320D01*
X918386Y815593D01*
X910414Y815593D01*
G37*
%LPD*%
%LPC*%
G36*
X497664Y332993D02*
X497664Y332993D01*
X490172Y335720D01*
X484065Y340844D01*
X480079Y347749D01*
X478695Y355600D01*
X480079Y363451D01*
X484065Y370355D01*
X490172Y375480D01*
X497664Y378207D01*
X505636Y378207D01*
X513128Y375480D01*
X519235Y370356D01*
X523221Y363451D01*
X524605Y355600D01*
X523221Y347749D01*
X519235Y340845D01*
X513128Y335720D01*
X505636Y332993D01*
X497664Y332993D01*
G37*
%LPD*%
%LPC*%
G36*
X975724Y586353D02*
X975724Y586353D01*
X971149Y588248D01*
X967648Y591749D01*
X965753Y596324D01*
X965753Y601276D01*
X967648Y605851D01*
X971149Y609352D01*
X975724Y611247D01*
X980676Y611247D01*
X985251Y609352D01*
X988752Y605851D01*
X989962Y602929D01*
X989977Y602904D01*
X989986Y602876D01*
X990049Y602781D01*
X990107Y602684D01*
X990128Y602664D01*
X990144Y602639D01*
X990231Y602566D01*
X990313Y602489D01*
X990339Y602475D01*
X990362Y602456D01*
X990465Y602410D01*
X990566Y602359D01*
X990595Y602353D01*
X990622Y602341D01*
X990734Y602325D01*
X990845Y602304D01*
X990874Y602306D01*
X990903Y602302D01*
X991015Y602318D01*
X991128Y602328D01*
X991155Y602339D01*
X991185Y602343D01*
X991288Y602389D01*
X991393Y602430D01*
X991417Y602448D01*
X991444Y602460D01*
X991530Y602533D01*
X991620Y602602D01*
X991638Y602625D01*
X991660Y602644D01*
X991702Y602711D01*
X991790Y602829D01*
X991812Y602888D01*
X991838Y602929D01*
X993048Y605851D01*
X996549Y609352D01*
X1001124Y611247D01*
X1006076Y611247D01*
X1010651Y609352D01*
X1014152Y605851D01*
X1015362Y602929D01*
X1015377Y602904D01*
X1015386Y602876D01*
X1015449Y602781D01*
X1015507Y602684D01*
X1015528Y602664D01*
X1015544Y602639D01*
X1015631Y602566D01*
X1015713Y602489D01*
X1015739Y602475D01*
X1015762Y602456D01*
X1015865Y602410D01*
X1015966Y602359D01*
X1015995Y602353D01*
X1016022Y602341D01*
X1016134Y602325D01*
X1016245Y602304D01*
X1016274Y602306D01*
X1016303Y602302D01*
X1016415Y602318D01*
X1016528Y602328D01*
X1016555Y602339D01*
X1016585Y602343D01*
X1016688Y602389D01*
X1016793Y602430D01*
X1016817Y602448D01*
X1016844Y602460D01*
X1016930Y602533D01*
X1017020Y602602D01*
X1017038Y602625D01*
X1017060Y602644D01*
X1017102Y602711D01*
X1017190Y602829D01*
X1017212Y602888D01*
X1017238Y602929D01*
X1018448Y605851D01*
X1021949Y609352D01*
X1026524Y611247D01*
X1031476Y611247D01*
X1036051Y609352D01*
X1039552Y605851D01*
X1041447Y601276D01*
X1041447Y596324D01*
X1039552Y591749D01*
X1036051Y588248D01*
X1031476Y586353D01*
X1026524Y586353D01*
X1021949Y588248D01*
X1018448Y591749D01*
X1017238Y594671D01*
X1017223Y594696D01*
X1017214Y594724D01*
X1017151Y594819D01*
X1017093Y594916D01*
X1017072Y594936D01*
X1017056Y594961D01*
X1016969Y595033D01*
X1016887Y595111D01*
X1016861Y595125D01*
X1016838Y595143D01*
X1016735Y595189D01*
X1016634Y595241D01*
X1016605Y595247D01*
X1016578Y595259D01*
X1016466Y595275D01*
X1016355Y595296D01*
X1016326Y595294D01*
X1016297Y595298D01*
X1016185Y595282D01*
X1016072Y595272D01*
X1016045Y595261D01*
X1016016Y595257D01*
X1015912Y595211D01*
X1015807Y595170D01*
X1015783Y595152D01*
X1015756Y595140D01*
X1015670Y595067D01*
X1015580Y594998D01*
X1015562Y594975D01*
X1015540Y594956D01*
X1015498Y594889D01*
X1015410Y594771D01*
X1015388Y594712D01*
X1015362Y594671D01*
X1014152Y591749D01*
X1010651Y588248D01*
X1006076Y586353D01*
X1001124Y586353D01*
X996549Y588248D01*
X993048Y591749D01*
X991838Y594671D01*
X991823Y594696D01*
X991814Y594724D01*
X991751Y594819D01*
X991693Y594916D01*
X991672Y594936D01*
X991656Y594961D01*
X991569Y595033D01*
X991487Y595111D01*
X991461Y595125D01*
X991438Y595143D01*
X991335Y595189D01*
X991234Y595241D01*
X991205Y595247D01*
X991178Y595259D01*
X991066Y595275D01*
X990955Y595296D01*
X990926Y595294D01*
X990897Y595298D01*
X990785Y595282D01*
X990672Y595272D01*
X990645Y595261D01*
X990616Y595257D01*
X990512Y595211D01*
X990407Y595170D01*
X990383Y595152D01*
X990356Y595140D01*
X990270Y595067D01*
X990180Y594998D01*
X990162Y594975D01*
X990140Y594956D01*
X990098Y594889D01*
X990010Y594771D01*
X989988Y594712D01*
X989962Y594671D01*
X988752Y591749D01*
X985251Y588248D01*
X980676Y586353D01*
X975724Y586353D01*
G37*
%LPD*%
%LPC*%
G36*
X392361Y539368D02*
X392361Y539368D01*
X389887Y540393D01*
X387993Y542287D01*
X386968Y544761D01*
X386968Y547439D01*
X387993Y549913D01*
X389887Y551807D01*
X392361Y552832D01*
X393904Y552832D01*
X393990Y552844D01*
X394078Y552847D01*
X394130Y552864D01*
X394185Y552872D01*
X394265Y552907D01*
X394348Y552934D01*
X394387Y552962D01*
X394444Y552988D01*
X394558Y553084D01*
X394621Y553129D01*
X414484Y572992D01*
X414536Y573061D01*
X414596Y573125D01*
X414622Y573175D01*
X414655Y573219D01*
X414686Y573300D01*
X414726Y573378D01*
X414734Y573426D01*
X414756Y573484D01*
X414768Y573632D01*
X414781Y573709D01*
X414781Y667478D01*
X414769Y667565D01*
X414766Y667652D01*
X414749Y667705D01*
X414741Y667760D01*
X414706Y667839D01*
X414679Y667923D01*
X414651Y667962D01*
X414625Y668019D01*
X414529Y668132D01*
X414484Y668196D01*
X413393Y669287D01*
X412368Y671761D01*
X412368Y674439D01*
X413393Y676913D01*
X415287Y678807D01*
X417761Y679832D01*
X420439Y679832D01*
X422913Y678807D01*
X424807Y676913D01*
X425832Y674439D01*
X425832Y671761D01*
X424807Y669287D01*
X423716Y668196D01*
X423664Y668126D01*
X423604Y668062D01*
X423578Y668013D01*
X423545Y667969D01*
X423514Y667887D01*
X423474Y667809D01*
X423466Y667762D01*
X423444Y667703D01*
X423432Y667555D01*
X423419Y667478D01*
X423419Y569711D01*
X400729Y547021D01*
X400677Y546952D01*
X400617Y546888D01*
X400591Y546838D01*
X400558Y546794D01*
X400527Y546713D01*
X400487Y546635D01*
X400479Y546587D01*
X400457Y546529D01*
X400445Y546381D01*
X400432Y546304D01*
X400432Y544761D01*
X399407Y542287D01*
X397513Y540393D01*
X395039Y539368D01*
X392361Y539368D01*
G37*
%LPD*%
%LPC*%
G36*
X606215Y295401D02*
X606215Y295401D01*
X599960Y297992D01*
X595172Y302780D01*
X592581Y309035D01*
X592581Y315805D01*
X595172Y322060D01*
X599960Y326848D01*
X606215Y329439D01*
X612985Y329439D01*
X619240Y326848D01*
X624028Y322060D01*
X626619Y315805D01*
X626619Y309035D01*
X624028Y302780D01*
X619240Y297992D01*
X612985Y295401D01*
X606215Y295401D01*
G37*
%LPD*%
%LPC*%
G36*
X467424Y139953D02*
X467424Y139953D01*
X462849Y141848D01*
X459348Y145349D01*
X457453Y149924D01*
X457453Y154876D01*
X459348Y159451D01*
X462849Y162952D01*
X467424Y164847D01*
X472376Y164847D01*
X476951Y162952D01*
X480452Y159451D01*
X482347Y154876D01*
X482347Y149924D01*
X480452Y145349D01*
X476951Y141848D01*
X472376Y139953D01*
X467424Y139953D01*
G37*
%LPD*%
%LPC*%
G36*
X340424Y139953D02*
X340424Y139953D01*
X335849Y141848D01*
X332348Y145349D01*
X330453Y149924D01*
X330453Y154876D01*
X332348Y159451D01*
X335849Y162952D01*
X340424Y164847D01*
X345376Y164847D01*
X349951Y162952D01*
X353452Y159451D01*
X355347Y154876D01*
X355347Y149924D01*
X353452Y145349D01*
X349951Y141848D01*
X345376Y139953D01*
X340424Y139953D01*
G37*
%LPD*%
G36*
X839274Y736609D02*
X839274Y736609D01*
X839332Y736608D01*
X839414Y736629D01*
X839497Y736641D01*
X839551Y736665D01*
X839607Y736679D01*
X839680Y736722D01*
X839757Y736757D01*
X839802Y736795D01*
X839852Y736825D01*
X839910Y736886D01*
X839974Y736941D01*
X840006Y736989D01*
X840046Y737032D01*
X840085Y737107D01*
X840131Y737177D01*
X840149Y737233D01*
X840176Y737285D01*
X840187Y737353D01*
X840217Y737448D01*
X840220Y737548D01*
X840231Y737616D01*
X840231Y747852D01*
X840877Y747749D01*
X842588Y747193D01*
X844191Y746376D01*
X844334Y746272D01*
X844415Y746229D01*
X844492Y746178D01*
X844541Y746163D01*
X844585Y746139D01*
X844675Y746120D01*
X844763Y746092D01*
X844814Y746091D01*
X844864Y746081D01*
X844955Y746087D01*
X845047Y746085D01*
X845096Y746098D01*
X845147Y746102D01*
X845233Y746134D01*
X845322Y746157D01*
X845366Y746183D01*
X845414Y746200D01*
X845488Y746255D01*
X845567Y746302D01*
X845602Y746339D01*
X845642Y746369D01*
X845698Y746442D01*
X845761Y746510D01*
X845784Y746555D01*
X845815Y746595D01*
X845849Y746681D01*
X845891Y746763D01*
X845898Y746806D01*
X845919Y746860D01*
X845934Y747018D01*
X845946Y747094D01*
X845946Y764206D01*
X845933Y764297D01*
X845930Y764389D01*
X845914Y764438D01*
X845906Y764488D01*
X845869Y764572D01*
X845840Y764659D01*
X845811Y764701D01*
X845790Y764747D01*
X845731Y764817D01*
X845679Y764893D01*
X845639Y764926D01*
X845607Y764964D01*
X845530Y765015D01*
X845459Y765074D01*
X845412Y765094D01*
X845370Y765122D01*
X845282Y765150D01*
X845198Y765186D01*
X845147Y765192D01*
X845099Y765208D01*
X845007Y765210D01*
X844915Y765221D01*
X844865Y765214D01*
X844815Y765215D01*
X844726Y765192D01*
X844635Y765177D01*
X844595Y765157D01*
X844540Y765143D01*
X844403Y765062D01*
X844334Y765028D01*
X844191Y764924D01*
X842588Y764107D01*
X840877Y763551D01*
X840231Y763448D01*
X840231Y773684D01*
X840223Y773742D01*
X840225Y773800D01*
X840203Y773882D01*
X840191Y773965D01*
X840167Y774019D01*
X840153Y774075D01*
X840110Y774148D01*
X840075Y774225D01*
X840037Y774269D01*
X840007Y774320D01*
X839946Y774377D01*
X839891Y774442D01*
X839843Y774474D01*
X839800Y774514D01*
X839725Y774553D01*
X839655Y774599D01*
X839599Y774617D01*
X839547Y774644D01*
X839479Y774655D01*
X839384Y774685D01*
X839284Y774688D01*
X839216Y774699D01*
X838199Y774699D01*
X838199Y774701D01*
X839216Y774701D01*
X839274Y774709D01*
X839332Y774708D01*
X839414Y774729D01*
X839497Y774741D01*
X839551Y774765D01*
X839607Y774779D01*
X839680Y774822D01*
X839757Y774857D01*
X839802Y774895D01*
X839852Y774925D01*
X839910Y774986D01*
X839974Y775041D01*
X840006Y775089D01*
X840046Y775132D01*
X840085Y775207D01*
X840131Y775277D01*
X840149Y775333D01*
X840176Y775385D01*
X840187Y775453D01*
X840217Y775548D01*
X840220Y775648D01*
X840231Y775716D01*
X840231Y785952D01*
X840877Y785849D01*
X841988Y785488D01*
X842033Y785480D01*
X842077Y785464D01*
X842173Y785456D01*
X842268Y785439D01*
X842314Y785444D01*
X842360Y785440D01*
X842455Y785459D01*
X842551Y785469D01*
X842593Y785487D01*
X842639Y785496D01*
X842724Y785541D01*
X842814Y785577D01*
X842850Y785606D01*
X842891Y785627D01*
X842961Y785694D01*
X843037Y785753D01*
X843064Y785791D01*
X843097Y785823D01*
X843146Y785906D01*
X843202Y785985D01*
X843217Y786028D01*
X843241Y786068D01*
X843265Y786161D01*
X843297Y786253D01*
X843300Y786299D01*
X843311Y786344D01*
X843308Y786440D01*
X843314Y786536D01*
X843303Y786582D01*
X843302Y786628D01*
X843272Y786720D01*
X843251Y786814D01*
X843229Y786854D01*
X843214Y786898D01*
X843171Y786959D01*
X843114Y787063D01*
X843055Y787122D01*
X843020Y787172D01*
X838916Y791275D01*
X838825Y791344D01*
X838737Y791418D01*
X838711Y791429D01*
X838689Y791446D01*
X838582Y791486D01*
X838477Y791533D01*
X838450Y791537D01*
X838424Y791547D01*
X838309Y791556D01*
X838195Y791572D01*
X838168Y791568D01*
X838140Y791570D01*
X838028Y791548D01*
X837914Y791531D01*
X837889Y791520D01*
X837862Y791514D01*
X837760Y791462D01*
X837655Y791414D01*
X837634Y791396D01*
X837609Y791383D01*
X837526Y791304D01*
X837439Y791230D01*
X837425Y791209D01*
X837403Y791188D01*
X837269Y790958D01*
X837261Y790945D01*
X835817Y787461D01*
X835804Y787410D01*
X835782Y787363D01*
X835769Y787273D01*
X835746Y787186D01*
X835748Y787133D01*
X835740Y787081D01*
X835752Y786992D01*
X835755Y786901D01*
X835770Y786852D01*
X835777Y786800D01*
X835814Y786717D01*
X835841Y786631D01*
X835870Y786587D01*
X835891Y786539D01*
X835949Y786470D01*
X835999Y786394D01*
X836040Y786361D01*
X836073Y786321D01*
X836148Y786270D01*
X836169Y786252D01*
X836169Y776731D01*
X826948Y776731D01*
X827051Y777377D01*
X827607Y779088D01*
X828242Y780335D01*
X828246Y780347D01*
X828253Y780357D01*
X828292Y780481D01*
X828335Y780604D01*
X828335Y780616D01*
X828339Y780628D01*
X828342Y780758D01*
X828349Y780888D01*
X828346Y780900D01*
X828346Y780912D01*
X828313Y781038D01*
X828284Y781165D01*
X828278Y781176D01*
X828274Y781187D01*
X828208Y781299D01*
X828144Y781412D01*
X828135Y781421D01*
X828129Y781432D01*
X828034Y781521D01*
X827942Y781612D01*
X827931Y781618D01*
X827922Y781626D01*
X827806Y781686D01*
X827692Y781747D01*
X827680Y781750D01*
X827669Y781756D01*
X827606Y781766D01*
X827414Y781808D01*
X827371Y781806D01*
X827338Y781811D01*
X824296Y781811D01*
X824182Y781795D01*
X824068Y781785D01*
X824042Y781775D01*
X824015Y781771D01*
X823910Y781724D01*
X823803Y781683D01*
X823781Y781667D01*
X823755Y781655D01*
X823668Y781581D01*
X823576Y781512D01*
X823559Y781489D01*
X823538Y781472D01*
X823475Y781376D01*
X823406Y781284D01*
X823396Y781258D01*
X823381Y781235D01*
X823346Y781125D01*
X823306Y781018D01*
X823303Y780990D01*
X823295Y780964D01*
X823292Y780849D01*
X823283Y780735D01*
X823288Y780710D01*
X823288Y780680D01*
X823355Y780423D01*
X823358Y780407D01*
X824739Y777075D01*
X824739Y772325D01*
X823358Y768993D01*
X823330Y768881D01*
X823295Y768772D01*
X823294Y768744D01*
X823287Y768717D01*
X823291Y768603D01*
X823288Y768488D01*
X823295Y768461D01*
X823295Y768433D01*
X823331Y768324D01*
X823359Y768213D01*
X823374Y768189D01*
X823382Y768162D01*
X823446Y768067D01*
X823505Y767968D01*
X823525Y767949D01*
X823540Y767926D01*
X823628Y767852D01*
X823712Y767774D01*
X823737Y767761D01*
X823758Y767743D01*
X823863Y767697D01*
X823965Y767644D01*
X823990Y767640D01*
X824018Y767628D01*
X824282Y767591D01*
X824296Y767589D01*
X827338Y767589D01*
X827350Y767590D01*
X827362Y767589D01*
X827490Y767610D01*
X827619Y767629D01*
X827630Y767634D01*
X827643Y767636D01*
X827760Y767692D01*
X827879Y767745D01*
X827888Y767753D01*
X827899Y767758D01*
X827996Y767845D01*
X828096Y767928D01*
X828102Y767939D01*
X828112Y767947D01*
X828181Y768057D01*
X828253Y768165D01*
X828257Y768177D01*
X828263Y768187D01*
X828300Y768312D01*
X828339Y768436D01*
X828339Y768448D01*
X828343Y768460D01*
X828343Y768590D01*
X828346Y768720D01*
X828343Y768732D01*
X828343Y768745D01*
X828324Y768805D01*
X828274Y768995D01*
X828253Y769032D01*
X828242Y769065D01*
X827607Y770312D01*
X827051Y772023D01*
X826948Y772669D01*
X836169Y772669D01*
X836169Y763148D01*
X836112Y763113D01*
X836077Y763075D01*
X836035Y763043D01*
X835981Y762971D01*
X835920Y762904D01*
X835896Y762858D01*
X835865Y762816D01*
X835833Y762731D01*
X835793Y762650D01*
X835783Y762599D01*
X835765Y762550D01*
X835757Y762459D01*
X835741Y762371D01*
X835746Y762319D01*
X835742Y762266D01*
X835758Y762196D01*
X835769Y762088D01*
X835803Y762003D01*
X835817Y761939D01*
X837439Y758025D01*
X837439Y753275D01*
X835817Y749361D01*
X835804Y749310D01*
X835782Y749263D01*
X835769Y749173D01*
X835746Y749086D01*
X835748Y749033D01*
X835740Y748981D01*
X835752Y748892D01*
X835755Y748801D01*
X835770Y748752D01*
X835777Y748700D01*
X835814Y748617D01*
X835841Y748531D01*
X835870Y748487D01*
X835891Y748439D01*
X835949Y748369D01*
X835999Y748294D01*
X836039Y748261D01*
X836073Y748220D01*
X836148Y748170D01*
X836169Y748152D01*
X836169Y737616D01*
X836177Y737558D01*
X836175Y737500D01*
X836197Y737418D01*
X836209Y737335D01*
X836233Y737281D01*
X836247Y737225D01*
X836290Y737152D01*
X836325Y737075D01*
X836363Y737031D01*
X836393Y736980D01*
X836454Y736923D01*
X836509Y736858D01*
X836557Y736826D01*
X836600Y736786D01*
X836675Y736747D01*
X836745Y736701D01*
X836801Y736683D01*
X836853Y736656D01*
X836921Y736645D01*
X837016Y736615D01*
X837116Y736612D01*
X837184Y736601D01*
X839216Y736601D01*
X839274Y736609D01*
G37*
%LPC*%
G36*
X676401Y366269D02*
X676401Y366269D01*
X686136Y366269D01*
X686015Y365504D01*
X685434Y363717D01*
X684581Y362043D01*
X683476Y360522D01*
X682148Y359194D01*
X680627Y358089D01*
X678953Y357236D01*
X677166Y356655D01*
X676401Y356534D01*
X676401Y366269D01*
G37*
%LPD*%
%LPC*%
G36*
X344931Y795781D02*
X344931Y795781D01*
X344931Y805002D01*
X345577Y804899D01*
X347288Y804343D01*
X348891Y803526D01*
X350347Y802469D01*
X351619Y801197D01*
X352676Y799741D01*
X353493Y798138D01*
X354049Y796427D01*
X354152Y795781D01*
X344931Y795781D01*
G37*
%LPD*%
%LPC*%
G36*
X331648Y795781D02*
X331648Y795781D01*
X331751Y796427D01*
X332307Y798138D01*
X333124Y799741D01*
X334181Y801197D01*
X335453Y802469D01*
X336909Y803526D01*
X338512Y804343D01*
X340223Y804899D01*
X340869Y805002D01*
X340869Y795781D01*
X331648Y795781D01*
G37*
%LPD*%
%LPC*%
G36*
X331648Y757681D02*
X331648Y757681D01*
X331751Y758327D01*
X332307Y760038D01*
X333124Y761641D01*
X334181Y763097D01*
X335453Y764369D01*
X336909Y765426D01*
X338512Y766243D01*
X340223Y766799D01*
X340869Y766902D01*
X340869Y757681D01*
X331648Y757681D01*
G37*
%LPD*%
%LPC*%
G36*
X340223Y782601D02*
X340223Y782601D01*
X338512Y783157D01*
X336909Y783974D01*
X335453Y785031D01*
X334181Y786303D01*
X333124Y787759D01*
X332307Y789362D01*
X331751Y791073D01*
X331648Y791719D01*
X340869Y791719D01*
X340869Y782498D01*
X340223Y782601D01*
G37*
%LPD*%
%LPC*%
G36*
X340223Y744501D02*
X340223Y744501D01*
X338512Y745057D01*
X336909Y745874D01*
X335453Y746931D01*
X334181Y748203D01*
X333124Y749659D01*
X332307Y751262D01*
X331751Y752973D01*
X331648Y753619D01*
X340869Y753619D01*
X340869Y744398D01*
X340223Y744501D01*
G37*
%LPD*%
%LPC*%
G36*
X342899Y793749D02*
X342899Y793749D01*
X342899Y793751D01*
X342901Y793751D01*
X342901Y793749D01*
X342899Y793749D01*
G37*
%LPD*%
%LPC*%
G36*
X342899Y755649D02*
X342899Y755649D01*
X342899Y755651D01*
X342901Y755651D01*
X342901Y755649D01*
X342899Y755649D01*
G37*
%LPD*%
D10*
X547370Y368300D03*
X544830Y393700D03*
X547370Y419100D03*
X544830Y444500D03*
X547370Y469900D03*
X544830Y495300D03*
X547370Y520700D03*
X544830Y546100D03*
X671830Y546100D03*
X674370Y520700D03*
X671830Y495300D03*
X674370Y469900D03*
X671830Y444500D03*
X674370Y419100D03*
X671830Y393700D03*
X674370Y368300D03*
D11*
X355600Y736600D03*
X381000Y736600D03*
X406400Y736600D03*
X431800Y736600D03*
X457200Y736600D03*
X482600Y736600D03*
X508000Y736600D03*
X533400Y736600D03*
X558800Y736600D03*
X584200Y736600D03*
X609600Y736600D03*
X635000Y736600D03*
X660400Y736600D03*
X685800Y736600D03*
X711200Y736600D03*
X736600Y736600D03*
X762000Y736600D03*
X787400Y736600D03*
X812800Y736600D03*
X838200Y736600D03*
X342900Y755650D03*
X368300Y755650D03*
X393700Y755650D03*
X419100Y755650D03*
X444500Y755650D03*
X469900Y755650D03*
X495300Y755650D03*
X520700Y755650D03*
X546100Y755650D03*
X571500Y755650D03*
X596900Y755650D03*
X622300Y755650D03*
X647700Y755650D03*
X673100Y755650D03*
X698500Y755650D03*
X723900Y755650D03*
X749300Y755650D03*
X774700Y755650D03*
X800100Y755650D03*
X825500Y755650D03*
X355600Y774700D03*
X381000Y774700D03*
X406400Y774700D03*
X431800Y774700D03*
X457200Y774700D03*
X482600Y774700D03*
X508000Y774700D03*
X533400Y774700D03*
X558800Y774700D03*
X584200Y774700D03*
X609600Y774700D03*
X635000Y774700D03*
X660400Y774700D03*
X685800Y774700D03*
X711200Y774700D03*
X736600Y774700D03*
X762000Y774700D03*
X787400Y774700D03*
X812800Y774700D03*
X838200Y774700D03*
X342900Y793750D03*
X368300Y793750D03*
X393700Y793750D03*
X419100Y793750D03*
X444500Y793750D03*
X469900Y793750D03*
X495300Y793750D03*
X520700Y793750D03*
X546100Y793750D03*
X571500Y793750D03*
X596900Y793750D03*
X622300Y793750D03*
X647700Y793750D03*
X673100Y793750D03*
X698500Y793750D03*
X723900Y793750D03*
X749300Y793750D03*
X774700Y793750D03*
X800100Y793750D03*
X825500Y793750D03*
D10*
X342900Y152400D03*
X469900Y152400D03*
X1029000Y598800D03*
X1003600Y598800D03*
X978200Y598800D03*
D12*
X452501Y543179D02*
X452501Y534289D01*
X452501Y543179D02*
X552069Y642747D01*
X552069Y672084D01*
X604520Y724535D01*
X614299Y724535D01*
X622300Y732536D01*
X622300Y755650D01*
D13*
X452501Y534289D03*
D12*
X500507Y582295D02*
X500507Y585851D01*
X555625Y640969D01*
X555625Y670306D01*
X606298Y720979D01*
X619633Y720979D01*
X634746Y736092D01*
X635000Y736600D01*
D13*
X500507Y582295D03*
D12*
X516509Y588518D02*
X516509Y592074D01*
X559181Y634746D01*
X559181Y668528D01*
X606298Y715645D01*
X631190Y715645D01*
X647192Y731647D01*
X647192Y755650D01*
X647700Y755650D01*
D13*
X516509Y588518D03*
D12*
X832993Y410718D02*
X832993Y407162D01*
X832993Y410718D02*
X800100Y443611D01*
X800100Y755650D01*
D13*
X832993Y407162D03*
D12*
X836549Y401828D02*
X836549Y191135D01*
X836549Y401828D02*
X839216Y404495D01*
X839216Y409829D01*
X813435Y435610D01*
X813435Y736092D01*
X812800Y736600D01*
D13*
X836549Y191135D03*
D12*
X826770Y431165D02*
X826770Y731647D01*
X825881Y732536D01*
X825881Y755650D01*
X825500Y755650D01*
D13*
X826770Y431165D03*
D14*
X431165Y736092D02*
X361823Y666750D01*
X431165Y736092D02*
X431800Y736600D01*
D13*
X361823Y666750D03*
D14*
X350266Y680085D02*
X350266Y555625D01*
X350266Y680085D02*
X406273Y736092D01*
X406400Y736600D01*
D13*
X350266Y555625D03*
D15*
X419100Y673100D03*
D16*
X419100Y571500D01*
X393700Y546100D01*
D15*
X393700Y546100D03*
D12*
X525399Y592074D02*
X525399Y595630D01*
X562737Y632968D01*
X562737Y666750D01*
X608076Y712089D01*
X635635Y712089D01*
X659638Y736092D01*
X660400Y736600D01*
D13*
X525399Y592074D03*
D12*
X544957Y644525D02*
X544957Y672084D01*
X608965Y736092D01*
X609600Y736600D01*
D13*
X544957Y644525D03*
D12*
X384937Y672973D02*
X382270Y672973D01*
X384937Y672973D02*
X444500Y732536D01*
X444500Y755650D01*
D13*
X382270Y672973D03*
D12*
X779653Y456946D02*
X779653Y432943D01*
X779653Y456946D02*
X576072Y660527D01*
D13*
X779653Y432943D03*
X576072Y660527D03*
D12*
X452501Y480060D02*
X452501Y432943D01*
X452501Y480060D02*
X566293Y593852D01*
X566293Y664972D01*
X609854Y708533D01*
X648970Y708533D01*
X672973Y732536D01*
X672973Y755650D01*
X673100Y755650D01*
D13*
X452501Y432943D03*
D12*
X452501Y424053D02*
X452501Y407162D01*
X452501Y424053D02*
X532511Y504063D01*
X532511Y554736D01*
X569849Y592074D01*
X569849Y663194D01*
X611632Y704977D01*
X654304Y704977D01*
X685419Y736092D01*
X685800Y736600D01*
D13*
X452501Y407162D03*
D12*
X849884Y463169D02*
X849884Y785876D01*
X830326Y805434D01*
X616966Y805434D01*
X609854Y798322D01*
X609854Y775208D01*
X609600Y774700D01*
D13*
X849884Y463169D03*
M02*
