G04 EAGLE Gerber RS-274X export*
G75*
%MOMM*%
%FSLAX34Y34*%
%LPD*%
%INTop Copper*%
%IPPOS*%
%AMOC8*
5,1,8,0,0,1.08239X$1,22.5*%
G01*
%ADD10C,1.879600*%
%ADD11C,0.096000*%
%ADD12C,1.778000*%
%ADD13C,0.100000*%
%ADD14C,0.099059*%
%ADD15C,0.100800*%
%ADD16C,0.508000*%
%ADD17C,0.203200*%
%ADD18C,0.177800*%
%ADD19C,0.655600*%
%ADD20C,0.254000*%
%ADD21C,0.381000*%
%ADD22C,0.736600*%

G36*
X1132437Y67829D02*
X1132437Y67829D01*
X1132511Y67829D01*
X1132577Y67849D01*
X1132646Y67859D01*
X1132713Y67889D01*
X1132784Y67909D01*
X1132842Y67946D01*
X1132905Y67975D01*
X1132962Y68022D01*
X1133024Y68062D01*
X1133070Y68114D01*
X1133122Y68158D01*
X1133163Y68220D01*
X1133212Y68275D01*
X1133242Y68337D01*
X1133280Y68395D01*
X1133302Y68465D01*
X1133334Y68532D01*
X1133345Y68600D01*
X1133366Y68666D01*
X1133368Y68740D01*
X1133380Y68812D01*
X1133371Y68881D01*
X1133373Y68950D01*
X1133354Y69021D01*
X1133346Y69095D01*
X1133319Y69158D01*
X1133301Y69225D01*
X1133264Y69289D01*
X1133235Y69356D01*
X1133197Y69401D01*
X1133156Y69470D01*
X1133067Y69554D01*
X1133017Y69612D01*
X1127615Y74144D01*
X1123629Y81049D01*
X1122245Y88900D01*
X1123629Y96751D01*
X1127615Y103655D01*
X1133722Y108780D01*
X1141214Y111507D01*
X1149186Y111507D01*
X1156678Y108780D01*
X1162785Y103656D01*
X1164387Y100881D01*
X1164399Y100865D01*
X1164407Y100848D01*
X1164486Y100754D01*
X1164562Y100657D01*
X1164578Y100646D01*
X1164591Y100631D01*
X1164693Y100562D01*
X1164792Y100491D01*
X1164811Y100484D01*
X1164827Y100473D01*
X1164945Y100436D01*
X1165060Y100394D01*
X1165080Y100393D01*
X1165098Y100387D01*
X1165221Y100384D01*
X1165344Y100376D01*
X1165363Y100380D01*
X1165382Y100380D01*
X1165501Y100411D01*
X1165621Y100437D01*
X1165639Y100447D01*
X1165657Y100452D01*
X1165763Y100514D01*
X1165871Y100573D01*
X1165885Y100587D01*
X1165902Y100597D01*
X1165986Y100687D01*
X1166073Y100773D01*
X1166083Y100790D01*
X1166096Y100804D01*
X1166152Y100914D01*
X1166212Y101021D01*
X1166217Y101040D01*
X1166226Y101057D01*
X1166238Y101130D01*
X1166277Y101298D01*
X1166275Y101349D01*
X1166281Y101389D01*
X1166281Y850900D01*
X1166275Y850944D01*
X1166278Y850980D01*
X1166031Y854119D01*
X1165996Y854277D01*
X1165985Y854353D01*
X1164045Y860323D01*
X1163920Y860579D01*
X1163907Y860593D01*
X1163900Y860607D01*
X1160210Y865686D01*
X1160012Y865890D01*
X1159996Y865899D01*
X1159986Y865910D01*
X1154907Y869600D01*
X1154655Y869734D01*
X1154637Y869737D01*
X1154623Y869745D01*
X1148653Y871685D01*
X1148579Y871698D01*
X1148507Y871720D01*
X1148457Y871722D01*
X1148419Y871731D01*
X1145280Y871978D01*
X1145235Y871975D01*
X1145200Y871981D01*
X127136Y871981D01*
X127063Y871971D01*
X126989Y871971D01*
X126923Y871951D01*
X126854Y871941D01*
X126787Y871911D01*
X126716Y871891D01*
X126658Y871854D01*
X126595Y871825D01*
X126538Y871778D01*
X126476Y871738D01*
X126430Y871686D01*
X126378Y871642D01*
X126337Y871580D01*
X126288Y871525D01*
X126258Y871463D01*
X126220Y871405D01*
X126198Y871335D01*
X126166Y871268D01*
X126155Y871200D01*
X126134Y871134D01*
X126132Y871060D01*
X126120Y870988D01*
X126129Y870919D01*
X126127Y870850D01*
X126146Y870779D01*
X126154Y870705D01*
X126181Y870642D01*
X126199Y870575D01*
X126236Y870511D01*
X126265Y870444D01*
X126303Y870399D01*
X126344Y870330D01*
X126433Y870246D01*
X126483Y870188D01*
X131885Y865656D01*
X135871Y858751D01*
X137255Y850900D01*
X135871Y843049D01*
X131885Y836145D01*
X125778Y831020D01*
X118286Y828293D01*
X110314Y828293D01*
X102822Y831020D01*
X96715Y836144D01*
X95113Y838919D01*
X95101Y838935D01*
X95093Y838952D01*
X95054Y838998D01*
X95036Y839029D01*
X95002Y839061D01*
X94938Y839143D01*
X94922Y839154D01*
X94909Y839169D01*
X94831Y839222D01*
X94829Y839224D01*
X94825Y839226D01*
X94807Y839238D01*
X94708Y839309D01*
X94689Y839316D01*
X94673Y839327D01*
X94555Y839364D01*
X94440Y839406D01*
X94420Y839407D01*
X94402Y839413D01*
X94279Y839416D01*
X94156Y839424D01*
X94137Y839420D01*
X94118Y839420D01*
X93999Y839389D01*
X93879Y839363D01*
X93861Y839353D01*
X93843Y839348D01*
X93737Y839286D01*
X93629Y839227D01*
X93615Y839213D01*
X93598Y839203D01*
X93514Y839113D01*
X93427Y839027D01*
X93417Y839010D01*
X93404Y838996D01*
X93348Y838886D01*
X93288Y838779D01*
X93283Y838760D01*
X93274Y838743D01*
X93262Y838670D01*
X93248Y838609D01*
X93233Y838561D01*
X93232Y838542D01*
X93223Y838502D01*
X93225Y838451D01*
X93219Y838411D01*
X93219Y101389D01*
X93221Y101369D01*
X93219Y101350D01*
X93241Y101229D01*
X93259Y101107D01*
X93267Y101089D01*
X93270Y101070D01*
X93325Y100960D01*
X93375Y100848D01*
X93387Y100833D01*
X93396Y100815D01*
X93479Y100724D01*
X93558Y100631D01*
X93575Y100620D01*
X93588Y100605D01*
X93693Y100541D01*
X93795Y100473D01*
X93814Y100467D01*
X93830Y100457D01*
X93949Y100424D01*
X94066Y100387D01*
X94086Y100387D01*
X94105Y100382D01*
X94227Y100383D01*
X94350Y100380D01*
X94369Y100385D01*
X94389Y100385D01*
X94507Y100421D01*
X94625Y100452D01*
X94642Y100462D01*
X94661Y100467D01*
X94764Y100534D01*
X94870Y100597D01*
X94883Y100611D01*
X94900Y100622D01*
X94946Y100679D01*
X95064Y100804D01*
X95088Y100850D01*
X95113Y100881D01*
X96715Y103655D01*
X102822Y108780D01*
X110314Y111507D01*
X118286Y111507D01*
X125778Y108780D01*
X131885Y103656D01*
X135871Y96751D01*
X137255Y88900D01*
X135871Y81049D01*
X131885Y74145D01*
X126483Y69612D01*
X126434Y69557D01*
X126378Y69509D01*
X126339Y69452D01*
X126293Y69400D01*
X126261Y69334D01*
X126220Y69273D01*
X126199Y69207D01*
X126169Y69144D01*
X126156Y69072D01*
X126134Y69002D01*
X126132Y68933D01*
X126121Y68864D01*
X126129Y68791D01*
X126127Y68718D01*
X126144Y68651D01*
X126152Y68582D01*
X126180Y68514D01*
X126199Y68443D01*
X126234Y68383D01*
X126261Y68319D01*
X126306Y68261D01*
X126344Y68198D01*
X126395Y68151D01*
X126438Y68097D01*
X126498Y68054D01*
X126551Y68004D01*
X126613Y67972D01*
X126670Y67932D01*
X126739Y67908D01*
X126804Y67874D01*
X126863Y67864D01*
X126938Y67838D01*
X127060Y67831D01*
X127136Y67819D01*
X1132364Y67819D01*
X1132437Y67829D01*
G37*
%LPC*%
G36*
X828918Y78851D02*
X828918Y78851D01*
X826851Y80918D01*
X826851Y96882D01*
X828918Y98949D01*
X831596Y98949D01*
X831654Y98957D01*
X831712Y98955D01*
X831794Y98977D01*
X831878Y98989D01*
X831931Y99012D01*
X831987Y99027D01*
X832060Y99070D01*
X832137Y99105D01*
X832182Y99143D01*
X832232Y99172D01*
X832290Y99234D01*
X832354Y99288D01*
X832386Y99337D01*
X832426Y99380D01*
X832465Y99455D01*
X832512Y99525D01*
X832529Y99581D01*
X832556Y99633D01*
X832567Y99701D01*
X832597Y99796D01*
X832600Y99896D01*
X832611Y99964D01*
X832611Y112756D01*
X835073Y115218D01*
X835091Y115242D01*
X835113Y115261D01*
X835176Y115355D01*
X835244Y115445D01*
X835255Y115473D01*
X835271Y115497D01*
X835305Y115605D01*
X835345Y115711D01*
X835348Y115740D01*
X835357Y115768D01*
X835360Y115882D01*
X835369Y115994D01*
X835363Y116023D01*
X835364Y116052D01*
X835335Y116162D01*
X835313Y116273D01*
X835300Y116299D01*
X835292Y116327D01*
X835234Y116425D01*
X835182Y116525D01*
X835162Y116547D01*
X835147Y116572D01*
X835064Y116649D01*
X834986Y116731D01*
X834961Y116746D01*
X834940Y116766D01*
X834839Y116818D01*
X834741Y116875D01*
X834713Y116882D01*
X834687Y116896D01*
X834609Y116909D01*
X834466Y116945D01*
X834403Y116943D01*
X834355Y116951D01*
X828918Y116951D01*
X826851Y119018D01*
X826851Y134982D01*
X828918Y137049D01*
X830707Y137049D01*
X830765Y137057D01*
X830823Y137055D01*
X830905Y137077D01*
X830989Y137089D01*
X831042Y137112D01*
X831098Y137127D01*
X831171Y137170D01*
X831248Y137205D01*
X831293Y137243D01*
X831343Y137272D01*
X831401Y137334D01*
X831465Y137388D01*
X831497Y137437D01*
X831537Y137480D01*
X831576Y137555D01*
X831623Y137625D01*
X831640Y137681D01*
X831667Y137733D01*
X831678Y137801D01*
X831708Y137896D01*
X831711Y137996D01*
X831722Y138064D01*
X831722Y146411D01*
X831710Y146498D01*
X831707Y146585D01*
X831690Y146638D01*
X831682Y146693D01*
X831647Y146773D01*
X831620Y146856D01*
X831592Y146895D01*
X831566Y146952D01*
X831470Y147066D01*
X831425Y147129D01*
X822832Y155722D01*
X822832Y425735D01*
X822820Y425821D01*
X822817Y425909D01*
X822800Y425962D01*
X822792Y426016D01*
X822757Y426096D01*
X822730Y426179D01*
X822702Y426219D01*
X822676Y426276D01*
X822580Y426389D01*
X822535Y426453D01*
X821354Y427634D01*
X821307Y427669D01*
X821267Y427712D01*
X821194Y427754D01*
X821126Y427805D01*
X821072Y427826D01*
X821021Y427855D01*
X820940Y427876D01*
X820861Y427906D01*
X820802Y427911D01*
X820746Y427925D01*
X820662Y427923D01*
X820577Y427930D01*
X820520Y427918D01*
X820462Y427916D01*
X820381Y427890D01*
X820299Y427874D01*
X820247Y427847D01*
X820191Y427829D01*
X820135Y427789D01*
X820046Y427743D01*
X819974Y427674D01*
X819918Y427634D01*
X786555Y394271D01*
X786503Y394202D01*
X786443Y394138D01*
X786417Y394088D01*
X786384Y394044D01*
X786353Y393962D01*
X786313Y393884D01*
X786305Y393837D01*
X786283Y393778D01*
X786271Y393631D01*
X786258Y393553D01*
X786258Y386377D01*
X784182Y384301D01*
X775632Y384301D01*
X775418Y384516D01*
X775371Y384551D01*
X775331Y384593D01*
X775258Y384636D01*
X775191Y384687D01*
X775136Y384707D01*
X775086Y384737D01*
X775004Y384758D01*
X774925Y384788D01*
X774867Y384793D01*
X774810Y384807D01*
X774726Y384804D01*
X774642Y384811D01*
X774584Y384800D01*
X774526Y384798D01*
X774446Y384772D01*
X774363Y384755D01*
X774311Y384729D01*
X774255Y384711D01*
X774199Y384670D01*
X774111Y384624D01*
X774038Y384556D01*
X773982Y384516D01*
X773768Y384301D01*
X765218Y384301D01*
X763142Y386377D01*
X763142Y387096D01*
X763134Y387154D01*
X763136Y387212D01*
X763114Y387294D01*
X763102Y387378D01*
X763079Y387431D01*
X763064Y387487D01*
X763021Y387560D01*
X762986Y387637D01*
X762948Y387682D01*
X762919Y387732D01*
X762857Y387790D01*
X762803Y387854D01*
X762754Y387886D01*
X762711Y387926D01*
X762636Y387965D01*
X762566Y388012D01*
X762510Y388029D01*
X762458Y388056D01*
X762390Y388067D01*
X762295Y388097D01*
X762195Y388100D01*
X762127Y388111D01*
X683666Y388111D01*
X683664Y388111D01*
X683663Y388111D01*
X683522Y388091D01*
X683384Y388071D01*
X683383Y388071D01*
X683381Y388071D01*
X683253Y388013D01*
X683125Y387955D01*
X683124Y387954D01*
X683122Y387953D01*
X683015Y387862D01*
X682908Y387772D01*
X682907Y387770D01*
X682906Y387769D01*
X682898Y387756D01*
X682750Y387535D01*
X682741Y387506D01*
X682728Y387485D01*
X682382Y386649D01*
X678881Y383148D01*
X676137Y382012D01*
X676132Y382009D01*
X676126Y382007D01*
X676009Y381936D01*
X675893Y381867D01*
X675888Y381863D01*
X675883Y381860D01*
X675791Y381759D01*
X675697Y381661D01*
X675695Y381655D01*
X675690Y381651D01*
X675630Y381529D01*
X675567Y381408D01*
X675566Y381402D01*
X675563Y381396D01*
X675539Y381263D01*
X675512Y381129D01*
X675513Y381123D01*
X675512Y381117D01*
X675525Y380980D01*
X675537Y380846D01*
X675539Y380840D01*
X675539Y380834D01*
X675590Y380707D01*
X675639Y380581D01*
X675642Y380576D01*
X675645Y380570D01*
X675728Y380463D01*
X675810Y380354D01*
X675815Y380350D01*
X675819Y380345D01*
X675929Y380265D01*
X676038Y380184D01*
X676044Y380181D01*
X676049Y380178D01*
X676090Y380164D01*
X676304Y380083D01*
X676340Y380080D01*
X676367Y380071D01*
X677166Y379945D01*
X678953Y379364D01*
X680627Y378511D01*
X682148Y377406D01*
X683476Y376078D01*
X684581Y374557D01*
X685434Y372883D01*
X686015Y371096D01*
X686136Y370331D01*
X675386Y370331D01*
X675328Y370323D01*
X675270Y370325D01*
X675188Y370303D01*
X675105Y370291D01*
X675051Y370267D01*
X674995Y370253D01*
X674922Y370210D01*
X674845Y370175D01*
X674801Y370137D01*
X674750Y370107D01*
X674693Y370046D01*
X674628Y369991D01*
X674596Y369943D01*
X674556Y369900D01*
X674517Y369825D01*
X674471Y369755D01*
X674453Y369699D01*
X674426Y369647D01*
X674415Y369579D01*
X674385Y369484D01*
X674382Y369384D01*
X674371Y369316D01*
X674371Y368299D01*
X673354Y368299D01*
X673296Y368291D01*
X673238Y368292D01*
X673156Y368271D01*
X673073Y368259D01*
X673019Y368235D01*
X672963Y368221D01*
X672890Y368178D01*
X672813Y368143D01*
X672768Y368105D01*
X672718Y368075D01*
X672660Y368014D01*
X672596Y367959D01*
X672564Y367911D01*
X672524Y367868D01*
X672485Y367793D01*
X672439Y367723D01*
X672421Y367667D01*
X672394Y367615D01*
X672383Y367547D01*
X672353Y367452D01*
X672350Y367352D01*
X672339Y367284D01*
X672339Y356534D01*
X671574Y356655D01*
X669787Y357236D01*
X668113Y358089D01*
X666592Y359194D01*
X665998Y359788D01*
X665975Y359806D01*
X665956Y359828D01*
X665861Y359891D01*
X665771Y359959D01*
X665743Y359969D01*
X665719Y359986D01*
X665611Y360020D01*
X665505Y360060D01*
X665476Y360063D01*
X665448Y360072D01*
X665335Y360074D01*
X665222Y360084D01*
X665193Y360078D01*
X665164Y360079D01*
X665054Y360050D01*
X664943Y360028D01*
X664917Y360014D01*
X664889Y360007D01*
X664792Y359949D01*
X664691Y359897D01*
X664669Y359877D01*
X664644Y359862D01*
X664567Y359779D01*
X664485Y359701D01*
X664470Y359676D01*
X664450Y359654D01*
X664398Y359553D01*
X664341Y359456D01*
X664334Y359427D01*
X664320Y359401D01*
X664307Y359324D01*
X664271Y359180D01*
X664273Y359118D01*
X664265Y359070D01*
X664265Y342566D01*
X661884Y340185D01*
X556916Y340185D01*
X554692Y342410D01*
X554668Y342427D01*
X554649Y342450D01*
X554555Y342513D01*
X554465Y342581D01*
X554437Y342591D01*
X554413Y342607D01*
X554305Y342642D01*
X554199Y342682D01*
X554170Y342684D01*
X554142Y342693D01*
X554028Y342696D01*
X553916Y342706D01*
X553887Y342700D01*
X553858Y342701D01*
X553748Y342672D01*
X553637Y342650D01*
X553611Y342636D01*
X553583Y342629D01*
X553485Y342571D01*
X553385Y342519D01*
X553363Y342498D01*
X553338Y342483D01*
X553261Y342401D01*
X553179Y342323D01*
X553164Y342298D01*
X553144Y342276D01*
X553092Y342175D01*
X553035Y342078D01*
X553028Y342049D01*
X553014Y342023D01*
X553001Y341946D01*
X552965Y341802D01*
X552967Y341740D01*
X552959Y341692D01*
X552959Y317658D01*
X552108Y315604D01*
X526586Y290082D01*
X526534Y290013D01*
X526474Y289949D01*
X526448Y289899D01*
X526415Y289855D01*
X526384Y289774D01*
X526344Y289696D01*
X526336Y289648D01*
X526314Y289590D01*
X526302Y289442D01*
X526289Y289365D01*
X526289Y279273D01*
X526297Y279215D01*
X526295Y279157D01*
X526317Y279075D01*
X526329Y278991D01*
X526352Y278938D01*
X526367Y278882D01*
X526410Y278809D01*
X526445Y278732D01*
X526483Y278687D01*
X526512Y278637D01*
X526574Y278579D01*
X526628Y278515D01*
X526677Y278483D01*
X526720Y278443D01*
X526795Y278404D01*
X526865Y278357D01*
X526921Y278340D01*
X526973Y278313D01*
X527041Y278302D01*
X527136Y278272D01*
X527236Y278269D01*
X527304Y278258D01*
X528023Y278258D01*
X530099Y276182D01*
X530099Y267632D01*
X529884Y267418D01*
X529849Y267371D01*
X529807Y267331D01*
X529764Y267258D01*
X529713Y267191D01*
X529693Y267136D01*
X529663Y267086D01*
X529642Y267004D01*
X529612Y266925D01*
X529607Y266867D01*
X529593Y266810D01*
X529596Y266726D01*
X529589Y266642D01*
X529600Y266584D01*
X529602Y266526D01*
X529628Y266446D01*
X529645Y266363D01*
X529671Y266311D01*
X529689Y266255D01*
X529730Y266199D01*
X529776Y266111D01*
X529844Y266038D01*
X529884Y265982D01*
X530099Y265768D01*
X530099Y257218D01*
X528023Y255142D01*
X513377Y255142D01*
X511301Y257218D01*
X511301Y265768D01*
X511516Y265982D01*
X511551Y266029D01*
X511593Y266069D01*
X511636Y266142D01*
X511687Y266209D01*
X511707Y266264D01*
X511737Y266314D01*
X511758Y266396D01*
X511788Y266475D01*
X511793Y266533D01*
X511807Y266590D01*
X511804Y266674D01*
X511811Y266758D01*
X511800Y266816D01*
X511798Y266874D01*
X511772Y266954D01*
X511755Y267037D01*
X511729Y267089D01*
X511711Y267145D01*
X511671Y267201D01*
X511625Y267289D01*
X511556Y267362D01*
X511516Y267418D01*
X511301Y267632D01*
X511301Y276182D01*
X513377Y278258D01*
X514096Y278258D01*
X514154Y278266D01*
X514212Y278264D01*
X514294Y278286D01*
X514378Y278298D01*
X514431Y278321D01*
X514487Y278336D01*
X514560Y278379D01*
X514637Y278414D01*
X514682Y278452D01*
X514732Y278481D01*
X514790Y278543D01*
X514854Y278597D01*
X514886Y278646D01*
X514926Y278689D01*
X514965Y278764D01*
X515012Y278834D01*
X515029Y278890D01*
X515056Y278942D01*
X515067Y279010D01*
X515097Y279105D01*
X515100Y279205D01*
X515111Y279273D01*
X515111Y293212D01*
X515962Y295266D01*
X541484Y320788D01*
X541536Y320857D01*
X541596Y320921D01*
X541622Y320971D01*
X541655Y321015D01*
X541686Y321096D01*
X541726Y321174D01*
X541734Y321222D01*
X541756Y321280D01*
X541768Y321428D01*
X541781Y321505D01*
X541781Y356464D01*
X541781Y356466D01*
X541781Y356467D01*
X541762Y356603D01*
X541741Y356746D01*
X541741Y356747D01*
X541741Y356749D01*
X541683Y356877D01*
X541625Y357005D01*
X541624Y357006D01*
X541623Y357008D01*
X541532Y357115D01*
X541442Y357222D01*
X541440Y357223D01*
X541439Y357224D01*
X541426Y357232D01*
X541205Y357380D01*
X541176Y357389D01*
X541155Y357402D01*
X540319Y357748D01*
X536818Y361249D01*
X534923Y365824D01*
X534923Y370776D01*
X536818Y375351D01*
X540319Y378852D01*
X541971Y379536D01*
X541996Y379551D01*
X542024Y379560D01*
X542119Y379623D01*
X542216Y379680D01*
X542236Y379702D01*
X542261Y379718D01*
X542334Y379805D01*
X542411Y379887D01*
X542425Y379913D01*
X542444Y379936D01*
X542490Y380039D01*
X542541Y380140D01*
X542547Y380169D01*
X542559Y380195D01*
X542575Y380308D01*
X542596Y380419D01*
X542594Y380448D01*
X542598Y380477D01*
X542582Y380589D01*
X542572Y380702D01*
X542561Y380729D01*
X542557Y380758D01*
X542511Y380861D01*
X542470Y380967D01*
X542452Y380991D01*
X542440Y381018D01*
X542367Y381104D01*
X542298Y381194D01*
X542275Y381212D01*
X542256Y381234D01*
X542189Y381276D01*
X542071Y381364D01*
X542012Y381386D01*
X541971Y381412D01*
X537779Y383148D01*
X534278Y386649D01*
X533932Y387485D01*
X533931Y387486D01*
X533931Y387487D01*
X533860Y387608D01*
X533788Y387729D01*
X533787Y387730D01*
X533786Y387732D01*
X533682Y387829D01*
X533581Y387925D01*
X533580Y387925D01*
X533579Y387926D01*
X533453Y387991D01*
X533328Y388055D01*
X533327Y388055D01*
X533325Y388056D01*
X533311Y388058D01*
X533049Y388110D01*
X533019Y388107D01*
X532994Y388111D01*
X469773Y388111D01*
X469715Y388103D01*
X469657Y388105D01*
X469575Y388083D01*
X469491Y388071D01*
X469438Y388048D01*
X469382Y388033D01*
X469309Y387990D01*
X469232Y387955D01*
X469187Y387917D01*
X469137Y387888D01*
X469079Y387826D01*
X469015Y387772D01*
X468983Y387723D01*
X468943Y387680D01*
X468904Y387605D01*
X468857Y387535D01*
X468840Y387479D01*
X468813Y387427D01*
X468802Y387359D01*
X468772Y387264D01*
X468769Y387164D01*
X468758Y387096D01*
X468758Y386377D01*
X466682Y384301D01*
X458132Y384301D01*
X457918Y384516D01*
X457871Y384551D01*
X457831Y384593D01*
X457758Y384636D01*
X457691Y384687D01*
X457636Y384707D01*
X457586Y384737D01*
X457504Y384758D01*
X457425Y384788D01*
X457367Y384793D01*
X457310Y384807D01*
X457226Y384804D01*
X457142Y384811D01*
X457084Y384800D01*
X457026Y384798D01*
X456946Y384772D01*
X456863Y384755D01*
X456811Y384729D01*
X456755Y384711D01*
X456699Y384670D01*
X456611Y384624D01*
X456538Y384556D01*
X456482Y384516D01*
X456268Y384301D01*
X447718Y384301D01*
X445642Y386377D01*
X445642Y401023D01*
X446968Y402349D01*
X446969Y402350D01*
X446971Y402351D01*
X447055Y402464D01*
X447139Y402576D01*
X447140Y402577D01*
X447141Y402579D01*
X447190Y402709D01*
X447240Y402842D01*
X447241Y402843D01*
X447241Y402845D01*
X447253Y402988D01*
X447264Y403125D01*
X447264Y403126D01*
X447264Y403128D01*
X447260Y403144D01*
X447208Y403404D01*
X447194Y403431D01*
X447188Y403455D01*
X446174Y405904D01*
X446174Y408420D01*
X446742Y409791D01*
X446742Y409793D01*
X446743Y409794D01*
X446777Y409927D01*
X446813Y410067D01*
X446813Y410068D01*
X446813Y410070D01*
X446809Y410210D01*
X446805Y410351D01*
X446804Y410352D01*
X446804Y410354D01*
X446760Y410490D01*
X446718Y410621D01*
X446717Y410623D01*
X446717Y410624D01*
X446708Y410637D01*
X446560Y410858D01*
X446536Y410877D01*
X446522Y410898D01*
X445642Y411777D01*
X445642Y426423D01*
X447140Y427921D01*
X447175Y427967D01*
X447218Y428008D01*
X447260Y428080D01*
X447311Y428148D01*
X447332Y428202D01*
X447361Y428253D01*
X447382Y428334D01*
X447412Y428413D01*
X447417Y428472D01*
X447432Y428528D01*
X447429Y428613D01*
X447436Y428697D01*
X447424Y428754D01*
X447423Y428813D01*
X447397Y428893D01*
X447380Y428976D01*
X447353Y429027D01*
X447335Y429083D01*
X447295Y429139D01*
X447249Y429228D01*
X447180Y429300D01*
X447140Y429356D01*
X447137Y429359D01*
X446174Y431685D01*
X446174Y434201D01*
X446630Y435303D01*
X446631Y435304D01*
X446632Y435306D01*
X446665Y435439D01*
X446701Y435578D01*
X446701Y435580D01*
X446702Y435581D01*
X446697Y435719D01*
X446693Y435862D01*
X446693Y435864D01*
X446693Y435865D01*
X446650Y435998D01*
X446607Y436133D01*
X446606Y436134D01*
X446605Y436136D01*
X446597Y436148D01*
X446448Y436369D01*
X446425Y436389D01*
X446410Y436409D01*
X445642Y437177D01*
X445642Y451823D01*
X447377Y453557D01*
X447429Y453627D01*
X447489Y453691D01*
X447515Y453740D01*
X447548Y453785D01*
X447579Y453866D01*
X447619Y453944D01*
X447627Y453992D01*
X447649Y454050D01*
X447661Y454198D01*
X447674Y454275D01*
X447674Y454894D01*
X447662Y454981D01*
X447659Y455068D01*
X447642Y455121D01*
X447634Y455176D01*
X447599Y455256D01*
X447572Y455339D01*
X447544Y455378D01*
X447518Y455435D01*
X447422Y455549D01*
X447377Y455612D01*
X438784Y464205D01*
X438784Y483342D01*
X438772Y483429D01*
X438769Y483516D01*
X438752Y483569D01*
X438744Y483624D01*
X438709Y483704D01*
X438682Y483787D01*
X438654Y483826D01*
X438628Y483883D01*
X438532Y483997D01*
X438487Y484060D01*
X436117Y486430D01*
X436117Y506456D01*
X436110Y506507D01*
X436111Y506523D01*
X436105Y506545D01*
X436102Y506630D01*
X436085Y506683D01*
X436077Y506738D01*
X436042Y506818D01*
X436015Y506901D01*
X435987Y506940D01*
X435961Y506997D01*
X435865Y507111D01*
X435820Y507174D01*
X432561Y510433D01*
X432561Y539476D01*
X491764Y598679D01*
X524369Y598679D01*
X524413Y598646D01*
X524477Y598586D01*
X524527Y598560D01*
X524571Y598527D01*
X524653Y598496D01*
X524731Y598456D01*
X524778Y598448D01*
X524837Y598426D01*
X524984Y598414D01*
X525062Y598401D01*
X526796Y598401D01*
X526854Y598409D01*
X526912Y598407D01*
X526994Y598429D01*
X527078Y598441D01*
X527131Y598464D01*
X527187Y598479D01*
X527260Y598522D01*
X527337Y598557D01*
X527382Y598595D01*
X527432Y598624D01*
X527490Y598686D01*
X527554Y598740D01*
X527586Y598789D01*
X527626Y598832D01*
X527665Y598907D01*
X527712Y598977D01*
X527729Y599033D01*
X527756Y599085D01*
X527767Y599153D01*
X527797Y599248D01*
X527800Y599348D01*
X527811Y599416D01*
X527811Y622427D01*
X527803Y622485D01*
X527805Y622543D01*
X527783Y622625D01*
X527771Y622709D01*
X527748Y622762D01*
X527733Y622818D01*
X527690Y622891D01*
X527655Y622968D01*
X527617Y623013D01*
X527588Y623063D01*
X527526Y623121D01*
X527472Y623185D01*
X527423Y623217D01*
X527380Y623257D01*
X527305Y623296D01*
X527235Y623343D01*
X527179Y623360D01*
X527127Y623387D01*
X527059Y623398D01*
X526964Y623428D01*
X526864Y623431D01*
X526796Y623442D01*
X526077Y623442D01*
X524001Y625518D01*
X524001Y634068D01*
X524216Y634282D01*
X524251Y634329D01*
X524293Y634369D01*
X524336Y634442D01*
X524387Y634509D01*
X524407Y634564D01*
X524437Y634614D01*
X524458Y634696D01*
X524488Y634775D01*
X524493Y634833D01*
X524507Y634890D01*
X524504Y634974D01*
X524511Y635058D01*
X524500Y635116D01*
X524498Y635174D01*
X524472Y635254D01*
X524455Y635337D01*
X524429Y635389D01*
X524411Y635445D01*
X524370Y635501D01*
X524324Y635589D01*
X524256Y635662D01*
X524216Y635718D01*
X524001Y635932D01*
X524001Y644482D01*
X525105Y645585D01*
X525122Y645609D01*
X525145Y645628D01*
X525208Y645722D01*
X525276Y645812D01*
X525286Y645840D01*
X525302Y645864D01*
X525337Y645972D01*
X525377Y646078D01*
X525379Y646107D01*
X525388Y646135D01*
X525391Y646249D01*
X525400Y646361D01*
X525395Y646390D01*
X525395Y646419D01*
X525367Y646529D01*
X525345Y646640D01*
X525331Y646666D01*
X525324Y646694D01*
X525266Y646792D01*
X525214Y646892D01*
X525193Y646914D01*
X525178Y646939D01*
X525096Y647016D01*
X525018Y647098D01*
X524992Y647113D01*
X524971Y647133D01*
X524870Y647185D01*
X524772Y647242D01*
X524744Y647249D01*
X524718Y647263D01*
X524641Y647276D01*
X524497Y647312D01*
X524434Y647310D01*
X524387Y647318D01*
X412781Y647318D01*
X410727Y648169D01*
X409012Y649884D01*
X389257Y669640D01*
X389165Y669709D01*
X389077Y669783D01*
X389052Y669794D01*
X389030Y669811D01*
X388922Y669851D01*
X388817Y669898D01*
X388790Y669902D01*
X388764Y669912D01*
X388650Y669921D01*
X388536Y669937D01*
X388508Y669933D01*
X388481Y669935D01*
X388368Y669913D01*
X388254Y669896D01*
X388229Y669885D01*
X388202Y669879D01*
X388100Y669827D01*
X387995Y669779D01*
X387974Y669761D01*
X387950Y669748D01*
X387866Y669670D01*
X387779Y669595D01*
X387766Y669574D01*
X387743Y669553D01*
X387667Y669423D01*
X385854Y667609D01*
X383528Y666646D01*
X381012Y666646D01*
X378686Y667609D01*
X377558Y668738D01*
X377488Y668790D01*
X377424Y668850D01*
X377375Y668876D01*
X377331Y668909D01*
X377249Y668940D01*
X377171Y668980D01*
X377123Y668988D01*
X377065Y669010D01*
X376917Y669022D01*
X376840Y669035D01*
X369165Y669035D01*
X369107Y669027D01*
X369049Y669029D01*
X368967Y669007D01*
X368883Y668995D01*
X368830Y668972D01*
X368774Y668957D01*
X368701Y668914D01*
X368624Y668879D01*
X368579Y668841D01*
X368529Y668812D01*
X368471Y668750D01*
X368407Y668696D01*
X368375Y668647D01*
X368335Y668604D01*
X368296Y668529D01*
X368249Y668459D01*
X368232Y668403D01*
X368205Y668351D01*
X368194Y668283D01*
X368164Y668188D01*
X368161Y668088D01*
X368150Y668020D01*
X368150Y665492D01*
X367489Y663896D01*
X367481Y663866D01*
X367467Y663839D01*
X367454Y663761D01*
X367418Y663621D01*
X367420Y663557D01*
X367412Y663508D01*
X367412Y640277D01*
X367424Y640191D01*
X367427Y640103D01*
X367444Y640051D01*
X367452Y639996D01*
X367487Y639916D01*
X367514Y639833D01*
X367542Y639794D01*
X367568Y639737D01*
X367664Y639623D01*
X367709Y639560D01*
X369999Y637270D01*
X369999Y624330D01*
X368687Y623018D01*
X368651Y622971D01*
X368609Y622931D01*
X368566Y622858D01*
X368516Y622791D01*
X368495Y622736D01*
X368465Y622686D01*
X368445Y622604D01*
X368414Y622525D01*
X368410Y622467D01*
X368395Y622410D01*
X368398Y622326D01*
X368391Y622242D01*
X368402Y622184D01*
X368404Y622126D01*
X368430Y622046D01*
X368447Y621963D01*
X368474Y621911D01*
X368492Y621855D01*
X368532Y621799D01*
X368578Y621711D01*
X368646Y621638D01*
X368687Y621582D01*
X369999Y620270D01*
X369999Y607330D01*
X369177Y606508D01*
X369141Y606461D01*
X369099Y606421D01*
X369056Y606348D01*
X369006Y606281D01*
X368985Y606226D01*
X368955Y606176D01*
X368935Y606094D01*
X368904Y606015D01*
X368900Y605957D01*
X368885Y605900D01*
X368888Y605816D01*
X368881Y605732D01*
X368892Y605674D01*
X368894Y605616D01*
X368920Y605536D01*
X368937Y605453D01*
X368964Y605401D01*
X368982Y605345D01*
X369022Y605289D01*
X369068Y605201D01*
X369136Y605128D01*
X369177Y605072D01*
X369999Y604250D01*
X369999Y591310D01*
X368687Y589998D01*
X368651Y589951D01*
X368609Y589911D01*
X368566Y589838D01*
X368516Y589771D01*
X368495Y589716D01*
X368465Y589666D01*
X368445Y589584D01*
X368414Y589505D01*
X368410Y589447D01*
X368395Y589390D01*
X368398Y589306D01*
X368391Y589222D01*
X368402Y589164D01*
X368404Y589106D01*
X368430Y589026D01*
X368447Y588943D01*
X368474Y588891D01*
X368492Y588835D01*
X368532Y588779D01*
X368578Y588691D01*
X368646Y588618D01*
X368687Y588562D01*
X369999Y587250D01*
X369999Y574310D01*
X367709Y572020D01*
X367657Y571951D01*
X367597Y571887D01*
X367571Y571837D01*
X367538Y571793D01*
X367507Y571712D01*
X367467Y571634D01*
X367459Y571586D01*
X367437Y571528D01*
X367425Y571380D01*
X367412Y571303D01*
X367412Y565023D01*
X367420Y564965D01*
X367418Y564907D01*
X367440Y564825D01*
X367452Y564741D01*
X367475Y564688D01*
X367490Y564632D01*
X367533Y564559D01*
X367568Y564482D01*
X367606Y564437D01*
X367635Y564387D01*
X367697Y564329D01*
X367751Y564265D01*
X367800Y564233D01*
X367843Y564193D01*
X367918Y564154D01*
X367988Y564107D01*
X368044Y564090D01*
X368096Y564063D01*
X368164Y564052D01*
X368259Y564022D01*
X368359Y564019D01*
X368427Y564008D01*
X369273Y564008D01*
X371349Y561932D01*
X371349Y553382D01*
X371134Y553168D01*
X371099Y553121D01*
X371057Y553081D01*
X371014Y553008D01*
X370963Y552941D01*
X370943Y552886D01*
X370913Y552836D01*
X370892Y552754D01*
X370862Y552675D01*
X370857Y552617D01*
X370843Y552560D01*
X370846Y552476D01*
X370839Y552392D01*
X370850Y552334D01*
X370852Y552276D01*
X370878Y552196D01*
X370895Y552113D01*
X370921Y552061D01*
X370939Y552005D01*
X370980Y551949D01*
X371026Y551861D01*
X371094Y551788D01*
X371134Y551732D01*
X371349Y551518D01*
X371349Y551434D01*
X371357Y551376D01*
X371355Y551318D01*
X371377Y551236D01*
X371389Y551152D01*
X371412Y551099D01*
X371427Y551043D01*
X371470Y550970D01*
X371505Y550893D01*
X371543Y550848D01*
X371572Y550798D01*
X371634Y550740D01*
X371688Y550676D01*
X371737Y550644D01*
X371780Y550604D01*
X371855Y550565D01*
X371925Y550518D01*
X371981Y550501D01*
X372033Y550474D01*
X372101Y550463D01*
X372196Y550433D01*
X372296Y550430D01*
X372364Y550419D01*
X388078Y550419D01*
X388165Y550431D01*
X388252Y550434D01*
X388305Y550451D01*
X388360Y550459D01*
X388439Y550494D01*
X388523Y550521D01*
X388562Y550549D01*
X388619Y550575D01*
X388732Y550671D01*
X388796Y550716D01*
X389887Y551807D01*
X392361Y552832D01*
X395039Y552832D01*
X397513Y551807D01*
X399407Y549913D01*
X400432Y547439D01*
X400432Y544761D01*
X399407Y542287D01*
X397513Y540393D01*
X395039Y539368D01*
X392361Y539368D01*
X389887Y540393D01*
X388796Y541484D01*
X388726Y541536D01*
X388662Y541596D01*
X388613Y541622D01*
X388569Y541655D01*
X388487Y541686D01*
X388409Y541726D01*
X388362Y541734D01*
X388303Y541756D01*
X388155Y541768D01*
X388078Y541781D01*
X370582Y541781D01*
X370496Y541769D01*
X370408Y541766D01*
X370355Y541749D01*
X370301Y541741D01*
X370221Y541706D01*
X370138Y541679D01*
X370098Y541651D01*
X370041Y541625D01*
X369928Y541529D01*
X369864Y541484D01*
X369266Y540885D01*
X369258Y540884D01*
X369200Y540886D01*
X369118Y540864D01*
X369034Y540852D01*
X368981Y540829D01*
X368925Y540814D01*
X368852Y540771D01*
X368775Y540736D01*
X368730Y540698D01*
X368680Y540669D01*
X368622Y540607D01*
X368558Y540553D01*
X368526Y540504D01*
X368486Y540461D01*
X368447Y540386D01*
X368400Y540316D01*
X368383Y540260D01*
X368356Y540208D01*
X368345Y540140D01*
X368315Y540045D01*
X368312Y539945D01*
X368301Y539877D01*
X368301Y262323D01*
X368313Y262237D01*
X368316Y262149D01*
X368333Y262097D01*
X368341Y262042D01*
X368376Y261962D01*
X368403Y261879D01*
X368431Y261840D01*
X368457Y261783D01*
X368553Y261669D01*
X368598Y261606D01*
X450894Y179310D01*
X450918Y179292D01*
X450937Y179269D01*
X451031Y179207D01*
X451121Y179139D01*
X451149Y179128D01*
X451173Y179112D01*
X451281Y179078D01*
X451387Y179037D01*
X451416Y179035D01*
X451444Y179026D01*
X451558Y179023D01*
X451670Y179014D01*
X451699Y179020D01*
X451728Y179019D01*
X451838Y179047D01*
X451949Y179070D01*
X451975Y179083D01*
X452003Y179091D01*
X452101Y179148D01*
X452201Y179201D01*
X452223Y179221D01*
X452248Y179236D01*
X452325Y179318D01*
X452407Y179396D01*
X452422Y179422D01*
X452442Y179443D01*
X452494Y179544D01*
X452551Y179642D01*
X452558Y179670D01*
X452572Y179696D01*
X452585Y179774D01*
X452621Y179917D01*
X452619Y179980D01*
X452627Y180027D01*
X452627Y201166D01*
X452621Y201209D01*
X452624Y201252D01*
X452601Y201349D01*
X452587Y201448D01*
X452570Y201487D01*
X452560Y201529D01*
X452521Y201595D01*
X452478Y201692D01*
X452623Y203356D01*
X452621Y203405D01*
X452627Y203444D01*
X452627Y204242D01*
X452614Y204338D01*
X452609Y204435D01*
X452595Y204473D01*
X452587Y204524D01*
X452517Y204681D01*
X452491Y204750D01*
X452486Y204759D01*
X452593Y205158D01*
X452601Y205230D01*
X452627Y205286D01*
X452849Y206117D01*
X452862Y206222D01*
X452880Y206291D01*
X452991Y207563D01*
X452989Y207616D01*
X452995Y207668D01*
X452985Y207724D01*
X452998Y207739D01*
X453038Y207822D01*
X453075Y207876D01*
X453615Y209033D01*
X453646Y209134D01*
X453676Y209200D01*
X454006Y210433D01*
X454012Y210485D01*
X454028Y210536D01*
X454028Y210593D01*
X454043Y210605D01*
X454097Y210680D01*
X454143Y210726D01*
X454875Y211772D01*
X454923Y211867D01*
X454964Y211926D01*
X455503Y213083D01*
X455519Y213134D01*
X455543Y213181D01*
X455552Y213237D01*
X455569Y213246D01*
X455636Y213310D01*
X455689Y213348D01*
X456592Y214251D01*
X456656Y214336D01*
X456671Y214351D01*
X456675Y214354D01*
X456676Y214357D01*
X456706Y214387D01*
X457438Y215433D01*
X457462Y215480D01*
X457494Y215522D01*
X457513Y215576D01*
X457532Y215582D01*
X457608Y215634D01*
X457667Y215662D01*
X458713Y216394D01*
X458791Y216466D01*
X458849Y216508D01*
X459752Y217411D01*
X459784Y217453D01*
X459823Y217489D01*
X459850Y217539D01*
X459870Y217541D01*
X459954Y217579D01*
X460017Y217597D01*
X461174Y218136D01*
X461263Y218194D01*
X461328Y218225D01*
X462374Y218957D01*
X462412Y218993D01*
X462457Y219022D01*
X462493Y219066D01*
X462512Y219065D01*
X462602Y219088D01*
X462667Y219094D01*
X463900Y219424D01*
X463998Y219466D01*
X464067Y219485D01*
X465224Y220025D01*
X465269Y220054D01*
X465317Y220074D01*
X465361Y220111D01*
X465380Y220107D01*
X465422Y220110D01*
X465444Y220106D01*
X465467Y220106D01*
X465502Y220111D01*
X465537Y220109D01*
X466809Y220220D01*
X466912Y220244D01*
X466983Y220251D01*
X467814Y220473D01*
X467880Y220501D01*
X467885Y220502D01*
X467942Y220507D01*
X468341Y220614D01*
X468350Y220609D01*
X468440Y220572D01*
X468527Y220528D01*
X468566Y220522D01*
X468614Y220502D01*
X468785Y220485D01*
X468858Y220473D01*
X469656Y220473D01*
X469705Y220480D01*
X469744Y220477D01*
X471417Y220623D01*
X471438Y220612D01*
X471522Y220560D01*
X471564Y220548D01*
X471603Y220528D01*
X471678Y220516D01*
X471796Y220482D01*
X471876Y220482D01*
X471934Y220473D01*
X607566Y220473D01*
X607609Y220479D01*
X607652Y220476D01*
X607749Y220499D01*
X607848Y220513D01*
X607887Y220530D01*
X607929Y220540D01*
X607995Y220579D01*
X608092Y220622D01*
X609756Y220477D01*
X609805Y220479D01*
X609844Y220473D01*
X610642Y220473D01*
X610738Y220486D01*
X610835Y220491D01*
X610873Y220505D01*
X610924Y220513D01*
X611081Y220583D01*
X611150Y220609D01*
X611159Y220614D01*
X611558Y220507D01*
X611630Y220499D01*
X611686Y220473D01*
X612517Y220251D01*
X612622Y220238D01*
X612691Y220220D01*
X613963Y220109D01*
X614006Y220111D01*
X614033Y220106D01*
X614056Y220106D01*
X614068Y220105D01*
X614124Y220115D01*
X614139Y220102D01*
X614222Y220062D01*
X614276Y220025D01*
X615433Y219485D01*
X615534Y219454D01*
X615600Y219424D01*
X616833Y219094D01*
X616885Y219088D01*
X616936Y219072D01*
X616993Y219072D01*
X617005Y219057D01*
X617080Y219003D01*
X617126Y218957D01*
X618172Y218225D01*
X618267Y218177D01*
X618326Y218136D01*
X619483Y217597D01*
X619534Y217581D01*
X619581Y217557D01*
X619637Y217548D01*
X619646Y217531D01*
X619710Y217464D01*
X619748Y217411D01*
X620651Y216508D01*
X620736Y216444D01*
X620787Y216394D01*
X621833Y215662D01*
X621880Y215638D01*
X621922Y215606D01*
X621976Y215587D01*
X621982Y215568D01*
X622034Y215492D01*
X622062Y215433D01*
X622794Y214387D01*
X622866Y214309D01*
X622908Y214251D01*
X623811Y213348D01*
X623853Y213316D01*
X623889Y213277D01*
X623939Y213250D01*
X623941Y213230D01*
X623979Y213146D01*
X623997Y213083D01*
X624536Y211926D01*
X624594Y211837D01*
X624625Y211772D01*
X625357Y210726D01*
X625393Y210688D01*
X625422Y210643D01*
X625466Y210607D01*
X625465Y210588D01*
X625488Y210498D01*
X625494Y210433D01*
X625824Y209200D01*
X625866Y209102D01*
X625885Y209033D01*
X626425Y207876D01*
X626454Y207831D01*
X626474Y207783D01*
X626511Y207739D01*
X626507Y207720D01*
X626514Y207628D01*
X626509Y207563D01*
X626620Y206291D01*
X626644Y206188D01*
X626650Y206117D01*
X626873Y205286D01*
X626901Y205220D01*
X626902Y205215D01*
X626907Y205158D01*
X627014Y204759D01*
X627009Y204750D01*
X626972Y204660D01*
X626928Y204573D01*
X626922Y204534D01*
X626902Y204486D01*
X626885Y204315D01*
X626873Y204242D01*
X626873Y203444D01*
X626880Y203395D01*
X626877Y203356D01*
X627023Y201683D01*
X627012Y201662D01*
X626960Y201578D01*
X626948Y201536D01*
X626928Y201497D01*
X626916Y201422D01*
X626882Y201304D01*
X626882Y201224D01*
X626873Y201166D01*
X626873Y103634D01*
X626879Y103591D01*
X626876Y103548D01*
X626899Y103451D01*
X626913Y103352D01*
X626930Y103313D01*
X626940Y103271D01*
X626979Y103205D01*
X627022Y103108D01*
X626877Y101444D01*
X626879Y101395D01*
X626873Y101356D01*
X626873Y100558D01*
X626886Y100462D01*
X626891Y100365D01*
X626905Y100327D01*
X626913Y100276D01*
X626983Y100119D01*
X627009Y100050D01*
X627014Y100041D01*
X626907Y99642D01*
X626899Y99570D01*
X626873Y99514D01*
X626650Y98683D01*
X626638Y98578D01*
X626620Y98509D01*
X626509Y97237D01*
X626511Y97184D01*
X626505Y97132D01*
X626515Y97076D01*
X626502Y97061D01*
X626462Y96978D01*
X626425Y96924D01*
X625885Y95767D01*
X625854Y95666D01*
X625824Y95600D01*
X625494Y94367D01*
X625488Y94315D01*
X625472Y94264D01*
X625472Y94207D01*
X625457Y94195D01*
X625403Y94120D01*
X625357Y94074D01*
X624625Y93028D01*
X624577Y92933D01*
X624536Y92874D01*
X623997Y91717D01*
X623981Y91666D01*
X623957Y91619D01*
X623948Y91563D01*
X623931Y91554D01*
X623864Y91490D01*
X623811Y91452D01*
X622908Y90549D01*
X622844Y90464D01*
X622794Y90413D01*
X622062Y89367D01*
X622038Y89320D01*
X622006Y89278D01*
X621987Y89224D01*
X621968Y89218D01*
X621892Y89166D01*
X621832Y89138D01*
X620787Y88406D01*
X620709Y88334D01*
X620651Y88292D01*
X619748Y87389D01*
X619716Y87347D01*
X619677Y87311D01*
X619650Y87261D01*
X619630Y87259D01*
X619546Y87221D01*
X619483Y87203D01*
X618326Y86664D01*
X618237Y86606D01*
X618172Y86575D01*
X617126Y85843D01*
X617088Y85807D01*
X617043Y85778D01*
X617007Y85734D01*
X616988Y85735D01*
X616898Y85712D01*
X616833Y85706D01*
X615600Y85376D01*
X615502Y85334D01*
X615433Y85315D01*
X614276Y84775D01*
X614231Y84746D01*
X614183Y84726D01*
X614139Y84689D01*
X614120Y84693D01*
X614028Y84686D01*
X613963Y84691D01*
X612691Y84580D01*
X612588Y84556D01*
X612517Y84549D01*
X611686Y84327D01*
X611620Y84299D01*
X611615Y84298D01*
X611558Y84293D01*
X611159Y84186D01*
X611150Y84191D01*
X611060Y84228D01*
X610973Y84272D01*
X610934Y84278D01*
X610886Y84298D01*
X610715Y84315D01*
X610642Y84327D01*
X609844Y84327D01*
X609795Y84320D01*
X609756Y84323D01*
X608083Y84177D01*
X608062Y84188D01*
X607978Y84240D01*
X607936Y84252D01*
X607897Y84272D01*
X607822Y84284D01*
X607704Y84318D01*
X607624Y84318D01*
X607566Y84327D01*
X471934Y84327D01*
X471891Y84321D01*
X471848Y84324D01*
X471751Y84301D01*
X471652Y84287D01*
X471613Y84270D01*
X471571Y84260D01*
X471505Y84221D01*
X471408Y84178D01*
X469744Y84323D01*
X469695Y84321D01*
X469656Y84327D01*
X468858Y84327D01*
X468762Y84314D01*
X468665Y84309D01*
X468627Y84295D01*
X468576Y84287D01*
X468419Y84217D01*
X468350Y84191D01*
X468341Y84186D01*
X467942Y84293D01*
X467870Y84301D01*
X467814Y84327D01*
X466983Y84549D01*
X466878Y84562D01*
X466809Y84580D01*
X465537Y84691D01*
X465484Y84689D01*
X465432Y84695D01*
X465376Y84685D01*
X465361Y84698D01*
X465278Y84738D01*
X465224Y84775D01*
X464067Y85315D01*
X463966Y85346D01*
X463900Y85376D01*
X462667Y85706D01*
X462615Y85712D01*
X462564Y85728D01*
X462507Y85728D01*
X462495Y85743D01*
X462420Y85797D01*
X462374Y85843D01*
X461328Y86575D01*
X461233Y86623D01*
X461174Y86664D01*
X460017Y87203D01*
X459966Y87219D01*
X459919Y87243D01*
X459863Y87252D01*
X459854Y87269D01*
X459790Y87336D01*
X459752Y87389D01*
X458849Y88292D01*
X458764Y88356D01*
X458713Y88406D01*
X457667Y89138D01*
X457620Y89162D01*
X457578Y89194D01*
X457524Y89213D01*
X457518Y89232D01*
X457466Y89308D01*
X457438Y89367D01*
X456706Y90413D01*
X456634Y90491D01*
X456592Y90549D01*
X455689Y91452D01*
X455647Y91484D01*
X455611Y91523D01*
X455561Y91550D01*
X455559Y91570D01*
X455521Y91654D01*
X455503Y91717D01*
X454964Y92874D01*
X454906Y92963D01*
X454875Y93028D01*
X454143Y94074D01*
X454107Y94112D01*
X454078Y94157D01*
X454034Y94193D01*
X454035Y94212D01*
X454012Y94302D01*
X454006Y94367D01*
X453676Y95600D01*
X453634Y95698D01*
X453615Y95767D01*
X453075Y96924D01*
X453046Y96969D01*
X453026Y97017D01*
X452989Y97061D01*
X452993Y97080D01*
X452986Y97172D01*
X452991Y97237D01*
X452880Y98509D01*
X452856Y98612D01*
X452849Y98683D01*
X452627Y99514D01*
X452599Y99580D01*
X452598Y99585D01*
X452593Y99642D01*
X452486Y100041D01*
X452491Y100050D01*
X452528Y100140D01*
X452572Y100227D01*
X452578Y100266D01*
X452598Y100314D01*
X452615Y100485D01*
X452627Y100558D01*
X452627Y101356D01*
X452620Y101405D01*
X452623Y101444D01*
X452477Y103117D01*
X452488Y103138D01*
X452540Y103222D01*
X452552Y103264D01*
X452572Y103303D01*
X452584Y103378D01*
X452618Y103496D01*
X452618Y103576D01*
X452627Y103634D01*
X452627Y161349D01*
X452615Y161435D01*
X452612Y161523D01*
X452595Y161575D01*
X452587Y161630D01*
X452552Y161710D01*
X452525Y161793D01*
X452497Y161832D01*
X452471Y161889D01*
X452375Y162003D01*
X452330Y162066D01*
X357974Y256422D01*
X357123Y258476D01*
X357123Y539877D01*
X357115Y539935D01*
X357117Y539993D01*
X357095Y540075D01*
X357083Y540159D01*
X357060Y540212D01*
X357045Y540268D01*
X357002Y540341D01*
X356967Y540418D01*
X356929Y540463D01*
X356900Y540513D01*
X356838Y540571D01*
X356784Y540635D01*
X356735Y540667D01*
X356692Y540707D01*
X356617Y540746D01*
X356547Y540793D01*
X356491Y540810D01*
X356439Y540837D01*
X356371Y540848D01*
X356276Y540878D01*
X356176Y540881D01*
X356108Y540892D01*
X354627Y540892D01*
X352551Y542968D01*
X352551Y547556D01*
X352547Y547585D01*
X352550Y547614D01*
X352527Y547725D01*
X352511Y547837D01*
X352499Y547864D01*
X352494Y547893D01*
X352442Y547993D01*
X352395Y548097D01*
X352376Y548119D01*
X352363Y548145D01*
X352285Y548227D01*
X352212Y548314D01*
X352187Y548330D01*
X352167Y548351D01*
X352069Y548408D01*
X351975Y548471D01*
X351947Y548480D01*
X351922Y548495D01*
X351812Y548523D01*
X351704Y548557D01*
X351674Y548558D01*
X351646Y548565D01*
X351533Y548561D01*
X351420Y548564D01*
X351391Y548557D01*
X351362Y548556D01*
X351254Y548521D01*
X351145Y548492D01*
X351119Y548477D01*
X351091Y548468D01*
X351028Y548423D01*
X350900Y548347D01*
X350857Y548301D01*
X350818Y548273D01*
X346246Y543701D01*
X346194Y543632D01*
X346134Y543568D01*
X346108Y543518D01*
X346075Y543474D01*
X346044Y543393D01*
X346004Y543315D01*
X345996Y543267D01*
X345974Y543209D01*
X345968Y543142D01*
X345963Y543124D01*
X345961Y543057D01*
X345949Y542984D01*
X345949Y542968D01*
X343873Y540892D01*
X343408Y540892D01*
X343350Y540884D01*
X343292Y540886D01*
X343210Y540864D01*
X343126Y540852D01*
X343073Y540829D01*
X343017Y540814D01*
X342944Y540771D01*
X342867Y540736D01*
X342822Y540698D01*
X342772Y540669D01*
X342714Y540607D01*
X342650Y540553D01*
X342618Y540504D01*
X342578Y540461D01*
X342539Y540386D01*
X342492Y540316D01*
X342475Y540260D01*
X342448Y540208D01*
X342437Y540140D01*
X342407Y540045D01*
X342404Y539945D01*
X342393Y539877D01*
X342393Y221488D01*
X342401Y221430D01*
X342399Y221372D01*
X342421Y221290D01*
X342433Y221206D01*
X342456Y221153D01*
X342471Y221097D01*
X342514Y221024D01*
X342549Y220947D01*
X342587Y220902D01*
X342616Y220852D01*
X342678Y220794D01*
X342732Y220730D01*
X342781Y220698D01*
X342824Y220658D01*
X342899Y220619D01*
X342969Y220572D01*
X343025Y220555D01*
X343077Y220528D01*
X343145Y220517D01*
X343240Y220487D01*
X343340Y220484D01*
X343408Y220473D01*
X343942Y220473D01*
X344038Y220486D01*
X344135Y220491D01*
X344173Y220505D01*
X344224Y220513D01*
X344381Y220583D01*
X344450Y220609D01*
X344459Y220614D01*
X344858Y220507D01*
X344930Y220499D01*
X344986Y220473D01*
X345817Y220251D01*
X345922Y220238D01*
X345991Y220220D01*
X347263Y220109D01*
X347306Y220111D01*
X347333Y220106D01*
X347356Y220106D01*
X347368Y220105D01*
X347424Y220115D01*
X347439Y220102D01*
X347522Y220062D01*
X347576Y220025D01*
X348733Y219485D01*
X348834Y219454D01*
X348900Y219424D01*
X350133Y219094D01*
X350185Y219088D01*
X350236Y219072D01*
X350293Y219072D01*
X350305Y219057D01*
X350380Y219003D01*
X350426Y218957D01*
X351472Y218225D01*
X351567Y218177D01*
X351626Y218136D01*
X352783Y217597D01*
X352834Y217581D01*
X352881Y217557D01*
X352937Y217548D01*
X352946Y217531D01*
X353010Y217464D01*
X353048Y217411D01*
X353951Y216508D01*
X354036Y216444D01*
X354087Y216394D01*
X355133Y215662D01*
X355180Y215638D01*
X355222Y215606D01*
X355276Y215587D01*
X355282Y215568D01*
X355334Y215492D01*
X355362Y215433D01*
X356094Y214387D01*
X356166Y214309D01*
X356208Y214251D01*
X357111Y213348D01*
X357153Y213316D01*
X357189Y213277D01*
X357239Y213250D01*
X357241Y213230D01*
X357279Y213146D01*
X357297Y213083D01*
X357836Y211926D01*
X357894Y211837D01*
X357925Y211772D01*
X358657Y210726D01*
X358693Y210688D01*
X358722Y210643D01*
X358766Y210607D01*
X358765Y210588D01*
X358788Y210498D01*
X358794Y210433D01*
X359124Y209200D01*
X359166Y209102D01*
X359185Y209033D01*
X359725Y207876D01*
X359754Y207831D01*
X359774Y207783D01*
X359811Y207739D01*
X359807Y207720D01*
X359814Y207628D01*
X359809Y207563D01*
X359920Y206291D01*
X359944Y206188D01*
X359951Y206117D01*
X360173Y205286D01*
X360201Y205220D01*
X360202Y205215D01*
X360207Y205158D01*
X360314Y204759D01*
X360309Y204750D01*
X360272Y204660D01*
X360228Y204573D01*
X360222Y204534D01*
X360202Y204486D01*
X360185Y204315D01*
X360173Y204242D01*
X360173Y203444D01*
X360180Y203395D01*
X360177Y203356D01*
X360323Y201683D01*
X360312Y201662D01*
X360260Y201578D01*
X360248Y201536D01*
X360228Y201497D01*
X360216Y201422D01*
X360182Y201304D01*
X360182Y201224D01*
X360173Y201166D01*
X360173Y103634D01*
X360179Y103591D01*
X360176Y103548D01*
X360199Y103451D01*
X360213Y103352D01*
X360230Y103313D01*
X360240Y103271D01*
X360279Y103205D01*
X360322Y103108D01*
X360177Y101444D01*
X360179Y101395D01*
X360173Y101356D01*
X360173Y100558D01*
X360186Y100462D01*
X360191Y100365D01*
X360205Y100327D01*
X360213Y100276D01*
X360283Y100119D01*
X360309Y100050D01*
X360314Y100041D01*
X360207Y99642D01*
X360199Y99570D01*
X360173Y99514D01*
X359951Y98683D01*
X359938Y98578D01*
X359920Y98509D01*
X359809Y97237D01*
X359811Y97184D01*
X359805Y97132D01*
X359815Y97076D01*
X359802Y97061D01*
X359762Y96978D01*
X359725Y96924D01*
X359185Y95767D01*
X359154Y95666D01*
X359124Y95600D01*
X358794Y94367D01*
X358788Y94315D01*
X358772Y94264D01*
X358772Y94207D01*
X358757Y94195D01*
X358703Y94120D01*
X358657Y94074D01*
X357925Y93028D01*
X357877Y92933D01*
X357836Y92874D01*
X357297Y91717D01*
X357281Y91666D01*
X357257Y91619D01*
X357248Y91563D01*
X357231Y91554D01*
X357164Y91490D01*
X357111Y91452D01*
X356208Y90549D01*
X356144Y90464D01*
X356094Y90413D01*
X355362Y89367D01*
X355338Y89320D01*
X355306Y89278D01*
X355287Y89224D01*
X355268Y89218D01*
X355192Y89166D01*
X355133Y89138D01*
X354087Y88406D01*
X354009Y88334D01*
X353951Y88292D01*
X353048Y87389D01*
X353016Y87347D01*
X352977Y87311D01*
X352950Y87261D01*
X352930Y87259D01*
X352846Y87221D01*
X352783Y87203D01*
X351626Y86664D01*
X351537Y86606D01*
X351472Y86575D01*
X350426Y85843D01*
X350388Y85807D01*
X350343Y85778D01*
X350307Y85734D01*
X350288Y85735D01*
X350198Y85712D01*
X350133Y85706D01*
X348900Y85376D01*
X348802Y85334D01*
X348733Y85315D01*
X347576Y84775D01*
X347531Y84746D01*
X347483Y84726D01*
X347439Y84689D01*
X347420Y84693D01*
X347328Y84686D01*
X347263Y84691D01*
X345991Y84580D01*
X345888Y84556D01*
X345817Y84550D01*
X344986Y84327D01*
X344920Y84299D01*
X344915Y84298D01*
X344858Y84293D01*
X344459Y84186D01*
X344450Y84191D01*
X344360Y84228D01*
X344273Y84272D01*
X344234Y84278D01*
X344186Y84298D01*
X344015Y84315D01*
X343942Y84327D01*
X343144Y84327D01*
X343095Y84320D01*
X343056Y84323D01*
X341383Y84177D01*
X341362Y84188D01*
X341278Y84240D01*
X341236Y84252D01*
X341197Y84272D01*
X341122Y84284D01*
X341004Y84318D01*
X340924Y84318D01*
X340866Y84327D01*
X205234Y84327D01*
X205191Y84321D01*
X205148Y84324D01*
X205051Y84301D01*
X204952Y84287D01*
X204913Y84270D01*
X204871Y84260D01*
X204805Y84221D01*
X204708Y84178D01*
X203044Y84323D01*
X202995Y84321D01*
X202956Y84327D01*
X202158Y84327D01*
X202062Y84314D01*
X201965Y84309D01*
X201927Y84295D01*
X201876Y84287D01*
X201719Y84217D01*
X201650Y84191D01*
X201641Y84186D01*
X201242Y84293D01*
X201170Y84301D01*
X201114Y84327D01*
X200283Y84549D01*
X200178Y84562D01*
X200109Y84580D01*
X198837Y84691D01*
X198784Y84689D01*
X198732Y84695D01*
X198676Y84685D01*
X198661Y84698D01*
X198578Y84738D01*
X198524Y84775D01*
X197367Y85315D01*
X197266Y85346D01*
X197200Y85376D01*
X195967Y85706D01*
X195915Y85712D01*
X195864Y85728D01*
X195807Y85728D01*
X195795Y85743D01*
X195720Y85797D01*
X195674Y85843D01*
X194628Y86575D01*
X194533Y86623D01*
X194474Y86664D01*
X193317Y87203D01*
X193266Y87219D01*
X193219Y87243D01*
X193163Y87252D01*
X193154Y87269D01*
X193090Y87336D01*
X193052Y87389D01*
X192149Y88292D01*
X192064Y88356D01*
X192013Y88406D01*
X190967Y89138D01*
X190920Y89162D01*
X190878Y89194D01*
X190824Y89213D01*
X190818Y89232D01*
X190766Y89308D01*
X190738Y89367D01*
X190006Y90413D01*
X189934Y90491D01*
X189892Y90549D01*
X188989Y91452D01*
X188947Y91484D01*
X188911Y91523D01*
X188861Y91550D01*
X188859Y91570D01*
X188821Y91654D01*
X188803Y91717D01*
X188264Y92874D01*
X188206Y92963D01*
X188175Y93028D01*
X187443Y94074D01*
X187407Y94112D01*
X187378Y94157D01*
X187334Y94193D01*
X187335Y94212D01*
X187312Y94302D01*
X187306Y94367D01*
X186976Y95600D01*
X186934Y95698D01*
X186915Y95767D01*
X186375Y96924D01*
X186346Y96969D01*
X186326Y97017D01*
X186289Y97061D01*
X186293Y97080D01*
X186286Y97172D01*
X186291Y97237D01*
X186180Y98509D01*
X186156Y98612D01*
X186150Y98683D01*
X185927Y99514D01*
X185899Y99580D01*
X185898Y99585D01*
X185893Y99642D01*
X185786Y100041D01*
X185791Y100050D01*
X185828Y100140D01*
X185872Y100227D01*
X185878Y100266D01*
X185898Y100314D01*
X185915Y100485D01*
X185927Y100558D01*
X185927Y101356D01*
X185920Y101405D01*
X185923Y101444D01*
X185777Y103117D01*
X185788Y103138D01*
X185840Y103222D01*
X185852Y103264D01*
X185872Y103303D01*
X185884Y103378D01*
X185918Y103496D01*
X185918Y103576D01*
X185927Y103634D01*
X185927Y201166D01*
X185921Y201209D01*
X185924Y201252D01*
X185901Y201349D01*
X185887Y201448D01*
X185870Y201487D01*
X185860Y201529D01*
X185821Y201595D01*
X185778Y201692D01*
X185923Y203356D01*
X185921Y203405D01*
X185927Y203444D01*
X185927Y204242D01*
X185914Y204338D01*
X185909Y204435D01*
X185895Y204473D01*
X185887Y204524D01*
X185817Y204681D01*
X185791Y204750D01*
X185786Y204759D01*
X185893Y205158D01*
X185901Y205230D01*
X185927Y205286D01*
X186150Y206117D01*
X186162Y206222D01*
X186180Y206291D01*
X186291Y207563D01*
X186289Y207616D01*
X186295Y207668D01*
X186285Y207724D01*
X186298Y207738D01*
X186338Y207822D01*
X186375Y207876D01*
X186915Y209033D01*
X186946Y209134D01*
X186976Y209200D01*
X187306Y210433D01*
X187312Y210485D01*
X187328Y210536D01*
X187328Y210593D01*
X187343Y210605D01*
X187397Y210680D01*
X187443Y210726D01*
X188175Y211772D01*
X188223Y211867D01*
X188264Y211926D01*
X188803Y213083D01*
X188819Y213134D01*
X188843Y213181D01*
X188852Y213237D01*
X188869Y213246D01*
X188936Y213310D01*
X188989Y213348D01*
X189892Y214251D01*
X189956Y214336D01*
X189971Y214351D01*
X189975Y214354D01*
X189976Y214357D01*
X190006Y214387D01*
X190738Y215433D01*
X190762Y215480D01*
X190794Y215522D01*
X190813Y215576D01*
X190832Y215582D01*
X190908Y215634D01*
X190967Y215662D01*
X192013Y216394D01*
X192091Y216466D01*
X192149Y216508D01*
X193052Y217411D01*
X193084Y217453D01*
X193123Y217489D01*
X193150Y217539D01*
X193170Y217541D01*
X193254Y217579D01*
X193317Y217597D01*
X194474Y218136D01*
X194563Y218194D01*
X194628Y218225D01*
X195674Y218957D01*
X195712Y218993D01*
X195757Y219022D01*
X195793Y219066D01*
X195812Y219065D01*
X195902Y219088D01*
X195967Y219094D01*
X197200Y219424D01*
X197298Y219466D01*
X197367Y219485D01*
X198524Y220025D01*
X198569Y220054D01*
X198617Y220074D01*
X198661Y220111D01*
X198680Y220107D01*
X198722Y220110D01*
X198744Y220106D01*
X198767Y220106D01*
X198802Y220111D01*
X198837Y220109D01*
X200109Y220220D01*
X200212Y220244D01*
X200283Y220251D01*
X201114Y220473D01*
X201180Y220501D01*
X201185Y220502D01*
X201242Y220507D01*
X201641Y220614D01*
X201650Y220609D01*
X201740Y220572D01*
X201827Y220528D01*
X201866Y220522D01*
X201914Y220502D01*
X202085Y220485D01*
X202158Y220473D01*
X202956Y220473D01*
X203005Y220480D01*
X203044Y220477D01*
X204717Y220623D01*
X204738Y220612D01*
X204822Y220560D01*
X204864Y220548D01*
X204903Y220528D01*
X204978Y220516D01*
X205096Y220482D01*
X205176Y220482D01*
X205234Y220473D01*
X330200Y220473D01*
X330258Y220481D01*
X330316Y220479D01*
X330398Y220501D01*
X330482Y220513D01*
X330535Y220536D01*
X330591Y220551D01*
X330664Y220594D01*
X330741Y220629D01*
X330786Y220667D01*
X330836Y220696D01*
X330894Y220758D01*
X330958Y220812D01*
X330990Y220861D01*
X331030Y220904D01*
X331069Y220979D01*
X331116Y221049D01*
X331133Y221105D01*
X331160Y221157D01*
X331171Y221225D01*
X331201Y221320D01*
X331204Y221420D01*
X331215Y221488D01*
X331215Y539877D01*
X331207Y539935D01*
X331209Y539993D01*
X331187Y540075D01*
X331175Y540159D01*
X331152Y540212D01*
X331137Y540268D01*
X331094Y540341D01*
X331059Y540418D01*
X331021Y540463D01*
X330992Y540513D01*
X330930Y540571D01*
X330876Y540635D01*
X330827Y540667D01*
X330784Y540707D01*
X330709Y540746D01*
X330639Y540793D01*
X330583Y540810D01*
X330531Y540837D01*
X330463Y540848D01*
X330368Y540878D01*
X330268Y540881D01*
X330200Y540892D01*
X329227Y540892D01*
X327151Y542968D01*
X327151Y551518D01*
X327366Y551732D01*
X327401Y551779D01*
X327443Y551819D01*
X327486Y551892D01*
X327537Y551959D01*
X327557Y552014D01*
X327587Y552064D01*
X327608Y552146D01*
X327638Y552225D01*
X327643Y552283D01*
X327657Y552340D01*
X327654Y552424D01*
X327661Y552508D01*
X327650Y552566D01*
X327648Y552624D01*
X327622Y552704D01*
X327605Y552787D01*
X327579Y552839D01*
X327561Y552895D01*
X327521Y552951D01*
X327475Y553039D01*
X327406Y553112D01*
X327366Y553168D01*
X327151Y553382D01*
X327151Y561932D01*
X329227Y564008D01*
X330327Y564008D01*
X330385Y564016D01*
X330443Y564014D01*
X330525Y564036D01*
X330609Y564048D01*
X330662Y564071D01*
X330718Y564086D01*
X330791Y564129D01*
X330868Y564164D01*
X330913Y564202D01*
X330963Y564231D01*
X331021Y564293D01*
X331085Y564347D01*
X331117Y564396D01*
X331157Y564439D01*
X331196Y564514D01*
X331243Y564584D01*
X331260Y564640D01*
X331287Y564692D01*
X331298Y564760D01*
X331328Y564855D01*
X331331Y564955D01*
X331342Y565023D01*
X331342Y571216D01*
X331334Y571274D01*
X331336Y571332D01*
X331314Y571414D01*
X331302Y571498D01*
X331279Y571551D01*
X331264Y571607D01*
X331221Y571680D01*
X331186Y571757D01*
X331148Y571802D01*
X331119Y571852D01*
X331057Y571910D01*
X331003Y571974D01*
X330954Y572006D01*
X330911Y572046D01*
X330836Y572085D01*
X330766Y572132D01*
X330710Y572149D01*
X330658Y572176D01*
X330631Y572180D01*
X328501Y574310D01*
X328501Y587250D01*
X329813Y588562D01*
X329849Y588609D01*
X329891Y588649D01*
X329934Y588722D01*
X329984Y588789D01*
X330005Y588844D01*
X330035Y588894D01*
X330055Y588976D01*
X330086Y589055D01*
X330090Y589113D01*
X330105Y589170D01*
X330102Y589254D01*
X330109Y589338D01*
X330098Y589396D01*
X330096Y589454D01*
X330070Y589534D01*
X330053Y589617D01*
X330026Y589669D01*
X330008Y589725D01*
X329968Y589781D01*
X329922Y589869D01*
X329853Y589942D01*
X329813Y589998D01*
X328501Y591310D01*
X328501Y604250D01*
X329323Y605072D01*
X329359Y605119D01*
X329401Y605159D01*
X329444Y605232D01*
X329494Y605299D01*
X329515Y605354D01*
X329545Y605404D01*
X329565Y605486D01*
X329596Y605565D01*
X329600Y605623D01*
X329615Y605680D01*
X329612Y605764D01*
X329619Y605848D01*
X329608Y605906D01*
X329606Y605964D01*
X329580Y606044D01*
X329563Y606127D01*
X329536Y606179D01*
X329518Y606235D01*
X329478Y606291D01*
X329432Y606379D01*
X329364Y606452D01*
X329323Y606508D01*
X328501Y607330D01*
X328501Y620270D01*
X329813Y621582D01*
X329849Y621629D01*
X329891Y621669D01*
X329934Y621742D01*
X329984Y621809D01*
X330005Y621864D01*
X330035Y621914D01*
X330055Y621996D01*
X330086Y622075D01*
X330090Y622133D01*
X330105Y622190D01*
X330102Y622274D01*
X330109Y622358D01*
X330098Y622416D01*
X330096Y622474D01*
X330070Y622554D01*
X330053Y622637D01*
X330026Y622689D01*
X330008Y622745D01*
X329968Y622801D01*
X329922Y622889D01*
X329853Y622962D01*
X329813Y623018D01*
X328501Y624330D01*
X328501Y631631D01*
X328497Y631661D01*
X328500Y631690D01*
X328477Y631801D01*
X328461Y631913D01*
X328449Y631940D01*
X328444Y631968D01*
X328392Y632069D01*
X328345Y632172D01*
X328326Y632195D01*
X328313Y632221D01*
X328235Y632303D01*
X328162Y632389D01*
X328137Y632406D01*
X328117Y632427D01*
X328019Y632484D01*
X327925Y632547D01*
X327897Y632556D01*
X327872Y632571D01*
X327762Y632598D01*
X327654Y632633D01*
X327624Y632633D01*
X327596Y632641D01*
X327483Y632637D01*
X327370Y632640D01*
X327341Y632633D01*
X327312Y632632D01*
X327204Y632597D01*
X327095Y632568D01*
X327069Y632553D01*
X327041Y632544D01*
X326978Y632499D01*
X326850Y632423D01*
X326807Y632377D01*
X326768Y632349D01*
X313146Y618727D01*
X313094Y618658D01*
X313034Y618594D01*
X313008Y618544D01*
X312975Y618500D01*
X312944Y618418D01*
X312904Y618340D01*
X312896Y618293D01*
X312874Y618234D01*
X312862Y618087D01*
X312849Y618009D01*
X312849Y607330D01*
X310770Y605251D01*
X309880Y605251D01*
X309822Y605243D01*
X309764Y605245D01*
X309682Y605223D01*
X309598Y605211D01*
X309545Y605188D01*
X309489Y605173D01*
X309416Y605130D01*
X309339Y605095D01*
X309294Y605057D01*
X309244Y605028D01*
X309186Y604966D01*
X309122Y604912D01*
X309090Y604863D01*
X309050Y604820D01*
X309011Y604745D01*
X308964Y604675D01*
X308947Y604619D01*
X308920Y604567D01*
X308909Y604499D01*
X308879Y604404D01*
X308876Y604304D01*
X308865Y604236D01*
X308865Y602914D01*
X308873Y602856D01*
X308871Y602798D01*
X308893Y602716D01*
X308905Y602632D01*
X308928Y602579D01*
X308943Y602523D01*
X308986Y602450D01*
X309021Y602373D01*
X309059Y602328D01*
X309088Y602278D01*
X309150Y602220D01*
X309204Y602156D01*
X309253Y602124D01*
X309296Y602084D01*
X309371Y602045D01*
X309441Y601998D01*
X309497Y601981D01*
X309549Y601954D01*
X309617Y601943D01*
X309712Y601913D01*
X309812Y601910D01*
X309880Y601899D01*
X309918Y601899D01*
X311999Y599818D01*
X311999Y591582D01*
X309918Y589501D01*
X299682Y589501D01*
X297601Y591582D01*
X297601Y599818D01*
X299682Y601899D01*
X299974Y601899D01*
X300032Y601907D01*
X300090Y601905D01*
X300172Y601927D01*
X300256Y601939D01*
X300309Y601962D01*
X300365Y601977D01*
X300438Y602020D01*
X300515Y602055D01*
X300560Y602093D01*
X300610Y602122D01*
X300668Y602184D01*
X300732Y602238D01*
X300764Y602287D01*
X300804Y602330D01*
X300843Y602405D01*
X300890Y602475D01*
X300907Y602531D01*
X300934Y602583D01*
X300945Y602651D01*
X300975Y602746D01*
X300978Y602846D01*
X300989Y602914D01*
X300989Y604236D01*
X300981Y604294D01*
X300983Y604352D01*
X300961Y604434D01*
X300949Y604518D01*
X300926Y604571D01*
X300911Y604627D01*
X300868Y604700D01*
X300833Y604777D01*
X300795Y604822D01*
X300766Y604872D01*
X300704Y604930D01*
X300650Y604994D01*
X300601Y605026D01*
X300558Y605066D01*
X300483Y605105D01*
X300413Y605152D01*
X300357Y605169D01*
X300305Y605196D01*
X300237Y605207D01*
X300142Y605237D01*
X300042Y605240D01*
X299974Y605251D01*
X298830Y605251D01*
X296751Y607330D01*
X296751Y620270D01*
X298063Y621582D01*
X298099Y621629D01*
X298141Y621669D01*
X298184Y621742D01*
X298234Y621809D01*
X298255Y621864D01*
X298285Y621914D01*
X298305Y621996D01*
X298336Y622075D01*
X298340Y622133D01*
X298355Y622190D01*
X298352Y622274D01*
X298359Y622358D01*
X298348Y622416D01*
X298346Y622474D01*
X298320Y622554D01*
X298303Y622637D01*
X298276Y622689D01*
X298258Y622745D01*
X298218Y622801D01*
X298172Y622889D01*
X298103Y622962D01*
X298063Y623018D01*
X296751Y624330D01*
X296751Y637270D01*
X299041Y639560D01*
X299093Y639629D01*
X299153Y639693D01*
X299179Y639743D01*
X299212Y639787D01*
X299243Y639868D01*
X299283Y639946D01*
X299291Y639994D01*
X299313Y640052D01*
X299325Y640200D01*
X299338Y640277D01*
X299338Y776320D01*
X300189Y778374D01*
X333765Y811950D01*
X335819Y812801D01*
X380715Y812801D01*
X382769Y811950D01*
X389223Y805496D01*
X389224Y805495D01*
X389225Y805494D01*
X389343Y805405D01*
X389450Y805325D01*
X389451Y805325D01*
X389452Y805324D01*
X389586Y805273D01*
X389715Y805224D01*
X389717Y805224D01*
X389718Y805223D01*
X389858Y805212D01*
X389999Y805200D01*
X390000Y805201D01*
X390002Y805201D01*
X390016Y805204D01*
X390277Y805256D01*
X390305Y805270D01*
X390329Y805276D01*
X391325Y805689D01*
X396075Y805689D01*
X400463Y803871D01*
X403821Y800513D01*
X405462Y796551D01*
X405477Y796526D01*
X405486Y796498D01*
X405549Y796404D01*
X405607Y796307D01*
X405628Y796286D01*
X405644Y796262D01*
X405731Y796189D01*
X405813Y796111D01*
X405839Y796098D01*
X405862Y796079D01*
X405965Y796033D01*
X406066Y795981D01*
X406095Y795975D01*
X406122Y795964D01*
X406234Y795948D01*
X406345Y795926D01*
X406374Y795929D01*
X406403Y795925D01*
X406515Y795941D01*
X406628Y795951D01*
X406655Y795961D01*
X406684Y795965D01*
X406788Y796012D01*
X406893Y796053D01*
X406917Y796070D01*
X406944Y796082D01*
X407030Y796156D01*
X407120Y796224D01*
X407138Y796248D01*
X407160Y796267D01*
X407202Y796333D01*
X407290Y796452D01*
X407312Y796510D01*
X407338Y796551D01*
X408979Y800513D01*
X412337Y803871D01*
X416725Y805689D01*
X421475Y805689D01*
X425863Y803871D01*
X429221Y800513D01*
X430862Y796551D01*
X430877Y796526D01*
X430886Y796498D01*
X430949Y796404D01*
X431007Y796307D01*
X431028Y796286D01*
X431044Y796262D01*
X431131Y796189D01*
X431213Y796111D01*
X431239Y796098D01*
X431262Y796079D01*
X431365Y796033D01*
X431466Y795981D01*
X431495Y795975D01*
X431522Y795964D01*
X431634Y795948D01*
X431745Y795926D01*
X431774Y795929D01*
X431803Y795925D01*
X431915Y795941D01*
X432028Y795951D01*
X432055Y795961D01*
X432084Y795965D01*
X432188Y796012D01*
X432293Y796053D01*
X432317Y796070D01*
X432344Y796082D01*
X432430Y796156D01*
X432520Y796224D01*
X432538Y796248D01*
X432560Y796267D01*
X432602Y796333D01*
X432690Y796452D01*
X432712Y796510D01*
X432738Y796551D01*
X434379Y800513D01*
X437737Y803871D01*
X442125Y805689D01*
X446875Y805689D01*
X451263Y803871D01*
X454621Y800513D01*
X456262Y796551D01*
X456277Y796526D01*
X456286Y796498D01*
X456349Y796404D01*
X456407Y796307D01*
X456428Y796286D01*
X456444Y796262D01*
X456531Y796189D01*
X456613Y796111D01*
X456639Y796098D01*
X456662Y796079D01*
X456765Y796033D01*
X456866Y795981D01*
X456895Y795975D01*
X456922Y795964D01*
X457034Y795948D01*
X457145Y795926D01*
X457174Y795929D01*
X457203Y795925D01*
X457315Y795941D01*
X457428Y795951D01*
X457455Y795961D01*
X457484Y795965D01*
X457588Y796012D01*
X457693Y796053D01*
X457717Y796070D01*
X457744Y796082D01*
X457830Y796156D01*
X457920Y796224D01*
X457938Y796248D01*
X457960Y796267D01*
X458002Y796333D01*
X458090Y796452D01*
X458112Y796510D01*
X458138Y796551D01*
X459779Y800513D01*
X463137Y803871D01*
X467525Y805689D01*
X472275Y805689D01*
X476663Y803871D01*
X480021Y800513D01*
X481662Y796551D01*
X481677Y796526D01*
X481686Y796498D01*
X481749Y796404D01*
X481807Y796307D01*
X481828Y796286D01*
X481844Y796262D01*
X481931Y796189D01*
X482013Y796111D01*
X482039Y796098D01*
X482062Y796079D01*
X482165Y796033D01*
X482266Y795981D01*
X482295Y795975D01*
X482322Y795964D01*
X482434Y795948D01*
X482545Y795926D01*
X482574Y795929D01*
X482603Y795925D01*
X482715Y795941D01*
X482828Y795951D01*
X482855Y795961D01*
X482884Y795965D01*
X482988Y796012D01*
X483093Y796053D01*
X483117Y796070D01*
X483144Y796082D01*
X483230Y796156D01*
X483320Y796224D01*
X483338Y796248D01*
X483360Y796267D01*
X483402Y796333D01*
X483490Y796452D01*
X483512Y796510D01*
X483538Y796551D01*
X485179Y800513D01*
X488537Y803871D01*
X492925Y805689D01*
X497675Y805689D01*
X502063Y803871D01*
X505421Y800513D01*
X507062Y796551D01*
X507077Y796526D01*
X507086Y796498D01*
X507149Y796404D01*
X507207Y796307D01*
X507228Y796286D01*
X507244Y796262D01*
X507331Y796189D01*
X507413Y796111D01*
X507439Y796098D01*
X507462Y796079D01*
X507565Y796033D01*
X507666Y795981D01*
X507695Y795975D01*
X507722Y795964D01*
X507834Y795948D01*
X507945Y795926D01*
X507974Y795929D01*
X508003Y795925D01*
X508115Y795941D01*
X508228Y795951D01*
X508255Y795961D01*
X508284Y795965D01*
X508388Y796012D01*
X508493Y796053D01*
X508517Y796070D01*
X508544Y796082D01*
X508630Y796156D01*
X508720Y796224D01*
X508738Y796248D01*
X508760Y796267D01*
X508802Y796333D01*
X508890Y796452D01*
X508912Y796510D01*
X508938Y796551D01*
X510579Y800513D01*
X513937Y803871D01*
X518325Y805689D01*
X523075Y805689D01*
X527463Y803871D01*
X530821Y800513D01*
X532462Y796551D01*
X532477Y796526D01*
X532486Y796498D01*
X532549Y796404D01*
X532607Y796307D01*
X532628Y796286D01*
X532644Y796262D01*
X532731Y796189D01*
X532813Y796111D01*
X532839Y796098D01*
X532862Y796079D01*
X532965Y796033D01*
X533066Y795981D01*
X533095Y795975D01*
X533122Y795964D01*
X533234Y795948D01*
X533345Y795926D01*
X533374Y795929D01*
X533403Y795925D01*
X533515Y795941D01*
X533628Y795951D01*
X533655Y795961D01*
X533684Y795965D01*
X533788Y796012D01*
X533893Y796053D01*
X533917Y796070D01*
X533944Y796082D01*
X534030Y796156D01*
X534120Y796224D01*
X534138Y796248D01*
X534160Y796267D01*
X534202Y796333D01*
X534290Y796452D01*
X534312Y796510D01*
X534338Y796551D01*
X535979Y800513D01*
X539337Y803871D01*
X543725Y805689D01*
X548475Y805689D01*
X552863Y803871D01*
X556221Y800513D01*
X557862Y796551D01*
X557877Y796526D01*
X557886Y796498D01*
X557949Y796404D01*
X558007Y796307D01*
X558028Y796286D01*
X558044Y796262D01*
X558131Y796189D01*
X558213Y796111D01*
X558239Y796098D01*
X558262Y796079D01*
X558365Y796033D01*
X558466Y795981D01*
X558495Y795975D01*
X558522Y795964D01*
X558634Y795948D01*
X558745Y795926D01*
X558774Y795929D01*
X558803Y795925D01*
X558915Y795941D01*
X559028Y795951D01*
X559055Y795961D01*
X559084Y795965D01*
X559188Y796012D01*
X559293Y796053D01*
X559317Y796070D01*
X559344Y796082D01*
X559430Y796156D01*
X559520Y796224D01*
X559538Y796248D01*
X559560Y796267D01*
X559602Y796333D01*
X559690Y796452D01*
X559712Y796510D01*
X559738Y796551D01*
X561379Y800513D01*
X564737Y803871D01*
X569125Y805689D01*
X573875Y805689D01*
X578263Y803871D01*
X581621Y800513D01*
X583262Y796551D01*
X583277Y796526D01*
X583286Y796498D01*
X583349Y796404D01*
X583407Y796307D01*
X583428Y796286D01*
X583444Y796262D01*
X583531Y796189D01*
X583613Y796111D01*
X583639Y796098D01*
X583662Y796079D01*
X583765Y796033D01*
X583866Y795981D01*
X583895Y795975D01*
X583922Y795964D01*
X584034Y795948D01*
X584145Y795926D01*
X584174Y795929D01*
X584203Y795925D01*
X584315Y795941D01*
X584428Y795951D01*
X584455Y795961D01*
X584484Y795965D01*
X584588Y796012D01*
X584693Y796053D01*
X584717Y796070D01*
X584744Y796082D01*
X584830Y796156D01*
X584920Y796224D01*
X584938Y796248D01*
X584960Y796267D01*
X585002Y796333D01*
X585090Y796452D01*
X585112Y796510D01*
X585138Y796551D01*
X586779Y800513D01*
X590137Y803871D01*
X594525Y805689D01*
X599275Y805689D01*
X603663Y803871D01*
X607021Y800513D01*
X608662Y796551D01*
X608677Y796526D01*
X608686Y796498D01*
X608749Y796404D01*
X608807Y796307D01*
X608828Y796286D01*
X608844Y796262D01*
X608931Y796189D01*
X609013Y796111D01*
X609039Y796098D01*
X609062Y796079D01*
X609165Y796033D01*
X609266Y795981D01*
X609295Y795975D01*
X609322Y795964D01*
X609434Y795948D01*
X609545Y795926D01*
X609574Y795929D01*
X609603Y795925D01*
X609715Y795941D01*
X609828Y795951D01*
X609855Y795961D01*
X609884Y795965D01*
X609988Y796012D01*
X610093Y796053D01*
X610117Y796070D01*
X610144Y796082D01*
X610230Y796156D01*
X610320Y796224D01*
X610338Y796248D01*
X610360Y796267D01*
X610402Y796333D01*
X610490Y796452D01*
X610512Y796510D01*
X610538Y796551D01*
X612179Y800513D01*
X615537Y803871D01*
X619925Y805689D01*
X624675Y805689D01*
X629063Y803871D01*
X632421Y800513D01*
X634062Y796551D01*
X634077Y796526D01*
X634086Y796498D01*
X634149Y796404D01*
X634207Y796307D01*
X634228Y796286D01*
X634244Y796262D01*
X634331Y796189D01*
X634413Y796111D01*
X634439Y796098D01*
X634462Y796079D01*
X634565Y796033D01*
X634666Y795981D01*
X634695Y795975D01*
X634722Y795964D01*
X634834Y795948D01*
X634945Y795926D01*
X634974Y795929D01*
X635003Y795925D01*
X635115Y795941D01*
X635228Y795951D01*
X635255Y795961D01*
X635284Y795965D01*
X635388Y796012D01*
X635493Y796053D01*
X635517Y796070D01*
X635544Y796082D01*
X635630Y796156D01*
X635720Y796224D01*
X635738Y796248D01*
X635760Y796267D01*
X635802Y796333D01*
X635890Y796452D01*
X635912Y796510D01*
X635938Y796551D01*
X637579Y800513D01*
X640937Y803871D01*
X645325Y805689D01*
X650075Y805689D01*
X654463Y803871D01*
X657821Y800513D01*
X659462Y796551D01*
X659477Y796526D01*
X659486Y796498D01*
X659549Y796404D01*
X659607Y796307D01*
X659628Y796286D01*
X659644Y796262D01*
X659731Y796189D01*
X659813Y796111D01*
X659839Y796098D01*
X659862Y796079D01*
X659965Y796033D01*
X660066Y795981D01*
X660095Y795975D01*
X660122Y795964D01*
X660234Y795948D01*
X660345Y795926D01*
X660374Y795929D01*
X660403Y795925D01*
X660515Y795941D01*
X660628Y795951D01*
X660655Y795961D01*
X660684Y795965D01*
X660788Y796012D01*
X660893Y796053D01*
X660917Y796070D01*
X660944Y796082D01*
X661030Y796156D01*
X661120Y796224D01*
X661138Y796248D01*
X661160Y796267D01*
X661202Y796333D01*
X661290Y796452D01*
X661312Y796510D01*
X661338Y796551D01*
X662979Y800513D01*
X666337Y803871D01*
X670725Y805689D01*
X675475Y805689D01*
X679863Y803871D01*
X683221Y800513D01*
X684862Y796551D01*
X684877Y796526D01*
X684886Y796498D01*
X684949Y796404D01*
X685007Y796307D01*
X685028Y796286D01*
X685044Y796262D01*
X685131Y796189D01*
X685213Y796111D01*
X685239Y796098D01*
X685262Y796079D01*
X685365Y796033D01*
X685466Y795981D01*
X685495Y795975D01*
X685522Y795964D01*
X685634Y795948D01*
X685745Y795926D01*
X685774Y795929D01*
X685803Y795925D01*
X685915Y795941D01*
X686028Y795951D01*
X686055Y795961D01*
X686084Y795965D01*
X686188Y796012D01*
X686293Y796053D01*
X686317Y796070D01*
X686344Y796082D01*
X686430Y796156D01*
X686520Y796224D01*
X686538Y796248D01*
X686560Y796267D01*
X686602Y796333D01*
X686690Y796452D01*
X686712Y796510D01*
X686738Y796551D01*
X688379Y800513D01*
X691737Y803871D01*
X696125Y805689D01*
X700875Y805689D01*
X705263Y803871D01*
X708621Y800513D01*
X710262Y796551D01*
X710277Y796526D01*
X710286Y796498D01*
X710349Y796404D01*
X710407Y796307D01*
X710428Y796286D01*
X710444Y796262D01*
X710531Y796189D01*
X710613Y796111D01*
X710639Y796098D01*
X710662Y796079D01*
X710765Y796033D01*
X710866Y795981D01*
X710895Y795975D01*
X710922Y795964D01*
X711034Y795948D01*
X711145Y795926D01*
X711174Y795929D01*
X711203Y795925D01*
X711315Y795941D01*
X711428Y795951D01*
X711455Y795961D01*
X711484Y795965D01*
X711588Y796012D01*
X711693Y796053D01*
X711717Y796070D01*
X711744Y796082D01*
X711830Y796156D01*
X711920Y796224D01*
X711938Y796248D01*
X711960Y796267D01*
X712002Y796333D01*
X712090Y796452D01*
X712112Y796510D01*
X712138Y796551D01*
X713779Y800513D01*
X717137Y803871D01*
X721525Y805689D01*
X726275Y805689D01*
X730663Y803871D01*
X734021Y800513D01*
X735662Y796551D01*
X735677Y796526D01*
X735686Y796498D01*
X735749Y796404D01*
X735807Y796307D01*
X735828Y796286D01*
X735844Y796262D01*
X735931Y796189D01*
X736013Y796111D01*
X736039Y796098D01*
X736062Y796079D01*
X736165Y796033D01*
X736266Y795981D01*
X736295Y795975D01*
X736322Y795964D01*
X736434Y795948D01*
X736545Y795926D01*
X736574Y795929D01*
X736603Y795925D01*
X736715Y795941D01*
X736828Y795951D01*
X736855Y795961D01*
X736884Y795965D01*
X736988Y796012D01*
X737093Y796053D01*
X737117Y796070D01*
X737144Y796082D01*
X737230Y796156D01*
X737320Y796224D01*
X737338Y796248D01*
X737360Y796267D01*
X737402Y796333D01*
X737490Y796452D01*
X737512Y796510D01*
X737538Y796551D01*
X739179Y800513D01*
X742537Y803871D01*
X746925Y805689D01*
X751675Y805689D01*
X756063Y803871D01*
X759421Y800513D01*
X761062Y796551D01*
X761077Y796526D01*
X761086Y796498D01*
X761149Y796404D01*
X761207Y796307D01*
X761228Y796286D01*
X761244Y796262D01*
X761331Y796189D01*
X761413Y796111D01*
X761439Y796098D01*
X761462Y796079D01*
X761565Y796033D01*
X761666Y795981D01*
X761695Y795975D01*
X761722Y795964D01*
X761834Y795948D01*
X761945Y795926D01*
X761974Y795929D01*
X762003Y795925D01*
X762115Y795941D01*
X762228Y795951D01*
X762255Y795961D01*
X762284Y795965D01*
X762388Y796012D01*
X762493Y796053D01*
X762517Y796070D01*
X762544Y796082D01*
X762630Y796156D01*
X762720Y796224D01*
X762738Y796248D01*
X762760Y796267D01*
X762802Y796333D01*
X762890Y796452D01*
X762912Y796510D01*
X762938Y796551D01*
X764579Y800513D01*
X767937Y803871D01*
X772325Y805689D01*
X777075Y805689D01*
X781463Y803871D01*
X784821Y800513D01*
X786462Y796551D01*
X786477Y796526D01*
X786486Y796498D01*
X786549Y796404D01*
X786607Y796307D01*
X786628Y796286D01*
X786644Y796262D01*
X786731Y796189D01*
X786813Y796111D01*
X786839Y796098D01*
X786862Y796079D01*
X786965Y796033D01*
X787066Y795981D01*
X787095Y795975D01*
X787122Y795964D01*
X787234Y795948D01*
X787345Y795926D01*
X787374Y795929D01*
X787403Y795925D01*
X787515Y795941D01*
X787628Y795951D01*
X787655Y795961D01*
X787684Y795965D01*
X787788Y796012D01*
X787893Y796053D01*
X787917Y796070D01*
X787944Y796082D01*
X788030Y796156D01*
X788120Y796224D01*
X788138Y796248D01*
X788160Y796267D01*
X788202Y796333D01*
X788290Y796452D01*
X788312Y796510D01*
X788338Y796551D01*
X789979Y800513D01*
X793337Y803871D01*
X797725Y805689D01*
X802475Y805689D01*
X806863Y803871D01*
X809421Y801313D01*
X809468Y801278D01*
X809508Y801235D01*
X809581Y801193D01*
X809648Y801142D01*
X809703Y801121D01*
X809753Y801091D01*
X809835Y801071D01*
X809914Y801041D01*
X809972Y801036D01*
X810029Y801021D01*
X810113Y801024D01*
X810197Y801017D01*
X810255Y801029D01*
X810313Y801030D01*
X810393Y801056D01*
X810476Y801073D01*
X810528Y801100D01*
X810584Y801118D01*
X810640Y801158D01*
X810728Y801204D01*
X810801Y801273D01*
X810857Y801313D01*
X812101Y802557D01*
X818916Y809372D01*
X841736Y809372D01*
X844340Y806768D01*
X1045846Y605262D01*
X1045846Y551327D01*
X861231Y366712D01*
X861179Y366643D01*
X861119Y366579D01*
X861093Y366529D01*
X861060Y366485D01*
X861029Y366403D01*
X860989Y366325D01*
X860981Y366278D01*
X860959Y366219D01*
X860947Y366072D01*
X860934Y365994D01*
X860934Y213756D01*
X860942Y213698D01*
X860940Y213640D01*
X860962Y213558D01*
X860974Y213474D01*
X860997Y213421D01*
X861012Y213365D01*
X861055Y213292D01*
X861090Y213215D01*
X861128Y213170D01*
X861157Y213120D01*
X861219Y213062D01*
X861273Y212998D01*
X861322Y212966D01*
X861365Y212926D01*
X861440Y212887D01*
X861510Y212840D01*
X861566Y212823D01*
X861618Y212796D01*
X861686Y212785D01*
X861781Y212755D01*
X861881Y212752D01*
X861949Y212741D01*
X863869Y212741D01*
X863869Y204216D01*
X863877Y204158D01*
X863875Y204100D01*
X863897Y204018D01*
X863909Y203935D01*
X863933Y203881D01*
X863947Y203825D01*
X863990Y203752D01*
X864025Y203675D01*
X864063Y203631D01*
X864093Y203580D01*
X864154Y203523D01*
X864209Y203458D01*
X864257Y203426D01*
X864300Y203386D01*
X864375Y203347D01*
X864445Y203301D01*
X864501Y203283D01*
X864553Y203256D01*
X864621Y203245D01*
X864716Y203215D01*
X864816Y203212D01*
X864884Y203201D01*
X865901Y203201D01*
X865901Y203199D01*
X864884Y203199D01*
X864826Y203191D01*
X864768Y203192D01*
X864686Y203171D01*
X864603Y203159D01*
X864549Y203135D01*
X864493Y203121D01*
X864420Y203078D01*
X864343Y203043D01*
X864298Y203005D01*
X864248Y202975D01*
X864190Y202914D01*
X864126Y202859D01*
X864094Y202811D01*
X864054Y202768D01*
X864015Y202693D01*
X863969Y202623D01*
X863951Y202567D01*
X863924Y202515D01*
X863913Y202447D01*
X863883Y202352D01*
X863880Y202252D01*
X863869Y202184D01*
X863869Y193659D01*
X861949Y193659D01*
X861891Y193651D01*
X861833Y193653D01*
X861751Y193631D01*
X861667Y193619D01*
X861614Y193596D01*
X861558Y193581D01*
X861485Y193538D01*
X861408Y193503D01*
X861363Y193465D01*
X861313Y193436D01*
X861255Y193374D01*
X861191Y193320D01*
X861159Y193271D01*
X861119Y193228D01*
X861080Y193153D01*
X861033Y193083D01*
X861016Y193027D01*
X860989Y192975D01*
X860978Y192907D01*
X860948Y192812D01*
X860945Y192712D01*
X860934Y192644D01*
X860934Y175656D01*
X860942Y175598D01*
X860940Y175540D01*
X860962Y175458D01*
X860974Y175374D01*
X860997Y175321D01*
X861012Y175265D01*
X861055Y175192D01*
X861090Y175115D01*
X861128Y175070D01*
X861157Y175020D01*
X861219Y174962D01*
X861273Y174898D01*
X861322Y174866D01*
X861365Y174826D01*
X861440Y174787D01*
X861510Y174740D01*
X861566Y174723D01*
X861618Y174696D01*
X861686Y174685D01*
X861781Y174655D01*
X861881Y174652D01*
X861949Y174641D01*
X863869Y174641D01*
X863869Y166116D01*
X863877Y166058D01*
X863875Y166000D01*
X863897Y165918D01*
X863909Y165835D01*
X863933Y165781D01*
X863947Y165725D01*
X863990Y165652D01*
X864025Y165575D01*
X864063Y165531D01*
X864093Y165480D01*
X864154Y165423D01*
X864209Y165358D01*
X864257Y165326D01*
X864300Y165286D01*
X864375Y165247D01*
X864445Y165201D01*
X864501Y165183D01*
X864553Y165156D01*
X864621Y165145D01*
X864716Y165115D01*
X864816Y165112D01*
X864884Y165101D01*
X865901Y165101D01*
X865901Y165099D01*
X864884Y165099D01*
X864826Y165091D01*
X864768Y165092D01*
X864686Y165071D01*
X864603Y165059D01*
X864549Y165035D01*
X864493Y165021D01*
X864420Y164978D01*
X864343Y164943D01*
X864298Y164905D01*
X864248Y164875D01*
X864190Y164814D01*
X864126Y164759D01*
X864094Y164711D01*
X864054Y164668D01*
X864015Y164593D01*
X863969Y164523D01*
X863951Y164467D01*
X863924Y164415D01*
X863913Y164347D01*
X863883Y164252D01*
X863880Y164152D01*
X863869Y164084D01*
X863869Y155559D01*
X861949Y155559D01*
X861891Y155551D01*
X861833Y155553D01*
X861751Y155531D01*
X861667Y155519D01*
X861614Y155496D01*
X861558Y155481D01*
X861485Y155438D01*
X861408Y155403D01*
X861363Y155365D01*
X861313Y155336D01*
X861255Y155274D01*
X861191Y155220D01*
X861159Y155171D01*
X861119Y155128D01*
X861080Y155053D01*
X861033Y154983D01*
X861016Y154927D01*
X860989Y154875D01*
X860978Y154807D01*
X860948Y154712D01*
X860945Y154612D01*
X860934Y154544D01*
X860934Y137556D01*
X860942Y137498D01*
X860940Y137440D01*
X860962Y137358D01*
X860974Y137274D01*
X860997Y137221D01*
X861012Y137165D01*
X861055Y137092D01*
X861090Y137015D01*
X861128Y136970D01*
X861157Y136920D01*
X861219Y136862D01*
X861273Y136798D01*
X861322Y136766D01*
X861365Y136726D01*
X861440Y136687D01*
X861510Y136640D01*
X861566Y136623D01*
X861618Y136596D01*
X861686Y136585D01*
X861781Y136555D01*
X861881Y136552D01*
X861949Y136541D01*
X863869Y136541D01*
X863869Y128016D01*
X863877Y127958D01*
X863875Y127900D01*
X863897Y127818D01*
X863909Y127735D01*
X863933Y127681D01*
X863947Y127625D01*
X863990Y127552D01*
X864025Y127475D01*
X864063Y127431D01*
X864093Y127380D01*
X864154Y127323D01*
X864209Y127258D01*
X864257Y127226D01*
X864300Y127186D01*
X864375Y127147D01*
X864445Y127101D01*
X864501Y127083D01*
X864553Y127056D01*
X864621Y127045D01*
X864716Y127015D01*
X864816Y127012D01*
X864884Y127001D01*
X865901Y127001D01*
X865901Y126999D01*
X864884Y126999D01*
X864826Y126991D01*
X864768Y126992D01*
X864686Y126971D01*
X864603Y126959D01*
X864549Y126935D01*
X864493Y126921D01*
X864420Y126878D01*
X864343Y126843D01*
X864298Y126805D01*
X864248Y126775D01*
X864190Y126714D01*
X864126Y126659D01*
X864094Y126611D01*
X864054Y126568D01*
X864015Y126493D01*
X863969Y126423D01*
X863951Y126367D01*
X863924Y126315D01*
X863913Y126247D01*
X863883Y126152D01*
X863880Y126052D01*
X863869Y125984D01*
X863869Y117459D01*
X859982Y117459D01*
X859214Y117665D01*
X858525Y118063D01*
X857963Y118625D01*
X857565Y119314D01*
X857359Y120082D01*
X857359Y123915D01*
X857355Y123945D01*
X857358Y123974D01*
X857335Y124085D01*
X857319Y124197D01*
X857307Y124224D01*
X857302Y124252D01*
X857250Y124353D01*
X857203Y124456D01*
X857184Y124479D01*
X857171Y124505D01*
X857093Y124587D01*
X857020Y124673D01*
X856995Y124690D01*
X856975Y124711D01*
X856877Y124768D01*
X856783Y124831D01*
X856755Y124840D01*
X856730Y124855D01*
X856620Y124882D01*
X856512Y124917D01*
X856482Y124917D01*
X856454Y124925D01*
X856341Y124921D01*
X856228Y124924D01*
X856199Y124917D01*
X856170Y124916D01*
X856062Y124881D01*
X855953Y124852D01*
X855927Y124837D01*
X855899Y124828D01*
X855836Y124783D01*
X855708Y124707D01*
X855665Y124661D01*
X855626Y124633D01*
X840784Y109791D01*
X840732Y109721D01*
X840672Y109658D01*
X840646Y109608D01*
X840613Y109564D01*
X840582Y109482D01*
X840542Y109404D01*
X840534Y109357D01*
X840512Y109298D01*
X840500Y109151D01*
X840487Y109073D01*
X840487Y99964D01*
X840495Y99906D01*
X840493Y99848D01*
X840515Y99766D01*
X840527Y99682D01*
X840550Y99629D01*
X840565Y99573D01*
X840608Y99500D01*
X840643Y99423D01*
X840681Y99378D01*
X840710Y99328D01*
X840772Y99270D01*
X840826Y99206D01*
X840875Y99174D01*
X840918Y99134D01*
X840993Y99095D01*
X841063Y99048D01*
X841119Y99031D01*
X841171Y99004D01*
X841239Y98993D01*
X841334Y98963D01*
X841434Y98960D01*
X841502Y98949D01*
X842882Y98949D01*
X844949Y96882D01*
X844949Y80918D01*
X842882Y78851D01*
X828918Y78851D01*
G37*
%LPD*%
G36*
X762185Y500897D02*
X762185Y500897D01*
X762243Y500895D01*
X762325Y500917D01*
X762409Y500929D01*
X762462Y500952D01*
X762518Y500967D01*
X762591Y501010D01*
X762668Y501045D01*
X762713Y501083D01*
X762763Y501112D01*
X762821Y501174D01*
X762885Y501228D01*
X762917Y501277D01*
X762957Y501320D01*
X762996Y501395D01*
X763043Y501465D01*
X763060Y501521D01*
X763087Y501573D01*
X763098Y501641D01*
X763128Y501736D01*
X763131Y501836D01*
X763142Y501904D01*
X763142Y502623D01*
X765218Y504699D01*
X773768Y504699D01*
X773982Y504484D01*
X774029Y504449D01*
X774069Y504407D01*
X774142Y504364D01*
X774209Y504313D01*
X774264Y504293D01*
X774314Y504263D01*
X774396Y504242D01*
X774475Y504212D01*
X774533Y504207D01*
X774590Y504193D01*
X774674Y504196D01*
X774758Y504189D01*
X774816Y504200D01*
X774874Y504202D01*
X774954Y504228D01*
X775037Y504245D01*
X775089Y504271D01*
X775145Y504289D01*
X775201Y504329D01*
X775289Y504375D01*
X775362Y504444D01*
X775418Y504484D01*
X775632Y504699D01*
X780982Y504699D01*
X781068Y504711D01*
X781156Y504714D01*
X781208Y504731D01*
X781263Y504739D01*
X781343Y504774D01*
X781426Y504801D01*
X781465Y504829D01*
X781522Y504855D01*
X781636Y504951D01*
X781699Y504996D01*
X840426Y563723D01*
X842141Y565438D01*
X844195Y566289D01*
X962765Y566289D01*
X962851Y566301D01*
X962939Y566304D01*
X962991Y566321D01*
X963046Y566329D01*
X963126Y566364D01*
X963209Y566391D01*
X963248Y566419D01*
X963305Y566445D01*
X963419Y566541D01*
X963482Y566586D01*
X972314Y575418D01*
X972366Y575487D01*
X972426Y575551D01*
X972452Y575601D01*
X972485Y575645D01*
X972516Y575726D01*
X972556Y575804D01*
X972564Y575852D01*
X972586Y575910D01*
X972598Y576058D01*
X972611Y576135D01*
X972611Y586964D01*
X972611Y586966D01*
X972611Y586967D01*
X972592Y587103D01*
X972571Y587246D01*
X972571Y587247D01*
X972571Y587249D01*
X972513Y587377D01*
X972455Y587505D01*
X972454Y587506D01*
X972453Y587508D01*
X972362Y587615D01*
X972272Y587722D01*
X972270Y587723D01*
X972269Y587724D01*
X972256Y587732D01*
X972035Y587880D01*
X972006Y587889D01*
X971985Y587902D01*
X971149Y588248D01*
X967648Y591749D01*
X965753Y596324D01*
X965753Y601276D01*
X967648Y605851D01*
X971149Y609352D01*
X975724Y611247D01*
X980676Y611247D01*
X985251Y609352D01*
X988752Y605851D01*
X989962Y602929D01*
X989977Y602904D01*
X989986Y602876D01*
X990049Y602781D01*
X990107Y602684D01*
X990128Y602664D01*
X990144Y602639D01*
X990231Y602566D01*
X990313Y602489D01*
X990339Y602475D01*
X990362Y602456D01*
X990465Y602410D01*
X990566Y602359D01*
X990595Y602353D01*
X990622Y602341D01*
X990734Y602325D01*
X990845Y602304D01*
X990874Y602306D01*
X990903Y602302D01*
X991015Y602318D01*
X991128Y602328D01*
X991155Y602339D01*
X991185Y602343D01*
X991288Y602389D01*
X991393Y602430D01*
X991417Y602448D01*
X991444Y602460D01*
X991530Y602533D01*
X991620Y602602D01*
X991638Y602625D01*
X991660Y602644D01*
X991702Y602711D01*
X991790Y602829D01*
X991812Y602888D01*
X991838Y602929D01*
X993048Y605851D01*
X996549Y609352D01*
X1001124Y611247D01*
X1006076Y611247D01*
X1010651Y609352D01*
X1014152Y605851D01*
X1015362Y602929D01*
X1015377Y602904D01*
X1015386Y602876D01*
X1015449Y602781D01*
X1015507Y602684D01*
X1015528Y602664D01*
X1015544Y602639D01*
X1015631Y602566D01*
X1015713Y602489D01*
X1015739Y602475D01*
X1015762Y602456D01*
X1015865Y602410D01*
X1015966Y602359D01*
X1015995Y602353D01*
X1016022Y602341D01*
X1016134Y602325D01*
X1016245Y602304D01*
X1016274Y602306D01*
X1016303Y602302D01*
X1016415Y602318D01*
X1016528Y602328D01*
X1016555Y602339D01*
X1016585Y602343D01*
X1016688Y602389D01*
X1016793Y602430D01*
X1016817Y602448D01*
X1016844Y602460D01*
X1016930Y602533D01*
X1017020Y602602D01*
X1017038Y602625D01*
X1017060Y602644D01*
X1017102Y602711D01*
X1017190Y602829D01*
X1017212Y602888D01*
X1017238Y602929D01*
X1018448Y605851D01*
X1021949Y609352D01*
X1026676Y611309D01*
X1026775Y611368D01*
X1026876Y611421D01*
X1026896Y611440D01*
X1026920Y611454D01*
X1026999Y611537D01*
X1027082Y611616D01*
X1027097Y611640D01*
X1027116Y611661D01*
X1027168Y611763D01*
X1027226Y611862D01*
X1027233Y611889D01*
X1027246Y611913D01*
X1027268Y612026D01*
X1027296Y612137D01*
X1027295Y612165D01*
X1027301Y612192D01*
X1027291Y612307D01*
X1027287Y612421D01*
X1027279Y612448D01*
X1027276Y612475D01*
X1027235Y612583D01*
X1027200Y612692D01*
X1027185Y612712D01*
X1027174Y612741D01*
X1027014Y612952D01*
X1027005Y612965D01*
X838771Y801199D01*
X838702Y801251D01*
X838638Y801311D01*
X838588Y801337D01*
X838544Y801370D01*
X838462Y801401D01*
X838384Y801441D01*
X838337Y801449D01*
X838278Y801471D01*
X838131Y801483D01*
X838053Y801496D01*
X836733Y801496D01*
X836619Y801480D01*
X836505Y801470D01*
X836479Y801460D01*
X836452Y801456D01*
X836347Y801409D01*
X836240Y801368D01*
X836218Y801352D01*
X836192Y801340D01*
X836105Y801266D01*
X836013Y801197D01*
X835996Y801174D01*
X835975Y801157D01*
X835912Y801061D01*
X835843Y800969D01*
X835833Y800943D01*
X835818Y800920D01*
X835783Y800810D01*
X835743Y800703D01*
X835740Y800675D01*
X835732Y800649D01*
X835729Y800534D01*
X835720Y800420D01*
X835725Y800395D01*
X835725Y800365D01*
X835792Y800108D01*
X835795Y800092D01*
X837439Y796125D01*
X837439Y791375D01*
X835817Y787461D01*
X835804Y787410D01*
X835782Y787363D01*
X835769Y787273D01*
X835746Y787186D01*
X835748Y787133D01*
X835740Y787081D01*
X835752Y786992D01*
X835755Y786901D01*
X835770Y786852D01*
X835777Y786800D01*
X835814Y786717D01*
X835841Y786631D01*
X835870Y786587D01*
X835891Y786539D01*
X835949Y786469D01*
X835999Y786394D01*
X836039Y786361D01*
X836073Y786320D01*
X836148Y786270D01*
X836169Y786252D01*
X836169Y776731D01*
X826948Y776731D01*
X827051Y777377D01*
X827607Y779088D01*
X828242Y780335D01*
X828246Y780347D01*
X828253Y780357D01*
X828292Y780481D01*
X828335Y780604D01*
X828335Y780616D01*
X828339Y780628D01*
X828342Y780758D01*
X828349Y780888D01*
X828346Y780900D01*
X828346Y780912D01*
X828313Y781038D01*
X828284Y781165D01*
X828277Y781176D01*
X828274Y781187D01*
X828208Y781299D01*
X828144Y781412D01*
X828135Y781421D01*
X828129Y781432D01*
X828034Y781521D01*
X827942Y781612D01*
X827931Y781618D01*
X827922Y781626D01*
X827806Y781685D01*
X827692Y781747D01*
X827680Y781750D01*
X827669Y781756D01*
X827607Y781766D01*
X827414Y781808D01*
X827371Y781806D01*
X827338Y781811D01*
X824296Y781811D01*
X824182Y781795D01*
X824068Y781785D01*
X824042Y781775D01*
X824015Y781771D01*
X823910Y781724D01*
X823803Y781683D01*
X823781Y781667D01*
X823755Y781655D01*
X823668Y781581D01*
X823576Y781512D01*
X823559Y781489D01*
X823538Y781472D01*
X823475Y781376D01*
X823406Y781284D01*
X823396Y781258D01*
X823381Y781235D01*
X823346Y781125D01*
X823306Y781018D01*
X823303Y780990D01*
X823295Y780964D01*
X823292Y780849D01*
X823283Y780735D01*
X823288Y780710D01*
X823288Y780680D01*
X823355Y780422D01*
X823358Y780407D01*
X824739Y777075D01*
X824739Y772325D01*
X823358Y768993D01*
X823330Y768881D01*
X823295Y768772D01*
X823294Y768744D01*
X823287Y768717D01*
X823291Y768603D01*
X823288Y768488D01*
X823295Y768461D01*
X823295Y768433D01*
X823331Y768324D01*
X823359Y768213D01*
X823374Y768189D01*
X823382Y768162D01*
X823446Y768067D01*
X823505Y767968D01*
X823525Y767949D01*
X823540Y767926D01*
X823628Y767852D01*
X823712Y767774D01*
X823737Y767761D01*
X823758Y767743D01*
X823863Y767697D01*
X823965Y767644D01*
X823990Y767640D01*
X824018Y767628D01*
X824282Y767591D01*
X824296Y767589D01*
X827338Y767589D01*
X827350Y767590D01*
X827362Y767589D01*
X827490Y767610D01*
X827619Y767629D01*
X827630Y767634D01*
X827643Y767636D01*
X827760Y767692D01*
X827879Y767745D01*
X827888Y767753D01*
X827899Y767758D01*
X827996Y767844D01*
X828096Y767928D01*
X828102Y767939D01*
X828112Y767947D01*
X828181Y768057D01*
X828253Y768165D01*
X828257Y768177D01*
X828263Y768187D01*
X828300Y768312D01*
X828339Y768436D01*
X828339Y768448D01*
X828343Y768460D01*
X828343Y768590D01*
X828346Y768720D01*
X828343Y768732D01*
X828343Y768745D01*
X828324Y768805D01*
X828274Y768995D01*
X828253Y769032D01*
X828242Y769065D01*
X827607Y770312D01*
X827051Y772023D01*
X826948Y772669D01*
X836169Y772669D01*
X836169Y763148D01*
X836112Y763113D01*
X836077Y763075D01*
X836035Y763043D01*
X835981Y762971D01*
X835920Y762904D01*
X835896Y762858D01*
X835865Y762816D01*
X835833Y762731D01*
X835793Y762650D01*
X835783Y762599D01*
X835765Y762550D01*
X835757Y762459D01*
X835741Y762371D01*
X835746Y762319D01*
X835742Y762266D01*
X835758Y762196D01*
X835769Y762088D01*
X835803Y762003D01*
X835817Y761939D01*
X837439Y758025D01*
X837439Y753275D01*
X835817Y749361D01*
X835804Y749310D01*
X835782Y749263D01*
X835769Y749173D01*
X835746Y749086D01*
X835748Y749033D01*
X835740Y748981D01*
X835752Y748892D01*
X835755Y748801D01*
X835770Y748752D01*
X835777Y748700D01*
X835814Y748617D01*
X835841Y748531D01*
X835870Y748487D01*
X835891Y748439D01*
X835949Y748369D01*
X835999Y748294D01*
X836039Y748261D01*
X836073Y748220D01*
X836148Y748170D01*
X836169Y748152D01*
X836169Y738631D01*
X826948Y738631D01*
X827051Y739277D01*
X827607Y740988D01*
X828242Y742235D01*
X828246Y742247D01*
X828253Y742257D01*
X828292Y742381D01*
X828335Y742504D01*
X828335Y742516D01*
X828339Y742528D01*
X828342Y742658D01*
X828349Y742788D01*
X828346Y742800D01*
X828346Y742812D01*
X828314Y742937D01*
X828284Y743065D01*
X828278Y743076D01*
X828274Y743087D01*
X828208Y743199D01*
X828144Y743312D01*
X828135Y743321D01*
X828129Y743332D01*
X828034Y743421D01*
X827942Y743512D01*
X827931Y743518D01*
X827922Y743526D01*
X827806Y743586D01*
X827692Y743647D01*
X827680Y743650D01*
X827669Y743656D01*
X827606Y743666D01*
X827414Y743708D01*
X827371Y743706D01*
X827338Y743711D01*
X824296Y743711D01*
X824182Y743695D01*
X824068Y743685D01*
X824042Y743675D01*
X824015Y743671D01*
X823910Y743624D01*
X823803Y743583D01*
X823781Y743567D01*
X823755Y743555D01*
X823668Y743481D01*
X823576Y743412D01*
X823559Y743389D01*
X823538Y743372D01*
X823475Y743276D01*
X823406Y743184D01*
X823396Y743158D01*
X823381Y743135D01*
X823346Y743025D01*
X823306Y742918D01*
X823303Y742890D01*
X823295Y742864D01*
X823292Y742749D01*
X823283Y742635D01*
X823288Y742610D01*
X823288Y742580D01*
X823355Y742322D01*
X823358Y742307D01*
X824739Y738975D01*
X824739Y734225D01*
X822921Y729837D01*
X819563Y726479D01*
X815175Y724661D01*
X810425Y724661D01*
X806037Y726479D01*
X802679Y729837D01*
X801038Y733799D01*
X801023Y733824D01*
X801014Y733852D01*
X800951Y733946D01*
X800893Y734043D01*
X800872Y734064D01*
X800856Y734088D01*
X800769Y734161D01*
X800687Y734239D01*
X800661Y734252D01*
X800638Y734271D01*
X800535Y734317D01*
X800434Y734369D01*
X800405Y734375D01*
X800378Y734386D01*
X800266Y734402D01*
X800155Y734424D01*
X800126Y734421D01*
X800097Y734425D01*
X799985Y734409D01*
X799872Y734399D01*
X799845Y734389D01*
X799815Y734385D01*
X799712Y734338D01*
X799607Y734297D01*
X799583Y734280D01*
X799556Y734268D01*
X799470Y734194D01*
X799380Y734126D01*
X799362Y734102D01*
X799340Y734083D01*
X799298Y734017D01*
X799210Y733898D01*
X799188Y733840D01*
X799162Y733799D01*
X797521Y729837D01*
X794163Y726479D01*
X789775Y724661D01*
X785025Y724661D01*
X780637Y726479D01*
X777279Y729837D01*
X775638Y733799D01*
X775623Y733824D01*
X775614Y733852D01*
X775551Y733946D01*
X775493Y734043D01*
X775472Y734064D01*
X775456Y734088D01*
X775369Y734161D01*
X775287Y734239D01*
X775261Y734252D01*
X775238Y734271D01*
X775135Y734317D01*
X775034Y734369D01*
X775005Y734375D01*
X774978Y734386D01*
X774866Y734402D01*
X774755Y734424D01*
X774726Y734421D01*
X774697Y734425D01*
X774585Y734409D01*
X774472Y734399D01*
X774445Y734389D01*
X774415Y734385D01*
X774312Y734338D01*
X774207Y734297D01*
X774183Y734280D01*
X774156Y734268D01*
X774070Y734194D01*
X773980Y734126D01*
X773962Y734102D01*
X773940Y734083D01*
X773898Y734017D01*
X773810Y733898D01*
X773788Y733840D01*
X773762Y733799D01*
X772121Y729837D01*
X768763Y726479D01*
X764375Y724661D01*
X759625Y724661D01*
X755237Y726479D01*
X751879Y729837D01*
X750238Y733799D01*
X750223Y733824D01*
X750214Y733852D01*
X750151Y733946D01*
X750093Y734043D01*
X750072Y734064D01*
X750056Y734088D01*
X749969Y734161D01*
X749887Y734239D01*
X749861Y734252D01*
X749838Y734271D01*
X749735Y734317D01*
X749634Y734369D01*
X749605Y734375D01*
X749578Y734386D01*
X749466Y734402D01*
X749355Y734424D01*
X749326Y734421D01*
X749297Y734425D01*
X749185Y734409D01*
X749072Y734399D01*
X749045Y734389D01*
X749015Y734385D01*
X748912Y734338D01*
X748807Y734297D01*
X748783Y734280D01*
X748756Y734268D01*
X748670Y734194D01*
X748580Y734126D01*
X748562Y734102D01*
X748540Y734083D01*
X748498Y734017D01*
X748410Y733898D01*
X748388Y733840D01*
X748362Y733799D01*
X746721Y729837D01*
X743363Y726479D01*
X738975Y724661D01*
X734225Y724661D01*
X729837Y726479D01*
X726479Y729837D01*
X724838Y733799D01*
X724823Y733824D01*
X724814Y733852D01*
X724751Y733946D01*
X724693Y734043D01*
X724672Y734064D01*
X724656Y734088D01*
X724569Y734161D01*
X724487Y734239D01*
X724461Y734252D01*
X724438Y734271D01*
X724335Y734317D01*
X724234Y734369D01*
X724205Y734375D01*
X724178Y734386D01*
X724066Y734402D01*
X723955Y734424D01*
X723926Y734421D01*
X723897Y734425D01*
X723785Y734409D01*
X723672Y734399D01*
X723645Y734389D01*
X723615Y734385D01*
X723512Y734338D01*
X723407Y734297D01*
X723383Y734280D01*
X723356Y734268D01*
X723270Y734194D01*
X723180Y734126D01*
X723162Y734102D01*
X723140Y734083D01*
X723098Y734017D01*
X723010Y733898D01*
X722988Y733840D01*
X722962Y733799D01*
X721321Y729837D01*
X717963Y726479D01*
X713575Y724661D01*
X708825Y724661D01*
X704437Y726479D01*
X701079Y729837D01*
X699438Y733799D01*
X699423Y733824D01*
X699414Y733852D01*
X699351Y733946D01*
X699293Y734043D01*
X699272Y734064D01*
X699256Y734088D01*
X699169Y734161D01*
X699087Y734239D01*
X699061Y734252D01*
X699038Y734271D01*
X698935Y734317D01*
X698834Y734369D01*
X698805Y734375D01*
X698778Y734386D01*
X698666Y734402D01*
X698555Y734424D01*
X698526Y734421D01*
X698497Y734425D01*
X698385Y734409D01*
X698272Y734399D01*
X698245Y734389D01*
X698215Y734385D01*
X698112Y734338D01*
X698007Y734297D01*
X697983Y734280D01*
X697956Y734268D01*
X697870Y734194D01*
X697780Y734126D01*
X697762Y734102D01*
X697740Y734083D01*
X697698Y734017D01*
X697610Y733898D01*
X697588Y733840D01*
X697562Y733799D01*
X695921Y729837D01*
X692563Y726479D01*
X688175Y724661D01*
X683425Y724661D01*
X679037Y726479D01*
X675679Y729837D01*
X674038Y733799D01*
X674023Y733824D01*
X674014Y733852D01*
X673951Y733946D01*
X673893Y734043D01*
X673872Y734064D01*
X673856Y734088D01*
X673769Y734161D01*
X673687Y734239D01*
X673661Y734252D01*
X673638Y734271D01*
X673535Y734317D01*
X673434Y734369D01*
X673405Y734375D01*
X673378Y734386D01*
X673266Y734402D01*
X673155Y734424D01*
X673126Y734421D01*
X673097Y734425D01*
X672985Y734409D01*
X672872Y734399D01*
X672845Y734389D01*
X672815Y734385D01*
X672712Y734338D01*
X672607Y734297D01*
X672583Y734280D01*
X672556Y734268D01*
X672470Y734194D01*
X672380Y734126D01*
X672362Y734102D01*
X672340Y734083D01*
X672298Y734017D01*
X672210Y733898D01*
X672188Y733840D01*
X672162Y733799D01*
X670521Y729837D01*
X667163Y726479D01*
X662775Y724661D01*
X658025Y724661D01*
X653637Y726479D01*
X650279Y729837D01*
X648638Y733799D01*
X648623Y733824D01*
X648614Y733852D01*
X648551Y733946D01*
X648493Y734043D01*
X648472Y734064D01*
X648456Y734088D01*
X648369Y734161D01*
X648287Y734239D01*
X648261Y734252D01*
X648238Y734271D01*
X648135Y734317D01*
X648034Y734369D01*
X648005Y734375D01*
X647978Y734386D01*
X647866Y734402D01*
X647755Y734424D01*
X647726Y734421D01*
X647697Y734425D01*
X647585Y734409D01*
X647472Y734399D01*
X647445Y734389D01*
X647415Y734385D01*
X647312Y734338D01*
X647207Y734297D01*
X647183Y734280D01*
X647156Y734268D01*
X647070Y734194D01*
X646980Y734126D01*
X646962Y734102D01*
X646940Y734083D01*
X646898Y734017D01*
X646810Y733898D01*
X646788Y733840D01*
X646762Y733799D01*
X645121Y729837D01*
X641763Y726479D01*
X637375Y724661D01*
X632625Y724661D01*
X628237Y726479D01*
X624879Y729837D01*
X623238Y733799D01*
X623223Y733824D01*
X623214Y733852D01*
X623151Y733946D01*
X623093Y734043D01*
X623072Y734064D01*
X623056Y734088D01*
X622969Y734161D01*
X622887Y734239D01*
X622861Y734252D01*
X622838Y734271D01*
X622735Y734317D01*
X622634Y734369D01*
X622605Y734375D01*
X622578Y734386D01*
X622466Y734402D01*
X622355Y734424D01*
X622326Y734421D01*
X622297Y734425D01*
X622185Y734409D01*
X622072Y734399D01*
X622045Y734389D01*
X622015Y734385D01*
X621912Y734338D01*
X621807Y734297D01*
X621783Y734280D01*
X621756Y734268D01*
X621670Y734194D01*
X621580Y734126D01*
X621562Y734102D01*
X621540Y734083D01*
X621498Y734017D01*
X621410Y733898D01*
X621388Y733840D01*
X621362Y733799D01*
X619721Y729837D01*
X616363Y726479D01*
X611975Y724661D01*
X607225Y724661D01*
X602837Y726479D01*
X599479Y729837D01*
X597838Y733799D01*
X597823Y733824D01*
X597814Y733852D01*
X597751Y733946D01*
X597693Y734043D01*
X597672Y734064D01*
X597656Y734088D01*
X597569Y734161D01*
X597487Y734239D01*
X597461Y734252D01*
X597438Y734271D01*
X597335Y734317D01*
X597234Y734369D01*
X597205Y734375D01*
X597178Y734386D01*
X597066Y734402D01*
X596955Y734424D01*
X596926Y734421D01*
X596897Y734425D01*
X596785Y734409D01*
X596672Y734399D01*
X596645Y734389D01*
X596615Y734385D01*
X596512Y734338D01*
X596407Y734297D01*
X596383Y734280D01*
X596356Y734268D01*
X596270Y734194D01*
X596180Y734126D01*
X596162Y734102D01*
X596140Y734083D01*
X596098Y734017D01*
X596010Y733898D01*
X595988Y733840D01*
X595962Y733799D01*
X594321Y729837D01*
X590963Y726479D01*
X586575Y724661D01*
X581825Y724661D01*
X577437Y726479D01*
X574079Y729837D01*
X572438Y733799D01*
X572423Y733824D01*
X572414Y733852D01*
X572351Y733946D01*
X572293Y734043D01*
X572272Y734064D01*
X572256Y734088D01*
X572169Y734161D01*
X572087Y734239D01*
X572061Y734252D01*
X572038Y734271D01*
X571935Y734317D01*
X571834Y734369D01*
X571805Y734375D01*
X571778Y734386D01*
X571666Y734402D01*
X571555Y734424D01*
X571526Y734421D01*
X571497Y734425D01*
X571385Y734409D01*
X571272Y734399D01*
X571245Y734389D01*
X571215Y734385D01*
X571112Y734338D01*
X571007Y734297D01*
X570983Y734280D01*
X570956Y734268D01*
X570870Y734194D01*
X570780Y734126D01*
X570762Y734102D01*
X570740Y734083D01*
X570698Y734017D01*
X570610Y733898D01*
X570588Y733840D01*
X570562Y733799D01*
X568921Y729837D01*
X565563Y726479D01*
X561175Y724661D01*
X556425Y724661D01*
X552037Y726479D01*
X548679Y729837D01*
X547038Y733799D01*
X547023Y733824D01*
X547014Y733852D01*
X546951Y733946D01*
X546893Y734043D01*
X546872Y734064D01*
X546856Y734088D01*
X546769Y734161D01*
X546687Y734239D01*
X546661Y734252D01*
X546638Y734271D01*
X546535Y734317D01*
X546434Y734369D01*
X546405Y734375D01*
X546378Y734386D01*
X546266Y734402D01*
X546155Y734424D01*
X546126Y734421D01*
X546097Y734425D01*
X545985Y734409D01*
X545872Y734399D01*
X545845Y734389D01*
X545815Y734385D01*
X545712Y734338D01*
X545607Y734297D01*
X545583Y734280D01*
X545556Y734268D01*
X545470Y734194D01*
X545380Y734126D01*
X545362Y734102D01*
X545340Y734083D01*
X545298Y734017D01*
X545210Y733898D01*
X545188Y733840D01*
X545162Y733799D01*
X543521Y729837D01*
X540163Y726479D01*
X535775Y724661D01*
X531025Y724661D01*
X526637Y726479D01*
X523279Y729837D01*
X521638Y733799D01*
X521623Y733824D01*
X521614Y733852D01*
X521551Y733946D01*
X521493Y734043D01*
X521472Y734064D01*
X521456Y734088D01*
X521369Y734161D01*
X521287Y734239D01*
X521261Y734252D01*
X521238Y734271D01*
X521135Y734317D01*
X521034Y734369D01*
X521005Y734375D01*
X520978Y734386D01*
X520866Y734402D01*
X520755Y734424D01*
X520726Y734421D01*
X520697Y734425D01*
X520585Y734409D01*
X520472Y734399D01*
X520445Y734389D01*
X520415Y734385D01*
X520312Y734338D01*
X520207Y734297D01*
X520183Y734280D01*
X520156Y734268D01*
X520070Y734194D01*
X519980Y734126D01*
X519962Y734102D01*
X519940Y734083D01*
X519898Y734017D01*
X519810Y733898D01*
X519788Y733840D01*
X519762Y733799D01*
X518121Y729837D01*
X514763Y726479D01*
X510375Y724661D01*
X505625Y724661D01*
X501237Y726479D01*
X497879Y729837D01*
X496238Y733799D01*
X496223Y733824D01*
X496214Y733852D01*
X496151Y733946D01*
X496093Y734043D01*
X496072Y734064D01*
X496056Y734088D01*
X495969Y734161D01*
X495887Y734239D01*
X495861Y734252D01*
X495838Y734271D01*
X495735Y734317D01*
X495634Y734369D01*
X495605Y734375D01*
X495578Y734386D01*
X495466Y734402D01*
X495355Y734424D01*
X495326Y734421D01*
X495297Y734425D01*
X495185Y734409D01*
X495072Y734399D01*
X495045Y734389D01*
X495015Y734385D01*
X494912Y734338D01*
X494807Y734297D01*
X494783Y734280D01*
X494756Y734268D01*
X494670Y734194D01*
X494580Y734126D01*
X494562Y734102D01*
X494540Y734083D01*
X494498Y734017D01*
X494410Y733898D01*
X494388Y733840D01*
X494362Y733799D01*
X492721Y729837D01*
X489363Y726479D01*
X484975Y724661D01*
X480225Y724661D01*
X475738Y726520D01*
X475655Y726541D01*
X475575Y726572D01*
X475518Y726577D01*
X475463Y726591D01*
X475377Y726588D01*
X475291Y726595D01*
X475236Y726584D01*
X475179Y726583D01*
X475097Y726556D01*
X475013Y726540D01*
X474962Y726513D01*
X474908Y726496D01*
X474837Y726448D01*
X474760Y726409D01*
X474719Y726369D01*
X474672Y726338D01*
X474617Y726272D01*
X474554Y726213D01*
X474525Y726164D01*
X474489Y726120D01*
X474454Y726042D01*
X474411Y725968D01*
X474396Y725912D01*
X474373Y725860D01*
X474362Y725775D01*
X474340Y725692D01*
X474342Y725635D01*
X474334Y725579D01*
X474347Y725494D01*
X474349Y725408D01*
X474367Y725354D01*
X474375Y725297D01*
X474410Y725219D01*
X474437Y725137D01*
X474466Y725097D01*
X474492Y725038D01*
X474586Y724928D01*
X474632Y724864D01*
X534734Y664762D01*
X534803Y664710D01*
X534867Y664650D01*
X534917Y664624D01*
X534961Y664591D01*
X535043Y664560D01*
X535121Y664520D01*
X535168Y664512D01*
X535227Y664490D01*
X535374Y664478D01*
X535452Y664465D01*
X570642Y664465D01*
X570728Y664477D01*
X570816Y664480D01*
X570869Y664497D01*
X570923Y664505D01*
X571003Y664540D01*
X571086Y664567D01*
X571126Y664595D01*
X571183Y664621D01*
X571296Y664717D01*
X571360Y664762D01*
X572488Y665891D01*
X574814Y666854D01*
X577330Y666854D01*
X579656Y665891D01*
X581436Y664111D01*
X582399Y661785D01*
X582399Y659511D01*
X582407Y659453D01*
X582405Y659395D01*
X582427Y659313D01*
X582439Y659229D01*
X582462Y659176D01*
X582477Y659120D01*
X582520Y659047D01*
X582555Y658970D01*
X582593Y658925D01*
X582622Y658875D01*
X582684Y658817D01*
X582738Y658753D01*
X582787Y658721D01*
X582830Y658681D01*
X582905Y658642D01*
X582975Y658595D01*
X583031Y658578D01*
X583083Y658551D01*
X583151Y658540D01*
X583246Y658510D01*
X583346Y658507D01*
X583414Y658496D01*
X651895Y658496D01*
X651981Y658508D01*
X652069Y658511D01*
X652121Y658528D01*
X652176Y658536D01*
X652256Y658571D01*
X652339Y658598D01*
X652379Y658626D01*
X652436Y658652D01*
X652549Y658748D01*
X652613Y658793D01*
X653077Y659258D01*
X667723Y659258D01*
X669799Y657182D01*
X669799Y648632D01*
X669584Y648418D01*
X669549Y648371D01*
X669507Y648331D01*
X669464Y648258D01*
X669413Y648191D01*
X669393Y648136D01*
X669363Y648086D01*
X669342Y648004D01*
X669312Y647925D01*
X669307Y647867D01*
X669293Y647810D01*
X669296Y647726D01*
X669289Y647642D01*
X669300Y647584D01*
X669302Y647526D01*
X669328Y647446D01*
X669345Y647363D01*
X669371Y647311D01*
X669389Y647255D01*
X669430Y647199D01*
X669476Y647111D01*
X669544Y647038D01*
X669584Y646982D01*
X669799Y646768D01*
X669799Y638218D01*
X667723Y636142D01*
X667004Y636142D01*
X666946Y636134D01*
X666888Y636136D01*
X666806Y636114D01*
X666722Y636102D01*
X666669Y636079D01*
X666613Y636064D01*
X666540Y636021D01*
X666463Y635986D01*
X666418Y635948D01*
X666368Y635919D01*
X666310Y635857D01*
X666246Y635803D01*
X666214Y635754D01*
X666174Y635711D01*
X666135Y635636D01*
X666088Y635566D01*
X666071Y635510D01*
X666044Y635458D01*
X666033Y635390D01*
X666003Y635295D01*
X666000Y635195D01*
X665989Y635127D01*
X665989Y624908D01*
X666001Y624822D01*
X666004Y624734D01*
X666021Y624682D01*
X666029Y624627D01*
X666064Y624547D01*
X666091Y624464D01*
X666119Y624425D01*
X666145Y624368D01*
X666241Y624254D01*
X666286Y624191D01*
X676568Y613909D01*
X677419Y611855D01*
X677419Y557936D01*
X677419Y557934D01*
X677419Y557933D01*
X677440Y557787D01*
X677459Y557654D01*
X677459Y557653D01*
X677459Y557651D01*
X677517Y557523D01*
X677575Y557395D01*
X677576Y557394D01*
X677577Y557392D01*
X677668Y557285D01*
X677758Y557178D01*
X677760Y557177D01*
X677761Y557176D01*
X677774Y557168D01*
X677995Y557020D01*
X678024Y557011D01*
X678045Y556998D01*
X678881Y556652D01*
X682382Y553151D01*
X684277Y548576D01*
X684277Y543624D01*
X682382Y539049D01*
X678881Y535548D01*
X676137Y534412D01*
X676132Y534409D01*
X676126Y534407D01*
X676009Y534336D01*
X675893Y534267D01*
X675888Y534263D01*
X675883Y534260D01*
X675791Y534159D01*
X675697Y534061D01*
X675695Y534055D01*
X675690Y534051D01*
X675630Y533929D01*
X675567Y533808D01*
X675566Y533802D01*
X675563Y533796D01*
X675539Y533663D01*
X675512Y533529D01*
X675513Y533523D01*
X675512Y533517D01*
X675525Y533380D01*
X675537Y533246D01*
X675539Y533240D01*
X675539Y533234D01*
X675590Y533107D01*
X675639Y532981D01*
X675642Y532976D01*
X675645Y532970D01*
X675728Y532863D01*
X675810Y532754D01*
X675815Y532750D01*
X675819Y532745D01*
X675929Y532665D01*
X676038Y532584D01*
X676044Y532581D01*
X676049Y532578D01*
X676090Y532564D01*
X676304Y532483D01*
X676340Y532480D01*
X676367Y532471D01*
X677166Y532345D01*
X678953Y531764D01*
X680627Y530911D01*
X682148Y529806D01*
X683476Y528478D01*
X684581Y526957D01*
X685434Y525283D01*
X686015Y523496D01*
X686136Y522731D01*
X675386Y522731D01*
X675328Y522723D01*
X675270Y522725D01*
X675188Y522703D01*
X675105Y522691D01*
X675051Y522667D01*
X674995Y522653D01*
X674922Y522610D01*
X674845Y522575D01*
X674801Y522537D01*
X674750Y522507D01*
X674693Y522446D01*
X674628Y522391D01*
X674596Y522343D01*
X674556Y522300D01*
X674517Y522225D01*
X674471Y522155D01*
X674453Y522099D01*
X674426Y522047D01*
X674415Y521979D01*
X674385Y521884D01*
X674382Y521784D01*
X674371Y521716D01*
X674371Y519684D01*
X674379Y519626D01*
X674378Y519568D01*
X674399Y519486D01*
X674411Y519403D01*
X674435Y519349D01*
X674449Y519293D01*
X674492Y519220D01*
X674527Y519143D01*
X674565Y519098D01*
X674595Y519048D01*
X674656Y518990D01*
X674711Y518926D01*
X674759Y518894D01*
X674802Y518854D01*
X674877Y518815D01*
X674947Y518769D01*
X675003Y518751D01*
X675055Y518724D01*
X675123Y518713D01*
X675218Y518683D01*
X675318Y518680D01*
X675386Y518669D01*
X686136Y518669D01*
X686015Y517904D01*
X685434Y516117D01*
X684581Y514443D01*
X683476Y512922D01*
X682148Y511594D01*
X680627Y510489D01*
X678953Y509636D01*
X677166Y509055D01*
X676367Y508929D01*
X676361Y508927D01*
X676355Y508927D01*
X676225Y508885D01*
X676095Y508845D01*
X676090Y508842D01*
X676084Y508840D01*
X675971Y508764D01*
X675857Y508690D01*
X675853Y508685D01*
X675848Y508682D01*
X675760Y508577D01*
X675672Y508475D01*
X675669Y508469D01*
X675665Y508464D01*
X675610Y508340D01*
X675553Y508216D01*
X675552Y508210D01*
X675550Y508204D01*
X675531Y508069D01*
X675511Y507935D01*
X675512Y507929D01*
X675511Y507923D01*
X675530Y507788D01*
X675548Y507653D01*
X675550Y507648D01*
X675551Y507642D01*
X675607Y507518D01*
X675662Y507393D01*
X675666Y507388D01*
X675668Y507382D01*
X675757Y507279D01*
X675844Y507174D01*
X675849Y507171D01*
X675853Y507166D01*
X675890Y507143D01*
X676079Y507015D01*
X676113Y507003D01*
X676137Y506988D01*
X678881Y505852D01*
X682382Y502351D01*
X682728Y501515D01*
X682729Y501514D01*
X682729Y501513D01*
X682804Y501386D01*
X682872Y501271D01*
X682873Y501270D01*
X682874Y501268D01*
X682978Y501171D01*
X683079Y501075D01*
X683080Y501075D01*
X683081Y501074D01*
X683207Y501009D01*
X683332Y500945D01*
X683333Y500945D01*
X683335Y500944D01*
X683349Y500942D01*
X683611Y500890D01*
X683641Y500893D01*
X683666Y500889D01*
X762127Y500889D01*
X762185Y500897D01*
G37*
G36*
X342945Y87382D02*
X342945Y87382D01*
X343033Y87383D01*
X345238Y87575D01*
X345249Y87578D01*
X345259Y87577D01*
X345500Y87622D01*
X347638Y88195D01*
X347648Y88198D01*
X347658Y88200D01*
X347887Y88285D01*
X349894Y89221D01*
X349903Y89226D01*
X349913Y89230D01*
X350124Y89354D01*
X351937Y90623D01*
X351945Y90631D01*
X351954Y90636D01*
X352141Y90794D01*
X353706Y92360D01*
X353712Y92368D01*
X353721Y92374D01*
X353856Y92538D01*
X353861Y92544D01*
X353863Y92547D01*
X353877Y92563D01*
X355146Y94376D01*
X355151Y94386D01*
X355158Y94394D01*
X355279Y94606D01*
X356215Y96613D01*
X356218Y96623D01*
X356223Y96632D01*
X356305Y96862D01*
X356878Y99000D01*
X356880Y99011D01*
X356884Y99021D01*
X356925Y99262D01*
X357117Y101467D01*
X357116Y101513D01*
X357123Y101600D01*
X357123Y203200D01*
X357118Y203245D01*
X357117Y203333D01*
X356925Y205538D01*
X356922Y205549D01*
X356923Y205559D01*
X356878Y205800D01*
X356305Y207938D01*
X356302Y207948D01*
X356300Y207958D01*
X356215Y208187D01*
X355279Y210194D01*
X355274Y210203D01*
X355270Y210213D01*
X355146Y210424D01*
X353877Y212237D01*
X353869Y212245D01*
X353864Y212254D01*
X353706Y212441D01*
X352141Y214006D01*
X352132Y214012D01*
X352126Y214021D01*
X351937Y214177D01*
X350124Y215446D01*
X350114Y215451D01*
X350106Y215458D01*
X349894Y215579D01*
X347887Y216515D01*
X347877Y216518D01*
X347868Y216523D01*
X347638Y216605D01*
X345500Y217178D01*
X345489Y217180D01*
X345479Y217184D01*
X345238Y217225D01*
X343033Y217417D01*
X342987Y217416D01*
X342900Y217423D01*
X203200Y217423D01*
X203155Y217418D01*
X203067Y217417D01*
X200862Y217225D01*
X200851Y217222D01*
X200841Y217223D01*
X200600Y217178D01*
X198462Y216605D01*
X198452Y216602D01*
X198442Y216600D01*
X198213Y216515D01*
X196206Y215579D01*
X196197Y215574D01*
X196187Y215570D01*
X195976Y215446D01*
X194163Y214177D01*
X194155Y214169D01*
X194146Y214164D01*
X193960Y214006D01*
X192394Y212441D01*
X192388Y212432D01*
X192379Y212426D01*
X192223Y212237D01*
X190954Y210424D01*
X190949Y210414D01*
X190942Y210406D01*
X190821Y210194D01*
X189885Y208187D01*
X189882Y208177D01*
X189877Y208168D01*
X189795Y207938D01*
X189222Y205800D01*
X189220Y205789D01*
X189216Y205779D01*
X189175Y205538D01*
X188983Y203333D01*
X188984Y203287D01*
X188977Y203200D01*
X188977Y101600D01*
X188982Y101555D01*
X188983Y101467D01*
X189175Y99262D01*
X189178Y99251D01*
X189177Y99241D01*
X189222Y99000D01*
X189585Y97643D01*
X189585Y97642D01*
X189795Y96862D01*
X189798Y96852D01*
X189800Y96842D01*
X189885Y96613D01*
X190821Y94606D01*
X190826Y94597D01*
X190830Y94587D01*
X190954Y94376D01*
X192223Y92563D01*
X192231Y92555D01*
X192236Y92546D01*
X192300Y92470D01*
X192305Y92463D01*
X192310Y92458D01*
X192394Y92360D01*
X193960Y90794D01*
X193968Y90788D01*
X193974Y90779D01*
X194163Y90623D01*
X195976Y89354D01*
X195986Y89349D01*
X195994Y89342D01*
X196206Y89221D01*
X198213Y88285D01*
X198223Y88282D01*
X198232Y88277D01*
X198462Y88195D01*
X200600Y87622D01*
X200611Y87620D01*
X200621Y87616D01*
X200862Y87575D01*
X203067Y87383D01*
X203113Y87384D01*
X203200Y87377D01*
X342900Y87377D01*
X342945Y87382D01*
G37*
G36*
X609645Y87382D02*
X609645Y87382D01*
X609733Y87383D01*
X611938Y87575D01*
X611949Y87578D01*
X611959Y87577D01*
X612200Y87622D01*
X614338Y88195D01*
X614348Y88198D01*
X614358Y88200D01*
X614587Y88285D01*
X616594Y89221D01*
X616603Y89226D01*
X616613Y89230D01*
X616824Y89354D01*
X618637Y90623D01*
X618645Y90631D01*
X618654Y90636D01*
X618841Y90794D01*
X620406Y92360D01*
X620412Y92368D01*
X620421Y92374D01*
X620556Y92538D01*
X620561Y92544D01*
X620563Y92547D01*
X620577Y92563D01*
X621846Y94376D01*
X621851Y94386D01*
X621858Y94394D01*
X621979Y94606D01*
X622915Y96613D01*
X622918Y96623D01*
X622923Y96632D01*
X623005Y96862D01*
X623578Y99000D01*
X623580Y99011D01*
X623584Y99021D01*
X623625Y99262D01*
X623817Y101467D01*
X623816Y101513D01*
X623823Y101600D01*
X623823Y203200D01*
X623818Y203245D01*
X623817Y203333D01*
X623625Y205538D01*
X623622Y205549D01*
X623623Y205559D01*
X623578Y205800D01*
X623005Y207938D01*
X623002Y207948D01*
X623000Y207958D01*
X622915Y208187D01*
X621979Y210194D01*
X621974Y210203D01*
X621970Y210213D01*
X621846Y210424D01*
X620577Y212237D01*
X620569Y212245D01*
X620564Y212254D01*
X620406Y212441D01*
X618841Y214006D01*
X618832Y214012D01*
X618826Y214021D01*
X618637Y214177D01*
X616824Y215446D01*
X616814Y215451D01*
X616806Y215458D01*
X616594Y215579D01*
X614587Y216515D01*
X614577Y216518D01*
X614568Y216523D01*
X614338Y216605D01*
X612200Y217178D01*
X612189Y217180D01*
X612179Y217184D01*
X611938Y217225D01*
X609733Y217417D01*
X609687Y217416D01*
X609600Y217423D01*
X469900Y217423D01*
X469855Y217418D01*
X469767Y217417D01*
X467562Y217225D01*
X467551Y217222D01*
X467541Y217223D01*
X467300Y217178D01*
X465162Y216605D01*
X465152Y216602D01*
X465142Y216600D01*
X464913Y216515D01*
X462906Y215579D01*
X462897Y215574D01*
X462887Y215570D01*
X462676Y215446D01*
X460863Y214177D01*
X460855Y214169D01*
X460846Y214164D01*
X460660Y214006D01*
X459094Y212441D01*
X459088Y212432D01*
X459079Y212426D01*
X458923Y212237D01*
X457654Y210424D01*
X457649Y210414D01*
X457642Y210406D01*
X457521Y210194D01*
X456585Y208187D01*
X456582Y208177D01*
X456577Y208168D01*
X456495Y207938D01*
X455922Y205800D01*
X455920Y205789D01*
X455916Y205779D01*
X455875Y205538D01*
X455683Y203333D01*
X455684Y203287D01*
X455677Y203200D01*
X455677Y101600D01*
X455682Y101555D01*
X455683Y101467D01*
X455875Y99262D01*
X455878Y99251D01*
X455877Y99241D01*
X455922Y99000D01*
X456285Y97643D01*
X456285Y97642D01*
X456495Y96862D01*
X456498Y96852D01*
X456500Y96842D01*
X456585Y96613D01*
X457521Y94606D01*
X457526Y94597D01*
X457530Y94587D01*
X457654Y94376D01*
X458923Y92563D01*
X458931Y92555D01*
X458936Y92546D01*
X459000Y92470D01*
X459005Y92463D01*
X459010Y92458D01*
X459094Y92360D01*
X460660Y90794D01*
X460668Y90788D01*
X460674Y90779D01*
X460863Y90623D01*
X462676Y89354D01*
X462686Y89349D01*
X462694Y89342D01*
X462906Y89221D01*
X464913Y88285D01*
X464923Y88282D01*
X464932Y88277D01*
X465162Y88195D01*
X467300Y87622D01*
X467311Y87620D01*
X467321Y87616D01*
X467562Y87575D01*
X469767Y87383D01*
X469813Y87384D01*
X469900Y87377D01*
X609600Y87377D01*
X609645Y87382D01*
G37*
G36*
X313867Y631013D02*
X313867Y631013D01*
X313980Y631010D01*
X314009Y631017D01*
X314038Y631018D01*
X314146Y631053D01*
X314255Y631082D01*
X314281Y631097D01*
X314309Y631106D01*
X314372Y631151D01*
X314500Y631227D01*
X314543Y631273D01*
X314582Y631301D01*
X351365Y668084D01*
X351417Y668153D01*
X351477Y668217D01*
X351503Y668267D01*
X351536Y668311D01*
X351567Y668393D01*
X351607Y668471D01*
X351615Y668518D01*
X351637Y668577D01*
X351645Y668667D01*
X351648Y668679D01*
X351649Y668725D01*
X351662Y668802D01*
X351662Y671048D01*
X357525Y676911D01*
X376840Y676911D01*
X376926Y676923D01*
X377014Y676926D01*
X377067Y676943D01*
X377121Y676951D01*
X377201Y676986D01*
X377284Y677013D01*
X377324Y677041D01*
X377381Y677067D01*
X377494Y677163D01*
X377558Y677208D01*
X378718Y678368D01*
X378808Y678415D01*
X378828Y678434D01*
X378852Y678448D01*
X378931Y678532D01*
X379014Y678611D01*
X379028Y678635D01*
X379047Y678655D01*
X379100Y678757D01*
X379158Y678856D01*
X379165Y678883D01*
X379177Y678908D01*
X379200Y679021D01*
X379228Y679132D01*
X379227Y679159D01*
X379233Y679187D01*
X379223Y679301D01*
X379219Y679416D01*
X379210Y679442D01*
X379208Y679470D01*
X379167Y679577D01*
X379132Y679686D01*
X379117Y679707D01*
X379106Y679735D01*
X378945Y679947D01*
X378937Y679960D01*
X376262Y682634D01*
X375411Y684688D01*
X375411Y725314D01*
X375411Y725316D01*
X375411Y725317D01*
X375391Y725457D01*
X375371Y725596D01*
X375371Y725597D01*
X375371Y725599D01*
X375313Y725726D01*
X375255Y725855D01*
X375254Y725856D01*
X375253Y725858D01*
X375162Y725965D01*
X375072Y726072D01*
X375070Y726073D01*
X375069Y726074D01*
X375056Y726082D01*
X374835Y726230D01*
X374806Y726239D01*
X374785Y726252D01*
X374237Y726479D01*
X370879Y729837D01*
X369238Y733799D01*
X369223Y733824D01*
X369214Y733852D01*
X369151Y733946D01*
X369093Y734043D01*
X369072Y734064D01*
X369056Y734088D01*
X368969Y734161D01*
X368887Y734239D01*
X368861Y734252D01*
X368838Y734271D01*
X368735Y734317D01*
X368634Y734369D01*
X368605Y734375D01*
X368578Y734386D01*
X368466Y734402D01*
X368355Y734424D01*
X368326Y734421D01*
X368297Y734425D01*
X368185Y734409D01*
X368072Y734399D01*
X368045Y734389D01*
X368015Y734385D01*
X367912Y734338D01*
X367807Y734297D01*
X367783Y734280D01*
X367756Y734268D01*
X367670Y734194D01*
X367580Y734126D01*
X367562Y734102D01*
X367540Y734083D01*
X367498Y734017D01*
X367410Y733898D01*
X367388Y733840D01*
X367362Y733799D01*
X365721Y729837D01*
X362363Y726479D01*
X357975Y724661D01*
X353225Y724661D01*
X348837Y726479D01*
X345479Y729837D01*
X343661Y734225D01*
X343661Y738975D01*
X345283Y742889D01*
X345296Y742940D01*
X345318Y742987D01*
X345331Y743077D01*
X345354Y743164D01*
X345352Y743217D01*
X345360Y743269D01*
X345348Y743358D01*
X345345Y743449D01*
X345330Y743498D01*
X345323Y743550D01*
X345286Y743633D01*
X345259Y743719D01*
X345230Y743763D01*
X345209Y743811D01*
X345151Y743880D01*
X345101Y743956D01*
X345060Y743989D01*
X345027Y744029D01*
X344952Y744080D01*
X344931Y744098D01*
X344931Y754634D01*
X344923Y754692D01*
X344925Y754750D01*
X344903Y754832D01*
X344891Y754915D01*
X344867Y754969D01*
X344853Y755025D01*
X344810Y755098D01*
X344775Y755175D01*
X344737Y755219D01*
X344707Y755270D01*
X344646Y755327D01*
X344591Y755392D01*
X344543Y755424D01*
X344500Y755464D01*
X344425Y755503D01*
X344355Y755549D01*
X344299Y755567D01*
X344247Y755594D01*
X344179Y755605D01*
X344084Y755635D01*
X343984Y755638D01*
X343916Y755649D01*
X342899Y755649D01*
X342899Y755651D01*
X343916Y755651D01*
X343974Y755659D01*
X344032Y755658D01*
X344114Y755679D01*
X344197Y755691D01*
X344251Y755715D01*
X344307Y755729D01*
X344380Y755772D01*
X344457Y755807D01*
X344502Y755845D01*
X344552Y755875D01*
X344610Y755936D01*
X344674Y755991D01*
X344706Y756039D01*
X344746Y756082D01*
X344785Y756157D01*
X344831Y756227D01*
X344849Y756283D01*
X344876Y756335D01*
X344887Y756403D01*
X344917Y756498D01*
X344920Y756598D01*
X344931Y756666D01*
X344931Y767202D01*
X344988Y767237D01*
X345023Y767275D01*
X345065Y767307D01*
X345119Y767379D01*
X345180Y767446D01*
X345204Y767492D01*
X345235Y767534D01*
X345267Y767619D01*
X345307Y767700D01*
X345317Y767751D01*
X345335Y767800D01*
X345343Y767891D01*
X345359Y767979D01*
X345354Y768031D01*
X345358Y768084D01*
X345342Y768154D01*
X345331Y768262D01*
X345297Y768347D01*
X345283Y768411D01*
X343661Y772325D01*
X343661Y777075D01*
X345283Y780989D01*
X345296Y781040D01*
X345318Y781088D01*
X345331Y781177D01*
X345354Y781264D01*
X345352Y781317D01*
X345360Y781369D01*
X345348Y781458D01*
X345345Y781549D01*
X345330Y781598D01*
X345323Y781650D01*
X345286Y781733D01*
X345259Y781819D01*
X345230Y781863D01*
X345209Y781911D01*
X345151Y781980D01*
X345101Y782056D01*
X345060Y782089D01*
X345027Y782130D01*
X344952Y782180D01*
X344931Y782198D01*
X344931Y791719D01*
X354152Y791719D01*
X354049Y791073D01*
X353493Y789362D01*
X352858Y788115D01*
X352854Y788103D01*
X352847Y788093D01*
X352808Y787969D01*
X352765Y787846D01*
X352765Y787834D01*
X352761Y787822D01*
X352758Y787692D01*
X352751Y787562D01*
X352754Y787550D01*
X352754Y787538D01*
X352787Y787412D01*
X352816Y787285D01*
X352822Y787274D01*
X352826Y787263D01*
X352892Y787151D01*
X352956Y787038D01*
X352965Y787029D01*
X352971Y787018D01*
X353066Y786929D01*
X353158Y786838D01*
X353169Y786832D01*
X353178Y786824D01*
X353294Y786764D01*
X353408Y786703D01*
X353420Y786700D01*
X353431Y786694D01*
X353494Y786684D01*
X353686Y786642D01*
X353729Y786644D01*
X353762Y786639D01*
X356804Y786639D01*
X356918Y786655D01*
X357032Y786665D01*
X357058Y786675D01*
X357085Y786679D01*
X357190Y786726D01*
X357297Y786767D01*
X357319Y786783D01*
X357345Y786795D01*
X357432Y786869D01*
X357524Y786938D01*
X357541Y786961D01*
X357562Y786978D01*
X357625Y787074D01*
X357694Y787166D01*
X357704Y787192D01*
X357719Y787215D01*
X357754Y787325D01*
X357794Y787432D01*
X357797Y787460D01*
X357805Y787486D01*
X357808Y787601D01*
X357817Y787715D01*
X357812Y787740D01*
X357812Y787770D01*
X357745Y788027D01*
X357742Y788043D01*
X356361Y791375D01*
X356361Y796125D01*
X358057Y800219D01*
X358086Y800331D01*
X358121Y800440D01*
X358121Y800468D01*
X358128Y800495D01*
X358125Y800609D01*
X358128Y800724D01*
X358121Y800751D01*
X358120Y800779D01*
X358085Y800888D01*
X358056Y800999D01*
X358042Y801023D01*
X358034Y801050D01*
X357970Y801145D01*
X357911Y801244D01*
X357891Y801263D01*
X357875Y801286D01*
X357787Y801360D01*
X357704Y801438D01*
X357679Y801451D01*
X357658Y801469D01*
X357553Y801515D01*
X357450Y801568D01*
X357426Y801572D01*
X357398Y801584D01*
X357134Y801621D01*
X357119Y801623D01*
X353301Y801623D01*
X353210Y801610D01*
X353118Y801607D01*
X353070Y801591D01*
X353020Y801583D01*
X352936Y801546D01*
X352849Y801517D01*
X352807Y801488D01*
X352761Y801467D01*
X352690Y801408D01*
X352614Y801356D01*
X352582Y801316D01*
X352544Y801284D01*
X352492Y801207D01*
X352434Y801136D01*
X352414Y801089D01*
X352386Y801047D01*
X352358Y800959D01*
X352322Y800875D01*
X352315Y800824D01*
X352300Y800776D01*
X352298Y800684D01*
X352286Y800593D01*
X352294Y800542D01*
X352293Y800492D01*
X352316Y800403D01*
X352330Y800312D01*
X352350Y800272D01*
X352365Y800217D01*
X352446Y800080D01*
X352480Y800011D01*
X352676Y799741D01*
X353493Y798138D01*
X354049Y796427D01*
X354152Y795781D01*
X343916Y795781D01*
X343858Y795773D01*
X343800Y795775D01*
X343718Y795753D01*
X343635Y795741D01*
X343581Y795717D01*
X343525Y795703D01*
X343452Y795660D01*
X343375Y795625D01*
X343331Y795587D01*
X343280Y795557D01*
X343223Y795496D01*
X343158Y795441D01*
X343126Y795393D01*
X343086Y795350D01*
X343047Y795275D01*
X343001Y795205D01*
X342983Y795149D01*
X342956Y795097D01*
X342945Y795029D01*
X342915Y794934D01*
X342912Y794834D01*
X342901Y794766D01*
X342901Y793749D01*
X341884Y793749D01*
X341826Y793741D01*
X341768Y793742D01*
X341686Y793721D01*
X341603Y793709D01*
X341549Y793685D01*
X341493Y793671D01*
X341420Y793628D01*
X341343Y793593D01*
X341298Y793555D01*
X341248Y793525D01*
X341190Y793464D01*
X341126Y793409D01*
X341094Y793361D01*
X341054Y793318D01*
X341015Y793243D01*
X340969Y793173D01*
X340951Y793117D01*
X340924Y793065D01*
X340913Y792997D01*
X340883Y792902D01*
X340880Y792802D01*
X340869Y792734D01*
X340869Y782498D01*
X340223Y782601D01*
X338512Y783157D01*
X336909Y783974D01*
X335453Y785031D01*
X334181Y786303D01*
X333124Y787759D01*
X332307Y789362D01*
X331751Y791073D01*
X331645Y791742D01*
X331618Y791830D01*
X331600Y791921D01*
X331576Y791966D01*
X331561Y792014D01*
X331511Y792091D01*
X331469Y792173D01*
X331434Y792210D01*
X331406Y792252D01*
X331336Y792312D01*
X331273Y792379D01*
X331229Y792405D01*
X331191Y792438D01*
X331107Y792476D01*
X331028Y792523D01*
X330979Y792535D01*
X330932Y792556D01*
X330841Y792570D01*
X330752Y792593D01*
X330701Y792591D01*
X330651Y792599D01*
X330560Y792587D01*
X330468Y792584D01*
X330420Y792568D01*
X330369Y792562D01*
X330285Y792525D01*
X330197Y792496D01*
X330161Y792470D01*
X330109Y792448D01*
X329987Y792346D01*
X329924Y792301D01*
X310813Y773190D01*
X310761Y773121D01*
X310701Y773057D01*
X310675Y773007D01*
X310642Y772963D01*
X310611Y772882D01*
X310571Y772804D01*
X310563Y772756D01*
X310541Y772698D01*
X310531Y772573D01*
X310530Y772570D01*
X310529Y772558D01*
X310529Y772550D01*
X310516Y772473D01*
X310516Y640023D01*
X310528Y639937D01*
X310531Y639849D01*
X310548Y639797D01*
X310556Y639742D01*
X310591Y639662D01*
X310618Y639579D01*
X310646Y639540D01*
X310672Y639483D01*
X310768Y639369D01*
X310813Y639306D01*
X312849Y637270D01*
X312849Y632019D01*
X312853Y631989D01*
X312850Y631960D01*
X312873Y631849D01*
X312889Y631737D01*
X312901Y631710D01*
X312906Y631682D01*
X312958Y631581D01*
X313005Y631478D01*
X313024Y631455D01*
X313037Y631429D01*
X313115Y631347D01*
X313188Y631261D01*
X313213Y631244D01*
X313233Y631223D01*
X313331Y631166D01*
X313425Y631103D01*
X313453Y631094D01*
X313478Y631079D01*
X313588Y631052D01*
X313696Y631017D01*
X313726Y631017D01*
X313754Y631009D01*
X313867Y631013D01*
G37*
%LPC*%
G36*
X713564Y332993D02*
X713564Y332993D01*
X706072Y335720D01*
X699965Y340844D01*
X695979Y347749D01*
X694595Y355600D01*
X695979Y363451D01*
X699965Y370355D01*
X706072Y375480D01*
X713564Y378207D01*
X721536Y378207D01*
X729028Y375480D01*
X735135Y370356D01*
X739121Y363451D01*
X740505Y355600D01*
X739121Y347749D01*
X735135Y340845D01*
X729028Y335720D01*
X721536Y332993D01*
X713564Y332993D01*
G37*
%LPD*%
%LPC*%
G36*
X713564Y536193D02*
X713564Y536193D01*
X706072Y538920D01*
X699965Y544044D01*
X695979Y550949D01*
X694595Y558800D01*
X695979Y566651D01*
X699965Y573556D01*
X706072Y578680D01*
X713564Y581407D01*
X721536Y581407D01*
X729028Y578680D01*
X735135Y573556D01*
X739121Y566651D01*
X740505Y558800D01*
X739121Y550949D01*
X735135Y544045D01*
X729028Y538920D01*
X721536Y536193D01*
X713564Y536193D01*
G37*
%LPD*%
%LPC*%
G36*
X910414Y815593D02*
X910414Y815593D01*
X902922Y818320D01*
X896815Y823444D01*
X892829Y830349D01*
X891445Y838200D01*
X892829Y846051D01*
X896815Y852955D01*
X902922Y858080D01*
X910414Y860807D01*
X918386Y860807D01*
X925878Y858080D01*
X931985Y852956D01*
X935971Y846051D01*
X937355Y838200D01*
X935971Y830349D01*
X931985Y823445D01*
X925878Y818320D01*
X918386Y815593D01*
X910414Y815593D01*
G37*
%LPD*%
%LPC*%
G36*
X497664Y332993D02*
X497664Y332993D01*
X490172Y335720D01*
X484065Y340844D01*
X480079Y347749D01*
X478695Y355600D01*
X480079Y363451D01*
X484065Y370355D01*
X490172Y375480D01*
X497664Y378207D01*
X505636Y378207D01*
X513128Y375480D01*
X519235Y370356D01*
X523221Y363451D01*
X524605Y355600D01*
X523221Y347749D01*
X519235Y340845D01*
X513128Y335720D01*
X505636Y332993D01*
X497664Y332993D01*
G37*
%LPD*%
%LPC*%
G36*
X606215Y295401D02*
X606215Y295401D01*
X599960Y297992D01*
X595172Y302780D01*
X592581Y309035D01*
X592581Y315805D01*
X595172Y322060D01*
X599960Y326848D01*
X606215Y329439D01*
X612985Y329439D01*
X619240Y326848D01*
X624028Y322060D01*
X626619Y315805D01*
X626619Y309035D01*
X624028Y302780D01*
X619240Y297992D01*
X612985Y295401D01*
X606215Y295401D01*
G37*
%LPD*%
%LPC*%
G36*
X676401Y366269D02*
X676401Y366269D01*
X686136Y366269D01*
X686015Y365504D01*
X685434Y363717D01*
X684581Y362043D01*
X683476Y360522D01*
X682148Y359194D01*
X680627Y358089D01*
X678953Y357236D01*
X677166Y356655D01*
X676401Y356534D01*
X676401Y366269D01*
G37*
%LPD*%
%LPC*%
G36*
X840231Y776731D02*
X840231Y776731D01*
X840231Y785952D01*
X840877Y785849D01*
X842588Y785293D01*
X844191Y784476D01*
X845647Y783419D01*
X846919Y782147D01*
X847976Y780691D01*
X848793Y779088D01*
X849349Y777377D01*
X849452Y776731D01*
X840231Y776731D01*
G37*
%LPD*%
%LPC*%
G36*
X840231Y738631D02*
X840231Y738631D01*
X840231Y747852D01*
X840877Y747749D01*
X842588Y747193D01*
X844191Y746376D01*
X845647Y745319D01*
X846919Y744047D01*
X847976Y742591D01*
X848793Y740988D01*
X849349Y739277D01*
X849452Y738631D01*
X840231Y738631D01*
G37*
%LPD*%
%LPC*%
G36*
X840231Y772669D02*
X840231Y772669D01*
X849452Y772669D01*
X849349Y772023D01*
X848793Y770312D01*
X847976Y768709D01*
X846919Y767253D01*
X845647Y765981D01*
X844191Y764924D01*
X842588Y764107D01*
X840877Y763551D01*
X840231Y763448D01*
X840231Y772669D01*
G37*
%LPD*%
%LPC*%
G36*
X331648Y757681D02*
X331648Y757681D01*
X331751Y758327D01*
X332307Y760038D01*
X333124Y761641D01*
X334181Y763097D01*
X335453Y764369D01*
X336909Y765426D01*
X338512Y766243D01*
X340223Y766799D01*
X340869Y766902D01*
X340869Y757681D01*
X331648Y757681D01*
G37*
%LPD*%
%LPC*%
G36*
X840231Y734569D02*
X840231Y734569D01*
X849452Y734569D01*
X849349Y733923D01*
X848793Y732212D01*
X847976Y730609D01*
X846919Y729153D01*
X845647Y727881D01*
X844191Y726824D01*
X842588Y726007D01*
X840877Y725451D01*
X840231Y725348D01*
X840231Y734569D01*
G37*
%LPD*%
%LPC*%
G36*
X835523Y725451D02*
X835523Y725451D01*
X833812Y726007D01*
X832209Y726824D01*
X830753Y727881D01*
X829481Y729153D01*
X828424Y730609D01*
X827607Y732212D01*
X827051Y733923D01*
X826948Y734569D01*
X836169Y734569D01*
X836169Y725348D01*
X835523Y725451D01*
G37*
%LPD*%
%LPC*%
G36*
X340223Y744501D02*
X340223Y744501D01*
X338512Y745057D01*
X336909Y745874D01*
X335453Y746931D01*
X334181Y748203D01*
X333124Y749659D01*
X332307Y751262D01*
X331751Y752973D01*
X331648Y753619D01*
X340869Y753619D01*
X340869Y744398D01*
X340223Y744501D01*
G37*
%LPD*%
%LPC*%
G36*
X867931Y205231D02*
X867931Y205231D01*
X867931Y212741D01*
X871818Y212741D01*
X872586Y212535D01*
X873275Y212137D01*
X873837Y211575D01*
X874235Y210886D01*
X874441Y210118D01*
X874441Y205231D01*
X867931Y205231D01*
G37*
%LPD*%
%LPC*%
G36*
X867931Y167131D02*
X867931Y167131D01*
X867931Y174641D01*
X871818Y174641D01*
X872586Y174435D01*
X873275Y174037D01*
X873837Y173475D01*
X874235Y172786D01*
X874441Y172018D01*
X874441Y167131D01*
X867931Y167131D01*
G37*
%LPD*%
%LPC*%
G36*
X867931Y90931D02*
X867931Y90931D01*
X867931Y98441D01*
X871818Y98441D01*
X872586Y98235D01*
X873275Y97837D01*
X873837Y97275D01*
X874235Y96586D01*
X874441Y95818D01*
X874441Y90931D01*
X867931Y90931D01*
G37*
%LPD*%
%LPC*%
G36*
X867931Y129031D02*
X867931Y129031D01*
X867931Y136541D01*
X871818Y136541D01*
X872586Y136335D01*
X873275Y135937D01*
X873837Y135375D01*
X874235Y134686D01*
X874441Y133918D01*
X874441Y129031D01*
X867931Y129031D01*
G37*
%LPD*%
%LPC*%
G36*
X867931Y193659D02*
X867931Y193659D01*
X867931Y201169D01*
X874441Y201169D01*
X874441Y196282D01*
X874235Y195514D01*
X873837Y194825D01*
X873275Y194263D01*
X872586Y193865D01*
X871818Y193659D01*
X867931Y193659D01*
G37*
%LPD*%
%LPC*%
G36*
X867931Y155559D02*
X867931Y155559D01*
X867931Y163069D01*
X874441Y163069D01*
X874441Y158182D01*
X874235Y157414D01*
X873837Y156725D01*
X873275Y156163D01*
X872586Y155765D01*
X871818Y155559D01*
X867931Y155559D01*
G37*
%LPD*%
%LPC*%
G36*
X867931Y117459D02*
X867931Y117459D01*
X867931Y124969D01*
X874441Y124969D01*
X874441Y120082D01*
X874235Y119314D01*
X873837Y118625D01*
X873275Y118063D01*
X872586Y117665D01*
X871818Y117459D01*
X867931Y117459D01*
G37*
%LPD*%
%LPC*%
G36*
X867931Y79359D02*
X867931Y79359D01*
X867931Y86869D01*
X874441Y86869D01*
X874441Y81982D01*
X874235Y81214D01*
X873837Y80525D01*
X873275Y79963D01*
X872586Y79565D01*
X871818Y79359D01*
X867931Y79359D01*
G37*
%LPD*%
%LPC*%
G36*
X857359Y90931D02*
X857359Y90931D01*
X857359Y95818D01*
X857565Y96586D01*
X857963Y97275D01*
X858525Y97837D01*
X859214Y98235D01*
X859982Y98441D01*
X863869Y98441D01*
X863869Y90931D01*
X857359Y90931D01*
G37*
%LPD*%
%LPC*%
G36*
X859982Y79359D02*
X859982Y79359D01*
X859214Y79565D01*
X858525Y79963D01*
X857963Y80525D01*
X857565Y81214D01*
X857359Y81982D01*
X857359Y86869D01*
X863869Y86869D01*
X863869Y79359D01*
X859982Y79359D01*
G37*
%LPD*%
G36*
X661689Y640664D02*
X661689Y640664D01*
X661711Y640668D01*
X661718Y640683D01*
X661727Y640689D01*
X661726Y640699D01*
X661733Y640715D01*
X661733Y654685D01*
X661721Y654704D01*
X661717Y654726D01*
X661702Y654733D01*
X661696Y654742D01*
X661686Y654741D01*
X661670Y654748D01*
X659130Y654748D01*
X659111Y654736D01*
X659089Y654732D01*
X659082Y654717D01*
X659073Y654711D01*
X659074Y654701D01*
X659067Y654685D01*
X659067Y640715D01*
X659079Y640696D01*
X659083Y640674D01*
X659098Y640667D01*
X659104Y640658D01*
X659114Y640659D01*
X659130Y640652D01*
X661670Y640652D01*
X661689Y640664D01*
G37*
G36*
X534689Y627964D02*
X534689Y627964D01*
X534711Y627968D01*
X534718Y627983D01*
X534727Y627989D01*
X534726Y627999D01*
X534733Y628015D01*
X534733Y641985D01*
X534721Y642004D01*
X534717Y642026D01*
X534702Y642033D01*
X534696Y642042D01*
X534686Y642041D01*
X534670Y642048D01*
X532130Y642048D01*
X532111Y642036D01*
X532089Y642032D01*
X532082Y642017D01*
X532073Y642011D01*
X532074Y642001D01*
X532067Y641985D01*
X532067Y628015D01*
X532079Y627996D01*
X532083Y627974D01*
X532098Y627967D01*
X532104Y627958D01*
X532114Y627959D01*
X532130Y627952D01*
X534670Y627952D01*
X534689Y627964D01*
G37*
G36*
X781704Y417779D02*
X781704Y417779D01*
X781726Y417783D01*
X781733Y417798D01*
X781742Y417804D01*
X781741Y417814D01*
X781748Y417830D01*
X781748Y420370D01*
X781736Y420389D01*
X781732Y420411D01*
X781717Y420418D01*
X781711Y420427D01*
X781701Y420426D01*
X781685Y420433D01*
X767715Y420433D01*
X767696Y420421D01*
X767674Y420417D01*
X767667Y420402D01*
X767658Y420396D01*
X767659Y420386D01*
X767652Y420370D01*
X767652Y417830D01*
X767664Y417811D01*
X767668Y417789D01*
X767683Y417782D01*
X767689Y417773D01*
X767699Y417774D01*
X767715Y417767D01*
X781685Y417767D01*
X781704Y417779D01*
G37*
G36*
X464204Y417779D02*
X464204Y417779D01*
X464226Y417783D01*
X464233Y417798D01*
X464242Y417804D01*
X464241Y417814D01*
X464248Y417830D01*
X464248Y420370D01*
X464236Y420389D01*
X464232Y420411D01*
X464217Y420418D01*
X464211Y420427D01*
X464201Y420426D01*
X464185Y420433D01*
X450215Y420433D01*
X450196Y420421D01*
X450174Y420417D01*
X450167Y420402D01*
X450158Y420396D01*
X450159Y420386D01*
X450152Y420370D01*
X450152Y417830D01*
X450164Y417811D01*
X450168Y417789D01*
X450183Y417782D01*
X450189Y417773D01*
X450199Y417774D01*
X450215Y417767D01*
X464185Y417767D01*
X464204Y417779D01*
G37*
G36*
X781704Y392379D02*
X781704Y392379D01*
X781726Y392383D01*
X781733Y392398D01*
X781742Y392404D01*
X781741Y392414D01*
X781748Y392430D01*
X781748Y394970D01*
X781736Y394989D01*
X781732Y395011D01*
X781717Y395018D01*
X781711Y395027D01*
X781701Y395026D01*
X781685Y395033D01*
X767715Y395033D01*
X767696Y395021D01*
X767674Y395017D01*
X767667Y395002D01*
X767658Y394996D01*
X767659Y394986D01*
X767652Y394970D01*
X767652Y392430D01*
X767664Y392411D01*
X767668Y392389D01*
X767683Y392382D01*
X767689Y392373D01*
X767699Y392374D01*
X767715Y392367D01*
X781685Y392367D01*
X781704Y392379D01*
G37*
G36*
X464204Y493979D02*
X464204Y493979D01*
X464226Y493983D01*
X464233Y493998D01*
X464242Y494004D01*
X464241Y494014D01*
X464248Y494030D01*
X464248Y496570D01*
X464236Y496589D01*
X464232Y496611D01*
X464217Y496618D01*
X464211Y496627D01*
X464201Y496626D01*
X464185Y496633D01*
X450215Y496633D01*
X450196Y496621D01*
X450174Y496617D01*
X450167Y496602D01*
X450158Y496596D01*
X450159Y496586D01*
X450152Y496570D01*
X450152Y494030D01*
X450164Y494011D01*
X450168Y493989D01*
X450183Y493982D01*
X450189Y493973D01*
X450199Y493974D01*
X450215Y493967D01*
X464185Y493967D01*
X464204Y493979D01*
G37*
G36*
X781704Y493979D02*
X781704Y493979D01*
X781726Y493983D01*
X781733Y493998D01*
X781742Y494004D01*
X781741Y494014D01*
X781748Y494030D01*
X781748Y496570D01*
X781736Y496589D01*
X781732Y496611D01*
X781717Y496618D01*
X781711Y496627D01*
X781701Y496626D01*
X781685Y496633D01*
X767715Y496633D01*
X767696Y496621D01*
X767674Y496617D01*
X767667Y496602D01*
X767658Y496596D01*
X767659Y496586D01*
X767652Y496570D01*
X767652Y494030D01*
X767664Y494011D01*
X767668Y493989D01*
X767683Y493982D01*
X767689Y493973D01*
X767699Y493974D01*
X767715Y493967D01*
X781685Y493967D01*
X781704Y493979D01*
G37*
G36*
X464204Y519379D02*
X464204Y519379D01*
X464226Y519383D01*
X464233Y519398D01*
X464242Y519404D01*
X464241Y519414D01*
X464248Y519430D01*
X464248Y521970D01*
X464236Y521989D01*
X464232Y522011D01*
X464217Y522018D01*
X464211Y522027D01*
X464201Y522026D01*
X464185Y522033D01*
X450215Y522033D01*
X450196Y522021D01*
X450174Y522017D01*
X450167Y522002D01*
X450158Y521996D01*
X450159Y521986D01*
X450152Y521970D01*
X450152Y519430D01*
X450164Y519411D01*
X450168Y519389D01*
X450183Y519382D01*
X450189Y519373D01*
X450199Y519374D01*
X450215Y519367D01*
X464185Y519367D01*
X464204Y519379D01*
G37*
G36*
X337839Y545414D02*
X337839Y545414D01*
X337861Y545418D01*
X337868Y545433D01*
X337877Y545439D01*
X337876Y545449D01*
X337883Y545465D01*
X337883Y559435D01*
X337871Y559454D01*
X337867Y559476D01*
X337852Y559483D01*
X337846Y559492D01*
X337836Y559491D01*
X337820Y559498D01*
X335280Y559498D01*
X335261Y559486D01*
X335239Y559482D01*
X335232Y559467D01*
X335223Y559461D01*
X335224Y559451D01*
X335217Y559435D01*
X335217Y545465D01*
X335229Y545446D01*
X335233Y545424D01*
X335248Y545417D01*
X335254Y545408D01*
X335264Y545409D01*
X335280Y545402D01*
X337820Y545402D01*
X337839Y545414D01*
G37*
G36*
X521989Y259664D02*
X521989Y259664D01*
X522011Y259668D01*
X522018Y259683D01*
X522027Y259689D01*
X522026Y259699D01*
X522033Y259715D01*
X522033Y273685D01*
X522021Y273704D01*
X522017Y273726D01*
X522002Y273733D01*
X521996Y273742D01*
X521986Y273741D01*
X521970Y273748D01*
X519430Y273748D01*
X519411Y273736D01*
X519389Y273732D01*
X519382Y273717D01*
X519373Y273711D01*
X519374Y273701D01*
X519367Y273685D01*
X519367Y259715D01*
X519379Y259696D01*
X519383Y259674D01*
X519398Y259667D01*
X519404Y259658D01*
X519414Y259659D01*
X519430Y259652D01*
X521970Y259652D01*
X521989Y259664D01*
G37*
G36*
X363239Y545414D02*
X363239Y545414D01*
X363261Y545418D01*
X363268Y545433D01*
X363277Y545439D01*
X363276Y545449D01*
X363283Y545465D01*
X363283Y559435D01*
X363271Y559454D01*
X363267Y559476D01*
X363252Y559483D01*
X363246Y559492D01*
X363236Y559491D01*
X363220Y559498D01*
X360680Y559498D01*
X360661Y559486D01*
X360639Y559482D01*
X360632Y559467D01*
X360623Y559461D01*
X360624Y559451D01*
X360617Y559435D01*
X360617Y545465D01*
X360629Y545446D01*
X360633Y545424D01*
X360648Y545417D01*
X360654Y545408D01*
X360664Y545409D01*
X360680Y545402D01*
X363220Y545402D01*
X363239Y545414D01*
G37*
G36*
X464204Y468579D02*
X464204Y468579D01*
X464226Y468583D01*
X464233Y468598D01*
X464242Y468604D01*
X464241Y468614D01*
X464248Y468630D01*
X464248Y471170D01*
X464236Y471189D01*
X464232Y471211D01*
X464217Y471218D01*
X464211Y471227D01*
X464201Y471226D01*
X464185Y471233D01*
X450215Y471233D01*
X450196Y471221D01*
X450174Y471217D01*
X450167Y471202D01*
X450158Y471196D01*
X450159Y471186D01*
X450152Y471170D01*
X450152Y468630D01*
X450164Y468611D01*
X450168Y468589D01*
X450183Y468582D01*
X450189Y468573D01*
X450199Y468574D01*
X450215Y468567D01*
X464185Y468567D01*
X464204Y468579D01*
G37*
G36*
X781704Y468579D02*
X781704Y468579D01*
X781726Y468583D01*
X781733Y468598D01*
X781742Y468604D01*
X781741Y468614D01*
X781748Y468630D01*
X781748Y471170D01*
X781736Y471189D01*
X781732Y471211D01*
X781717Y471218D01*
X781711Y471227D01*
X781701Y471226D01*
X781685Y471233D01*
X767715Y471233D01*
X767696Y471221D01*
X767674Y471217D01*
X767667Y471202D01*
X767658Y471196D01*
X767659Y471186D01*
X767652Y471170D01*
X767652Y468630D01*
X767664Y468611D01*
X767668Y468589D01*
X767683Y468582D01*
X767689Y468573D01*
X767699Y468574D01*
X767715Y468567D01*
X781685Y468567D01*
X781704Y468579D01*
G37*
G36*
X781704Y443179D02*
X781704Y443179D01*
X781726Y443183D01*
X781733Y443198D01*
X781742Y443204D01*
X781741Y443214D01*
X781748Y443230D01*
X781748Y445770D01*
X781736Y445789D01*
X781732Y445811D01*
X781717Y445818D01*
X781711Y445827D01*
X781701Y445826D01*
X781685Y445833D01*
X767715Y445833D01*
X767696Y445821D01*
X767674Y445817D01*
X767667Y445802D01*
X767658Y445796D01*
X767659Y445786D01*
X767652Y445770D01*
X767652Y443230D01*
X767664Y443211D01*
X767668Y443189D01*
X767683Y443182D01*
X767689Y443173D01*
X767699Y443174D01*
X767715Y443167D01*
X781685Y443167D01*
X781704Y443179D01*
G37*
G36*
X464204Y392379D02*
X464204Y392379D01*
X464226Y392383D01*
X464233Y392398D01*
X464242Y392404D01*
X464241Y392414D01*
X464248Y392430D01*
X464248Y394970D01*
X464236Y394989D01*
X464232Y395011D01*
X464217Y395018D01*
X464211Y395027D01*
X464201Y395026D01*
X464185Y395033D01*
X450215Y395033D01*
X450196Y395021D01*
X450174Y395017D01*
X450167Y395002D01*
X450158Y394996D01*
X450159Y394986D01*
X450152Y394970D01*
X450152Y392430D01*
X450164Y392411D01*
X450168Y392389D01*
X450183Y392382D01*
X450189Y392373D01*
X450199Y392374D01*
X450215Y392367D01*
X464185Y392367D01*
X464204Y392379D01*
G37*
G36*
X464204Y443179D02*
X464204Y443179D01*
X464226Y443183D01*
X464233Y443198D01*
X464242Y443204D01*
X464241Y443214D01*
X464248Y443230D01*
X464248Y445770D01*
X464236Y445789D01*
X464232Y445811D01*
X464217Y445818D01*
X464211Y445827D01*
X464201Y445826D01*
X464185Y445833D01*
X450215Y445833D01*
X450196Y445821D01*
X450174Y445817D01*
X450167Y445802D01*
X450158Y445796D01*
X450159Y445786D01*
X450152Y445770D01*
X450152Y443230D01*
X450164Y443211D01*
X450168Y443189D01*
X450183Y443182D01*
X450189Y443173D01*
X450199Y443174D01*
X450215Y443167D01*
X464185Y443167D01*
X464204Y443179D01*
G37*
%LPC*%
G36*
X306374Y574274D02*
X306374Y574274D01*
X306374Y578391D01*
X308847Y578391D01*
X309621Y578183D01*
X310316Y577782D01*
X310882Y577216D01*
X311283Y576521D01*
X311491Y575747D01*
X311491Y574274D01*
X306374Y574274D01*
G37*
%LPD*%
%LPC*%
G36*
X298109Y574274D02*
X298109Y574274D01*
X298109Y575747D01*
X298317Y576521D01*
X298718Y577216D01*
X299284Y577782D01*
X299979Y578183D01*
X300753Y578391D01*
X303226Y578391D01*
X303226Y574274D01*
X298109Y574274D01*
G37*
%LPD*%
%LPC*%
G36*
X306374Y567009D02*
X306374Y567009D01*
X306374Y571126D01*
X311491Y571126D01*
X311491Y569653D01*
X311283Y568879D01*
X310882Y568184D01*
X310316Y567618D01*
X309621Y567217D01*
X308847Y567009D01*
X306374Y567009D01*
G37*
%LPD*%
%LPC*%
G36*
X300753Y567009D02*
X300753Y567009D01*
X299979Y567217D01*
X299284Y567618D01*
X298718Y568184D01*
X298317Y568879D01*
X298109Y569653D01*
X298109Y571126D01*
X303226Y571126D01*
X303226Y567009D01*
X300753Y567009D01*
G37*
%LPD*%
%LPC*%
G36*
X838199Y736599D02*
X838199Y736599D01*
X838199Y736601D01*
X838201Y736601D01*
X838201Y736599D01*
X838199Y736599D01*
G37*
%LPD*%
%LPC*%
G36*
X838199Y774699D02*
X838199Y774699D01*
X838199Y774701D01*
X838201Y774701D01*
X838201Y774699D01*
X838199Y774699D01*
G37*
%LPD*%
%LPC*%
G36*
X865899Y88899D02*
X865899Y88899D01*
X865899Y88901D01*
X865901Y88901D01*
X865901Y88899D01*
X865899Y88899D01*
G37*
%LPD*%
D10*
X547370Y368300D03*
X544830Y393700D03*
X547370Y419100D03*
X544830Y444500D03*
X547370Y469900D03*
X544830Y495300D03*
X547370Y520700D03*
X544830Y546100D03*
X671830Y546100D03*
X674370Y520700D03*
X671830Y495300D03*
X674370Y469900D03*
X671830Y444500D03*
X674370Y419100D03*
X671830Y393700D03*
X674370Y368300D03*
D11*
X830380Y82380D02*
X841420Y82380D01*
X830380Y82380D02*
X830380Y95420D01*
X841420Y95420D01*
X841420Y82380D01*
X841420Y83292D02*
X830380Y83292D01*
X830380Y84204D02*
X841420Y84204D01*
X841420Y85116D02*
X830380Y85116D01*
X830380Y86028D02*
X841420Y86028D01*
X841420Y86940D02*
X830380Y86940D01*
X830380Y87852D02*
X841420Y87852D01*
X841420Y88764D02*
X830380Y88764D01*
X830380Y89676D02*
X841420Y89676D01*
X841420Y90588D02*
X830380Y90588D01*
X830380Y91500D02*
X841420Y91500D01*
X841420Y92412D02*
X830380Y92412D01*
X830380Y93324D02*
X841420Y93324D01*
X841420Y94236D02*
X830380Y94236D01*
X830380Y95148D02*
X841420Y95148D01*
X860380Y82380D02*
X871420Y82380D01*
X860380Y82380D02*
X860380Y95420D01*
X871420Y95420D01*
X871420Y82380D01*
X871420Y83292D02*
X860380Y83292D01*
X860380Y84204D02*
X871420Y84204D01*
X871420Y85116D02*
X860380Y85116D01*
X860380Y86028D02*
X871420Y86028D01*
X871420Y86940D02*
X860380Y86940D01*
X860380Y87852D02*
X871420Y87852D01*
X871420Y88764D02*
X860380Y88764D01*
X860380Y89676D02*
X871420Y89676D01*
X871420Y90588D02*
X860380Y90588D01*
X860380Y91500D02*
X871420Y91500D01*
X871420Y92412D02*
X860380Y92412D01*
X860380Y93324D02*
X871420Y93324D01*
X871420Y94236D02*
X860380Y94236D01*
X860380Y95148D02*
X871420Y95148D01*
X841420Y120480D02*
X830380Y120480D01*
X830380Y133520D01*
X841420Y133520D01*
X841420Y120480D01*
X841420Y121392D02*
X830380Y121392D01*
X830380Y122304D02*
X841420Y122304D01*
X841420Y123216D02*
X830380Y123216D01*
X830380Y124128D02*
X841420Y124128D01*
X841420Y125040D02*
X830380Y125040D01*
X830380Y125952D02*
X841420Y125952D01*
X841420Y126864D02*
X830380Y126864D01*
X830380Y127776D02*
X841420Y127776D01*
X841420Y128688D02*
X830380Y128688D01*
X830380Y129600D02*
X841420Y129600D01*
X841420Y130512D02*
X830380Y130512D01*
X830380Y131424D02*
X841420Y131424D01*
X841420Y132336D02*
X830380Y132336D01*
X830380Y133248D02*
X841420Y133248D01*
X860380Y120480D02*
X871420Y120480D01*
X860380Y120480D02*
X860380Y133520D01*
X871420Y133520D01*
X871420Y120480D01*
X871420Y121392D02*
X860380Y121392D01*
X860380Y122304D02*
X871420Y122304D01*
X871420Y123216D02*
X860380Y123216D01*
X860380Y124128D02*
X871420Y124128D01*
X871420Y125040D02*
X860380Y125040D01*
X860380Y125952D02*
X871420Y125952D01*
X871420Y126864D02*
X860380Y126864D01*
X860380Y127776D02*
X871420Y127776D01*
X871420Y128688D02*
X860380Y128688D01*
X860380Y129600D02*
X871420Y129600D01*
X871420Y130512D02*
X860380Y130512D01*
X860380Y131424D02*
X871420Y131424D01*
X871420Y132336D02*
X860380Y132336D01*
X860380Y133248D02*
X871420Y133248D01*
X841420Y158580D02*
X830380Y158580D01*
X830380Y171620D01*
X841420Y171620D01*
X841420Y158580D01*
X841420Y159492D02*
X830380Y159492D01*
X830380Y160404D02*
X841420Y160404D01*
X841420Y161316D02*
X830380Y161316D01*
X830380Y162228D02*
X841420Y162228D01*
X841420Y163140D02*
X830380Y163140D01*
X830380Y164052D02*
X841420Y164052D01*
X841420Y164964D02*
X830380Y164964D01*
X830380Y165876D02*
X841420Y165876D01*
X841420Y166788D02*
X830380Y166788D01*
X830380Y167700D02*
X841420Y167700D01*
X841420Y168612D02*
X830380Y168612D01*
X830380Y169524D02*
X841420Y169524D01*
X841420Y170436D02*
X830380Y170436D01*
X830380Y171348D02*
X841420Y171348D01*
X860380Y158580D02*
X871420Y158580D01*
X860380Y158580D02*
X860380Y171620D01*
X871420Y171620D01*
X871420Y158580D01*
X871420Y159492D02*
X860380Y159492D01*
X860380Y160404D02*
X871420Y160404D01*
X871420Y161316D02*
X860380Y161316D01*
X860380Y162228D02*
X871420Y162228D01*
X871420Y163140D02*
X860380Y163140D01*
X860380Y164052D02*
X871420Y164052D01*
X871420Y164964D02*
X860380Y164964D01*
X860380Y165876D02*
X871420Y165876D01*
X871420Y166788D02*
X860380Y166788D01*
X860380Y167700D02*
X871420Y167700D01*
X871420Y168612D02*
X860380Y168612D01*
X860380Y169524D02*
X871420Y169524D01*
X871420Y170436D02*
X860380Y170436D01*
X860380Y171348D02*
X871420Y171348D01*
X841420Y196680D02*
X830380Y196680D01*
X830380Y209720D01*
X841420Y209720D01*
X841420Y196680D01*
X841420Y197592D02*
X830380Y197592D01*
X830380Y198504D02*
X841420Y198504D01*
X841420Y199416D02*
X830380Y199416D01*
X830380Y200328D02*
X841420Y200328D01*
X841420Y201240D02*
X830380Y201240D01*
X830380Y202152D02*
X841420Y202152D01*
X841420Y203064D02*
X830380Y203064D01*
X830380Y203976D02*
X841420Y203976D01*
X841420Y204888D02*
X830380Y204888D01*
X830380Y205800D02*
X841420Y205800D01*
X841420Y206712D02*
X830380Y206712D01*
X830380Y207624D02*
X841420Y207624D01*
X841420Y208536D02*
X830380Y208536D01*
X830380Y209448D02*
X841420Y209448D01*
X860380Y196680D02*
X871420Y196680D01*
X860380Y196680D02*
X860380Y209720D01*
X871420Y209720D01*
X871420Y196680D01*
X871420Y197592D02*
X860380Y197592D01*
X860380Y198504D02*
X871420Y198504D01*
X871420Y199416D02*
X860380Y199416D01*
X860380Y200328D02*
X871420Y200328D01*
X871420Y201240D02*
X860380Y201240D01*
X860380Y202152D02*
X871420Y202152D01*
X871420Y203064D02*
X860380Y203064D01*
X860380Y203976D02*
X871420Y203976D01*
X871420Y204888D02*
X860380Y204888D01*
X860380Y205800D02*
X871420Y205800D01*
X871420Y206712D02*
X860380Y206712D01*
X860380Y207624D02*
X871420Y207624D01*
X871420Y208536D02*
X860380Y208536D01*
X860380Y209448D02*
X871420Y209448D01*
D12*
X355600Y736600D03*
X381000Y736600D03*
X406400Y736600D03*
X431800Y736600D03*
X457200Y736600D03*
X482600Y736600D03*
X508000Y736600D03*
X533400Y736600D03*
X558800Y736600D03*
X584200Y736600D03*
X609600Y736600D03*
X635000Y736600D03*
X660400Y736600D03*
X685800Y736600D03*
X711200Y736600D03*
X736600Y736600D03*
X762000Y736600D03*
X787400Y736600D03*
X812800Y736600D03*
X838200Y736600D03*
X342900Y755650D03*
X368300Y755650D03*
X393700Y755650D03*
X419100Y755650D03*
X444500Y755650D03*
X469900Y755650D03*
X495300Y755650D03*
X520700Y755650D03*
X546100Y755650D03*
X571500Y755650D03*
X596900Y755650D03*
X622300Y755650D03*
X647700Y755650D03*
X673100Y755650D03*
X698500Y755650D03*
X723900Y755650D03*
X749300Y755650D03*
X774700Y755650D03*
X800100Y755650D03*
X825500Y755650D03*
X355600Y774700D03*
X381000Y774700D03*
X406400Y774700D03*
X431800Y774700D03*
X457200Y774700D03*
X482600Y774700D03*
X508000Y774700D03*
X533400Y774700D03*
X558800Y774700D03*
X584200Y774700D03*
X609600Y774700D03*
X635000Y774700D03*
X660400Y774700D03*
X685800Y774700D03*
X711200Y774700D03*
X736600Y774700D03*
X762000Y774700D03*
X787400Y774700D03*
X812800Y774700D03*
X838200Y774700D03*
X342900Y793750D03*
X368300Y793750D03*
X393700Y793750D03*
X419100Y793750D03*
X444500Y793750D03*
X469900Y793750D03*
X495300Y793750D03*
X520700Y793750D03*
X546100Y793750D03*
X571500Y793750D03*
X596900Y793750D03*
X622300Y793750D03*
X647700Y793750D03*
X673100Y793750D03*
X698500Y793750D03*
X723900Y793750D03*
X749300Y793750D03*
X774700Y793750D03*
X800100Y793750D03*
X825500Y793750D03*
D13*
X341050Y618800D02*
X341050Y608800D01*
X332050Y608800D01*
X332050Y618800D01*
X341050Y618800D01*
X341050Y609750D02*
X332050Y609750D01*
X332050Y610700D02*
X341050Y610700D01*
X341050Y611650D02*
X332050Y611650D01*
X332050Y612600D02*
X341050Y612600D01*
X341050Y613550D02*
X332050Y613550D01*
X332050Y614500D02*
X341050Y614500D01*
X341050Y615450D02*
X332050Y615450D01*
X332050Y616400D02*
X341050Y616400D01*
X341050Y617350D02*
X332050Y617350D01*
X332050Y618300D02*
X341050Y618300D01*
X341050Y625800D02*
X341050Y635800D01*
X341050Y625800D02*
X332050Y625800D01*
X332050Y635800D01*
X341050Y635800D01*
X341050Y626750D02*
X332050Y626750D01*
X332050Y627700D02*
X341050Y627700D01*
X341050Y628650D02*
X332050Y628650D01*
X332050Y629600D02*
X341050Y629600D01*
X341050Y630550D02*
X332050Y630550D01*
X332050Y631500D02*
X341050Y631500D01*
X341050Y632450D02*
X332050Y632450D01*
X332050Y633400D02*
X341050Y633400D01*
X341050Y634350D02*
X332050Y634350D01*
X332050Y635300D02*
X341050Y635300D01*
X341050Y585780D02*
X341050Y575780D01*
X332050Y575780D01*
X332050Y585780D01*
X341050Y585780D01*
X341050Y576730D02*
X332050Y576730D01*
X332050Y577680D02*
X341050Y577680D01*
X341050Y578630D02*
X332050Y578630D01*
X332050Y579580D02*
X341050Y579580D01*
X341050Y580530D02*
X332050Y580530D01*
X332050Y581480D02*
X341050Y581480D01*
X341050Y582430D02*
X332050Y582430D01*
X332050Y583380D02*
X341050Y583380D01*
X341050Y584330D02*
X332050Y584330D01*
X332050Y585280D02*
X341050Y585280D01*
X341050Y592780D02*
X341050Y602780D01*
X341050Y592780D02*
X332050Y592780D01*
X332050Y602780D01*
X341050Y602780D01*
X341050Y593730D02*
X332050Y593730D01*
X332050Y594680D02*
X341050Y594680D01*
X341050Y595630D02*
X332050Y595630D01*
X332050Y596580D02*
X341050Y596580D01*
X341050Y597530D02*
X332050Y597530D01*
X332050Y598480D02*
X341050Y598480D01*
X341050Y599430D02*
X332050Y599430D01*
X332050Y600380D02*
X341050Y600380D01*
X341050Y601330D02*
X332050Y601330D01*
X332050Y602280D02*
X341050Y602280D01*
X366450Y585780D02*
X366450Y575780D01*
X357450Y575780D01*
X357450Y585780D01*
X366450Y585780D01*
X366450Y576730D02*
X357450Y576730D01*
X357450Y577680D02*
X366450Y577680D01*
X366450Y578630D02*
X357450Y578630D01*
X357450Y579580D02*
X366450Y579580D01*
X366450Y580530D02*
X357450Y580530D01*
X357450Y581480D02*
X366450Y581480D01*
X366450Y582430D02*
X357450Y582430D01*
X357450Y583380D02*
X366450Y583380D01*
X366450Y584330D02*
X357450Y584330D01*
X357450Y585280D02*
X366450Y585280D01*
X366450Y592780D02*
X366450Y602780D01*
X366450Y592780D02*
X357450Y592780D01*
X357450Y602780D01*
X366450Y602780D01*
X366450Y593730D02*
X357450Y593730D01*
X357450Y594680D02*
X366450Y594680D01*
X366450Y595630D02*
X357450Y595630D01*
X357450Y596580D02*
X366450Y596580D01*
X366450Y597530D02*
X357450Y597530D01*
X357450Y598480D02*
X366450Y598480D01*
X366450Y599430D02*
X357450Y599430D01*
X357450Y600380D02*
X366450Y600380D01*
X366450Y601330D02*
X357450Y601330D01*
X357450Y602280D02*
X366450Y602280D01*
X366450Y608800D02*
X366450Y618800D01*
X366450Y608800D02*
X357450Y608800D01*
X357450Y618800D01*
X366450Y618800D01*
X366450Y609750D02*
X357450Y609750D01*
X357450Y610700D02*
X366450Y610700D01*
X366450Y611650D02*
X357450Y611650D01*
X357450Y612600D02*
X366450Y612600D01*
X366450Y613550D02*
X357450Y613550D01*
X357450Y614500D02*
X366450Y614500D01*
X366450Y615450D02*
X357450Y615450D01*
X357450Y616400D02*
X366450Y616400D01*
X366450Y617350D02*
X357450Y617350D01*
X357450Y618300D02*
X366450Y618300D01*
X366450Y625800D02*
X366450Y635800D01*
X366450Y625800D02*
X357450Y625800D01*
X357450Y635800D01*
X366450Y635800D01*
X366450Y626750D02*
X357450Y626750D01*
X357450Y627700D02*
X366450Y627700D01*
X366450Y628650D02*
X357450Y628650D01*
X357450Y629600D02*
X366450Y629600D01*
X366450Y630550D02*
X357450Y630550D01*
X357450Y631500D02*
X366450Y631500D01*
X366450Y632450D02*
X357450Y632450D01*
X357450Y633400D02*
X366450Y633400D01*
X366450Y634350D02*
X357450Y634350D01*
X357450Y635300D02*
X366450Y635300D01*
D14*
X342405Y550050D02*
X342405Y544436D01*
X330695Y544436D01*
X330695Y550050D01*
X342405Y550050D01*
X342405Y545377D02*
X330695Y545377D01*
X330695Y546318D02*
X342405Y546318D01*
X342405Y547259D02*
X330695Y547259D01*
X330695Y548200D02*
X342405Y548200D01*
X342405Y549141D02*
X330695Y549141D01*
X342405Y554850D02*
X342405Y560464D01*
X342405Y554850D02*
X330695Y554850D01*
X330695Y560464D01*
X342405Y560464D01*
X342405Y555791D02*
X330695Y555791D01*
X330695Y556732D02*
X342405Y556732D01*
X342405Y557673D02*
X330695Y557673D01*
X330695Y558614D02*
X342405Y558614D01*
X342405Y559555D02*
X330695Y559555D01*
X367805Y550050D02*
X367805Y544436D01*
X356095Y544436D01*
X356095Y550050D01*
X367805Y550050D01*
X367805Y545377D02*
X356095Y545377D01*
X356095Y546318D02*
X367805Y546318D01*
X367805Y547259D02*
X356095Y547259D01*
X356095Y548200D02*
X367805Y548200D01*
X367805Y549141D02*
X356095Y549141D01*
X367805Y554850D02*
X367805Y560464D01*
X367805Y554850D02*
X356095Y554850D01*
X356095Y560464D01*
X367805Y560464D01*
X367805Y555791D02*
X356095Y555791D01*
X356095Y556732D02*
X367805Y556732D01*
X367805Y557673D02*
X356095Y557673D01*
X356095Y558614D02*
X367805Y558614D01*
X367805Y559555D02*
X356095Y559555D01*
D10*
X342900Y152400D03*
X469900Y152400D03*
D15*
X301154Y593054D02*
X301154Y598346D01*
X308446Y598346D01*
X308446Y593054D01*
X301154Y593054D01*
X301154Y594012D02*
X308446Y594012D01*
X308446Y594970D02*
X301154Y594970D01*
X301154Y595928D02*
X308446Y595928D01*
X308446Y596886D02*
X301154Y596886D01*
X301154Y597844D02*
X308446Y597844D01*
X301154Y575346D02*
X301154Y570054D01*
X301154Y575346D02*
X308446Y575346D01*
X308446Y570054D01*
X301154Y570054D01*
X301154Y571012D02*
X308446Y571012D01*
X308446Y571970D02*
X301154Y571970D01*
X301154Y572928D02*
X308446Y572928D01*
X308446Y573886D02*
X301154Y573886D01*
X301154Y574844D02*
X308446Y574844D01*
D13*
X309300Y608800D02*
X309300Y618800D01*
X309300Y608800D02*
X300300Y608800D01*
X300300Y618800D01*
X309300Y618800D01*
X309300Y609750D02*
X300300Y609750D01*
X300300Y610700D02*
X309300Y610700D01*
X309300Y611650D02*
X300300Y611650D01*
X300300Y612600D02*
X309300Y612600D01*
X309300Y613550D02*
X300300Y613550D01*
X300300Y614500D02*
X309300Y614500D01*
X309300Y615450D02*
X300300Y615450D01*
X300300Y616400D02*
X309300Y616400D01*
X309300Y617350D02*
X300300Y617350D01*
X300300Y618300D02*
X309300Y618300D01*
X309300Y625800D02*
X309300Y635800D01*
X309300Y625800D02*
X300300Y625800D01*
X300300Y635800D01*
X309300Y635800D01*
X309300Y626750D02*
X300300Y626750D01*
X300300Y627700D02*
X309300Y627700D01*
X309300Y628650D02*
X300300Y628650D01*
X300300Y629600D02*
X309300Y629600D01*
X309300Y630550D02*
X300300Y630550D01*
X300300Y631500D02*
X309300Y631500D01*
X309300Y632450D02*
X300300Y632450D01*
X300300Y633400D02*
X309300Y633400D01*
X309300Y634350D02*
X300300Y634350D01*
X300300Y635300D02*
X309300Y635300D01*
D14*
X449186Y514845D02*
X454800Y514845D01*
X449186Y514845D02*
X449186Y526555D01*
X454800Y526555D01*
X454800Y514845D01*
X454800Y515786D02*
X449186Y515786D01*
X449186Y516727D02*
X454800Y516727D01*
X454800Y517668D02*
X449186Y517668D01*
X449186Y518609D02*
X454800Y518609D01*
X454800Y519550D02*
X449186Y519550D01*
X449186Y520491D02*
X454800Y520491D01*
X454800Y521432D02*
X449186Y521432D01*
X449186Y522373D02*
X454800Y522373D01*
X454800Y523314D02*
X449186Y523314D01*
X449186Y524255D02*
X454800Y524255D01*
X454800Y525196D02*
X449186Y525196D01*
X449186Y526137D02*
X454800Y526137D01*
X459600Y514845D02*
X465214Y514845D01*
X459600Y514845D02*
X459600Y526555D01*
X465214Y526555D01*
X465214Y514845D01*
X465214Y515786D02*
X459600Y515786D01*
X459600Y516727D02*
X465214Y516727D01*
X465214Y517668D02*
X459600Y517668D01*
X459600Y518609D02*
X465214Y518609D01*
X465214Y519550D02*
X459600Y519550D01*
X459600Y520491D02*
X465214Y520491D01*
X465214Y521432D02*
X459600Y521432D01*
X459600Y522373D02*
X465214Y522373D01*
X465214Y523314D02*
X459600Y523314D01*
X459600Y524255D02*
X465214Y524255D01*
X465214Y525196D02*
X459600Y525196D01*
X459600Y526137D02*
X465214Y526137D01*
X454800Y464045D02*
X449186Y464045D01*
X449186Y475755D01*
X454800Y475755D01*
X454800Y464045D01*
X454800Y464986D02*
X449186Y464986D01*
X449186Y465927D02*
X454800Y465927D01*
X454800Y466868D02*
X449186Y466868D01*
X449186Y467809D02*
X454800Y467809D01*
X454800Y468750D02*
X449186Y468750D01*
X449186Y469691D02*
X454800Y469691D01*
X454800Y470632D02*
X449186Y470632D01*
X449186Y471573D02*
X454800Y471573D01*
X454800Y472514D02*
X449186Y472514D01*
X449186Y473455D02*
X454800Y473455D01*
X454800Y474396D02*
X449186Y474396D01*
X449186Y475337D02*
X454800Y475337D01*
X459600Y464045D02*
X465214Y464045D01*
X459600Y464045D02*
X459600Y475755D01*
X465214Y475755D01*
X465214Y464045D01*
X465214Y464986D02*
X459600Y464986D01*
X459600Y465927D02*
X465214Y465927D01*
X465214Y466868D02*
X459600Y466868D01*
X459600Y467809D02*
X465214Y467809D01*
X465214Y468750D02*
X459600Y468750D01*
X459600Y469691D02*
X465214Y469691D01*
X465214Y470632D02*
X459600Y470632D01*
X459600Y471573D02*
X465214Y471573D01*
X465214Y472514D02*
X459600Y472514D01*
X459600Y473455D02*
X465214Y473455D01*
X465214Y474396D02*
X459600Y474396D01*
X459600Y475337D02*
X465214Y475337D01*
X454800Y489445D02*
X449186Y489445D01*
X449186Y501155D01*
X454800Y501155D01*
X454800Y489445D01*
X454800Y490386D02*
X449186Y490386D01*
X449186Y491327D02*
X454800Y491327D01*
X454800Y492268D02*
X449186Y492268D01*
X449186Y493209D02*
X454800Y493209D01*
X454800Y494150D02*
X449186Y494150D01*
X449186Y495091D02*
X454800Y495091D01*
X454800Y496032D02*
X449186Y496032D01*
X449186Y496973D02*
X454800Y496973D01*
X454800Y497914D02*
X449186Y497914D01*
X449186Y498855D02*
X454800Y498855D01*
X454800Y499796D02*
X449186Y499796D01*
X449186Y500737D02*
X454800Y500737D01*
X459600Y489445D02*
X465214Y489445D01*
X459600Y489445D02*
X459600Y501155D01*
X465214Y501155D01*
X465214Y489445D01*
X465214Y490386D02*
X459600Y490386D01*
X459600Y491327D02*
X465214Y491327D01*
X465214Y492268D02*
X459600Y492268D01*
X459600Y493209D02*
X465214Y493209D01*
X465214Y494150D02*
X459600Y494150D01*
X459600Y495091D02*
X465214Y495091D01*
X465214Y496032D02*
X459600Y496032D01*
X459600Y496973D02*
X465214Y496973D01*
X465214Y497914D02*
X459600Y497914D01*
X459600Y498855D02*
X465214Y498855D01*
X465214Y499796D02*
X459600Y499796D01*
X459600Y500737D02*
X465214Y500737D01*
X527545Y637400D02*
X527545Y643014D01*
X539255Y643014D01*
X539255Y637400D01*
X527545Y637400D01*
X527545Y638341D02*
X539255Y638341D01*
X539255Y639282D02*
X527545Y639282D01*
X527545Y640223D02*
X539255Y640223D01*
X539255Y641164D02*
X527545Y641164D01*
X527545Y642105D02*
X539255Y642105D01*
X527545Y632600D02*
X527545Y626986D01*
X527545Y632600D02*
X539255Y632600D01*
X539255Y626986D01*
X527545Y626986D01*
X527545Y627927D02*
X539255Y627927D01*
X539255Y628868D02*
X527545Y628868D01*
X527545Y629809D02*
X539255Y629809D01*
X539255Y630750D02*
X527545Y630750D01*
X527545Y631691D02*
X539255Y631691D01*
X454800Y438645D02*
X449186Y438645D01*
X449186Y450355D01*
X454800Y450355D01*
X454800Y438645D01*
X454800Y439586D02*
X449186Y439586D01*
X449186Y440527D02*
X454800Y440527D01*
X454800Y441468D02*
X449186Y441468D01*
X449186Y442409D02*
X454800Y442409D01*
X454800Y443350D02*
X449186Y443350D01*
X449186Y444291D02*
X454800Y444291D01*
X454800Y445232D02*
X449186Y445232D01*
X449186Y446173D02*
X454800Y446173D01*
X454800Y447114D02*
X449186Y447114D01*
X449186Y448055D02*
X454800Y448055D01*
X454800Y448996D02*
X449186Y448996D01*
X449186Y449937D02*
X454800Y449937D01*
X459600Y438645D02*
X465214Y438645D01*
X459600Y438645D02*
X459600Y450355D01*
X465214Y450355D01*
X465214Y438645D01*
X465214Y439586D02*
X459600Y439586D01*
X459600Y440527D02*
X465214Y440527D01*
X465214Y441468D02*
X459600Y441468D01*
X459600Y442409D02*
X465214Y442409D01*
X465214Y443350D02*
X459600Y443350D01*
X459600Y444291D02*
X465214Y444291D01*
X465214Y445232D02*
X459600Y445232D01*
X459600Y446173D02*
X465214Y446173D01*
X465214Y447114D02*
X459600Y447114D01*
X459600Y448055D02*
X465214Y448055D01*
X465214Y448996D02*
X459600Y448996D01*
X459600Y449937D02*
X465214Y449937D01*
X454800Y413245D02*
X449186Y413245D01*
X449186Y424955D01*
X454800Y424955D01*
X454800Y413245D01*
X454800Y414186D02*
X449186Y414186D01*
X449186Y415127D02*
X454800Y415127D01*
X454800Y416068D02*
X449186Y416068D01*
X449186Y417009D02*
X454800Y417009D01*
X454800Y417950D02*
X449186Y417950D01*
X449186Y418891D02*
X454800Y418891D01*
X454800Y419832D02*
X449186Y419832D01*
X449186Y420773D02*
X454800Y420773D01*
X454800Y421714D02*
X449186Y421714D01*
X449186Y422655D02*
X454800Y422655D01*
X454800Y423596D02*
X449186Y423596D01*
X449186Y424537D02*
X454800Y424537D01*
X459600Y413245D02*
X465214Y413245D01*
X459600Y413245D02*
X459600Y424955D01*
X465214Y424955D01*
X465214Y413245D01*
X465214Y414186D02*
X459600Y414186D01*
X459600Y415127D02*
X465214Y415127D01*
X465214Y416068D02*
X459600Y416068D01*
X459600Y417009D02*
X465214Y417009D01*
X465214Y417950D02*
X459600Y417950D01*
X459600Y418891D02*
X465214Y418891D01*
X465214Y419832D02*
X459600Y419832D01*
X459600Y420773D02*
X465214Y420773D01*
X465214Y421714D02*
X459600Y421714D01*
X459600Y422655D02*
X465214Y422655D01*
X465214Y423596D02*
X459600Y423596D01*
X459600Y424537D02*
X465214Y424537D01*
X454800Y387845D02*
X449186Y387845D01*
X449186Y399555D01*
X454800Y399555D01*
X454800Y387845D01*
X454800Y388786D02*
X449186Y388786D01*
X449186Y389727D02*
X454800Y389727D01*
X454800Y390668D02*
X449186Y390668D01*
X449186Y391609D02*
X454800Y391609D01*
X454800Y392550D02*
X449186Y392550D01*
X449186Y393491D02*
X454800Y393491D01*
X454800Y394432D02*
X449186Y394432D01*
X449186Y395373D02*
X454800Y395373D01*
X454800Y396314D02*
X449186Y396314D01*
X449186Y397255D02*
X454800Y397255D01*
X454800Y398196D02*
X449186Y398196D01*
X449186Y399137D02*
X454800Y399137D01*
X459600Y387845D02*
X465214Y387845D01*
X459600Y387845D02*
X459600Y399555D01*
X465214Y399555D01*
X465214Y387845D01*
X465214Y388786D02*
X459600Y388786D01*
X459600Y389727D02*
X465214Y389727D01*
X465214Y390668D02*
X459600Y390668D01*
X459600Y391609D02*
X465214Y391609D01*
X465214Y392550D02*
X459600Y392550D01*
X459600Y393491D02*
X465214Y393491D01*
X465214Y394432D02*
X459600Y394432D01*
X459600Y395373D02*
X465214Y395373D01*
X465214Y396314D02*
X459600Y396314D01*
X459600Y397255D02*
X465214Y397255D01*
X465214Y398196D02*
X459600Y398196D01*
X459600Y399137D02*
X465214Y399137D01*
X526555Y264300D02*
X526555Y258686D01*
X514845Y258686D01*
X514845Y264300D01*
X526555Y264300D01*
X526555Y259627D02*
X514845Y259627D01*
X514845Y260568D02*
X526555Y260568D01*
X526555Y261509D02*
X514845Y261509D01*
X514845Y262450D02*
X526555Y262450D01*
X526555Y263391D02*
X514845Y263391D01*
X526555Y269100D02*
X526555Y274714D01*
X526555Y269100D02*
X514845Y269100D01*
X514845Y274714D01*
X526555Y274714D01*
X526555Y270041D02*
X514845Y270041D01*
X514845Y270982D02*
X526555Y270982D01*
X526555Y271923D02*
X514845Y271923D01*
X514845Y272864D02*
X526555Y272864D01*
X526555Y273805D02*
X514845Y273805D01*
X766686Y387845D02*
X772300Y387845D01*
X766686Y387845D02*
X766686Y399555D01*
X772300Y399555D01*
X772300Y387845D01*
X772300Y388786D02*
X766686Y388786D01*
X766686Y389727D02*
X772300Y389727D01*
X772300Y390668D02*
X766686Y390668D01*
X766686Y391609D02*
X772300Y391609D01*
X772300Y392550D02*
X766686Y392550D01*
X766686Y393491D02*
X772300Y393491D01*
X772300Y394432D02*
X766686Y394432D01*
X766686Y395373D02*
X772300Y395373D01*
X772300Y396314D02*
X766686Y396314D01*
X766686Y397255D02*
X772300Y397255D01*
X772300Y398196D02*
X766686Y398196D01*
X766686Y399137D02*
X772300Y399137D01*
X777100Y387845D02*
X782714Y387845D01*
X777100Y387845D02*
X777100Y399555D01*
X782714Y399555D01*
X782714Y387845D01*
X782714Y388786D02*
X777100Y388786D01*
X777100Y389727D02*
X782714Y389727D01*
X782714Y390668D02*
X777100Y390668D01*
X777100Y391609D02*
X782714Y391609D01*
X782714Y392550D02*
X777100Y392550D01*
X777100Y393491D02*
X782714Y393491D01*
X782714Y394432D02*
X777100Y394432D01*
X777100Y395373D02*
X782714Y395373D01*
X782714Y396314D02*
X777100Y396314D01*
X777100Y397255D02*
X782714Y397255D01*
X782714Y398196D02*
X777100Y398196D01*
X777100Y399137D02*
X782714Y399137D01*
X772300Y413245D02*
X766686Y413245D01*
X766686Y424955D01*
X772300Y424955D01*
X772300Y413245D01*
X772300Y414186D02*
X766686Y414186D01*
X766686Y415127D02*
X772300Y415127D01*
X772300Y416068D02*
X766686Y416068D01*
X766686Y417009D02*
X772300Y417009D01*
X772300Y417950D02*
X766686Y417950D01*
X766686Y418891D02*
X772300Y418891D01*
X772300Y419832D02*
X766686Y419832D01*
X766686Y420773D02*
X772300Y420773D01*
X772300Y421714D02*
X766686Y421714D01*
X766686Y422655D02*
X772300Y422655D01*
X772300Y423596D02*
X766686Y423596D01*
X766686Y424537D02*
X772300Y424537D01*
X777100Y413245D02*
X782714Y413245D01*
X777100Y413245D02*
X777100Y424955D01*
X782714Y424955D01*
X782714Y413245D01*
X782714Y414186D02*
X777100Y414186D01*
X777100Y415127D02*
X782714Y415127D01*
X782714Y416068D02*
X777100Y416068D01*
X777100Y417009D02*
X782714Y417009D01*
X782714Y417950D02*
X777100Y417950D01*
X777100Y418891D02*
X782714Y418891D01*
X782714Y419832D02*
X777100Y419832D01*
X777100Y420773D02*
X782714Y420773D01*
X782714Y421714D02*
X777100Y421714D01*
X777100Y422655D02*
X782714Y422655D01*
X782714Y423596D02*
X777100Y423596D01*
X777100Y424537D02*
X782714Y424537D01*
X772300Y438645D02*
X766686Y438645D01*
X766686Y450355D01*
X772300Y450355D01*
X772300Y438645D01*
X772300Y439586D02*
X766686Y439586D01*
X766686Y440527D02*
X772300Y440527D01*
X772300Y441468D02*
X766686Y441468D01*
X766686Y442409D02*
X772300Y442409D01*
X772300Y443350D02*
X766686Y443350D01*
X766686Y444291D02*
X772300Y444291D01*
X772300Y445232D02*
X766686Y445232D01*
X766686Y446173D02*
X772300Y446173D01*
X772300Y447114D02*
X766686Y447114D01*
X766686Y448055D02*
X772300Y448055D01*
X772300Y448996D02*
X766686Y448996D01*
X766686Y449937D02*
X772300Y449937D01*
X777100Y438645D02*
X782714Y438645D01*
X777100Y438645D02*
X777100Y450355D01*
X782714Y450355D01*
X782714Y438645D01*
X782714Y439586D02*
X777100Y439586D01*
X777100Y440527D02*
X782714Y440527D01*
X782714Y441468D02*
X777100Y441468D01*
X777100Y442409D02*
X782714Y442409D01*
X782714Y443350D02*
X777100Y443350D01*
X777100Y444291D02*
X782714Y444291D01*
X782714Y445232D02*
X777100Y445232D01*
X777100Y446173D02*
X782714Y446173D01*
X782714Y447114D02*
X777100Y447114D01*
X777100Y448055D02*
X782714Y448055D01*
X782714Y448996D02*
X777100Y448996D01*
X777100Y449937D02*
X782714Y449937D01*
X772300Y464045D02*
X766686Y464045D01*
X766686Y475755D01*
X772300Y475755D01*
X772300Y464045D01*
X772300Y464986D02*
X766686Y464986D01*
X766686Y465927D02*
X772300Y465927D01*
X772300Y466868D02*
X766686Y466868D01*
X766686Y467809D02*
X772300Y467809D01*
X772300Y468750D02*
X766686Y468750D01*
X766686Y469691D02*
X772300Y469691D01*
X772300Y470632D02*
X766686Y470632D01*
X766686Y471573D02*
X772300Y471573D01*
X772300Y472514D02*
X766686Y472514D01*
X766686Y473455D02*
X772300Y473455D01*
X772300Y474396D02*
X766686Y474396D01*
X766686Y475337D02*
X772300Y475337D01*
X777100Y464045D02*
X782714Y464045D01*
X777100Y464045D02*
X777100Y475755D01*
X782714Y475755D01*
X782714Y464045D01*
X782714Y464986D02*
X777100Y464986D01*
X777100Y465927D02*
X782714Y465927D01*
X782714Y466868D02*
X777100Y466868D01*
X777100Y467809D02*
X782714Y467809D01*
X782714Y468750D02*
X777100Y468750D01*
X777100Y469691D02*
X782714Y469691D01*
X782714Y470632D02*
X777100Y470632D01*
X777100Y471573D02*
X782714Y471573D01*
X782714Y472514D02*
X777100Y472514D01*
X777100Y473455D02*
X782714Y473455D01*
X782714Y474396D02*
X777100Y474396D01*
X777100Y475337D02*
X782714Y475337D01*
X772300Y489445D02*
X766686Y489445D01*
X766686Y501155D01*
X772300Y501155D01*
X772300Y489445D01*
X772300Y490386D02*
X766686Y490386D01*
X766686Y491327D02*
X772300Y491327D01*
X772300Y492268D02*
X766686Y492268D01*
X766686Y493209D02*
X772300Y493209D01*
X772300Y494150D02*
X766686Y494150D01*
X766686Y495091D02*
X772300Y495091D01*
X772300Y496032D02*
X766686Y496032D01*
X766686Y496973D02*
X772300Y496973D01*
X772300Y497914D02*
X766686Y497914D01*
X766686Y498855D02*
X772300Y498855D01*
X772300Y499796D02*
X766686Y499796D01*
X766686Y500737D02*
X772300Y500737D01*
X777100Y489445D02*
X782714Y489445D01*
X777100Y489445D02*
X777100Y501155D01*
X782714Y501155D01*
X782714Y489445D01*
X782714Y490386D02*
X777100Y490386D01*
X777100Y491327D02*
X782714Y491327D01*
X782714Y492268D02*
X777100Y492268D01*
X777100Y493209D02*
X782714Y493209D01*
X782714Y494150D02*
X777100Y494150D01*
X777100Y495091D02*
X782714Y495091D01*
X782714Y496032D02*
X777100Y496032D01*
X777100Y496973D02*
X782714Y496973D01*
X782714Y497914D02*
X777100Y497914D01*
X777100Y498855D02*
X782714Y498855D01*
X782714Y499796D02*
X777100Y499796D01*
X777100Y500737D02*
X782714Y500737D01*
D10*
X1029000Y598800D03*
X1003600Y598800D03*
X978200Y598800D03*
D14*
X666255Y639686D02*
X666255Y645300D01*
X666255Y639686D02*
X654545Y639686D01*
X654545Y645300D01*
X666255Y645300D01*
X666255Y640627D02*
X654545Y640627D01*
X654545Y641568D02*
X666255Y641568D01*
X666255Y642509D02*
X654545Y642509D01*
X654545Y643450D02*
X666255Y643450D01*
X666255Y644391D02*
X654545Y644391D01*
X666255Y650100D02*
X666255Y655714D01*
X666255Y650100D02*
X654545Y650100D01*
X654545Y655714D01*
X666255Y655714D01*
X666255Y651041D02*
X654545Y651041D01*
X654545Y651982D02*
X666255Y651982D01*
X666255Y652923D02*
X654545Y652923D01*
X654545Y653864D02*
X666255Y653864D01*
X666255Y654805D02*
X654545Y654805D01*
D16*
X547370Y419100D02*
X462407Y419100D01*
X462407Y393700D02*
X544830Y393700D01*
X547370Y469900D02*
X462407Y469900D01*
X462407Y444500D02*
X544830Y444500D01*
X547370Y520700D02*
X462407Y520700D01*
X462407Y495300D02*
X544830Y495300D01*
X671830Y393700D02*
X769493Y393700D01*
X544830Y546100D02*
X533400Y557530D01*
X533400Y629793D01*
X671830Y495300D02*
X769493Y495300D01*
X769493Y469900D02*
X674370Y469900D01*
D17*
X769493Y444500D02*
X770065Y444500D01*
X771589Y444500D01*
D16*
X770065Y444500D02*
X671830Y444500D01*
X547370Y368300D02*
X547370Y318770D01*
X520700Y292100D01*
X520700Y271907D01*
X674370Y419100D02*
X769493Y419100D01*
D18*
X452501Y520954D02*
X452501Y534289D01*
X452501Y520954D02*
X451993Y520700D01*
D19*
X452501Y534289D03*
D18*
X451612Y507619D02*
X451612Y496062D01*
X451612Y507619D02*
X445389Y513842D01*
X445389Y536067D01*
X491617Y582295D01*
X500507Y582295D01*
X451612Y496062D02*
X451993Y495300D01*
D19*
X500507Y582295D03*
D18*
X451612Y481838D02*
X451612Y470281D01*
X451612Y481838D02*
X443611Y489839D01*
X443611Y510286D01*
X441833Y512064D01*
X441833Y537845D01*
X492506Y588518D01*
X516509Y588518D01*
X451612Y470281D02*
X451993Y469900D01*
D19*
X516509Y588518D03*
D18*
X835660Y404495D02*
X835660Y203581D01*
X835660Y404495D02*
X832993Y407162D01*
X835660Y203581D02*
X835900Y203200D01*
D19*
X832993Y407162D03*
D18*
X836549Y191135D02*
X836549Y165354D01*
X835900Y165100D01*
D19*
X836549Y191135D03*
D18*
X836549Y111125D02*
X836549Y88900D01*
X836549Y111125D02*
X856996Y131572D01*
X856996Y368046D01*
X1041908Y552958D01*
X1041908Y603631D01*
X840105Y805434D01*
X820547Y805434D01*
X813435Y798322D01*
X813435Y775208D01*
X835900Y88900D02*
X836549Y88900D01*
X812800Y774700D02*
X813435Y775208D01*
X835660Y148463D02*
X835660Y127127D01*
X835660Y148463D02*
X826770Y157353D01*
X826770Y431165D01*
X835660Y127127D02*
X835900Y127000D01*
D19*
X826770Y431165D03*
D16*
X381000Y685800D02*
X381000Y736600D01*
X381000Y685800D02*
X413893Y652907D01*
X660400Y652907D01*
D18*
X381381Y738759D02*
X381381Y774319D01*
X381000Y774700D01*
X381381Y738759D02*
X381000Y736600D01*
D20*
X368300Y755650D02*
X368300Y793750D01*
D21*
X355600Y774700D02*
X355600Y736600D01*
D16*
X304927Y775208D02*
X304927Y631190D01*
X304927Y775208D02*
X336931Y807212D01*
X379603Y807212D01*
X392938Y793877D01*
X304927Y631190D02*
X304800Y630800D01*
X392938Y793877D02*
X393700Y793750D01*
D20*
X392938Y756412D02*
X393700Y755650D01*
X392938Y756412D02*
X392938Y793877D01*
D16*
X361823Y631190D02*
X336931Y631190D01*
X336550Y630800D01*
X361823Y631190D02*
X361950Y630800D01*
X361823Y633857D02*
X361823Y666750D01*
X361823Y633857D02*
X361950Y630800D01*
D19*
X361823Y666750D03*
D16*
X336931Y613410D02*
X336931Y598297D01*
X336550Y597780D01*
X336931Y613410D02*
X336550Y613800D01*
X336931Y547624D02*
X342265Y547624D01*
X350266Y555625D01*
X336931Y547624D02*
X336804Y547497D01*
X336550Y547243D01*
X336804Y158496D02*
X342900Y152400D01*
X336804Y158496D02*
X336804Y547497D01*
D19*
X350266Y555625D03*
D16*
X361823Y598297D02*
X361823Y613410D01*
X361823Y598297D02*
X361950Y597780D01*
X361823Y613410D02*
X361950Y613800D01*
X361823Y580517D02*
X361823Y558292D01*
X361823Y580517D02*
X361950Y580780D01*
X361823Y558292D02*
X361950Y557657D01*
X362712Y546735D02*
X362712Y259588D01*
X469900Y152400D01*
X362712Y546735D02*
X361950Y547243D01*
D20*
X419100Y673100D02*
X419100Y755650D01*
D22*
X419100Y673100D03*
X393700Y546100D03*
D20*
X363347Y546100D01*
X362712Y546735D01*
D18*
X451612Y456946D02*
X451612Y444500D01*
X451612Y456946D02*
X442722Y465836D01*
X442722Y485394D01*
X440055Y488061D01*
X440055Y508508D01*
X436499Y512064D01*
X436499Y537845D01*
X493395Y594741D01*
X522732Y594741D01*
X525399Y592074D01*
X451993Y444500D02*
X451612Y444500D01*
D19*
X525399Y592074D03*
D18*
X533400Y640969D02*
X541401Y640969D01*
X544957Y644525D01*
X533400Y640969D02*
X533400Y640207D01*
D19*
X544957Y644525D03*
D18*
X304927Y613410D02*
X304927Y596519D01*
X304800Y595700D01*
X304927Y613410D02*
X304800Y613800D01*
X304927Y614299D02*
X304927Y616077D01*
X355600Y666750D01*
X355600Y669417D01*
X359156Y672973D01*
X382270Y672973D01*
X304927Y614299D02*
X304800Y613800D01*
D19*
X382270Y672973D03*
D18*
X779653Y432943D02*
X779653Y419608D01*
X576072Y660527D02*
X533400Y660527D01*
X457835Y736092D01*
X779653Y419608D02*
X779907Y419100D01*
X457835Y736092D02*
X457200Y736600D01*
D19*
X779653Y432943D03*
X576072Y660527D03*
D18*
X452501Y432943D02*
X452501Y419608D01*
X451993Y419100D01*
D19*
X452501Y432943D03*
D18*
X452501Y407162D02*
X452501Y393827D01*
X451993Y393700D01*
D19*
X452501Y407162D03*
D18*
X780542Y393827D02*
X849884Y463169D01*
X780542Y393827D02*
X779907Y393700D01*
D19*
X849884Y463169D03*
D16*
X336931Y558292D02*
X336931Y580517D01*
X336550Y580780D01*
X336931Y558292D02*
X336550Y557657D01*
X779907Y444500D02*
X856107Y520700D01*
X1029000Y548000D02*
X1029000Y598800D01*
X1029000Y548000D02*
X1001700Y520700D01*
X856107Y520700D01*
X856107Y546100D02*
X779907Y469900D01*
X1003600Y560700D02*
X1003600Y598800D01*
X1003600Y560700D02*
X989000Y546100D01*
X856107Y546100D01*
X845307Y560700D02*
X779907Y495300D01*
X978200Y573400D02*
X978200Y598800D01*
X978200Y573400D02*
X965500Y560700D01*
X845307Y560700D01*
X671830Y610743D02*
X660400Y622173D01*
X660400Y642493D01*
X671830Y610743D02*
X671830Y546100D01*
M02*
