G04 EAGLE Gerber RS-274X export*
G75*
%MOMM*%
%FSLAX34Y34*%
%LPD*%
%INBottom Copper*%
%IPPOS*%
%AMOC8*
5,1,8,0,0,1.08239X$1,22.5*%
G01*
%ADD10C,0.228600*%


D10*
X177356Y5055D02*
X190945Y5055D01*
X190945Y8830D01*
X190943Y8951D01*
X190937Y9072D01*
X190928Y9192D01*
X190914Y9313D01*
X190897Y9432D01*
X190875Y9552D01*
X190850Y9670D01*
X190822Y9788D01*
X190789Y9904D01*
X190753Y10020D01*
X190713Y10134D01*
X190669Y10247D01*
X190622Y10358D01*
X190571Y10468D01*
X190517Y10576D01*
X190459Y10682D01*
X190398Y10787D01*
X190334Y10889D01*
X190266Y10990D01*
X190195Y11088D01*
X190121Y11184D01*
X190044Y11277D01*
X189965Y11368D01*
X189882Y11456D01*
X189796Y11542D01*
X189708Y11625D01*
X189617Y11704D01*
X189524Y11781D01*
X189428Y11855D01*
X189330Y11926D01*
X189229Y11994D01*
X189127Y12058D01*
X189022Y12119D01*
X188916Y12177D01*
X188808Y12231D01*
X188698Y12282D01*
X188587Y12329D01*
X188474Y12373D01*
X188360Y12413D01*
X188244Y12449D01*
X188128Y12482D01*
X188010Y12510D01*
X187892Y12535D01*
X187772Y12557D01*
X187653Y12574D01*
X187532Y12588D01*
X187412Y12597D01*
X187291Y12603D01*
X187170Y12605D01*
X181130Y12605D01*
X181009Y12603D01*
X180888Y12597D01*
X180768Y12588D01*
X180647Y12574D01*
X180528Y12557D01*
X180408Y12535D01*
X180290Y12510D01*
X180172Y12482D01*
X180056Y12449D01*
X179940Y12413D01*
X179826Y12373D01*
X179713Y12329D01*
X179602Y12282D01*
X179492Y12231D01*
X179384Y12177D01*
X179278Y12119D01*
X179173Y12058D01*
X179071Y11994D01*
X178970Y11926D01*
X178872Y11855D01*
X178776Y11781D01*
X178683Y11704D01*
X178592Y11625D01*
X178504Y11542D01*
X178418Y11456D01*
X178335Y11368D01*
X178256Y11277D01*
X178179Y11184D01*
X178105Y11088D01*
X178034Y10990D01*
X177966Y10889D01*
X177902Y10787D01*
X177841Y10682D01*
X177783Y10576D01*
X177729Y10468D01*
X177678Y10358D01*
X177631Y10247D01*
X177587Y10134D01*
X177547Y10020D01*
X177511Y9904D01*
X177478Y9788D01*
X177450Y9670D01*
X177425Y9552D01*
X177403Y9433D01*
X177386Y9313D01*
X177372Y9193D01*
X177363Y9072D01*
X177357Y8951D01*
X177355Y8830D01*
X177356Y8830D02*
X177356Y5055D01*
X180375Y19521D02*
X183395Y19521D01*
X183395Y19520D02*
X183504Y19522D01*
X183613Y19528D01*
X183722Y19538D01*
X183830Y19551D01*
X183937Y19569D01*
X184044Y19591D01*
X184150Y19616D01*
X184255Y19645D01*
X184359Y19678D01*
X184462Y19715D01*
X184563Y19755D01*
X184663Y19799D01*
X184761Y19847D01*
X184858Y19898D01*
X184952Y19952D01*
X185044Y20010D01*
X185135Y20071D01*
X185223Y20136D01*
X185308Y20203D01*
X185391Y20274D01*
X185472Y20347D01*
X185550Y20424D01*
X185625Y20503D01*
X185697Y20585D01*
X185766Y20669D01*
X185832Y20756D01*
X185895Y20845D01*
X185954Y20937D01*
X186010Y21030D01*
X186063Y21125D01*
X186113Y21223D01*
X186158Y21322D01*
X186201Y21422D01*
X186239Y21524D01*
X186274Y21628D01*
X186305Y21732D01*
X186332Y21838D01*
X186356Y21944D01*
X186375Y22051D01*
X186391Y22159D01*
X186403Y22268D01*
X186411Y22377D01*
X186415Y22485D01*
X186415Y22595D01*
X186411Y22703D01*
X186403Y22812D01*
X186391Y22921D01*
X186375Y23029D01*
X186356Y23136D01*
X186332Y23242D01*
X186305Y23348D01*
X186274Y23452D01*
X186239Y23556D01*
X186201Y23658D01*
X186158Y23758D01*
X186113Y23857D01*
X186063Y23955D01*
X186010Y24050D01*
X185954Y24143D01*
X185895Y24235D01*
X185832Y24324D01*
X185766Y24411D01*
X185697Y24495D01*
X185625Y24577D01*
X185550Y24656D01*
X185472Y24733D01*
X185391Y24806D01*
X185308Y24877D01*
X185223Y24944D01*
X185135Y25009D01*
X185044Y25070D01*
X184952Y25128D01*
X184858Y25182D01*
X184761Y25233D01*
X184663Y25281D01*
X184563Y25325D01*
X184462Y25365D01*
X184359Y25402D01*
X184255Y25435D01*
X184150Y25464D01*
X184044Y25489D01*
X183937Y25511D01*
X183830Y25529D01*
X183722Y25542D01*
X183613Y25552D01*
X183504Y25558D01*
X183395Y25560D01*
X180375Y25560D01*
X180266Y25558D01*
X180157Y25552D01*
X180048Y25542D01*
X179940Y25529D01*
X179833Y25511D01*
X179726Y25489D01*
X179620Y25464D01*
X179515Y25435D01*
X179411Y25402D01*
X179308Y25365D01*
X179207Y25325D01*
X179107Y25281D01*
X179009Y25233D01*
X178912Y25182D01*
X178818Y25128D01*
X178726Y25070D01*
X178635Y25009D01*
X178547Y24944D01*
X178462Y24877D01*
X178379Y24806D01*
X178298Y24733D01*
X178220Y24656D01*
X178145Y24577D01*
X178073Y24495D01*
X178004Y24411D01*
X177938Y24324D01*
X177875Y24235D01*
X177816Y24143D01*
X177760Y24050D01*
X177707Y23955D01*
X177657Y23857D01*
X177612Y23758D01*
X177569Y23658D01*
X177531Y23556D01*
X177496Y23452D01*
X177465Y23348D01*
X177438Y23242D01*
X177414Y23136D01*
X177395Y23029D01*
X177379Y22921D01*
X177367Y22812D01*
X177359Y22703D01*
X177355Y22595D01*
X177355Y22485D01*
X177359Y22377D01*
X177367Y22268D01*
X177379Y22159D01*
X177395Y22051D01*
X177414Y21944D01*
X177438Y21838D01*
X177465Y21732D01*
X177496Y21628D01*
X177531Y21524D01*
X177569Y21422D01*
X177612Y21322D01*
X177657Y21223D01*
X177707Y21125D01*
X177760Y21030D01*
X177816Y20937D01*
X177875Y20845D01*
X177938Y20756D01*
X178004Y20669D01*
X178073Y20585D01*
X178145Y20503D01*
X178220Y20424D01*
X178298Y20347D01*
X178379Y20274D01*
X178462Y20203D01*
X178547Y20136D01*
X178635Y20071D01*
X178726Y20010D01*
X178818Y19952D01*
X178912Y19898D01*
X179009Y19847D01*
X179107Y19799D01*
X179207Y19755D01*
X179308Y19715D01*
X179411Y19678D01*
X179515Y19645D01*
X179620Y19616D01*
X179726Y19591D01*
X179833Y19569D01*
X179940Y19551D01*
X180048Y19538D01*
X180157Y19528D01*
X180266Y19522D01*
X180375Y19520D01*
X186415Y31721D02*
X177356Y33986D01*
X183395Y36251D01*
X177356Y38516D01*
X186415Y40781D01*
X186415Y47414D02*
X177356Y47414D01*
X186415Y47414D02*
X186415Y51189D01*
X186413Y51283D01*
X186407Y51376D01*
X186398Y51469D01*
X186384Y51562D01*
X186367Y51654D01*
X186346Y51745D01*
X186321Y51835D01*
X186292Y51924D01*
X186260Y52012D01*
X186224Y52099D01*
X186185Y52184D01*
X186142Y52267D01*
X186096Y52348D01*
X186046Y52428D01*
X185993Y52505D01*
X185937Y52580D01*
X185878Y52653D01*
X185816Y52723D01*
X185752Y52791D01*
X185684Y52855D01*
X185614Y52917D01*
X185541Y52976D01*
X185466Y53032D01*
X185389Y53085D01*
X185309Y53135D01*
X185228Y53181D01*
X185145Y53224D01*
X185060Y53263D01*
X184973Y53299D01*
X184885Y53331D01*
X184796Y53360D01*
X184706Y53385D01*
X184615Y53406D01*
X184523Y53423D01*
X184430Y53437D01*
X184337Y53446D01*
X184244Y53452D01*
X184150Y53454D01*
X177356Y53454D01*
X182640Y60561D02*
X182640Y69620D01*
X177356Y77108D02*
X190945Y77108D01*
X183395Y81637D01*
X190945Y86167D01*
X177356Y86167D01*
X177356Y92984D02*
X186415Y92984D01*
X190190Y92606D02*
X190945Y92606D01*
X190945Y93361D01*
X190190Y93361D01*
X190190Y92606D01*
X190945Y104887D02*
X177356Y104887D01*
X177356Y101112D01*
X177355Y101112D02*
X177357Y101018D01*
X177363Y100925D01*
X177372Y100832D01*
X177386Y100739D01*
X177403Y100647D01*
X177424Y100556D01*
X177449Y100466D01*
X177478Y100377D01*
X177510Y100289D01*
X177546Y100202D01*
X177585Y100117D01*
X177628Y100034D01*
X177674Y99953D01*
X177724Y99873D01*
X177777Y99796D01*
X177833Y99721D01*
X177892Y99648D01*
X177954Y99578D01*
X178018Y99510D01*
X178086Y99446D01*
X178156Y99384D01*
X178229Y99325D01*
X178304Y99269D01*
X178381Y99216D01*
X178461Y99166D01*
X178542Y99120D01*
X178625Y99077D01*
X178710Y99038D01*
X178797Y99002D01*
X178885Y98970D01*
X178974Y98941D01*
X179064Y98916D01*
X179155Y98895D01*
X179247Y98878D01*
X179340Y98864D01*
X179433Y98855D01*
X179526Y98849D01*
X179620Y98847D01*
X184150Y98847D01*
X184244Y98849D01*
X184337Y98855D01*
X184430Y98864D01*
X184523Y98878D01*
X184615Y98895D01*
X184706Y98916D01*
X184796Y98941D01*
X184885Y98970D01*
X184973Y99002D01*
X185060Y99038D01*
X185145Y99077D01*
X185228Y99120D01*
X185309Y99166D01*
X185389Y99216D01*
X185466Y99269D01*
X185541Y99325D01*
X185614Y99384D01*
X185684Y99446D01*
X185752Y99510D01*
X185816Y99578D01*
X185878Y99648D01*
X185937Y99721D01*
X185993Y99796D01*
X186046Y99873D01*
X186096Y99953D01*
X186142Y100034D01*
X186185Y100117D01*
X186224Y100202D01*
X186260Y100289D01*
X186292Y100377D01*
X186321Y100466D01*
X186346Y100556D01*
X186367Y100647D01*
X186384Y100739D01*
X186398Y100832D01*
X186407Y100925D01*
X186413Y101018D01*
X186415Y101112D01*
X186415Y104887D01*
X190945Y117652D02*
X177356Y117652D01*
X177356Y113877D01*
X177355Y113877D02*
X177357Y113783D01*
X177363Y113690D01*
X177372Y113597D01*
X177386Y113504D01*
X177403Y113412D01*
X177424Y113321D01*
X177449Y113231D01*
X177478Y113142D01*
X177510Y113054D01*
X177546Y112967D01*
X177585Y112882D01*
X177628Y112799D01*
X177674Y112718D01*
X177724Y112638D01*
X177777Y112561D01*
X177833Y112486D01*
X177892Y112413D01*
X177954Y112343D01*
X178018Y112275D01*
X178086Y112211D01*
X178156Y112149D01*
X178229Y112090D01*
X178304Y112034D01*
X178381Y111981D01*
X178461Y111931D01*
X178542Y111885D01*
X178625Y111842D01*
X178710Y111803D01*
X178797Y111767D01*
X178885Y111735D01*
X178974Y111706D01*
X179064Y111681D01*
X179155Y111660D01*
X179247Y111643D01*
X179340Y111629D01*
X179433Y111620D01*
X179526Y111614D01*
X179620Y111612D01*
X184150Y111612D01*
X184244Y111614D01*
X184337Y111620D01*
X184430Y111629D01*
X184523Y111643D01*
X184615Y111660D01*
X184706Y111681D01*
X184796Y111706D01*
X184885Y111735D01*
X184973Y111767D01*
X185060Y111803D01*
X185145Y111842D01*
X185228Y111885D01*
X185309Y111931D01*
X185389Y111981D01*
X185466Y112034D01*
X185541Y112090D01*
X185614Y112149D01*
X185684Y112211D01*
X185752Y112275D01*
X185816Y112343D01*
X185878Y112413D01*
X185937Y112486D01*
X185993Y112561D01*
X186046Y112638D01*
X186096Y112718D01*
X186142Y112799D01*
X186185Y112882D01*
X186224Y112967D01*
X186260Y113054D01*
X186292Y113142D01*
X186321Y113231D01*
X186346Y113321D01*
X186367Y113412D01*
X186384Y113504D01*
X186398Y113597D01*
X186407Y113690D01*
X186413Y113783D01*
X186415Y113877D01*
X186415Y117652D01*
X190945Y124559D02*
X179620Y124559D01*
X179526Y124561D01*
X179433Y124567D01*
X179340Y124576D01*
X179247Y124590D01*
X179155Y124607D01*
X179064Y124628D01*
X178974Y124653D01*
X178885Y124682D01*
X178797Y124714D01*
X178710Y124750D01*
X178625Y124789D01*
X178542Y124832D01*
X178461Y124878D01*
X178381Y124928D01*
X178304Y124981D01*
X178229Y125037D01*
X178156Y125096D01*
X178086Y125158D01*
X178018Y125222D01*
X177954Y125290D01*
X177892Y125360D01*
X177833Y125433D01*
X177777Y125508D01*
X177724Y125585D01*
X177674Y125665D01*
X177628Y125746D01*
X177585Y125829D01*
X177546Y125914D01*
X177510Y126001D01*
X177478Y126089D01*
X177449Y126178D01*
X177424Y126268D01*
X177403Y126359D01*
X177386Y126451D01*
X177372Y126544D01*
X177363Y126637D01*
X177357Y126730D01*
X177355Y126824D01*
X177356Y134306D02*
X177356Y138081D01*
X177355Y134306D02*
X177357Y134212D01*
X177363Y134119D01*
X177372Y134026D01*
X177386Y133933D01*
X177403Y133841D01*
X177424Y133750D01*
X177449Y133660D01*
X177478Y133571D01*
X177510Y133483D01*
X177546Y133396D01*
X177585Y133311D01*
X177628Y133228D01*
X177674Y133147D01*
X177724Y133067D01*
X177777Y132990D01*
X177833Y132915D01*
X177892Y132842D01*
X177954Y132772D01*
X178018Y132704D01*
X178086Y132640D01*
X178156Y132578D01*
X178229Y132519D01*
X178304Y132463D01*
X178381Y132410D01*
X178461Y132360D01*
X178542Y132314D01*
X178625Y132271D01*
X178710Y132232D01*
X178797Y132196D01*
X178885Y132164D01*
X178974Y132135D01*
X179064Y132110D01*
X179155Y132089D01*
X179247Y132072D01*
X179340Y132058D01*
X179433Y132049D01*
X179526Y132043D01*
X179620Y132041D01*
X183395Y132041D01*
X183504Y132043D01*
X183613Y132049D01*
X183722Y132059D01*
X183830Y132072D01*
X183937Y132090D01*
X184044Y132112D01*
X184150Y132137D01*
X184255Y132166D01*
X184359Y132199D01*
X184462Y132236D01*
X184563Y132276D01*
X184663Y132320D01*
X184761Y132368D01*
X184858Y132419D01*
X184952Y132473D01*
X185044Y132531D01*
X185135Y132592D01*
X185223Y132657D01*
X185308Y132724D01*
X185391Y132795D01*
X185472Y132868D01*
X185550Y132945D01*
X185625Y133024D01*
X185697Y133106D01*
X185766Y133190D01*
X185832Y133277D01*
X185895Y133366D01*
X185954Y133458D01*
X186010Y133551D01*
X186063Y133646D01*
X186113Y133744D01*
X186158Y133843D01*
X186201Y133943D01*
X186239Y134045D01*
X186274Y134149D01*
X186305Y134253D01*
X186332Y134359D01*
X186356Y134465D01*
X186375Y134572D01*
X186391Y134680D01*
X186403Y134789D01*
X186411Y134898D01*
X186415Y135006D01*
X186415Y135116D01*
X186411Y135224D01*
X186403Y135333D01*
X186391Y135442D01*
X186375Y135550D01*
X186356Y135657D01*
X186332Y135763D01*
X186305Y135869D01*
X186274Y135973D01*
X186239Y136077D01*
X186201Y136179D01*
X186158Y136279D01*
X186113Y136378D01*
X186063Y136476D01*
X186010Y136571D01*
X185954Y136664D01*
X185895Y136756D01*
X185832Y136845D01*
X185766Y136932D01*
X185697Y137016D01*
X185625Y137098D01*
X185550Y137177D01*
X185472Y137254D01*
X185391Y137327D01*
X185308Y137398D01*
X185223Y137465D01*
X185135Y137530D01*
X185044Y137591D01*
X184952Y137649D01*
X184858Y137703D01*
X184761Y137754D01*
X184663Y137802D01*
X184563Y137846D01*
X184462Y137886D01*
X184359Y137923D01*
X184255Y137956D01*
X184150Y137985D01*
X184044Y138010D01*
X183937Y138032D01*
X183830Y138050D01*
X183722Y138063D01*
X183613Y138073D01*
X183504Y138079D01*
X183395Y138081D01*
X181885Y138081D01*
X181885Y132041D01*
X177356Y145036D02*
X190945Y145036D01*
X177356Y145036D02*
X177356Y151075D01*
X182640Y159168D02*
X182640Y162565D01*
X182640Y159168D02*
X182638Y159067D01*
X182632Y158966D01*
X182623Y158865D01*
X182609Y158765D01*
X182592Y158665D01*
X182571Y158566D01*
X182546Y158468D01*
X182517Y158371D01*
X182484Y158275D01*
X182448Y158180D01*
X182409Y158087D01*
X182366Y157996D01*
X182319Y157906D01*
X182269Y157818D01*
X182216Y157732D01*
X182159Y157648D01*
X182099Y157566D01*
X182036Y157487D01*
X181970Y157410D01*
X181902Y157336D01*
X181830Y157264D01*
X181756Y157196D01*
X181679Y157130D01*
X181600Y157067D01*
X181518Y157007D01*
X181434Y156950D01*
X181348Y156897D01*
X181260Y156847D01*
X181170Y156800D01*
X181079Y156757D01*
X180986Y156718D01*
X180891Y156682D01*
X180795Y156649D01*
X180698Y156620D01*
X180600Y156595D01*
X180501Y156574D01*
X180401Y156557D01*
X180301Y156543D01*
X180200Y156534D01*
X180099Y156528D01*
X179998Y156526D01*
X179897Y156528D01*
X179796Y156534D01*
X179695Y156543D01*
X179595Y156557D01*
X179495Y156574D01*
X179396Y156595D01*
X179298Y156620D01*
X179201Y156649D01*
X179105Y156682D01*
X179010Y156718D01*
X178917Y156757D01*
X178826Y156800D01*
X178736Y156847D01*
X178648Y156897D01*
X178562Y156950D01*
X178478Y157007D01*
X178396Y157067D01*
X178317Y157130D01*
X178240Y157196D01*
X178166Y157264D01*
X178094Y157336D01*
X178026Y157410D01*
X177960Y157487D01*
X177897Y157566D01*
X177837Y157648D01*
X177780Y157732D01*
X177727Y157818D01*
X177677Y157906D01*
X177630Y157996D01*
X177587Y158087D01*
X177548Y158180D01*
X177512Y158275D01*
X177479Y158371D01*
X177450Y158468D01*
X177425Y158566D01*
X177404Y158665D01*
X177387Y158765D01*
X177373Y158865D01*
X177364Y158966D01*
X177358Y159067D01*
X177356Y159168D01*
X177356Y162565D01*
X184150Y162565D01*
X184244Y162563D01*
X184337Y162557D01*
X184430Y162548D01*
X184523Y162534D01*
X184615Y162517D01*
X184706Y162496D01*
X184796Y162471D01*
X184885Y162442D01*
X184973Y162410D01*
X185060Y162374D01*
X185145Y162335D01*
X185228Y162292D01*
X185309Y162246D01*
X185389Y162196D01*
X185466Y162143D01*
X185541Y162087D01*
X185614Y162028D01*
X185684Y161966D01*
X185752Y161902D01*
X185816Y161834D01*
X185878Y161764D01*
X185937Y161691D01*
X185993Y161616D01*
X186046Y161539D01*
X186096Y161459D01*
X186142Y161378D01*
X186185Y161295D01*
X186224Y161210D01*
X186260Y161123D01*
X186292Y161035D01*
X186321Y160946D01*
X186346Y160856D01*
X186367Y160765D01*
X186384Y160673D01*
X186398Y160580D01*
X186407Y160487D01*
X186413Y160394D01*
X186415Y160300D01*
X186415Y157281D01*
X172826Y168917D02*
X172826Y170427D01*
X186415Y174957D01*
X186415Y168917D02*
X177356Y171937D01*
X177356Y183002D02*
X177356Y186776D01*
X177355Y183002D02*
X177357Y182908D01*
X177363Y182815D01*
X177372Y182722D01*
X177386Y182629D01*
X177403Y182537D01*
X177424Y182446D01*
X177449Y182356D01*
X177478Y182267D01*
X177510Y182179D01*
X177546Y182092D01*
X177585Y182007D01*
X177628Y181924D01*
X177674Y181843D01*
X177724Y181763D01*
X177777Y181686D01*
X177833Y181611D01*
X177892Y181538D01*
X177954Y181468D01*
X178018Y181400D01*
X178086Y181336D01*
X178156Y181274D01*
X178229Y181215D01*
X178304Y181159D01*
X178381Y181106D01*
X178461Y181056D01*
X178542Y181010D01*
X178625Y180967D01*
X178710Y180928D01*
X178797Y180892D01*
X178885Y180860D01*
X178974Y180831D01*
X179064Y180806D01*
X179155Y180785D01*
X179247Y180768D01*
X179340Y180754D01*
X179433Y180745D01*
X179526Y180739D01*
X179620Y180737D01*
X183395Y180737D01*
X183504Y180739D01*
X183613Y180745D01*
X183722Y180755D01*
X183830Y180768D01*
X183937Y180786D01*
X184044Y180808D01*
X184150Y180833D01*
X184255Y180862D01*
X184359Y180895D01*
X184462Y180932D01*
X184563Y180972D01*
X184663Y181016D01*
X184761Y181064D01*
X184858Y181115D01*
X184952Y181169D01*
X185044Y181227D01*
X185135Y181288D01*
X185223Y181353D01*
X185308Y181420D01*
X185391Y181491D01*
X185472Y181564D01*
X185550Y181641D01*
X185625Y181720D01*
X185697Y181802D01*
X185766Y181886D01*
X185832Y181973D01*
X185895Y182062D01*
X185954Y182154D01*
X186010Y182247D01*
X186063Y182342D01*
X186113Y182440D01*
X186158Y182539D01*
X186201Y182639D01*
X186239Y182741D01*
X186274Y182845D01*
X186305Y182949D01*
X186332Y183055D01*
X186356Y183161D01*
X186375Y183268D01*
X186391Y183376D01*
X186403Y183485D01*
X186411Y183594D01*
X186415Y183702D01*
X186415Y183812D01*
X186411Y183920D01*
X186403Y184029D01*
X186391Y184138D01*
X186375Y184246D01*
X186356Y184353D01*
X186332Y184459D01*
X186305Y184565D01*
X186274Y184669D01*
X186239Y184773D01*
X186201Y184875D01*
X186158Y184975D01*
X186113Y185074D01*
X186063Y185172D01*
X186010Y185267D01*
X185954Y185360D01*
X185895Y185452D01*
X185832Y185541D01*
X185766Y185628D01*
X185697Y185712D01*
X185625Y185794D01*
X185550Y185873D01*
X185472Y185950D01*
X185391Y186023D01*
X185308Y186094D01*
X185223Y186161D01*
X185135Y186226D01*
X185044Y186287D01*
X184952Y186345D01*
X184858Y186399D01*
X184761Y186450D01*
X184663Y186498D01*
X184563Y186542D01*
X184462Y186582D01*
X184359Y186619D01*
X184255Y186652D01*
X184150Y186681D01*
X184044Y186706D01*
X183937Y186728D01*
X183830Y186746D01*
X183722Y186759D01*
X183613Y186769D01*
X183504Y186775D01*
X183395Y186777D01*
X183395Y186776D02*
X181885Y186776D01*
X181885Y180737D01*
X177356Y193615D02*
X186415Y193615D01*
X186415Y198145D01*
X184905Y198145D01*
M02*
