M48
;GenerationSoftware,Autodesk,EAGLE,9.6.2*%
;CreationDate,2022-09-23T20:06:46Z*%
FMAT,2
ICI,OFF
METRIC,TZ,000.000
T3C1.700
T2C2.794
T1C3.048
%
G90
M71
T1
X-3175Y0
X-3175Y20320
X18415Y0
X18415Y20320
T2
X7620Y-4318
X7620Y24638
T3
X1397Y1270
X1143Y3810
X1397Y6350
X1143Y8890
X1397Y11430
X1143Y13970
X1397Y16510
X1143Y19050
X13843Y19050
X14097Y16510
X13843Y13970
X14097Y11430
X13843Y8890
X14097Y6350
X13843Y3810
X14097Y1270
M30