G04 EAGLE Gerber RS-274X export*
G75*
%MOMM*%
%FSLAX34Y34*%
%LPD*%
%INBottom Copper*%
%IPPOS*%
%AMOC8*
5,1,8,0,0,1.08239X$1,22.5*%
G01*
%ADD10C,0.228600*%


D10*
X198311Y20420D02*
X211900Y20420D01*
X211900Y24195D01*
X211898Y24316D01*
X211892Y24437D01*
X211883Y24557D01*
X211869Y24678D01*
X211852Y24797D01*
X211830Y24917D01*
X211805Y25035D01*
X211777Y25153D01*
X211744Y25269D01*
X211708Y25385D01*
X211668Y25499D01*
X211624Y25612D01*
X211577Y25723D01*
X211526Y25833D01*
X211472Y25941D01*
X211414Y26047D01*
X211353Y26152D01*
X211289Y26254D01*
X211221Y26355D01*
X211150Y26453D01*
X211076Y26549D01*
X210999Y26642D01*
X210920Y26733D01*
X210837Y26821D01*
X210751Y26907D01*
X210663Y26990D01*
X210572Y27069D01*
X210479Y27146D01*
X210383Y27220D01*
X210285Y27291D01*
X210184Y27359D01*
X210082Y27423D01*
X209977Y27484D01*
X209871Y27542D01*
X209763Y27596D01*
X209653Y27647D01*
X209542Y27694D01*
X209429Y27738D01*
X209315Y27778D01*
X209199Y27814D01*
X209083Y27847D01*
X208965Y27875D01*
X208847Y27900D01*
X208727Y27922D01*
X208608Y27939D01*
X208487Y27953D01*
X208367Y27962D01*
X208246Y27968D01*
X208125Y27970D01*
X202085Y27970D01*
X201964Y27968D01*
X201843Y27962D01*
X201723Y27953D01*
X201602Y27939D01*
X201483Y27922D01*
X201363Y27900D01*
X201245Y27875D01*
X201127Y27847D01*
X201011Y27814D01*
X200895Y27778D01*
X200781Y27738D01*
X200668Y27694D01*
X200557Y27647D01*
X200447Y27596D01*
X200339Y27542D01*
X200233Y27484D01*
X200128Y27423D01*
X200026Y27359D01*
X199925Y27291D01*
X199827Y27220D01*
X199731Y27146D01*
X199638Y27069D01*
X199547Y26990D01*
X199459Y26907D01*
X199373Y26821D01*
X199290Y26733D01*
X199211Y26642D01*
X199134Y26549D01*
X199060Y26453D01*
X198989Y26355D01*
X198921Y26254D01*
X198857Y26152D01*
X198796Y26047D01*
X198738Y25941D01*
X198684Y25833D01*
X198633Y25723D01*
X198586Y25612D01*
X198542Y25499D01*
X198502Y25385D01*
X198466Y25269D01*
X198433Y25153D01*
X198405Y25035D01*
X198380Y24917D01*
X198358Y24798D01*
X198341Y24678D01*
X198327Y24558D01*
X198318Y24437D01*
X198312Y24316D01*
X198310Y24195D01*
X198311Y24195D02*
X198311Y20420D01*
X201330Y34886D02*
X204350Y34886D01*
X204350Y34885D02*
X204459Y34887D01*
X204568Y34893D01*
X204677Y34903D01*
X204785Y34916D01*
X204892Y34934D01*
X204999Y34956D01*
X205105Y34981D01*
X205210Y35010D01*
X205314Y35043D01*
X205417Y35080D01*
X205518Y35120D01*
X205618Y35164D01*
X205716Y35212D01*
X205813Y35263D01*
X205907Y35317D01*
X205999Y35375D01*
X206090Y35436D01*
X206178Y35501D01*
X206263Y35568D01*
X206346Y35639D01*
X206427Y35712D01*
X206505Y35789D01*
X206580Y35868D01*
X206652Y35950D01*
X206721Y36034D01*
X206787Y36121D01*
X206850Y36210D01*
X206909Y36302D01*
X206965Y36395D01*
X207018Y36490D01*
X207068Y36588D01*
X207113Y36687D01*
X207156Y36787D01*
X207194Y36889D01*
X207229Y36993D01*
X207260Y37097D01*
X207287Y37203D01*
X207311Y37309D01*
X207330Y37416D01*
X207346Y37524D01*
X207358Y37633D01*
X207366Y37742D01*
X207370Y37850D01*
X207370Y37960D01*
X207366Y38068D01*
X207358Y38177D01*
X207346Y38286D01*
X207330Y38394D01*
X207311Y38501D01*
X207287Y38607D01*
X207260Y38713D01*
X207229Y38817D01*
X207194Y38921D01*
X207156Y39023D01*
X207113Y39123D01*
X207068Y39222D01*
X207018Y39320D01*
X206965Y39415D01*
X206909Y39508D01*
X206850Y39600D01*
X206787Y39689D01*
X206721Y39776D01*
X206652Y39860D01*
X206580Y39942D01*
X206505Y40021D01*
X206427Y40098D01*
X206346Y40171D01*
X206263Y40242D01*
X206178Y40309D01*
X206090Y40374D01*
X205999Y40435D01*
X205907Y40493D01*
X205813Y40547D01*
X205716Y40598D01*
X205618Y40646D01*
X205518Y40690D01*
X205417Y40730D01*
X205314Y40767D01*
X205210Y40800D01*
X205105Y40829D01*
X204999Y40854D01*
X204892Y40876D01*
X204785Y40894D01*
X204677Y40907D01*
X204568Y40917D01*
X204459Y40923D01*
X204350Y40925D01*
X201330Y40925D01*
X201221Y40923D01*
X201112Y40917D01*
X201003Y40907D01*
X200895Y40894D01*
X200788Y40876D01*
X200681Y40854D01*
X200575Y40829D01*
X200470Y40800D01*
X200366Y40767D01*
X200263Y40730D01*
X200162Y40690D01*
X200062Y40646D01*
X199964Y40598D01*
X199867Y40547D01*
X199773Y40493D01*
X199681Y40435D01*
X199590Y40374D01*
X199502Y40309D01*
X199417Y40242D01*
X199334Y40171D01*
X199253Y40098D01*
X199175Y40021D01*
X199100Y39942D01*
X199028Y39860D01*
X198959Y39776D01*
X198893Y39689D01*
X198830Y39600D01*
X198771Y39508D01*
X198715Y39415D01*
X198662Y39320D01*
X198612Y39222D01*
X198567Y39123D01*
X198524Y39023D01*
X198486Y38921D01*
X198451Y38817D01*
X198420Y38713D01*
X198393Y38607D01*
X198369Y38501D01*
X198350Y38394D01*
X198334Y38286D01*
X198322Y38177D01*
X198314Y38068D01*
X198310Y37960D01*
X198310Y37850D01*
X198314Y37742D01*
X198322Y37633D01*
X198334Y37524D01*
X198350Y37416D01*
X198369Y37309D01*
X198393Y37203D01*
X198420Y37097D01*
X198451Y36993D01*
X198486Y36889D01*
X198524Y36787D01*
X198567Y36687D01*
X198612Y36588D01*
X198662Y36490D01*
X198715Y36395D01*
X198771Y36302D01*
X198830Y36210D01*
X198893Y36121D01*
X198959Y36034D01*
X199028Y35950D01*
X199100Y35868D01*
X199175Y35789D01*
X199253Y35712D01*
X199334Y35639D01*
X199417Y35568D01*
X199502Y35501D01*
X199590Y35436D01*
X199681Y35375D01*
X199773Y35317D01*
X199867Y35263D01*
X199964Y35212D01*
X200062Y35164D01*
X200162Y35120D01*
X200263Y35080D01*
X200366Y35043D01*
X200470Y35010D01*
X200575Y34981D01*
X200681Y34956D01*
X200788Y34934D01*
X200895Y34916D01*
X201003Y34903D01*
X201112Y34893D01*
X201221Y34887D01*
X201330Y34885D01*
X207370Y47086D02*
X198311Y49351D01*
X204350Y51616D01*
X198311Y53881D01*
X207370Y56146D01*
X207370Y62779D02*
X198311Y62779D01*
X207370Y62779D02*
X207370Y66554D01*
X207368Y66648D01*
X207362Y66741D01*
X207353Y66834D01*
X207339Y66927D01*
X207322Y67019D01*
X207301Y67110D01*
X207276Y67200D01*
X207247Y67289D01*
X207215Y67377D01*
X207179Y67464D01*
X207140Y67549D01*
X207097Y67632D01*
X207051Y67713D01*
X207001Y67793D01*
X206948Y67870D01*
X206892Y67945D01*
X206833Y68018D01*
X206771Y68088D01*
X206707Y68156D01*
X206639Y68220D01*
X206569Y68282D01*
X206496Y68341D01*
X206421Y68397D01*
X206344Y68450D01*
X206264Y68500D01*
X206183Y68546D01*
X206100Y68589D01*
X206015Y68628D01*
X205928Y68664D01*
X205840Y68696D01*
X205751Y68725D01*
X205661Y68750D01*
X205570Y68771D01*
X205478Y68788D01*
X205385Y68802D01*
X205292Y68811D01*
X205199Y68817D01*
X205105Y68819D01*
X198311Y68819D01*
X203595Y75926D02*
X203595Y84985D01*
X198311Y94639D02*
X211900Y94639D01*
X211900Y98413D02*
X211900Y90864D01*
X204350Y103911D02*
X201330Y103911D01*
X204350Y103911D02*
X204459Y103913D01*
X204568Y103919D01*
X204677Y103929D01*
X204785Y103942D01*
X204892Y103960D01*
X204999Y103982D01*
X205105Y104007D01*
X205210Y104036D01*
X205314Y104069D01*
X205417Y104106D01*
X205518Y104146D01*
X205618Y104190D01*
X205716Y104238D01*
X205813Y104289D01*
X205907Y104343D01*
X205999Y104401D01*
X206090Y104462D01*
X206178Y104527D01*
X206263Y104594D01*
X206346Y104665D01*
X206427Y104738D01*
X206505Y104815D01*
X206580Y104894D01*
X206652Y104976D01*
X206721Y105060D01*
X206787Y105147D01*
X206850Y105236D01*
X206909Y105328D01*
X206965Y105421D01*
X207018Y105516D01*
X207068Y105614D01*
X207113Y105713D01*
X207156Y105813D01*
X207194Y105915D01*
X207229Y106019D01*
X207260Y106123D01*
X207287Y106229D01*
X207311Y106335D01*
X207330Y106442D01*
X207346Y106550D01*
X207358Y106659D01*
X207366Y106768D01*
X207370Y106876D01*
X207370Y106986D01*
X207366Y107094D01*
X207358Y107203D01*
X207346Y107312D01*
X207330Y107420D01*
X207311Y107527D01*
X207287Y107633D01*
X207260Y107739D01*
X207229Y107843D01*
X207194Y107947D01*
X207156Y108049D01*
X207113Y108149D01*
X207068Y108248D01*
X207018Y108346D01*
X206965Y108441D01*
X206909Y108534D01*
X206850Y108626D01*
X206787Y108715D01*
X206721Y108802D01*
X206652Y108886D01*
X206580Y108968D01*
X206505Y109047D01*
X206427Y109124D01*
X206346Y109197D01*
X206263Y109268D01*
X206178Y109335D01*
X206090Y109400D01*
X205999Y109461D01*
X205907Y109519D01*
X205813Y109573D01*
X205716Y109624D01*
X205618Y109672D01*
X205518Y109716D01*
X205417Y109756D01*
X205314Y109793D01*
X205210Y109826D01*
X205105Y109855D01*
X204999Y109880D01*
X204892Y109902D01*
X204785Y109920D01*
X204677Y109933D01*
X204568Y109943D01*
X204459Y109949D01*
X204350Y109951D01*
X201330Y109951D01*
X201221Y109949D01*
X201112Y109943D01*
X201003Y109933D01*
X200895Y109920D01*
X200788Y109902D01*
X200681Y109880D01*
X200575Y109855D01*
X200470Y109826D01*
X200366Y109793D01*
X200263Y109756D01*
X200162Y109716D01*
X200062Y109672D01*
X199964Y109624D01*
X199867Y109573D01*
X199773Y109519D01*
X199681Y109461D01*
X199590Y109400D01*
X199502Y109335D01*
X199417Y109268D01*
X199334Y109197D01*
X199253Y109124D01*
X199175Y109047D01*
X199100Y108968D01*
X199028Y108886D01*
X198959Y108802D01*
X198893Y108715D01*
X198830Y108626D01*
X198771Y108534D01*
X198715Y108441D01*
X198662Y108346D01*
X198612Y108248D01*
X198567Y108149D01*
X198524Y108049D01*
X198486Y107947D01*
X198451Y107843D01*
X198420Y107739D01*
X198393Y107633D01*
X198369Y107527D01*
X198350Y107420D01*
X198334Y107312D01*
X198322Y107203D01*
X198314Y107094D01*
X198310Y106986D01*
X198310Y106876D01*
X198314Y106768D01*
X198322Y106659D01*
X198334Y106550D01*
X198350Y106442D01*
X198369Y106335D01*
X198393Y106229D01*
X198420Y106123D01*
X198451Y106019D01*
X198486Y105915D01*
X198524Y105813D01*
X198567Y105713D01*
X198612Y105614D01*
X198662Y105516D01*
X198715Y105421D01*
X198771Y105328D01*
X198830Y105236D01*
X198893Y105147D01*
X198959Y105060D01*
X199028Y104976D01*
X199100Y104894D01*
X199175Y104815D01*
X199253Y104738D01*
X199334Y104665D01*
X199417Y104594D01*
X199502Y104527D01*
X199590Y104462D01*
X199681Y104401D01*
X199773Y104343D01*
X199867Y104289D01*
X199964Y104238D01*
X200062Y104190D01*
X200162Y104146D01*
X200263Y104106D01*
X200366Y104069D01*
X200470Y104036D01*
X200575Y104007D01*
X200681Y103982D01*
X200788Y103960D01*
X200895Y103942D01*
X201003Y103929D01*
X201112Y103919D01*
X201221Y103913D01*
X201330Y103911D01*
X207370Y116776D02*
X193781Y116776D01*
X207370Y116776D02*
X207370Y120550D01*
X207368Y120644D01*
X207362Y120737D01*
X207353Y120830D01*
X207339Y120923D01*
X207322Y121015D01*
X207301Y121106D01*
X207276Y121196D01*
X207247Y121285D01*
X207215Y121373D01*
X207179Y121460D01*
X207140Y121545D01*
X207097Y121628D01*
X207051Y121709D01*
X207001Y121789D01*
X206948Y121866D01*
X206892Y121941D01*
X206833Y122014D01*
X206771Y122084D01*
X206707Y122152D01*
X206639Y122216D01*
X206569Y122278D01*
X206496Y122337D01*
X206421Y122393D01*
X206344Y122446D01*
X206264Y122496D01*
X206183Y122542D01*
X206100Y122585D01*
X206015Y122624D01*
X205928Y122660D01*
X205840Y122692D01*
X205751Y122721D01*
X205661Y122746D01*
X205570Y122767D01*
X205478Y122784D01*
X205385Y122798D01*
X205292Y122807D01*
X205199Y122813D01*
X205105Y122815D01*
X200575Y122815D01*
X200481Y122813D01*
X200388Y122807D01*
X200295Y122798D01*
X200202Y122784D01*
X200110Y122767D01*
X200019Y122746D01*
X199929Y122721D01*
X199840Y122692D01*
X199752Y122660D01*
X199665Y122624D01*
X199580Y122585D01*
X199497Y122542D01*
X199416Y122496D01*
X199336Y122446D01*
X199259Y122393D01*
X199184Y122337D01*
X199111Y122278D01*
X199041Y122216D01*
X198973Y122152D01*
X198909Y122084D01*
X198847Y122014D01*
X198788Y121941D01*
X198732Y121866D01*
X198679Y121789D01*
X198629Y121709D01*
X198583Y121628D01*
X198540Y121545D01*
X198501Y121460D01*
X198465Y121373D01*
X198433Y121285D01*
X198404Y121196D01*
X198379Y121106D01*
X198358Y121015D01*
X198341Y120923D01*
X198327Y120830D01*
X198318Y120737D01*
X198312Y120644D01*
X198310Y120550D01*
X198311Y120550D02*
X198311Y116776D01*
X198311Y129670D02*
X211900Y129670D01*
X198311Y129670D02*
X198311Y135710D01*
X203595Y143803D02*
X203595Y147200D01*
X203595Y143803D02*
X203593Y143702D01*
X203587Y143601D01*
X203578Y143500D01*
X203564Y143400D01*
X203547Y143300D01*
X203526Y143201D01*
X203501Y143103D01*
X203472Y143006D01*
X203439Y142910D01*
X203403Y142815D01*
X203364Y142722D01*
X203321Y142631D01*
X203274Y142541D01*
X203224Y142453D01*
X203171Y142367D01*
X203114Y142283D01*
X203054Y142201D01*
X202991Y142122D01*
X202925Y142045D01*
X202857Y141971D01*
X202785Y141899D01*
X202711Y141831D01*
X202634Y141765D01*
X202555Y141702D01*
X202473Y141642D01*
X202389Y141585D01*
X202303Y141532D01*
X202215Y141482D01*
X202125Y141435D01*
X202034Y141392D01*
X201941Y141353D01*
X201846Y141317D01*
X201750Y141284D01*
X201653Y141255D01*
X201555Y141230D01*
X201456Y141209D01*
X201356Y141192D01*
X201256Y141178D01*
X201155Y141169D01*
X201054Y141163D01*
X200953Y141161D01*
X200852Y141163D01*
X200751Y141169D01*
X200650Y141178D01*
X200550Y141192D01*
X200450Y141209D01*
X200351Y141230D01*
X200253Y141255D01*
X200156Y141284D01*
X200060Y141317D01*
X199965Y141353D01*
X199872Y141392D01*
X199781Y141435D01*
X199691Y141482D01*
X199603Y141532D01*
X199517Y141585D01*
X199433Y141642D01*
X199351Y141702D01*
X199272Y141765D01*
X199195Y141831D01*
X199121Y141899D01*
X199049Y141971D01*
X198981Y142045D01*
X198915Y142122D01*
X198852Y142201D01*
X198792Y142283D01*
X198735Y142367D01*
X198682Y142453D01*
X198632Y142541D01*
X198585Y142631D01*
X198542Y142722D01*
X198503Y142815D01*
X198467Y142910D01*
X198434Y143006D01*
X198405Y143103D01*
X198380Y143201D01*
X198359Y143300D01*
X198342Y143400D01*
X198328Y143500D01*
X198319Y143601D01*
X198313Y143702D01*
X198311Y143803D01*
X198311Y147200D01*
X205105Y147200D01*
X205199Y147198D01*
X205292Y147192D01*
X205385Y147183D01*
X205478Y147169D01*
X205570Y147152D01*
X205661Y147131D01*
X205751Y147106D01*
X205840Y147077D01*
X205928Y147045D01*
X206015Y147009D01*
X206100Y146970D01*
X206183Y146927D01*
X206264Y146881D01*
X206344Y146831D01*
X206421Y146778D01*
X206496Y146722D01*
X206569Y146663D01*
X206639Y146601D01*
X206707Y146537D01*
X206771Y146469D01*
X206833Y146399D01*
X206892Y146326D01*
X206948Y146251D01*
X207001Y146174D01*
X207051Y146094D01*
X207097Y146013D01*
X207140Y145930D01*
X207179Y145845D01*
X207215Y145758D01*
X207247Y145670D01*
X207276Y145581D01*
X207301Y145491D01*
X207322Y145400D01*
X207339Y145308D01*
X207353Y145215D01*
X207362Y145122D01*
X207368Y145029D01*
X207370Y144935D01*
X207370Y141915D01*
X193781Y153552D02*
X193781Y155062D01*
X207370Y159592D01*
X207370Y153552D02*
X198311Y156572D01*
X198311Y167637D02*
X198311Y171411D01*
X198310Y167637D02*
X198312Y167543D01*
X198318Y167450D01*
X198327Y167357D01*
X198341Y167264D01*
X198358Y167172D01*
X198379Y167081D01*
X198404Y166991D01*
X198433Y166902D01*
X198465Y166814D01*
X198501Y166727D01*
X198540Y166642D01*
X198583Y166559D01*
X198629Y166478D01*
X198679Y166398D01*
X198732Y166321D01*
X198788Y166246D01*
X198847Y166173D01*
X198909Y166103D01*
X198973Y166035D01*
X199041Y165971D01*
X199111Y165909D01*
X199184Y165850D01*
X199259Y165794D01*
X199336Y165741D01*
X199416Y165691D01*
X199497Y165645D01*
X199580Y165602D01*
X199665Y165563D01*
X199752Y165527D01*
X199840Y165495D01*
X199929Y165466D01*
X200019Y165441D01*
X200110Y165420D01*
X200202Y165403D01*
X200295Y165389D01*
X200388Y165380D01*
X200481Y165374D01*
X200575Y165372D01*
X204350Y165372D01*
X204350Y165371D02*
X204459Y165373D01*
X204568Y165379D01*
X204677Y165389D01*
X204785Y165402D01*
X204892Y165420D01*
X204999Y165442D01*
X205105Y165467D01*
X205210Y165496D01*
X205314Y165529D01*
X205417Y165566D01*
X205518Y165606D01*
X205618Y165650D01*
X205716Y165698D01*
X205813Y165749D01*
X205907Y165803D01*
X205999Y165861D01*
X206090Y165922D01*
X206178Y165987D01*
X206263Y166054D01*
X206346Y166125D01*
X206427Y166198D01*
X206505Y166275D01*
X206580Y166354D01*
X206652Y166436D01*
X206721Y166520D01*
X206787Y166607D01*
X206850Y166696D01*
X206909Y166788D01*
X206965Y166881D01*
X207018Y166976D01*
X207068Y167074D01*
X207113Y167173D01*
X207156Y167273D01*
X207194Y167375D01*
X207229Y167479D01*
X207260Y167583D01*
X207287Y167689D01*
X207311Y167795D01*
X207330Y167902D01*
X207346Y168010D01*
X207358Y168119D01*
X207366Y168228D01*
X207370Y168336D01*
X207370Y168446D01*
X207366Y168554D01*
X207358Y168663D01*
X207346Y168772D01*
X207330Y168880D01*
X207311Y168987D01*
X207287Y169093D01*
X207260Y169199D01*
X207229Y169303D01*
X207194Y169407D01*
X207156Y169509D01*
X207113Y169609D01*
X207068Y169708D01*
X207018Y169806D01*
X206965Y169901D01*
X206909Y169994D01*
X206850Y170086D01*
X206787Y170175D01*
X206721Y170262D01*
X206652Y170346D01*
X206580Y170428D01*
X206505Y170507D01*
X206427Y170584D01*
X206346Y170657D01*
X206263Y170728D01*
X206178Y170795D01*
X206090Y170860D01*
X205999Y170921D01*
X205907Y170979D01*
X205813Y171033D01*
X205716Y171084D01*
X205618Y171132D01*
X205518Y171176D01*
X205417Y171216D01*
X205314Y171253D01*
X205210Y171286D01*
X205105Y171315D01*
X204999Y171340D01*
X204892Y171362D01*
X204785Y171380D01*
X204677Y171393D01*
X204568Y171403D01*
X204459Y171409D01*
X204350Y171411D01*
X202840Y171411D01*
X202840Y165372D01*
X198311Y178250D02*
X207370Y178250D01*
X207370Y182780D01*
X205860Y182780D01*
M02*
