G04 EAGLE Gerber RS-274X export*
G75*
%MOMM*%
%FSLAX34Y34*%
%LPD*%
%INSoldermask Top*%
%IPPOS*%
%AMOC8*
5,1,8,0,0,1.08239X$1,22.5*%
G01*
%ADD10C,2.032000*%
%ADD11C,3.200400*%
%ADD12C,2.946400*%
%ADD13C,3.454400*%
%ADD14C,0.243431*%
%ADD15C,1.930400*%
%ADD16C,0.253525*%
%ADD17C,0.251966*%
%ADD18C,0.250366*%

G36*
X661735Y645172D02*
X661735Y645172D01*
X661801Y645174D01*
X661844Y645192D01*
X661891Y645200D01*
X661948Y645234D01*
X662008Y645259D01*
X662043Y645290D01*
X662084Y645315D01*
X662126Y645366D01*
X662174Y645410D01*
X662196Y645452D01*
X662225Y645489D01*
X662246Y645551D01*
X662277Y645610D01*
X662285Y645664D01*
X662297Y645701D01*
X662296Y645741D01*
X662304Y645795D01*
X662304Y649605D01*
X662293Y649670D01*
X662291Y649736D01*
X662273Y649779D01*
X662265Y649826D01*
X662231Y649883D01*
X662206Y649943D01*
X662175Y649978D01*
X662150Y650019D01*
X662099Y650061D01*
X662055Y650109D01*
X662013Y650131D01*
X661976Y650160D01*
X661914Y650181D01*
X661855Y650212D01*
X661801Y650220D01*
X661764Y650232D01*
X661724Y650231D01*
X661670Y650239D01*
X659130Y650239D01*
X659065Y650228D01*
X658999Y650226D01*
X658956Y650208D01*
X658909Y650200D01*
X658852Y650166D01*
X658792Y650141D01*
X658757Y650110D01*
X658716Y650085D01*
X658675Y650034D01*
X658626Y649990D01*
X658604Y649948D01*
X658575Y649911D01*
X658554Y649849D01*
X658523Y649790D01*
X658515Y649736D01*
X658503Y649699D01*
X658503Y649695D01*
X658503Y649694D01*
X658504Y649659D01*
X658496Y649605D01*
X658496Y645795D01*
X658507Y645730D01*
X658509Y645664D01*
X658527Y645621D01*
X658535Y645574D01*
X658569Y645517D01*
X658594Y645457D01*
X658625Y645422D01*
X658650Y645381D01*
X658701Y645340D01*
X658745Y645291D01*
X658787Y645269D01*
X658824Y645240D01*
X658886Y645219D01*
X658945Y645188D01*
X658999Y645180D01*
X659036Y645168D01*
X659076Y645169D01*
X659130Y645161D01*
X661670Y645161D01*
X661735Y645172D01*
G37*
G36*
X534735Y632472D02*
X534735Y632472D01*
X534801Y632474D01*
X534844Y632492D01*
X534891Y632500D01*
X534948Y632534D01*
X535008Y632559D01*
X535043Y632590D01*
X535084Y632615D01*
X535126Y632666D01*
X535174Y632710D01*
X535196Y632752D01*
X535225Y632789D01*
X535246Y632851D01*
X535277Y632910D01*
X535285Y632964D01*
X535297Y633001D01*
X535296Y633041D01*
X535304Y633095D01*
X535304Y636905D01*
X535293Y636970D01*
X535291Y637036D01*
X535273Y637079D01*
X535265Y637126D01*
X535231Y637183D01*
X535206Y637243D01*
X535175Y637278D01*
X535150Y637319D01*
X535099Y637361D01*
X535055Y637409D01*
X535013Y637431D01*
X534976Y637460D01*
X534914Y637481D01*
X534855Y637512D01*
X534801Y637520D01*
X534764Y637532D01*
X534724Y637531D01*
X534670Y637539D01*
X532130Y637539D01*
X532065Y637528D01*
X531999Y637526D01*
X531956Y637508D01*
X531909Y637500D01*
X531852Y637466D01*
X531792Y637441D01*
X531757Y637410D01*
X531716Y637385D01*
X531675Y637334D01*
X531626Y637290D01*
X531604Y637248D01*
X531575Y637211D01*
X531554Y637149D01*
X531523Y637090D01*
X531515Y637036D01*
X531503Y636999D01*
X531503Y636995D01*
X531503Y636994D01*
X531504Y636959D01*
X531496Y636905D01*
X531496Y633095D01*
X531507Y633030D01*
X531509Y632964D01*
X531527Y632921D01*
X531535Y632874D01*
X531569Y632817D01*
X531594Y632757D01*
X531625Y632722D01*
X531650Y632681D01*
X531701Y632640D01*
X531745Y632591D01*
X531787Y632569D01*
X531824Y632540D01*
X531886Y632519D01*
X531945Y632488D01*
X531999Y632480D01*
X532036Y632468D01*
X532076Y632469D01*
X532130Y632461D01*
X534670Y632461D01*
X534735Y632472D01*
G37*
G36*
X363285Y549922D02*
X363285Y549922D01*
X363351Y549924D01*
X363394Y549942D01*
X363441Y549950D01*
X363498Y549984D01*
X363558Y550009D01*
X363593Y550040D01*
X363634Y550065D01*
X363676Y550116D01*
X363724Y550160D01*
X363746Y550202D01*
X363775Y550239D01*
X363796Y550301D01*
X363827Y550360D01*
X363835Y550414D01*
X363847Y550451D01*
X363846Y550491D01*
X363854Y550545D01*
X363854Y554355D01*
X363843Y554420D01*
X363841Y554486D01*
X363823Y554529D01*
X363815Y554576D01*
X363781Y554633D01*
X363756Y554693D01*
X363725Y554728D01*
X363700Y554769D01*
X363649Y554811D01*
X363605Y554859D01*
X363563Y554881D01*
X363526Y554910D01*
X363464Y554931D01*
X363405Y554962D01*
X363351Y554970D01*
X363314Y554982D01*
X363274Y554981D01*
X363220Y554989D01*
X360680Y554989D01*
X360615Y554978D01*
X360549Y554976D01*
X360506Y554958D01*
X360459Y554950D01*
X360402Y554916D01*
X360342Y554891D01*
X360307Y554860D01*
X360266Y554835D01*
X360225Y554784D01*
X360176Y554740D01*
X360154Y554698D01*
X360125Y554661D01*
X360104Y554599D01*
X360073Y554540D01*
X360065Y554486D01*
X360053Y554449D01*
X360053Y554445D01*
X360053Y554444D01*
X360054Y554409D01*
X360046Y554355D01*
X360046Y550545D01*
X360057Y550480D01*
X360059Y550414D01*
X360077Y550371D01*
X360085Y550324D01*
X360119Y550267D01*
X360144Y550207D01*
X360175Y550172D01*
X360200Y550131D01*
X360251Y550090D01*
X360295Y550041D01*
X360337Y550019D01*
X360374Y549990D01*
X360436Y549969D01*
X360495Y549938D01*
X360549Y549930D01*
X360586Y549918D01*
X360626Y549919D01*
X360680Y549911D01*
X363220Y549911D01*
X363285Y549922D01*
G37*
G36*
X337885Y549922D02*
X337885Y549922D01*
X337951Y549924D01*
X337994Y549942D01*
X338041Y549950D01*
X338098Y549984D01*
X338158Y550009D01*
X338193Y550040D01*
X338234Y550065D01*
X338276Y550116D01*
X338324Y550160D01*
X338346Y550202D01*
X338375Y550239D01*
X338396Y550301D01*
X338427Y550360D01*
X338435Y550414D01*
X338447Y550451D01*
X338446Y550491D01*
X338454Y550545D01*
X338454Y554355D01*
X338443Y554420D01*
X338441Y554486D01*
X338423Y554529D01*
X338415Y554576D01*
X338381Y554633D01*
X338356Y554693D01*
X338325Y554728D01*
X338300Y554769D01*
X338249Y554811D01*
X338205Y554859D01*
X338163Y554881D01*
X338126Y554910D01*
X338064Y554931D01*
X338005Y554962D01*
X337951Y554970D01*
X337914Y554982D01*
X337874Y554981D01*
X337820Y554989D01*
X335280Y554989D01*
X335215Y554978D01*
X335149Y554976D01*
X335106Y554958D01*
X335059Y554950D01*
X335002Y554916D01*
X334942Y554891D01*
X334907Y554860D01*
X334866Y554835D01*
X334825Y554784D01*
X334776Y554740D01*
X334754Y554698D01*
X334725Y554661D01*
X334704Y554599D01*
X334673Y554540D01*
X334665Y554486D01*
X334653Y554449D01*
X334653Y554445D01*
X334653Y554444D01*
X334654Y554409D01*
X334646Y554355D01*
X334646Y550545D01*
X334657Y550480D01*
X334659Y550414D01*
X334677Y550371D01*
X334685Y550324D01*
X334719Y550267D01*
X334744Y550207D01*
X334775Y550172D01*
X334800Y550131D01*
X334851Y550090D01*
X334895Y550041D01*
X334937Y550019D01*
X334974Y549990D01*
X335036Y549969D01*
X335095Y549938D01*
X335149Y549930D01*
X335186Y549918D01*
X335226Y549919D01*
X335280Y549911D01*
X337820Y549911D01*
X337885Y549922D01*
G37*
G36*
X522035Y264172D02*
X522035Y264172D01*
X522101Y264174D01*
X522144Y264192D01*
X522191Y264200D01*
X522248Y264234D01*
X522308Y264259D01*
X522343Y264290D01*
X522384Y264315D01*
X522426Y264366D01*
X522474Y264410D01*
X522496Y264452D01*
X522525Y264489D01*
X522546Y264551D01*
X522577Y264610D01*
X522585Y264664D01*
X522597Y264701D01*
X522596Y264741D01*
X522604Y264795D01*
X522604Y268605D01*
X522593Y268670D01*
X522591Y268736D01*
X522573Y268779D01*
X522565Y268826D01*
X522531Y268883D01*
X522506Y268943D01*
X522475Y268978D01*
X522450Y269019D01*
X522399Y269061D01*
X522355Y269109D01*
X522313Y269131D01*
X522276Y269160D01*
X522214Y269181D01*
X522155Y269212D01*
X522101Y269220D01*
X522064Y269232D01*
X522024Y269231D01*
X521970Y269239D01*
X519430Y269239D01*
X519365Y269228D01*
X519299Y269226D01*
X519256Y269208D01*
X519209Y269200D01*
X519152Y269166D01*
X519092Y269141D01*
X519057Y269110D01*
X519016Y269085D01*
X518975Y269034D01*
X518926Y268990D01*
X518904Y268948D01*
X518875Y268911D01*
X518854Y268849D01*
X518823Y268790D01*
X518815Y268736D01*
X518803Y268699D01*
X518803Y268695D01*
X518803Y268694D01*
X518804Y268659D01*
X518796Y268605D01*
X518796Y264795D01*
X518807Y264730D01*
X518809Y264664D01*
X518827Y264621D01*
X518835Y264574D01*
X518869Y264517D01*
X518894Y264457D01*
X518925Y264422D01*
X518950Y264381D01*
X519001Y264340D01*
X519045Y264291D01*
X519087Y264269D01*
X519124Y264240D01*
X519186Y264219D01*
X519245Y264188D01*
X519299Y264180D01*
X519336Y264168D01*
X519376Y264169D01*
X519430Y264161D01*
X521970Y264161D01*
X522035Y264172D01*
G37*
G36*
X459170Y518807D02*
X459170Y518807D01*
X459236Y518809D01*
X459279Y518827D01*
X459326Y518835D01*
X459383Y518869D01*
X459443Y518894D01*
X459478Y518925D01*
X459519Y518950D01*
X459561Y519001D01*
X459609Y519045D01*
X459631Y519087D01*
X459660Y519124D01*
X459681Y519186D01*
X459712Y519245D01*
X459720Y519299D01*
X459732Y519336D01*
X459731Y519376D01*
X459739Y519430D01*
X459739Y521970D01*
X459728Y522035D01*
X459726Y522101D01*
X459708Y522144D01*
X459700Y522191D01*
X459666Y522248D01*
X459641Y522308D01*
X459610Y522343D01*
X459585Y522384D01*
X459534Y522426D01*
X459490Y522474D01*
X459448Y522496D01*
X459411Y522525D01*
X459349Y522546D01*
X459290Y522577D01*
X459236Y522585D01*
X459199Y522597D01*
X459159Y522596D01*
X459105Y522604D01*
X455295Y522604D01*
X455230Y522593D01*
X455164Y522591D01*
X455121Y522573D01*
X455074Y522565D01*
X455017Y522531D01*
X454957Y522506D01*
X454922Y522475D01*
X454881Y522450D01*
X454840Y522399D01*
X454791Y522355D01*
X454769Y522313D01*
X454740Y522276D01*
X454719Y522214D01*
X454688Y522155D01*
X454680Y522101D01*
X454668Y522064D01*
X454668Y522061D01*
X454669Y522024D01*
X454661Y521970D01*
X454661Y519430D01*
X454672Y519365D01*
X454674Y519299D01*
X454692Y519256D01*
X454700Y519209D01*
X454734Y519152D01*
X454759Y519092D01*
X454790Y519057D01*
X454815Y519016D01*
X454866Y518975D01*
X454910Y518926D01*
X454952Y518904D01*
X454989Y518875D01*
X455051Y518854D01*
X455110Y518823D01*
X455164Y518815D01*
X455201Y518803D01*
X455241Y518804D01*
X455295Y518796D01*
X459105Y518796D01*
X459170Y518807D01*
G37*
G36*
X776670Y493407D02*
X776670Y493407D01*
X776736Y493409D01*
X776779Y493427D01*
X776826Y493435D01*
X776883Y493469D01*
X776943Y493494D01*
X776978Y493525D01*
X777019Y493550D01*
X777061Y493601D01*
X777109Y493645D01*
X777131Y493687D01*
X777160Y493724D01*
X777181Y493786D01*
X777212Y493845D01*
X777220Y493899D01*
X777232Y493936D01*
X777231Y493976D01*
X777239Y494030D01*
X777239Y496570D01*
X777228Y496635D01*
X777226Y496701D01*
X777208Y496744D01*
X777200Y496791D01*
X777166Y496848D01*
X777141Y496908D01*
X777110Y496943D01*
X777085Y496984D01*
X777034Y497026D01*
X776990Y497074D01*
X776948Y497096D01*
X776911Y497125D01*
X776849Y497146D01*
X776790Y497177D01*
X776736Y497185D01*
X776699Y497197D01*
X776659Y497196D01*
X776605Y497204D01*
X772795Y497204D01*
X772730Y497193D01*
X772664Y497191D01*
X772621Y497173D01*
X772574Y497165D01*
X772517Y497131D01*
X772457Y497106D01*
X772422Y497075D01*
X772381Y497050D01*
X772340Y496999D01*
X772291Y496955D01*
X772269Y496913D01*
X772240Y496876D01*
X772219Y496814D01*
X772188Y496755D01*
X772180Y496701D01*
X772168Y496664D01*
X772168Y496661D01*
X772169Y496624D01*
X772161Y496570D01*
X772161Y494030D01*
X772172Y493965D01*
X772174Y493899D01*
X772192Y493856D01*
X772200Y493809D01*
X772234Y493752D01*
X772259Y493692D01*
X772290Y493657D01*
X772315Y493616D01*
X772366Y493575D01*
X772410Y493526D01*
X772452Y493504D01*
X772489Y493475D01*
X772551Y493454D01*
X772610Y493423D01*
X772664Y493415D01*
X772701Y493403D01*
X772741Y493404D01*
X772795Y493396D01*
X776605Y493396D01*
X776670Y493407D01*
G37*
G36*
X459170Y493407D02*
X459170Y493407D01*
X459236Y493409D01*
X459279Y493427D01*
X459326Y493435D01*
X459383Y493469D01*
X459443Y493494D01*
X459478Y493525D01*
X459519Y493550D01*
X459561Y493601D01*
X459609Y493645D01*
X459631Y493687D01*
X459660Y493724D01*
X459681Y493786D01*
X459712Y493845D01*
X459720Y493899D01*
X459732Y493936D01*
X459731Y493976D01*
X459739Y494030D01*
X459739Y496570D01*
X459728Y496635D01*
X459726Y496701D01*
X459708Y496744D01*
X459700Y496791D01*
X459666Y496848D01*
X459641Y496908D01*
X459610Y496943D01*
X459585Y496984D01*
X459534Y497026D01*
X459490Y497074D01*
X459448Y497096D01*
X459411Y497125D01*
X459349Y497146D01*
X459290Y497177D01*
X459236Y497185D01*
X459199Y497197D01*
X459159Y497196D01*
X459105Y497204D01*
X455295Y497204D01*
X455230Y497193D01*
X455164Y497191D01*
X455121Y497173D01*
X455074Y497165D01*
X455017Y497131D01*
X454957Y497106D01*
X454922Y497075D01*
X454881Y497050D01*
X454840Y496999D01*
X454791Y496955D01*
X454769Y496913D01*
X454740Y496876D01*
X454719Y496814D01*
X454688Y496755D01*
X454680Y496701D01*
X454668Y496664D01*
X454668Y496661D01*
X454669Y496624D01*
X454661Y496570D01*
X454661Y494030D01*
X454672Y493965D01*
X454674Y493899D01*
X454692Y493856D01*
X454700Y493809D01*
X454734Y493752D01*
X454759Y493692D01*
X454790Y493657D01*
X454815Y493616D01*
X454866Y493575D01*
X454910Y493526D01*
X454952Y493504D01*
X454989Y493475D01*
X455051Y493454D01*
X455110Y493423D01*
X455164Y493415D01*
X455201Y493403D01*
X455241Y493404D01*
X455295Y493396D01*
X459105Y493396D01*
X459170Y493407D01*
G37*
G36*
X776670Y468007D02*
X776670Y468007D01*
X776736Y468009D01*
X776779Y468027D01*
X776826Y468035D01*
X776883Y468069D01*
X776943Y468094D01*
X776978Y468125D01*
X777019Y468150D01*
X777061Y468201D01*
X777109Y468245D01*
X777131Y468287D01*
X777160Y468324D01*
X777181Y468386D01*
X777212Y468445D01*
X777220Y468499D01*
X777232Y468536D01*
X777231Y468576D01*
X777239Y468630D01*
X777239Y471170D01*
X777228Y471235D01*
X777226Y471301D01*
X777208Y471344D01*
X777200Y471391D01*
X777166Y471448D01*
X777141Y471508D01*
X777110Y471543D01*
X777085Y471584D01*
X777034Y471626D01*
X776990Y471674D01*
X776948Y471696D01*
X776911Y471725D01*
X776849Y471746D01*
X776790Y471777D01*
X776736Y471785D01*
X776699Y471797D01*
X776659Y471796D01*
X776605Y471804D01*
X772795Y471804D01*
X772730Y471793D01*
X772664Y471791D01*
X772621Y471773D01*
X772574Y471765D01*
X772517Y471731D01*
X772457Y471706D01*
X772422Y471675D01*
X772381Y471650D01*
X772340Y471599D01*
X772291Y471555D01*
X772269Y471513D01*
X772240Y471476D01*
X772219Y471414D01*
X772188Y471355D01*
X772180Y471301D01*
X772168Y471264D01*
X772168Y471261D01*
X772169Y471224D01*
X772161Y471170D01*
X772161Y468630D01*
X772172Y468565D01*
X772174Y468499D01*
X772192Y468456D01*
X772200Y468409D01*
X772234Y468352D01*
X772259Y468292D01*
X772290Y468257D01*
X772315Y468216D01*
X772366Y468175D01*
X772410Y468126D01*
X772452Y468104D01*
X772489Y468075D01*
X772551Y468054D01*
X772610Y468023D01*
X772664Y468015D01*
X772701Y468003D01*
X772741Y468004D01*
X772795Y467996D01*
X776605Y467996D01*
X776670Y468007D01*
G37*
G36*
X459170Y468007D02*
X459170Y468007D01*
X459236Y468009D01*
X459279Y468027D01*
X459326Y468035D01*
X459383Y468069D01*
X459443Y468094D01*
X459478Y468125D01*
X459519Y468150D01*
X459561Y468201D01*
X459609Y468245D01*
X459631Y468287D01*
X459660Y468324D01*
X459681Y468386D01*
X459712Y468445D01*
X459720Y468499D01*
X459732Y468536D01*
X459731Y468576D01*
X459739Y468630D01*
X459739Y471170D01*
X459728Y471235D01*
X459726Y471301D01*
X459708Y471344D01*
X459700Y471391D01*
X459666Y471448D01*
X459641Y471508D01*
X459610Y471543D01*
X459585Y471584D01*
X459534Y471626D01*
X459490Y471674D01*
X459448Y471696D01*
X459411Y471725D01*
X459349Y471746D01*
X459290Y471777D01*
X459236Y471785D01*
X459199Y471797D01*
X459159Y471796D01*
X459105Y471804D01*
X455295Y471804D01*
X455230Y471793D01*
X455164Y471791D01*
X455121Y471773D01*
X455074Y471765D01*
X455017Y471731D01*
X454957Y471706D01*
X454922Y471675D01*
X454881Y471650D01*
X454840Y471599D01*
X454791Y471555D01*
X454769Y471513D01*
X454740Y471476D01*
X454719Y471414D01*
X454688Y471355D01*
X454680Y471301D01*
X454668Y471264D01*
X454668Y471261D01*
X454669Y471224D01*
X454661Y471170D01*
X454661Y468630D01*
X454672Y468565D01*
X454674Y468499D01*
X454692Y468456D01*
X454700Y468409D01*
X454734Y468352D01*
X454759Y468292D01*
X454790Y468257D01*
X454815Y468216D01*
X454866Y468175D01*
X454910Y468126D01*
X454952Y468104D01*
X454989Y468075D01*
X455051Y468054D01*
X455110Y468023D01*
X455164Y468015D01*
X455201Y468003D01*
X455241Y468004D01*
X455295Y467996D01*
X459105Y467996D01*
X459170Y468007D01*
G37*
G36*
X459170Y442607D02*
X459170Y442607D01*
X459236Y442609D01*
X459279Y442627D01*
X459326Y442635D01*
X459383Y442669D01*
X459443Y442694D01*
X459478Y442725D01*
X459519Y442750D01*
X459561Y442801D01*
X459609Y442845D01*
X459631Y442887D01*
X459660Y442924D01*
X459681Y442986D01*
X459712Y443045D01*
X459720Y443099D01*
X459732Y443136D01*
X459731Y443176D01*
X459739Y443230D01*
X459739Y445770D01*
X459728Y445835D01*
X459726Y445901D01*
X459708Y445944D01*
X459700Y445991D01*
X459666Y446048D01*
X459641Y446108D01*
X459610Y446143D01*
X459585Y446184D01*
X459534Y446226D01*
X459490Y446274D01*
X459448Y446296D01*
X459411Y446325D01*
X459349Y446346D01*
X459290Y446377D01*
X459236Y446385D01*
X459199Y446397D01*
X459159Y446396D01*
X459105Y446404D01*
X455295Y446404D01*
X455230Y446393D01*
X455164Y446391D01*
X455121Y446373D01*
X455074Y446365D01*
X455017Y446331D01*
X454957Y446306D01*
X454922Y446275D01*
X454881Y446250D01*
X454840Y446199D01*
X454791Y446155D01*
X454769Y446113D01*
X454740Y446076D01*
X454719Y446014D01*
X454688Y445955D01*
X454680Y445901D01*
X454668Y445864D01*
X454668Y445861D01*
X454669Y445824D01*
X454661Y445770D01*
X454661Y443230D01*
X454672Y443165D01*
X454674Y443099D01*
X454692Y443056D01*
X454700Y443009D01*
X454734Y442952D01*
X454759Y442892D01*
X454790Y442857D01*
X454815Y442816D01*
X454866Y442775D01*
X454910Y442726D01*
X454952Y442704D01*
X454989Y442675D01*
X455051Y442654D01*
X455110Y442623D01*
X455164Y442615D01*
X455201Y442603D01*
X455241Y442604D01*
X455295Y442596D01*
X459105Y442596D01*
X459170Y442607D01*
G37*
G36*
X776670Y442607D02*
X776670Y442607D01*
X776736Y442609D01*
X776779Y442627D01*
X776826Y442635D01*
X776883Y442669D01*
X776943Y442694D01*
X776978Y442725D01*
X777019Y442750D01*
X777061Y442801D01*
X777109Y442845D01*
X777131Y442887D01*
X777160Y442924D01*
X777181Y442986D01*
X777212Y443045D01*
X777220Y443099D01*
X777232Y443136D01*
X777231Y443176D01*
X777239Y443230D01*
X777239Y445770D01*
X777228Y445835D01*
X777226Y445901D01*
X777208Y445944D01*
X777200Y445991D01*
X777166Y446048D01*
X777141Y446108D01*
X777110Y446143D01*
X777085Y446184D01*
X777034Y446226D01*
X776990Y446274D01*
X776948Y446296D01*
X776911Y446325D01*
X776849Y446346D01*
X776790Y446377D01*
X776736Y446385D01*
X776699Y446397D01*
X776659Y446396D01*
X776605Y446404D01*
X772795Y446404D01*
X772730Y446393D01*
X772664Y446391D01*
X772621Y446373D01*
X772574Y446365D01*
X772517Y446331D01*
X772457Y446306D01*
X772422Y446275D01*
X772381Y446250D01*
X772340Y446199D01*
X772291Y446155D01*
X772269Y446113D01*
X772240Y446076D01*
X772219Y446014D01*
X772188Y445955D01*
X772180Y445901D01*
X772168Y445864D01*
X772168Y445861D01*
X772169Y445824D01*
X772161Y445770D01*
X772161Y443230D01*
X772172Y443165D01*
X772174Y443099D01*
X772192Y443056D01*
X772200Y443009D01*
X772234Y442952D01*
X772259Y442892D01*
X772290Y442857D01*
X772315Y442816D01*
X772366Y442775D01*
X772410Y442726D01*
X772452Y442704D01*
X772489Y442675D01*
X772551Y442654D01*
X772610Y442623D01*
X772664Y442615D01*
X772701Y442603D01*
X772741Y442604D01*
X772795Y442596D01*
X776605Y442596D01*
X776670Y442607D01*
G37*
G36*
X459170Y417207D02*
X459170Y417207D01*
X459236Y417209D01*
X459279Y417227D01*
X459326Y417235D01*
X459383Y417269D01*
X459443Y417294D01*
X459478Y417325D01*
X459519Y417350D01*
X459561Y417401D01*
X459609Y417445D01*
X459631Y417487D01*
X459660Y417524D01*
X459681Y417586D01*
X459712Y417645D01*
X459720Y417699D01*
X459732Y417736D01*
X459731Y417776D01*
X459739Y417830D01*
X459739Y420370D01*
X459728Y420435D01*
X459726Y420501D01*
X459708Y420544D01*
X459700Y420591D01*
X459666Y420648D01*
X459641Y420708D01*
X459610Y420743D01*
X459585Y420784D01*
X459534Y420826D01*
X459490Y420874D01*
X459448Y420896D01*
X459411Y420925D01*
X459349Y420946D01*
X459290Y420977D01*
X459236Y420985D01*
X459199Y420997D01*
X459159Y420996D01*
X459105Y421004D01*
X455295Y421004D01*
X455230Y420993D01*
X455164Y420991D01*
X455121Y420973D01*
X455074Y420965D01*
X455017Y420931D01*
X454957Y420906D01*
X454922Y420875D01*
X454881Y420850D01*
X454840Y420799D01*
X454791Y420755D01*
X454769Y420713D01*
X454740Y420676D01*
X454719Y420614D01*
X454688Y420555D01*
X454680Y420501D01*
X454668Y420464D01*
X454668Y420461D01*
X454669Y420424D01*
X454661Y420370D01*
X454661Y417830D01*
X454672Y417765D01*
X454674Y417699D01*
X454692Y417656D01*
X454700Y417609D01*
X454734Y417552D01*
X454759Y417492D01*
X454790Y417457D01*
X454815Y417416D01*
X454866Y417375D01*
X454910Y417326D01*
X454952Y417304D01*
X454989Y417275D01*
X455051Y417254D01*
X455110Y417223D01*
X455164Y417215D01*
X455201Y417203D01*
X455241Y417204D01*
X455295Y417196D01*
X459105Y417196D01*
X459170Y417207D01*
G37*
G36*
X776670Y417207D02*
X776670Y417207D01*
X776736Y417209D01*
X776779Y417227D01*
X776826Y417235D01*
X776883Y417269D01*
X776943Y417294D01*
X776978Y417325D01*
X777019Y417350D01*
X777061Y417401D01*
X777109Y417445D01*
X777131Y417487D01*
X777160Y417524D01*
X777181Y417586D01*
X777212Y417645D01*
X777220Y417699D01*
X777232Y417736D01*
X777231Y417776D01*
X777239Y417830D01*
X777239Y420370D01*
X777228Y420435D01*
X777226Y420501D01*
X777208Y420544D01*
X777200Y420591D01*
X777166Y420648D01*
X777141Y420708D01*
X777110Y420743D01*
X777085Y420784D01*
X777034Y420826D01*
X776990Y420874D01*
X776948Y420896D01*
X776911Y420925D01*
X776849Y420946D01*
X776790Y420977D01*
X776736Y420985D01*
X776699Y420997D01*
X776659Y420996D01*
X776605Y421004D01*
X772795Y421004D01*
X772730Y420993D01*
X772664Y420991D01*
X772621Y420973D01*
X772574Y420965D01*
X772517Y420931D01*
X772457Y420906D01*
X772422Y420875D01*
X772381Y420850D01*
X772340Y420799D01*
X772291Y420755D01*
X772269Y420713D01*
X772240Y420676D01*
X772219Y420614D01*
X772188Y420555D01*
X772180Y420501D01*
X772168Y420464D01*
X772168Y420461D01*
X772169Y420424D01*
X772161Y420370D01*
X772161Y417830D01*
X772172Y417765D01*
X772174Y417699D01*
X772192Y417656D01*
X772200Y417609D01*
X772234Y417552D01*
X772259Y417492D01*
X772290Y417457D01*
X772315Y417416D01*
X772366Y417375D01*
X772410Y417326D01*
X772452Y417304D01*
X772489Y417275D01*
X772551Y417254D01*
X772610Y417223D01*
X772664Y417215D01*
X772701Y417203D01*
X772741Y417204D01*
X772795Y417196D01*
X776605Y417196D01*
X776670Y417207D01*
G37*
G36*
X776670Y391807D02*
X776670Y391807D01*
X776736Y391809D01*
X776779Y391827D01*
X776826Y391835D01*
X776883Y391869D01*
X776943Y391894D01*
X776978Y391925D01*
X777019Y391950D01*
X777061Y392001D01*
X777109Y392045D01*
X777131Y392087D01*
X777160Y392124D01*
X777181Y392186D01*
X777212Y392245D01*
X777220Y392299D01*
X777232Y392336D01*
X777231Y392376D01*
X777239Y392430D01*
X777239Y394970D01*
X777228Y395035D01*
X777226Y395101D01*
X777208Y395144D01*
X777200Y395191D01*
X777166Y395248D01*
X777141Y395308D01*
X777110Y395343D01*
X777085Y395384D01*
X777034Y395426D01*
X776990Y395474D01*
X776948Y395496D01*
X776911Y395525D01*
X776849Y395546D01*
X776790Y395577D01*
X776736Y395585D01*
X776699Y395597D01*
X776659Y395596D01*
X776605Y395604D01*
X772795Y395604D01*
X772730Y395593D01*
X772664Y395591D01*
X772621Y395573D01*
X772574Y395565D01*
X772517Y395531D01*
X772457Y395506D01*
X772422Y395475D01*
X772381Y395450D01*
X772340Y395399D01*
X772291Y395355D01*
X772269Y395313D01*
X772240Y395276D01*
X772219Y395214D01*
X772188Y395155D01*
X772180Y395101D01*
X772168Y395064D01*
X772168Y395061D01*
X772169Y395024D01*
X772161Y394970D01*
X772161Y392430D01*
X772172Y392365D01*
X772174Y392299D01*
X772192Y392256D01*
X772200Y392209D01*
X772234Y392152D01*
X772259Y392092D01*
X772290Y392057D01*
X772315Y392016D01*
X772366Y391975D01*
X772410Y391926D01*
X772452Y391904D01*
X772489Y391875D01*
X772551Y391854D01*
X772610Y391823D01*
X772664Y391815D01*
X772701Y391803D01*
X772741Y391804D01*
X772795Y391796D01*
X776605Y391796D01*
X776670Y391807D01*
G37*
G36*
X459170Y391807D02*
X459170Y391807D01*
X459236Y391809D01*
X459279Y391827D01*
X459326Y391835D01*
X459383Y391869D01*
X459443Y391894D01*
X459478Y391925D01*
X459519Y391950D01*
X459561Y392001D01*
X459609Y392045D01*
X459631Y392087D01*
X459660Y392124D01*
X459681Y392186D01*
X459712Y392245D01*
X459720Y392299D01*
X459732Y392336D01*
X459731Y392376D01*
X459739Y392430D01*
X459739Y394970D01*
X459728Y395035D01*
X459726Y395101D01*
X459708Y395144D01*
X459700Y395191D01*
X459666Y395248D01*
X459641Y395308D01*
X459610Y395343D01*
X459585Y395384D01*
X459534Y395426D01*
X459490Y395474D01*
X459448Y395496D01*
X459411Y395525D01*
X459349Y395546D01*
X459290Y395577D01*
X459236Y395585D01*
X459199Y395597D01*
X459159Y395596D01*
X459105Y395604D01*
X455295Y395604D01*
X455230Y395593D01*
X455164Y395591D01*
X455121Y395573D01*
X455074Y395565D01*
X455017Y395531D01*
X454957Y395506D01*
X454922Y395475D01*
X454881Y395450D01*
X454840Y395399D01*
X454791Y395355D01*
X454769Y395313D01*
X454740Y395276D01*
X454719Y395214D01*
X454688Y395155D01*
X454680Y395101D01*
X454668Y395064D01*
X454668Y395061D01*
X454669Y395024D01*
X454661Y394970D01*
X454661Y392430D01*
X454672Y392365D01*
X454674Y392299D01*
X454692Y392256D01*
X454700Y392209D01*
X454734Y392152D01*
X454759Y392092D01*
X454790Y392057D01*
X454815Y392016D01*
X454866Y391975D01*
X454910Y391926D01*
X454952Y391904D01*
X454989Y391875D01*
X455051Y391854D01*
X455110Y391823D01*
X455164Y391815D01*
X455201Y391803D01*
X455241Y391804D01*
X455295Y391796D01*
X459105Y391796D01*
X459170Y391807D01*
G37*
D10*
X547370Y368300D03*
X544830Y393700D03*
X547370Y419100D03*
X544830Y444500D03*
X547370Y469900D03*
X544830Y495300D03*
X547370Y520700D03*
X544830Y546100D03*
X671830Y546100D03*
X674370Y520700D03*
X671830Y495300D03*
X674370Y469900D03*
X671830Y444500D03*
X674370Y419100D03*
X671830Y393700D03*
X674370Y368300D03*
D11*
X501650Y355600D03*
X501650Y558800D03*
X717550Y355600D03*
X717550Y558800D03*
D12*
X609600Y312420D03*
X609600Y601980D03*
D13*
X1145200Y88900D03*
X114300Y88900D03*
X114300Y850900D03*
D14*
X830355Y82355D02*
X841445Y82355D01*
X830355Y82355D02*
X830355Y95445D01*
X841445Y95445D01*
X841445Y82355D01*
X841445Y84667D02*
X830355Y84667D01*
X830355Y86979D02*
X841445Y86979D01*
X841445Y89291D02*
X830355Y89291D01*
X830355Y91603D02*
X841445Y91603D01*
X841445Y93915D02*
X830355Y93915D01*
X860355Y82355D02*
X871445Y82355D01*
X860355Y82355D02*
X860355Y95445D01*
X871445Y95445D01*
X871445Y82355D01*
X871445Y84667D02*
X860355Y84667D01*
X860355Y86979D02*
X871445Y86979D01*
X871445Y89291D02*
X860355Y89291D01*
X860355Y91603D02*
X871445Y91603D01*
X871445Y93915D02*
X860355Y93915D01*
X841445Y120455D02*
X830355Y120455D01*
X830355Y133545D01*
X841445Y133545D01*
X841445Y120455D01*
X841445Y122767D02*
X830355Y122767D01*
X830355Y125079D02*
X841445Y125079D01*
X841445Y127391D02*
X830355Y127391D01*
X830355Y129703D02*
X841445Y129703D01*
X841445Y132015D02*
X830355Y132015D01*
X860355Y120455D02*
X871445Y120455D01*
X860355Y120455D02*
X860355Y133545D01*
X871445Y133545D01*
X871445Y120455D01*
X871445Y122767D02*
X860355Y122767D01*
X860355Y125079D02*
X871445Y125079D01*
X871445Y127391D02*
X860355Y127391D01*
X860355Y129703D02*
X871445Y129703D01*
X871445Y132015D02*
X860355Y132015D01*
X841445Y158555D02*
X830355Y158555D01*
X830355Y171645D01*
X841445Y171645D01*
X841445Y158555D01*
X841445Y160867D02*
X830355Y160867D01*
X830355Y163179D02*
X841445Y163179D01*
X841445Y165491D02*
X830355Y165491D01*
X830355Y167803D02*
X841445Y167803D01*
X841445Y170115D02*
X830355Y170115D01*
X860355Y158555D02*
X871445Y158555D01*
X860355Y158555D02*
X860355Y171645D01*
X871445Y171645D01*
X871445Y158555D01*
X871445Y160867D02*
X860355Y160867D01*
X860355Y163179D02*
X871445Y163179D01*
X871445Y165491D02*
X860355Y165491D01*
X860355Y167803D02*
X871445Y167803D01*
X871445Y170115D02*
X860355Y170115D01*
X841445Y196655D02*
X830355Y196655D01*
X830355Y209745D01*
X841445Y209745D01*
X841445Y196655D01*
X841445Y198967D02*
X830355Y198967D01*
X830355Y201279D02*
X841445Y201279D01*
X841445Y203591D02*
X830355Y203591D01*
X830355Y205903D02*
X841445Y205903D01*
X841445Y208215D02*
X830355Y208215D01*
X860355Y196655D02*
X871445Y196655D01*
X860355Y196655D02*
X860355Y209745D01*
X871445Y209745D01*
X871445Y196655D01*
X871445Y198967D02*
X860355Y198967D01*
X860355Y201279D02*
X871445Y201279D01*
X871445Y203591D02*
X860355Y203591D01*
X860355Y205903D02*
X871445Y205903D01*
X871445Y208215D02*
X860355Y208215D01*
D15*
X355600Y736600D03*
X381000Y736600D03*
X406400Y736600D03*
X431800Y736600D03*
X457200Y736600D03*
X482600Y736600D03*
X508000Y736600D03*
X533400Y736600D03*
X558800Y736600D03*
X584200Y736600D03*
X609600Y736600D03*
X635000Y736600D03*
X660400Y736600D03*
X685800Y736600D03*
X711200Y736600D03*
X736600Y736600D03*
X762000Y736600D03*
X787400Y736600D03*
X812800Y736600D03*
X838200Y736600D03*
X342900Y755650D03*
X368300Y755650D03*
X393700Y755650D03*
X419100Y755650D03*
X444500Y755650D03*
X469900Y755650D03*
X495300Y755650D03*
X520700Y755650D03*
X546100Y755650D03*
X571500Y755650D03*
X596900Y755650D03*
X622300Y755650D03*
X647700Y755650D03*
X673100Y755650D03*
X698500Y755650D03*
X723900Y755650D03*
X749300Y755650D03*
X774700Y755650D03*
X800100Y755650D03*
X825500Y755650D03*
X355600Y774700D03*
X381000Y774700D03*
X406400Y774700D03*
X431800Y774700D03*
X457200Y774700D03*
X482600Y774700D03*
X508000Y774700D03*
X533400Y774700D03*
X558800Y774700D03*
X584200Y774700D03*
X609600Y774700D03*
X635000Y774700D03*
X660400Y774700D03*
X685800Y774700D03*
X711200Y774700D03*
X736600Y774700D03*
X762000Y774700D03*
X787400Y774700D03*
X812800Y774700D03*
X838200Y774700D03*
X342900Y793750D03*
X368300Y793750D03*
X393700Y793750D03*
X419100Y793750D03*
X444500Y793750D03*
X469900Y793750D03*
X495300Y793750D03*
X520700Y793750D03*
X546100Y793750D03*
X571500Y793750D03*
X596900Y793750D03*
X622300Y793750D03*
X647700Y793750D03*
X673100Y793750D03*
X698500Y793750D03*
X723900Y793750D03*
X749300Y793750D03*
X774700Y793750D03*
X800100Y793750D03*
X825500Y793750D03*
D12*
X914400Y838200D03*
D16*
X341045Y618795D02*
X341045Y608805D01*
X332055Y608805D01*
X332055Y618795D01*
X341045Y618795D01*
X341045Y611213D02*
X332055Y611213D01*
X332055Y613621D02*
X341045Y613621D01*
X341045Y616029D02*
X332055Y616029D01*
X332055Y618437D02*
X341045Y618437D01*
X341045Y625805D02*
X341045Y635795D01*
X341045Y625805D02*
X332055Y625805D01*
X332055Y635795D01*
X341045Y635795D01*
X341045Y628213D02*
X332055Y628213D01*
X332055Y630621D02*
X341045Y630621D01*
X341045Y633029D02*
X332055Y633029D01*
X332055Y635437D02*
X341045Y635437D01*
X341045Y585775D02*
X341045Y575785D01*
X332055Y575785D01*
X332055Y585775D01*
X341045Y585775D01*
X341045Y578193D02*
X332055Y578193D01*
X332055Y580601D02*
X341045Y580601D01*
X341045Y583009D02*
X332055Y583009D01*
X332055Y585417D02*
X341045Y585417D01*
X341045Y592785D02*
X341045Y602775D01*
X341045Y592785D02*
X332055Y592785D01*
X332055Y602775D01*
X341045Y602775D01*
X341045Y595193D02*
X332055Y595193D01*
X332055Y597601D02*
X341045Y597601D01*
X341045Y600009D02*
X332055Y600009D01*
X332055Y602417D02*
X341045Y602417D01*
X366445Y585775D02*
X366445Y575785D01*
X357455Y575785D01*
X357455Y585775D01*
X366445Y585775D01*
X366445Y578193D02*
X357455Y578193D01*
X357455Y580601D02*
X366445Y580601D01*
X366445Y583009D02*
X357455Y583009D01*
X357455Y585417D02*
X366445Y585417D01*
X366445Y592785D02*
X366445Y602775D01*
X366445Y592785D02*
X357455Y592785D01*
X357455Y602775D01*
X366445Y602775D01*
X366445Y595193D02*
X357455Y595193D01*
X357455Y597601D02*
X366445Y597601D01*
X366445Y600009D02*
X357455Y600009D01*
X357455Y602417D02*
X366445Y602417D01*
X366445Y608805D02*
X366445Y618795D01*
X366445Y608805D02*
X357455Y608805D01*
X357455Y618795D01*
X366445Y618795D01*
X366445Y611213D02*
X357455Y611213D01*
X357455Y613621D02*
X366445Y613621D01*
X366445Y616029D02*
X357455Y616029D01*
X357455Y618437D02*
X366445Y618437D01*
X366445Y625805D02*
X366445Y635795D01*
X366445Y625805D02*
X357455Y625805D01*
X357455Y635795D01*
X366445Y635795D01*
X366445Y628213D02*
X357455Y628213D01*
X357455Y630621D02*
X366445Y630621D01*
X366445Y633029D02*
X357455Y633029D01*
X357455Y635437D02*
X366445Y635437D01*
D17*
X342402Y550047D02*
X342402Y544439D01*
X330698Y544439D01*
X330698Y550047D01*
X342402Y550047D01*
X342402Y546833D02*
X330698Y546833D01*
X330698Y549227D02*
X342402Y549227D01*
X342402Y554853D02*
X342402Y560461D01*
X342402Y554853D02*
X330698Y554853D01*
X330698Y560461D01*
X342402Y560461D01*
X342402Y557247D02*
X330698Y557247D01*
X330698Y559641D02*
X342402Y559641D01*
X367802Y550047D02*
X367802Y544439D01*
X356098Y544439D01*
X356098Y550047D01*
X367802Y550047D01*
X367802Y546833D02*
X356098Y546833D01*
X356098Y549227D02*
X367802Y549227D01*
X367802Y554853D02*
X367802Y560461D01*
X367802Y554853D02*
X356098Y554853D01*
X356098Y560461D01*
X367802Y560461D01*
X367802Y557247D02*
X356098Y557247D01*
X356098Y559641D02*
X367802Y559641D01*
D18*
X301140Y593040D02*
X301140Y598360D01*
X308460Y598360D01*
X308460Y593040D01*
X301140Y593040D01*
X301140Y595419D02*
X308460Y595419D01*
X308460Y597798D02*
X301140Y597798D01*
X301140Y575360D02*
X301140Y570040D01*
X301140Y575360D02*
X308460Y575360D01*
X308460Y570040D01*
X301140Y570040D01*
X301140Y572419D02*
X308460Y572419D01*
X308460Y574798D02*
X301140Y574798D01*
D16*
X309295Y608805D02*
X309295Y618795D01*
X309295Y608805D02*
X300305Y608805D01*
X300305Y618795D01*
X309295Y618795D01*
X309295Y611213D02*
X300305Y611213D01*
X300305Y613621D02*
X309295Y613621D01*
X309295Y616029D02*
X300305Y616029D01*
X300305Y618437D02*
X309295Y618437D01*
X309295Y625805D02*
X309295Y635795D01*
X309295Y625805D02*
X300305Y625805D01*
X300305Y635795D01*
X309295Y635795D01*
X309295Y628213D02*
X300305Y628213D01*
X300305Y630621D02*
X309295Y630621D01*
X309295Y633029D02*
X300305Y633029D01*
X300305Y635437D02*
X309295Y635437D01*
D17*
X449189Y514848D02*
X454797Y514848D01*
X449189Y514848D02*
X449189Y526552D01*
X454797Y526552D01*
X454797Y514848D01*
X454797Y517242D02*
X449189Y517242D01*
X449189Y519636D02*
X454797Y519636D01*
X454797Y522030D02*
X449189Y522030D01*
X449189Y524424D02*
X454797Y524424D01*
X459603Y514848D02*
X465211Y514848D01*
X459603Y514848D02*
X459603Y526552D01*
X465211Y526552D01*
X465211Y514848D01*
X465211Y517242D02*
X459603Y517242D01*
X459603Y519636D02*
X465211Y519636D01*
X465211Y522030D02*
X459603Y522030D01*
X459603Y524424D02*
X465211Y524424D01*
X454797Y464048D02*
X449189Y464048D01*
X449189Y475752D01*
X454797Y475752D01*
X454797Y464048D01*
X454797Y466442D02*
X449189Y466442D01*
X449189Y468836D02*
X454797Y468836D01*
X454797Y471230D02*
X449189Y471230D01*
X449189Y473624D02*
X454797Y473624D01*
X459603Y464048D02*
X465211Y464048D01*
X459603Y464048D02*
X459603Y475752D01*
X465211Y475752D01*
X465211Y464048D01*
X465211Y466442D02*
X459603Y466442D01*
X459603Y468836D02*
X465211Y468836D01*
X465211Y471230D02*
X459603Y471230D01*
X459603Y473624D02*
X465211Y473624D01*
X454797Y489448D02*
X449189Y489448D01*
X449189Y501152D01*
X454797Y501152D01*
X454797Y489448D01*
X454797Y491842D02*
X449189Y491842D01*
X449189Y494236D02*
X454797Y494236D01*
X454797Y496630D02*
X449189Y496630D01*
X449189Y499024D02*
X454797Y499024D01*
X459603Y489448D02*
X465211Y489448D01*
X459603Y489448D02*
X459603Y501152D01*
X465211Y501152D01*
X465211Y489448D01*
X465211Y491842D02*
X459603Y491842D01*
X459603Y494236D02*
X465211Y494236D01*
X465211Y496630D02*
X459603Y496630D01*
X459603Y499024D02*
X465211Y499024D01*
X527548Y637403D02*
X527548Y643011D01*
X539252Y643011D01*
X539252Y637403D01*
X527548Y637403D01*
X527548Y639797D02*
X539252Y639797D01*
X539252Y642191D02*
X527548Y642191D01*
X527548Y632597D02*
X527548Y626989D01*
X527548Y632597D02*
X539252Y632597D01*
X539252Y626989D01*
X527548Y626989D01*
X527548Y629383D02*
X539252Y629383D01*
X539252Y631777D02*
X527548Y631777D01*
X454797Y438648D02*
X449189Y438648D01*
X449189Y450352D01*
X454797Y450352D01*
X454797Y438648D01*
X454797Y441042D02*
X449189Y441042D01*
X449189Y443436D02*
X454797Y443436D01*
X454797Y445830D02*
X449189Y445830D01*
X449189Y448224D02*
X454797Y448224D01*
X459603Y438648D02*
X465211Y438648D01*
X459603Y438648D02*
X459603Y450352D01*
X465211Y450352D01*
X465211Y438648D01*
X465211Y441042D02*
X459603Y441042D01*
X459603Y443436D02*
X465211Y443436D01*
X465211Y445830D02*
X459603Y445830D01*
X459603Y448224D02*
X465211Y448224D01*
X454797Y413248D02*
X449189Y413248D01*
X449189Y424952D01*
X454797Y424952D01*
X454797Y413248D01*
X454797Y415642D02*
X449189Y415642D01*
X449189Y418036D02*
X454797Y418036D01*
X454797Y420430D02*
X449189Y420430D01*
X449189Y422824D02*
X454797Y422824D01*
X459603Y413248D02*
X465211Y413248D01*
X459603Y413248D02*
X459603Y424952D01*
X465211Y424952D01*
X465211Y413248D01*
X465211Y415642D02*
X459603Y415642D01*
X459603Y418036D02*
X465211Y418036D01*
X465211Y420430D02*
X459603Y420430D01*
X459603Y422824D02*
X465211Y422824D01*
X454797Y387848D02*
X449189Y387848D01*
X449189Y399552D01*
X454797Y399552D01*
X454797Y387848D01*
X454797Y390242D02*
X449189Y390242D01*
X449189Y392636D02*
X454797Y392636D01*
X454797Y395030D02*
X449189Y395030D01*
X449189Y397424D02*
X454797Y397424D01*
X459603Y387848D02*
X465211Y387848D01*
X459603Y387848D02*
X459603Y399552D01*
X465211Y399552D01*
X465211Y387848D01*
X465211Y390242D02*
X459603Y390242D01*
X459603Y392636D02*
X465211Y392636D01*
X465211Y395030D02*
X459603Y395030D01*
X459603Y397424D02*
X465211Y397424D01*
X526552Y264297D02*
X526552Y258689D01*
X514848Y258689D01*
X514848Y264297D01*
X526552Y264297D01*
X526552Y261083D02*
X514848Y261083D01*
X514848Y263477D02*
X526552Y263477D01*
X526552Y269103D02*
X526552Y274711D01*
X526552Y269103D02*
X514848Y269103D01*
X514848Y274711D01*
X526552Y274711D01*
X526552Y271497D02*
X514848Y271497D01*
X514848Y273891D02*
X526552Y273891D01*
X766689Y387848D02*
X772297Y387848D01*
X766689Y387848D02*
X766689Y399552D01*
X772297Y399552D01*
X772297Y387848D01*
X772297Y390242D02*
X766689Y390242D01*
X766689Y392636D02*
X772297Y392636D01*
X772297Y395030D02*
X766689Y395030D01*
X766689Y397424D02*
X772297Y397424D01*
X777103Y387848D02*
X782711Y387848D01*
X777103Y387848D02*
X777103Y399552D01*
X782711Y399552D01*
X782711Y387848D01*
X782711Y390242D02*
X777103Y390242D01*
X777103Y392636D02*
X782711Y392636D01*
X782711Y395030D02*
X777103Y395030D01*
X777103Y397424D02*
X782711Y397424D01*
X772297Y413248D02*
X766689Y413248D01*
X766689Y424952D01*
X772297Y424952D01*
X772297Y413248D01*
X772297Y415642D02*
X766689Y415642D01*
X766689Y418036D02*
X772297Y418036D01*
X772297Y420430D02*
X766689Y420430D01*
X766689Y422824D02*
X772297Y422824D01*
X777103Y413248D02*
X782711Y413248D01*
X777103Y413248D02*
X777103Y424952D01*
X782711Y424952D01*
X782711Y413248D01*
X782711Y415642D02*
X777103Y415642D01*
X777103Y418036D02*
X782711Y418036D01*
X782711Y420430D02*
X777103Y420430D01*
X777103Y422824D02*
X782711Y422824D01*
X772297Y438648D02*
X766689Y438648D01*
X766689Y450352D01*
X772297Y450352D01*
X772297Y438648D01*
X772297Y441042D02*
X766689Y441042D01*
X766689Y443436D02*
X772297Y443436D01*
X772297Y445830D02*
X766689Y445830D01*
X766689Y448224D02*
X772297Y448224D01*
X777103Y438648D02*
X782711Y438648D01*
X777103Y438648D02*
X777103Y450352D01*
X782711Y450352D01*
X782711Y438648D01*
X782711Y441042D02*
X777103Y441042D01*
X777103Y443436D02*
X782711Y443436D01*
X782711Y445830D02*
X777103Y445830D01*
X777103Y448224D02*
X782711Y448224D01*
X772297Y464048D02*
X766689Y464048D01*
X766689Y475752D01*
X772297Y475752D01*
X772297Y464048D01*
X772297Y466442D02*
X766689Y466442D01*
X766689Y468836D02*
X772297Y468836D01*
X772297Y471230D02*
X766689Y471230D01*
X766689Y473624D02*
X772297Y473624D01*
X777103Y464048D02*
X782711Y464048D01*
X777103Y464048D02*
X777103Y475752D01*
X782711Y475752D01*
X782711Y464048D01*
X782711Y466442D02*
X777103Y466442D01*
X777103Y468836D02*
X782711Y468836D01*
X782711Y471230D02*
X777103Y471230D01*
X777103Y473624D02*
X782711Y473624D01*
X772297Y489448D02*
X766689Y489448D01*
X766689Y501152D01*
X772297Y501152D01*
X772297Y489448D01*
X772297Y491842D02*
X766689Y491842D01*
X766689Y494236D02*
X772297Y494236D01*
X772297Y496630D02*
X766689Y496630D01*
X766689Y499024D02*
X772297Y499024D01*
X777103Y489448D02*
X782711Y489448D01*
X777103Y489448D02*
X777103Y501152D01*
X782711Y501152D01*
X782711Y489448D01*
X782711Y491842D02*
X777103Y491842D01*
X777103Y494236D02*
X782711Y494236D01*
X782711Y496630D02*
X777103Y496630D01*
X777103Y499024D02*
X782711Y499024D01*
D10*
X1029000Y598800D03*
X1003600Y598800D03*
X978200Y598800D03*
D17*
X666252Y639689D02*
X666252Y645297D01*
X666252Y639689D02*
X654548Y639689D01*
X654548Y645297D01*
X666252Y645297D01*
X666252Y642083D02*
X654548Y642083D01*
X654548Y644477D02*
X666252Y644477D01*
X666252Y650103D02*
X666252Y655711D01*
X666252Y650103D02*
X654548Y650103D01*
X654548Y655711D01*
X666252Y655711D01*
X666252Y652497D02*
X654548Y652497D01*
X654548Y654891D02*
X666252Y654891D01*
M02*
